<?xml version="1.0" encoding="UTF-8"?>
<svg version="1.1" xmlns="http://www.w3.org/2000/svg" width="464" height="305">
<path d="M0 0 C0 11.88 0 23.76 0 36 C-4.95 36.33 -9.9 36.66 -15 37 C-15.99 37.99 -16.98 38.98 -18 40 C-18.81880646 39.51202438 -19.63761292 39.02404877 -20.48123169 38.52128601 C-24.54693848 36.76353946 -27.95919281 36.59736962 -32.30029297 36.65942383 C-33.11071548 36.65898575 -33.921138 36.65854767 -34.75611877 36.65809631 C-37.41839203 36.66017605 -40.08002509 36.6834682 -42.7421875 36.70703125 C-44.5944891 36.71263011 -46.44679515 36.71689884 -48.29910278 36.71989441 C-53.16207251 36.73132034 -58.02477124 36.76076812 -62.88763428 36.79400635 C-67.85473973 36.82475582 -72.82188919 36.83841016 -77.7890625 36.85351562 C-87.5261604 36.88564 -97.26305762 36.93680908 -107 37 C-107.26264648 37.60835693 -107.52529297 38.21671387 -107.79589844 38.84350586 C-108.1468457 39.64667236 -108.49779297 40.44983887 -108.859375 41.27734375 C-109.37709473 42.46831665 -109.37709473 42.46831665 -109.90527344 43.68334961 C-111.3316888 46.70191681 -113.0554126 49.29146756 -115 52 C-119.39750672 51.49259538 -121.86948922 48.91706686 -125 46 C-125 45.34 -125 44.68 -125 44 C-124.071875 43.2575 -123.14375 42.515 -122.1875 41.75 C-119.02615164 39.18795939 -117.33489944 36.92617483 -116 33 C-116.21643644 28.74341661 -116.62672149 26.55991776 -119 23 C-118.78934781 18.15499962 -117.36003846 15.46185781 -114 12 C-113.34 12 -112.68 12 -112 12 C-110.35 16.62 -108.7 21.24 -107 26 C-101.06 26 -95.12 26 -89 26 C-89.33 24.35 -89.66 22.7 -90 21 C-86.535 18.03 -86.535 18.03 -83 15 C-81.68 18.63 -80.36 22.26 -79 26 C-78.38253906 25.40832031 -77.76507813 24.81664062 -77.12890625 24.20703125 C-64.0238125 11.97959979 -64.0238125 11.97959979 -55.25 11.3125 C-51.65474524 11.5513456 -50.97354023 12.02149856 -48 14.4375 C-45.32911359 18.26485269 -45.11136123 22.4443135 -45 27 C-42.69 27 -40.38 27 -38 27 C-37.95875 26.154375 -37.9175 25.30875 -37.875 24.4375 C-36.71232012 19.86982903 -34.78737072 16.84869048 -31 14 C-27.01655001 12.84075381 -23.87594401 13.55229529 -20.1875 15.4375 C-17.20050541 18.93655081 -16.15642897 22.59992879 -15 27 C-12.69 27 -10.38 27 -8 27 C-8.0314209 26.32420898 -8.0628418 25.64841797 -8.09521484 24.95214844 C-8.22006691 21.88510728 -8.29801004 18.81859998 -8.375 15.75 C-8.42527344 14.68652344 -8.47554688 13.62304688 -8.52734375 12.52734375 C-8.58312474 9.57095132 -8.56896157 6.90295825 -8 4 C-5.31348225 1.4655493 -3.75717958 0 0 0 Z M-68 26 C-68 26.33 -68 26.66 -68 27 C-62.72 27 -57.44 27 -52 27 C-52.99 25.35 -53.98 23.7 -55 22 C-60.60912143 21.04750768 -63.64548888 22.49514959 -68 26 Z M-30 25 C-30 25.66 -30 26.32 -30 27 C-27.36 27.33 -24.72 27.66 -22 28 C-23.3553326 25.46326712 -23.3553326 25.46326712 -25 23 C-27.32357511 22.81509993 -27.32357511 22.81509993 -30 25 Z " fill="#026666" transform="translate(163,195)"/>
<path d="M0 0 C0.99 0 1.98 0 3 0 C3.05096602 7.36487858 3.08584484 14.72971119 3.10986328 22.09472656 C3.11988281 24.5970225 3.13350213 27.09930684 3.15087891 29.6015625 C3.17530561 33.21096673 3.18652394 36.82021531 3.1953125 40.4296875 C3.20563507 41.53738495 3.21595764 42.6450824 3.22659302 43.78634644 C3.22923108 62.30357659 3.22923108 62.30357659 -3 69 C-8.38531029 72.37404257 -13.8811392 74.34421971 -20 76 C-17.08180761 75.38153536 -14.16558978 74.75551865 -11.25 74.125 C-10.0125 73.86396484 -10.0125 73.86396484 -8.75 73.59765625 C-7.55117188 73.33662109 -7.55117188 73.33662109 -6.328125 73.0703125 C-5.5949707 72.91320801 -4.86181641 72.75610352 -4.10644531 72.59423828 C-1.86804589 71.96277512 -0.00254484 71.18242906 2 70 C3.35834353 67.28331295 3.15480355 65.11049706 3.18945312 62.0690918 C3.21452942 60.20156502 3.21452942 60.20156502 3.2401123 58.29631042 C3.24679428 57.62895559 3.25347626 56.96160076 3.26036072 56.27402306 C3.28139617 54.18470102 3.30842121 52.09553296 3.33703613 50.00630188 C3.39675192 45.56676072 3.44885254 41.12714702 3.5 36.6875 C3.5593071 31.55292172 3.62174489 26.41841832 3.69187927 21.2839756 C3.71835947 19.22951795 3.73923529 17.17505247 3.7598877 15.12052917 C3.78496399 13.23881767 3.78496399 13.23881767 3.81054688 11.3190918 C3.82307495 10.21703903 3.83560303 9.11498627 3.84851074 7.97953796 C3.98904771 5.21541296 4.37579741 2.69170783 5 0 C5.99 0.33 6.98 0.66 8 1 C8.0464976 9.84102855 8.08195729 18.6820145 8.10362434 27.523139 C8.11402745 31.62915833 8.12812263 35.73509353 8.15087891 39.84106445 C8.1727319 43.80923341 8.1845947 47.77732182 8.18975449 51.74554634 C8.19342801 53.25368071 8.20060103 54.76181106 8.21146011 56.26991081 C8.35761641 77.42401713 8.35761641 77.42401713 2.76171875 84.3828125 C-4.45303478 91.00566829 -14.7530314 93.34937755 -23.96899414 95.82055664 C-31.17328206 97.8074353 -35.76070905 100.56666124 -41 106 C-41.33 106 -41.66 106 -42 106 C-42.34613739 99.25673091 -41.84619088 93.85199975 -39.65234375 87.47265625 C-38.94591407 84.79499167 -38.93198089 82.63274256 -39.0625 79.875 C-39.22089597 74.83800821 -38.06977628 71.02853162 -35 67 C-31.51577879 63.77409174 -28.48267317 62.2385347 -23.9375 60.9375 C-22.23787109 60.44443359 -22.23787109 60.44443359 -20.50390625 59.94140625 C-16.1754803 58.77847353 -11.83078267 57.70674672 -7.4609375 56.7109375 C-4.7779086 56.07003674 -4.7779086 56.07003674 -2 54 C-1.53017268 51.6693406 -1.53017268 51.6693406 -1.58349609 48.92358398 C-1.56692963 47.86586288 -1.55036316 46.80814178 -1.53329468 45.71836853 C-1.53004181 44.57251785 -1.52678894 43.42666718 -1.5234375 42.24609375 C-1.50006821 40.48931053 -1.50006821 40.48931053 -1.47622681 38.69703674 C-1.42855269 34.94386477 -1.40089034 31.19088028 -1.375 27.4375 C-1.33857953 23.68068086 -1.29801634 19.92396963 -1.25234985 16.16725159 C-1.22500609 13.82579324 -1.20370637 11.48425557 -1.18881226 9.14268494 C-1.17341904 7.56083153 -1.17341904 7.56083153 -1.15771484 5.94702148 C-1.15121918 5.0137352 -1.14472351 4.08044891 -1.13803101 3.11888123 C-1 1 -1 1 0 0 Z " fill="#AE8A30" transform="translate(276,17)"/>
<path d="M0 0 C0.99 0 1.98 0 3 0 C3.00142502 0.82827805 3.00285004 1.65655609 3.00431824 2.50993347 C3.02216171 10.32292962 3.06381464 18.13536018 3.13209057 25.94808483 C3.16635437 29.96457038 3.1914695 33.98067584 3.19555664 37.99731445 C3.19984107 41.87505773 3.22831405 45.75194369 3.27343178 49.62941933 C3.28640246 51.10730301 3.29071592 52.58528932 3.28615379 54.06322289 C3.28124394 56.13707947 3.30734807 58.20843389 3.34057617 60.28198242 C3.34723801 61.46112717 3.35389984 62.64027191 3.36076355 63.85514832 C4.18919528 67.93078404 5.81238849 69.41298491 9 72 C12.05084564 73.20670742 12.05084564 73.20670742 15.39453125 73.80078125 C16.59658203 74.05537109 17.79863281 74.30996094 19.03710938 74.57226562 C20.90592773 74.93868164 20.90592773 74.93868164 22.8125 75.3125 C24.71032227 75.70791992 24.71032227 75.70791992 26.64648438 76.11132812 C29.76126773 76.75779259 32.87855931 77.38663865 36 78 C35.40050537 77.84966309 34.80101074 77.69932617 34.18334961 77.54443359 C31.42913198 76.8414665 28.6837252 76.10854321 25.9375 75.375 C24.99455078 75.13910156 24.05160156 74.90320313 23.08007812 74.66015625 C15.53080675 72.6084379 10.3527388 70.01974954 6.33056641 63.14770508 C4.06658876 57.5086036 4.63332315 51.38161506 4.70703125 45.41015625 C4.71127609 44.11049423 4.71552094 42.81083221 4.71989441 41.4717865 C4.73128051 38.03740741 4.7606925 34.60341649 4.79400635 31.16918945 C4.82484292 27.65646616 4.83842859 24.14367937 4.85351562 20.63085938 C4.88556937 13.75374805 4.93668885 6.87689273 5 0 C5.99 0 6.98 0 8 0 C8.00586624 0.6573262 8.01173248 1.3146524 8.01777649 1.99189758 C8.08161303 8.82130098 8.16600729 15.65022887 8.26245117 22.47924805 C8.2957461 25.02931456 8.32376363 27.57945559 8.34643555 30.12963867 C8.379897 33.79117649 8.43220981 37.45202864 8.48828125 41.11328125 C8.49467117 42.2571077 8.5010611 43.40093414 8.50764465 44.579422 C8.53733589 46.17073189 8.53733589 46.17073189 8.56762695 47.79418945 C8.57873001 48.72906693 8.58983307 49.6639444 8.60127258 50.62715149 C9.07176302 53.42706562 9.76562561 54.30399814 12 56 C14.1689729 56.78016451 14.1689729 56.78016451 16.60546875 57.2109375 C17.50716797 57.40429688 18.40886719 57.59765625 19.33789062 57.796875 C21.21735239 58.17817773 23.09755196 58.55586407 24.97851562 58.9296875 C32.34049254 60.51807713 38.00718533 63.00718533 43.375 68.375 C46.69477046 73.73770613 47.23869587 78.79390751 47 85 C46.80674443 87.95322149 46.80674443 87.95322149 47.9609375 90.29296875 C49.14377881 93.37458163 49.40827836 96.02555509 49.625 99.3125 C49.69976562 100.38113281 49.77453125 101.44976562 49.8515625 102.55078125 C49.90054688 103.35902344 49.94953125 104.16726562 50 105 C49.01 105.495 49.01 105.495 48 106 C47.38125 105.278125 46.7625 104.55625 46.125 103.8125 C39.94744917 97.77109354 32.01609175 95.62271798 23.875 93.5 C14.49263192 91.03796695 7.67320373 88.17608773 2 80 C0.1067117 75.389116 -0.24399473 71.49045537 -0.22705078 66.52587891 C-0.22734283 65.80323853 -0.22763489 65.08059814 -0.22793579 64.33605957 C-0.22655116 61.96610172 -0.21103127 59.5964649 -0.1953125 57.2265625 C-0.19157928 55.57604138 -0.18873377 53.92551803 -0.18673706 52.2749939 C-0.17912492 47.94474091 -0.15949736 43.6146235 -0.1373291 39.28442383 C-0.11681841 34.86020745 -0.1077242 30.43596903 -0.09765625 26.01171875 C-0.07624905 17.34108384 -0.04214251 8.67055881 0 0 Z " fill="#AE8A30" transform="translate(180,17)"/>
<path d="M0 0 C0 8.91 0 17.82 0 27 C3.63 27 7.26 27 11 27 C10.46375 26.0925 9.9275 25.185 9.375 24.25 C8 21 8 21 8.5625 18.875 C10.23310723 16.69594709 11.93189867 14.80958866 14 13 C14.66 13 15.32 13 16 13 C16.67260351 14.76858691 17.33788395 16.53996016 18 18.3125 C18.37125 19.29863281 18.7425 20.28476563 19.125 21.30078125 C20 24 20 24 20 27 C22.97 27 25.94 27 29 27 C28.484375 26.2575 27.96875 25.515 27.4375 24.75 C26 22 26 22 26.0625 20 C27.35015835 17.25299552 28.91969987 15.20267073 31 13 C31.99 13 32.98 13 34 13 C34.67260351 14.76858691 35.33788395 16.53996016 36 18.3125 C36.37125 19.29863281 36.7425 20.28476563 37.125 21.30078125 C38 24 38 24 38 27 C39.98 27 41.96 27 44 27 C44 19.41 44 11.82 44 4 C51 0 51 0 53 0 C53 11.88 53 23.76 53 36 C41.22144677 36.11295122 29.44325309 36.20468773 17.66428089 36.25906086 C12.19484655 36.28515697 6.72580187 36.32055588 1.2565918 36.37719727 C-4.02132816 36.43151563 -9.29887327 36.46142043 -14.57705116 36.47438622 C-16.59093439 36.48362635 -18.60479705 36.5016703 -20.61852074 36.52865028 C-23.43908424 36.56493813 -26.25809813 36.56994545 -29.07885742 36.56762695 C-30.32826866 36.59459152 -30.32826866 36.59459152 -31.60292053 36.62210083 C-35.91325621 36.58375265 -37.51384922 36.38357507 -41.01826477 33.61857605 C-43.75469936 30.00277411 -43.65637378 27.81741825 -43.421875 23.43359375 C-42.41016776 17.59754178 -38.60908912 14.32878658 -34 11 C-32.8125 13.6875 -32.8125 13.6875 -32 17 C-33.4375 19.625 -33.4375 19.625 -35 22 C-34.67 23.32 -34.34 24.64 -34 26 C-25.75 26.33 -17.5 26.66 -9 27 C-9 19.41 -9 11.82 -9 4 C-2 0 -2 0 0 0 Z " fill="#026666" transform="translate(392,195)"/>
<path d="M0 0 C0.99 0 1.98 0 3 0 C3.09300106 11.65760893 3.16391724 23.31512845 3.20724869 34.97303391 C3.22805385 40.38726734 3.25624147 45.80124548 3.30175781 51.21533203 C3.34546877 56.44788342 3.36919019 61.68019047 3.37950897 66.91291046 C3.38685524 68.9014495 3.4011999 70.88997636 3.42292023 72.87841034 C3.69197971 98.5492076 3.69197971 98.5492076 -5.14453125 108.5 C-12.24291312 114.23848135 -20.34142853 115.95895562 -29.01953125 118.1796875 C-38.73356732 120.82562923 -45.9773325 124.84025693 -52 133 C-52.66 132.67 -53.32 132.34 -54 132 C-54.53129621 121.37407582 -52.7965048 111.61503141 -45.64453125 103.453125 C-39.4291063 97.25304677 -30.92142231 95.86798061 -22.625 94.0078125 C-21.87847168 93.83910645 -21.13194336 93.67040039 -20.36279297 93.49658203 C-18.9115415 93.1745391 -17.45747467 92.86483801 -16.00048828 92.56982422 C-10.92101281 91.47041767 -5.77857104 89.77857104 -2 86 C-1.75974617 83.35265989 -1.59360485 80.73219741 -1.47265625 78.078125 C-1.41066795 76.77370453 -1.41066795 76.77370453 -1.34742737 75.44293213 C-0.75103735 61.64885928 -0.64810681 47.83606126 -0.46777344 34.03161621 C-0.41670174 30.18249859 -0.36147225 26.33344057 -0.30664062 22.484375 C-0.20046355 14.98963439 -0.09873313 7.49484277 0 0 Z " fill="#AE8A30" transform="translate(286,17)"/>
<path d="M0 0 C0.99 0 1.98 0 3 0 C3.00364563 1.05600403 3.00729126 2.11200806 3.01104736 3.20001221 C3.04797276 13.14706454 3.10571842 23.09380658 3.18390274 33.04062271 C3.22342868 38.15453636 3.25559203 43.2682765 3.27099609 48.38232422 C3.286129 53.31678592 3.3205145 58.25077076 3.36830902 63.18502045 C3.38315762 65.06844694 3.391043 66.9519415 3.39188385 68.83542633 C3.39424484 71.47185739 3.42125323 74.10696125 3.45410156 76.74316406 C3.4490712 77.52359573 3.44404083 78.3040274 3.43885803 79.10810852 C3.5069366 82.63466701 3.70145668 84.61268724 5.88519287 87.44573975 C11.8200485 91.80751349 19.67029743 92.97335051 26.76806641 94.3972168 C36.83573121 96.4380724 45.23691725 98.66918415 51.5 107.4375 C56.40341404 115.80377706 56.23699939 123.50685776 56 133 C52.56585028 131.85528343 52.14460739 131.06852705 50.0625 128.25 C44.51562446 121.79587152 37.11562734 119.95488853 29.2109375 117.50390625 C28.37208008 117.24367676 27.53322266 116.98344727 26.66894531 116.71533203 C25.00806505 116.20750434 23.34341305 115.71180859 21.67480469 115.22998047 C15.39885906 113.35708836 10.18426783 110.79528948 5.8125 105.75 C5.34457031 105.22921875 4.87664062 104.7084375 4.39453125 104.171875 C0.29783628 97.79158815 -0.43416702 91.84031359 -0.34057617 84.46289062 C-0.34101425 83.54488678 -0.34145233 82.62688293 -0.34190369 81.68106079 C-0.33982793 78.67256769 -0.31655437 75.66464472 -0.29296875 72.65625 C-0.28736848 70.56018376 -0.28310042 68.46411357 -0.28010559 66.36804199 C-0.26869079 60.87053448 -0.23925259 55.37326746 -0.20599365 49.87585449 C-0.17522012 44.25841525 -0.16158471 38.64093687 -0.14648438 33.0234375 C-0.11437965 22.01551976 -0.0632241 11.00777993 0 0 Z " fill="#AE8A30" transform="translate(175,17)"/>
<path d="M0 0 C1.93299299 0.97164657 3.82080949 2.03209203 5.69921875 3.10546875 C5.03921875 5.74546875 4.37921875 8.38546875 3.69921875 11.10546875 C2.62671875 10.58984375 1.55421875 10.07421875 0.44921875 9.54296875 C-2.01555737 8.47306593 -3.02210428 8.06974093 -5.73828125 8.41796875 C-6.51171875 8.75828125 -6.51171875 8.75828125 -7.30078125 9.10546875 C-7.30078125 10.42546875 -7.30078125 11.74546875 -7.30078125 13.10546875 C-4.5989507 14.45638403 -2.18269919 14.44404933 0.82421875 14.66796875 C2.46777344 14.79365234 2.46777344 14.79365234 4.14453125 14.921875 C4.98757813 14.98246094 5.830625 15.04304687 6.69921875 15.10546875 C6.69921875 18.07546875 6.69921875 21.04546875 6.69921875 24.10546875 C-7.16078125 24.10546875 -21.02078125 24.10546875 -35.30078125 24.10546875 C-35.96078125 25.75546875 -36.62078125 27.40546875 -37.30078125 29.10546875 C-40.67469208 32.82710855 -44.17111036 34.93202426 -49.2265625 35.34375 C-58.35900001 35.54388416 -58.35900001 35.54388416 -62.92578125 33.41796875 C-66.85965355 29.5876194 -68.47335934 26.92382662 -68.80078125 21.41796875 C-68.65921121 15.53396416 -66.26420407 11.07978562 -63.30078125 6.10546875 C-61.98078125 6.10546875 -60.66078125 6.10546875 -59.30078125 6.10546875 C-58.31078125 7.59046875 -58.31078125 7.59046875 -57.30078125 9.10546875 C-58.05113801 10.83455172 -58.80654575 12.56211655 -59.61328125 14.265625 C-60.70650379 17.1912376 -60.29063104 19.20190937 -59.30078125 22.10546875 C-57.84036359 24.22217232 -57.84036359 24.22217232 -55.30078125 25.10546875 C-52.441957 25.13943498 -50.14613804 24.70207582 -47.30078125 24.10546875 C-46.64078125 23.44546875 -45.98078125 22.78546875 -45.30078125 22.10546875 C-45.96078125 21.65171875 -46.62078125 21.19796875 -47.30078125 20.73046875 C-50.31588245 16.77314842 -49.63123642 12.9154273 -49.30078125 8.10546875 C-47.33040245 9.07004295 -45.39902969 10.04717396 -43.51171875 11.16699219 C-38.03563808 14.2924361 -33.51880547 14.60380766 -27.30078125 14.35546875 C-26.43066406 14.33742187 -25.56054688 14.319375 -24.6640625 14.30078125 C-22.54248218 14.25415311 -20.4214779 14.18242952 -18.30078125 14.10546875 C-18.32760986 13.49058594 -18.35443848 12.87570313 -18.38208008 12.2421875 C-18.40294678 11.43394531 -18.42381348 10.62570313 -18.4453125 9.79296875 C-18.47214111 8.99246094 -18.49896973 8.19195312 -18.52661133 7.3671875 C-18.30078125 5.10546875 -18.30078125 5.10546875 -15.98828125 2.10546875 C-11.16710308 -1.48238477 -5.59539787 -2.17546029 0 0 Z " fill="#026666" transform="translate(255.30078125,206.89453125)"/>
<path d="M0 0 C0.99 0 1.98 0 3 0 C3.01981934 1.16571533 3.03963867 2.33143066 3.06005859 3.5324707 C3.13608959 7.85446905 3.22481076 12.17612962 3.31738281 16.49780273 C3.35568294 18.36882868 3.390534 20.23992853 3.421875 22.11108398 C3.46750324 24.79958519 3.52550088 27.48757723 3.5859375 30.17578125 C3.59748871 31.01337479 3.60903992 31.85096832 3.62094116 32.71394348 C3.72046457 36.62373037 3.7847302 38.6770953 6 42 C7.91018313 42.77588387 7.91018313 42.77588387 10.1328125 43.16796875 C11.34130859 43.42416992 11.34130859 43.42416992 12.57421875 43.68554688 C13.41597656 43.85119141 14.25773438 44.01683594 15.125 44.1875 C15.97449219 44.36474609 16.82398438 44.54199219 17.69921875 44.72460938 C19.79722819 45.16071246 21.89835009 45.5817929 24 46 C23.19175781 45.76925781 22.38351563 45.53851563 21.55078125 45.30078125 C10.63650138 41.96988522 10.63650138 41.96988522 7 37 C4.86806783 32.77052166 4.76721845 29.21408417 4.8046875 24.51171875 C4.8075174 23.80852005 4.81034729 23.10532135 4.81326294 22.3808136 C4.82439849 20.14953108 4.84949003 17.91865983 4.875 15.6875 C4.8850384 14.16862562 4.89416274 12.6497449 4.90234375 11.13085938 C4.92431587 7.42044079 4.95879953 3.71026058 5 0 C5.99 0 6.98 0 8 0 C8.33 9.24 8.66 18.48 9 28 C13.43503763 29.90073041 16.65597663 31.25631602 21.125 32.3125 C26.25047067 33.81586754 28.19900477 35.44838274 31 40 C32.92520932 44.90053282 32.90446885 47.91236269 32 53 C32.66110537 54.33609951 33.32843591 55.66912664 34 57 C34.4140625 59.359375 34.4140625 59.359375 34.625 61.75 C34.69976562 62.54921875 34.77453125 63.3484375 34.8515625 64.171875 C34.90054688 64.77515625 34.94953125 65.3784375 35 66 C34.01 66 33.02 66 32 66 C31.2575 65.2575 30.515 64.515 29.75 63.75 C26.45437321 60.80302894 22.76224123 59.94815201 18.5625 58.9375 C6.19906077 55.93208103 6.19906077 55.93208103 2.125 50.5 C0.44448859 46.7655302 -0.12526336 43.59164985 -0.11352539 39.50683594 C-0.11341209 38.18591949 -0.11341209 38.18591949 -0.11329651 36.83831787 C-0.10813522 35.89651672 -0.10297394 34.95471558 -0.09765625 33.984375 C-0.0962413 33.01340881 -0.09482635 32.04244263 -0.09336853 31.04205322 C-0.08777663 27.94467065 -0.07522559 24.84736068 -0.0625 21.75 C-0.05748395 19.64843854 -0.05292123 17.54687596 -0.04882812 15.4453125 C-0.03780985 10.29684708 -0.02055074 5.14843584 0 0 Z " fill="#AE8A30" transform="translate(190,17)"/>
<path d="M0 0 C4.65401326 2.19891452 8.7426146 5.12000399 13 8 C16.3 5.36 19.6 2.72 23 0 C26.9132706 1.56530824 29.13199262 2.64528238 32.3125 5.125 C33.00988281 5.66382813 33.70726562 6.20265625 34.42578125 6.7578125 C35.20501953 7.37269531 35.20501953 7.37269531 36 8 C36.51949219 7.59007812 37.03898437 7.18015625 37.57421875 6.7578125 C38.27160156 6.21898437 38.96898437 5.68015625 39.6875 5.125 C40.37199219 4.59132812 41.05648437 4.05765625 41.76171875 3.5078125 C44 2 44 2 49 0 C53.95 3.96 53.95 3.96 59 8 C60.44375 7.05125 61.8875 6.1025 63.375 5.125 C64.18710938 4.59132812 64.99921875 4.05765625 65.8359375 3.5078125 C68.07594096 2.04134945 68.07594096 2.04134945 70 0 C73.68459902 0.30704992 75.94559179 2.29422866 78.75 4.5625 C79.54921875 5.20316406 80.3484375 5.84382812 81.171875 6.50390625 C81.77515625 6.99761719 82.3784375 7.49132812 83 8 C83.76183594 7.36771484 83.76183594 7.36771484 84.5390625 6.72265625 C92.32836774 0.52330283 92.32836774 0.52330283 97 1 C100.24098041 3.07166458 103.13119308 5.44357428 106 8 C108.99678043 6.32532858 111.53891868 4.55525622 114.0625 2.25 C117 0 117 0 118.85546875 0.125 C121.69023199 1.28162471 123.83432558 2.87114212 126.25 4.75 C127.14203125 5.42546875 128.0340625 6.1009375 128.953125 6.796875 C131 9 131 9 131.296875 11.765625 C131.14992188 12.87164062 131.14992188 12.87164062 131 14 C126.52985596 11.49671934 122.23053463 8.8891456 118 6 C114.7 8.64 111.4 11.28 108 14 C103.96544911 12.38617965 102.20318936 11.59503354 99.1875 8.875 C98.58292969 8.33617187 97.97835937 7.79734375 97.35546875 7.2421875 C96.90816406 6.83226562 96.46085937 6.42234375 96 6 C92.96147295 7.40976705 90.4060405 9.08870228 87.75 11.125 C87.04359375 11.66382813 86.3371875 12.20265625 85.609375 12.7578125 C85.07828125 13.16773438 84.5471875 13.57765625 84 14 C80.89257577 12.53181332 78.09528261 10.79975 75.25 8.875 C74.45078125 8.33617187 73.6515625 7.79734375 72.828125 7.2421875 C72.22484375 6.83226562 71.6215625 6.42234375 71 6 C70.40832031 6.5053125 69.81664062 7.010625 69.20703125 7.53125 C68.02173828 8.50578125 68.02173828 8.50578125 66.8125 9.5 C66.03519531 10.1496875 65.25789063 10.799375 64.45703125 11.46875 C61.5838304 13.25936166 60.32067282 13.58111774 57 13 C54.54296875 11.46875 54.54296875 11.46875 52.1875 9.5 C51.39730469 8.8503125 50.60710937 8.200625 49.79296875 7.53125 C49.20128906 7.0259375 48.60960937 6.520625 48 6 C47.48050781 6.40992188 46.96101563 6.81984375 46.42578125 7.2421875 C45.72839844 7.78101563 45.03101563 8.31984375 44.3125 8.875 C43.62800781 9.40867188 42.94351563 9.94234375 42.23828125 10.4921875 C40 12 40 12 35 14 C31.7 11.36 28.4 8.72 25 6 C23.5975 6.94875 22.195 7.8975 20.75 8.875 C17.86031651 10.82978589 15.13996631 12.43001685 12 14 C8.37 11.36 4.74 8.72 1 6 C-0.85625 7.423125 -0.85625 7.423125 -2.75 8.875 C-5.4060405 10.91129772 -7.96147295 12.59023295 -11 14 C-11.8125 12.3125 -11.8125 12.3125 -12 10 C-8.60648657 5.86415551 -4.37673337 3.00364055 0 0 Z " fill="#AE8A30" transform="translate(172,164)"/>
<path d="M0 0 C3.30279693 1.27154988 5.1839388 3.27199712 7.6484375 5.7421875 C9.31592883 7.12787128 9.31592883 7.12787128 11.359375 6.796875 C14.49281153 5.44967772 16.81080564 3.29167366 19.39453125 1.1015625 C21.39453125 -0.078125 21.39453125 -0.078125 23.3984375 0.04296875 C25.75694189 1.08144916 27.38574302 2.42516122 29.33203125 4.109375 C32.30954736 6.57593129 32.30954736 6.57593129 36.01953125 6.609375 C37.9602351 5.23045384 39.6313033 3.81859504 41.39453125 2.234375 C44.39453125 -0.078125 44.39453125 -0.078125 46.83203125 -0.265625 C50.02279638 1.21302226 52.17666141 3.26470292 54.6484375 5.7421875 C56.31592883 7.12787128 56.31592883 7.12787128 58.359375 6.796875 C61.49281153 5.44967772 63.81080564 3.29167366 66.39453125 1.1015625 C68.39453125 -0.078125 68.39453125 -0.078125 70.39453125 0.046875 C73.50369793 1.40713542 75.82321316 3.56259365 78.39453125 5.7421875 C80.29643158 7.1152083 80.29643158 7.1152083 82.3984375 6.80078125 C84.75694189 5.76230084 86.38574302 4.41858878 88.33203125 2.734375 C92.04391545 -0.11986498 92.04391545 -0.11986498 95.01953125 0.234375 C96.96338182 1.61553198 98.67547553 3.03663005 100.45703125 4.609375 C103.02765374 7.17333125 103.02765374 7.17333125 105.328125 6.76171875 C108.50237134 5.47161863 110.80118616 3.29982767 113.39453125 1.1015625 C115.39453125 -0.078125 115.39453125 -0.078125 117.31640625 0.00390625 C120.09433329 1.23099808 122.26010296 2.85541762 124.64453125 4.734375 C125.98257813 5.76498047 125.98257813 5.76498047 127.34765625 6.81640625 C129.39453125 8.921875 129.39453125 8.921875 129.39453125 12.921875 C125.95502761 12.30989124 123.8788864 11.00128653 121.14453125 8.859375 C120.438125 8.31152344 119.73171875 7.76367188 119.00390625 7.19921875 C118.4728125 6.77769531 117.94171875 6.35617188 117.39453125 5.921875 C114.62648304 7.50361683 112.27310925 9.0311548 109.89453125 11.171875 C107.39453125 12.921875 107.39453125 12.921875 105.08203125 13.046875 C101.0267783 11.34932725 97.7917763 8.67844853 94.39453125 5.921875 C91.60961856 7.21987588 89.34409174 8.68539322 86.95703125 10.609375 C83.74655897 12.89479594 83.74655897 12.89479594 80.95703125 13.109375 C77.01825994 11.28409073 73.75364482 8.6475081 70.39453125 5.921875 C65.71011852 8.31982691 65.71011852 8.31982691 61.83203125 11.734375 C60.39453125 12.921875 60.39453125 12.921875 57.64453125 12.984375 C53.31240099 11.56810164 50.63079802 9.05281948 47.39453125 5.921875 C44.09335848 6.98990148 41.89852411 8.27404487 39.39453125 10.609375 C36.39453125 12.921875 36.39453125 12.921875 34.01953125 13.109375 C30.03931078 11.30879907 26.77390536 8.66394779 23.39453125 5.921875 C20.60961856 7.21987588 18.34409174 8.68539322 15.95703125 10.609375 C13.67038913 12.24061014 12.7397104 12.89598656 9.89453125 13.109375 C6.18529855 11.34748947 3.36673377 8.72276902 0.39453125 5.921875 C-2.87748024 6.98046695 -5.18019757 8.29626068 -7.73046875 10.546875 C-10.60546875 12.921875 -10.60546875 12.921875 -13.60546875 12.921875 C-13.30023803 9.57607668 -12.81487943 8.14757318 -10.49609375 5.6484375 C-9.18898437 4.60816406 -9.18898437 4.60816406 -7.85546875 3.546875 C-6.994375 2.83789062 -6.13328125 2.12890625 -5.24609375 1.3984375 C-2.60546875 -0.078125 -2.60546875 -0.078125 0 0 Z " fill="#AE8A30" transform="translate(173.60546875,155.078125)"/>
<path d="M0 0 C1 1 1 1 1.09765625 3.06640625 C1.08605469 3.89011719 1.07445312 4.71382812 1.0625 5.5625 C1.05347656 6.38878906 1.04445312 7.21507812 1.03515625 8.06640625 C1.02355469 8.70449219 1.01195312 9.34257812 1 10 C0.01 9.34 -0.98 8.68 -2 8 C-5.12521833 7.83300768 -5.12521833 7.83300768 -8 8 C-8 8.66 -8 9.32 -8 10 C-7.278125 10.0825 -6.55625 10.165 -5.8125 10.25 C-2.22618814 11.20634983 -0.48916814 12.2263555 2 15 C2.69511198 19.78854919 2.5348633 21.9302734 0.375 26.25 C-3.2553726 30.45358932 -7.33965792 33.55960381 -12.98046875 34.23828125 C-18.79486493 34.43380962 -23.30599698 33.59202488 -28 30 C-31.32955918 26.29527922 -32.72386532 22.23551159 -32.45703125 17.1953125 C-31.54109438 12.79568413 -29.67304563 8.6086116 -27 5 C-24.828125 4.21484375 -24.828125 4.21484375 -23 4 C-21.875 5.75 -21.875 5.75 -21 8 C-21.64808564 9.34246312 -22.31822584 10.67432801 -23 12 C-23.53709439 16.73606151 -23.53709439 16.73606151 -21.625 20.875 C-18.31488328 23.16661927 -16.01529725 23.32122378 -12 23 C-9.65738392 21.62073227 -9.65738392 21.62073227 -8 20 C-8.63808594 19.76925781 -9.27617187 19.53851563 -9.93359375 19.30078125 C-16.64838934 16.65047971 -16.64838934 16.65047971 -18.25 13.6875 C-17.65945118 7.33910019 -14.77609844 3.05968367 -10 -1 C-6.04519588 -2.31826804 -3.88608399 -1.29536133 0 0 Z " fill="#026666" transform="translate(37,206)"/>
<path d="M0 0 C0 11.88 0 23.76 0 36 C-5.28 36 -10.56 36 -16 36 C-16.33 37.98 -16.66 39.96 -17 42 C-18.05078125 44.265625 -18.05078125 44.265625 -19.3125 46.25 C-19.72113281 46.91515625 -20.12976563 47.5803125 -20.55078125 48.265625 C-22 50 -22 50 -26 52 C-28.31 50.02 -30.62 48.04 -33 46 C-31.7589311 42.2767933 -29.75859975 40.75859975 -27 38 C-24.53041334 34.87185689 -23.97853068 33.59040643 -24.125 29.5625 C-24.99652869 26.01413317 -26.21726765 23.17791418 -28 20 C-26.02 17.36 -24.04 14.72 -22 12 C-19.33986587 14.66013413 -18.511763 15.63159512 -17.3125 18.9375 C-17.06113281 19.60652344 -16.80976563 20.27554688 -16.55078125 20.96484375 C-16 23 -16 23 -16 27 C-13.69 27 -11.38 27 -9 27 C-9.03665771 26.35973877 -9.07331543 25.71947754 -9.11108398 25.05981445 C-9.25704582 22.14453695 -9.34775812 19.23002695 -9.4375 16.3125 C-9.49615234 15.30509766 -9.55480469 14.29769531 -9.61523438 13.25976562 C-9.78431191 5.94112387 -9.78431191 5.94112387 -7.48095703 3.17724609 C-5.01116281 1.3618801 -3.11531893 0 0 0 Z " fill="#026666" transform="translate(325,195)"/>
<path d="M0 0 C0.66 0 1.32 0 2 0 C2.07622102 6.44116617 2.12867158 12.8822155 2.16479492 19.32373047 C2.17985806 21.51387885 2.20031259 23.70399719 2.22631836 25.89404297 C2.26280989 29.04662503 2.27975139 32.19880737 2.29296875 35.3515625 C2.30845261 36.32678864 2.32393646 37.30201477 2.33988953 38.30679321 C2.34120158 43.63681857 2.03487271 47.41430868 -1 52 C-6.35733164 57.11381657 -12.44518002 58.42963215 -19.4765625 60.10546875 C-25.26627742 61.31489901 -25.26627742 61.31489901 -29.3125 65.125 C-29.539375 65.74375 -29.76625 66.3625 -30 67 C-30.66 67 -31.32 67 -32 67 C-32.30742993 61.15883137 -31.96207376 57.23299698 -29 52 C-24.4334707 47.45422765 -20.6268863 45.96564456 -14.375 44.75 C-13.62476563 44.59015625 -12.87453125 44.4303125 -12.1015625 44.265625 C-10.06989232 43.83335475 -8.03506689 43.41598562 -6 43 C-4.66512612 42.67289053 -3.33132854 42.34125241 -2 42 C-1.97494385 40.7632251 -1.9498877 39.5264502 -1.92407227 38.25219727 C-1.83017747 33.68063287 -1.72991371 29.10922682 -1.62768555 24.5378418 C-1.58426856 22.55610854 -1.54259863 20.57433622 -1.50268555 18.5925293 C-1.44514617 15.7503683 -1.38140555 12.90840517 -1.31640625 10.06640625 C-1.29969376 9.17474258 -1.28298126 8.28307892 -1.26576233 7.36439514 C-1.11387171 1.11387171 -1.11387171 1.11387171 0 0 Z " fill="#AE8A30" transform="translate(271,17)"/>
<path d="M0 0 C1.79001553 3.40102951 1.05265437 5.69616748 0.25 9.375 C-0.0273501 12.55990007 -0.0273501 12.55990007 2.25 15.375 C1.92679558 21.40814917 1.92679558 21.40814917 -0.0625 24.25 C-5.53356693 27.89737795 -12.55646707 26.375 -18.75 26.375 C-18.75 17.135 -18.75 7.895 -18.75 -1.625 C-12.37032515 -2.90093497 -5.77700362 -3.41368395 0 0 Z M-11.75 3.375 C-11.75 5.025 -11.75 6.675 -11.75 8.375 C-10.1 8.045 -8.45 7.715 -6.75 7.375 C-6.75 6.385 -6.75 5.395 -6.75 4.375 C-8.4 4.045 -10.05 3.715 -11.75 3.375 Z M-11.75 14.375 C-11.75 16.355 -11.75 18.335 -11.75 20.375 C-10.1 20.375 -8.45 20.375 -6.75 20.375 C-6.36781233 18.71885343 -6.03604898 17.05042976 -5.75 15.375 C-6.81645115 14.07866379 -6.81645115 14.07866379 -9.3125 14.3125 C-10.116875 14.333125 -10.92125 14.35375 -11.75 14.375 Z " fill="#026666" transform="translate(239.75,262.625)"/>
<path d="M0 0 C1.38294718 0.01329757 2.76582404 0.03715018 4.1484375 0.0703125 C4.85484375 0.07933594 5.56125 0.08835937 6.2890625 0.09765625 C8.03399848 0.12123647 9.77876045 0.15710789 11.5234375 0.1953125 C11.58155523 3.94524729 11.61707343 7.69506602 11.6484375 11.4453125 C11.66519531 12.50878906 11.68195312 13.57226562 11.69921875 14.66796875 C11.70566406 15.69277344 11.71210937 16.71757812 11.71875 17.7734375 C11.72922363 18.71606445 11.73969727 19.65869141 11.75048828 20.62988281 C11.51157511 23.32934471 10.96489784 24.91832956 9.5234375 27.1953125 C6.50811739 29.26426591 4.00139326 29.44196551 0.3984375 29.3828125 C-0.47039063 29.37636719 -1.33921875 29.36992187 -2.234375 29.36328125 C-4.4765625 29.1953125 -4.4765625 29.1953125 -6.4765625 28.1953125 C-6.1465625 26.2153125 -5.8165625 24.2353125 -5.4765625 22.1953125 C-4.1771875 22.2159375 -2.8778125 22.2365625 -1.5390625 22.2578125 C-0.18490617 22.27930704 1.17099833 22.26679449 2.5234375 22.1953125 C2.8534375 21.8653125 3.1834375 21.5353125 3.5234375 21.1953125 C2.2653125 21.0921875 1.0071875 20.9890625 -0.2890625 20.8828125 C-2.92591977 20.55204065 -4.22205797 20.37592862 -6.4140625 18.8203125 C-8.86139405 15.07733484 -8.77567326 11.53241855 -8.4765625 7.1953125 C-6.35410372 2.85391954 -5.03365964 0.28278987 0 0 Z M1.5234375 5.1953125 C-0.14502984 6.89027206 -0.14502984 6.89027206 -1.4765625 9.1953125 C-1.25458437 11.8937714 -1.25458437 11.8937714 -0.4765625 14.1953125 C0.5134375 14.5253125 1.5034375 14.8553125 2.5234375 15.1953125 C3.1834375 14.8653125 3.8434375 14.5353125 4.5234375 14.1953125 C4.77359623 10.77888491 4.77359623 10.77888491 4.5234375 7.1953125 C3.5334375 6.5353125 2.5434375 5.8753125 1.5234375 5.1953125 Z " fill="#026666" transform="translate(38.4765625,267.8046875)"/>
<path d="M0 0 C1.38294718 0.01329757 2.76582404 0.03715018 4.1484375 0.0703125 C4.85484375 0.07933594 5.56125 0.08835937 6.2890625 0.09765625 C8.03399848 0.12123647 9.77876045 0.15710789 11.5234375 0.1953125 C11.58155523 3.94524729 11.61707343 7.69506602 11.6484375 11.4453125 C11.66519531 12.50878906 11.68195313 13.57226562 11.69921875 14.66796875 C11.70566406 15.69277344 11.71210938 16.71757812 11.71875 17.7734375 C11.72922363 18.71606445 11.73969727 19.65869141 11.75048828 20.62988281 C11.51157511 23.32934471 10.96489784 24.91832956 9.5234375 27.1953125 C6.50811739 29.26426591 4.00139326 29.44196551 0.3984375 29.3828125 C-0.47039062 29.37636719 -1.33921875 29.36992187 -2.234375 29.36328125 C-4.4765625 29.1953125 -4.4765625 29.1953125 -6.4765625 28.1953125 C-6.1465625 26.2153125 -5.8165625 24.2353125 -5.4765625 22.1953125 C-4.1771875 22.2159375 -2.8778125 22.2365625 -1.5390625 22.2578125 C-0.18490617 22.27930704 1.17099833 22.26679449 2.5234375 22.1953125 C2.8534375 21.8653125 3.1834375 21.5353125 3.5234375 21.1953125 C2.2653125 21.0921875 1.0071875 20.9890625 -0.2890625 20.8828125 C-2.92591977 20.55204065 -4.22205797 20.37592862 -6.4140625 18.8203125 C-8.86139405 15.07733484 -8.77567326 11.53241855 -8.4765625 7.1953125 C-6.35410372 2.85391954 -5.03365964 0.28278987 0 0 Z M1.5234375 5.1953125 C-0.14502984 6.89027206 -0.14502984 6.89027206 -1.4765625 9.1953125 C-1.25458437 11.8937714 -1.25458437 11.8937714 -0.4765625 14.1953125 C0.5134375 14.5253125 1.5034375 14.8553125 2.5234375 15.1953125 C3.1834375 14.8653125 3.8434375 14.5353125 4.5234375 14.1953125 C4.77359623 10.77888491 4.77359623 10.77888491 4.5234375 7.1953125 C3.5334375 6.5353125 2.5434375 5.8753125 1.5234375 5.1953125 Z " fill="#026666" transform="translate(388.4765625,267.8046875)"/>
<path d="M0 0 C3.83625 -0.12375 3.83625 -0.12375 7.75 -0.25 C8.54889648 -0.28641602 9.34779297 -0.32283203 10.17089844 -0.36035156 C13.71369301 -0.41567984 15.61344338 -0.29791943 18.453125 1.890625 C21.31617982 5.79479066 21.51871153 9.25879465 21 14 C19.36312815 17.58552881 18.31027417 18.79315055 15 21 C12.66800612 21.07905064 10.33167378 21.08798769 8 21 C7.67 23.64 7.34 26.28 7 29 C4.69 29 2.38 29 0 29 C0 19.43 0 9.86 0 0 Z M9 6 C6.66608797 8.78114056 6.66608797 8.78114056 7.375 11.6875 C7.58125 12.450625 7.7875 13.21375 8 14 C9.98 14.495 9.98 14.495 12 15 C14.33391203 12.21885944 14.33391203 12.21885944 13.625 9.3125 C13.41875 8.549375 13.2125 7.78625 13 7 C11.68 6.67 10.36 6.34 9 6 Z " fill="#026666" transform="translate(424,268)"/>
<path d="M0 0 C3.3 0 6.6 0 10 0 C11.17816469 3.72563248 12.34048913 7.45602389 13.5 11.1875 C13.83386719 12.24259766 14.16773437 13.29769531 14.51171875 14.38476562 C14.82753906 15.40634766 15.14335937 16.42792969 15.46875 17.48046875 C15.90864258 18.88655396 15.90864258 18.88655396 16.35742188 20.32104492 C16.99696517 22.98734758 17.12123109 25.27013569 17 28 C14.69 28 12.38 28 10 28 C9.34 25.69 8.68 23.38 8 21 C5.69 21 3.38 21 1 21 C0.67 23.31 0.34 25.62 0 28 C-2.31 28 -4.62 28 -7 28 C-6.40317702 21.53315857 -4.87545517 15.68706803 -2.9375 9.5 C-2.65583984 8.5821875 -2.37417969 7.664375 -2.08398438 6.71875 C-1.39521965 4.47734615 -0.69843499 2.23840939 0 0 Z M4 8 C3.67 10.31 3.34 12.62 3 15 C4.32 14.67 5.64 14.34 7 14 C6.34 12.02 5.68 10.04 5 8 C4.67 8 4.34 8 4 8 Z " fill="#026666" transform="translate(12,261)"/>
<path d="M0 0 C1.32 0.33 2.64 0.66 4 1 C4.05863894 5.14577275 4.09380984 9.29143705 4.125 13.4375 C4.14175781 14.60216797 4.15851563 15.76683594 4.17578125 16.96679688 C4.26105409 32.10272644 4.26105409 32.10272644 0.33203125 38.875 C-2.58796213 41.53576449 -5.64068252 42.73909978 -9.3125 44 C-14.85138868 46.04145132 -19.43979563 48.21836711 -24 52 C-24.43856171 45.86013599 -23.86726875 40.99753068 -20 36 C-14.39723225 31.9179835 -7.59078606 30.78628781 -1 29 C-0.67 19.43 -0.34 9.86 0 0 Z " fill="#AE8A30" transform="translate(265,17)"/>
<path d="M0 0 C2.31 0 4.62 0 7 0 C7.33 4.29 7.66 8.58 8 13 C8.99 11.68 9.98 10.36 11 9 C13.26171875 8.609375 13.26171875 8.609375 15.6875 8.75 C16.49574219 8.78609375 17.30398438 8.8221875 18.13671875 8.859375 C19.05904297 8.92898438 19.05904297 8.92898438 20 9 C17 13.5 17 13.5 14 18 C14.5053125 18.78246094 15.010625 19.56492187 15.53125 20.37109375 C16.1809375 21.38300781 16.830625 22.39492188 17.5 23.4375 C18.1496875 24.44683594 18.799375 25.45617187 19.46875 26.49609375 C21 29 21 29 21 30 C17.94928825 30.287803 15.03939738 30.4472872 12 30 C9.89638304 27.5776532 9 26.21754366 9 23 C8.34 23 7.68 23 7 23 C7 25.31 7 27.62 7 30 C4.69 30 2.38 30 0 30 C0 20.1 0 10.2 0 0 Z " fill="#026666" transform="translate(288,259)"/>
<path d="M0 0 C5.61 0 11.22 0 17 0 C17 1.98 17 3.96 17 6 C13.7 6 10.4 6 7 6 C7 7.32 7 8.64 7 10 C10.3 10 13.6 10 17 10 C17 11.98 17 13.96 17 16 C13.7 16 10.4 16 7 16 C7 17.98 7 19.96 7 22 C10.63 22 14.26 22 18 22 C18 23.98 18 25.96 18 28 C12.06 28 6.12 28 0 28 C0 18.76 0 9.52 0 0 Z " fill="#026666" transform="translate(361,261)"/>
<path d="M0 0 C3 1 3 1 4.16796875 3.046875 C7.51074021 11.909702 9.01410922 21.00796131 5.25 30 C3.53603043 33.32387671 1.51393229 36.21671783 -1 39 C-4.87132028 38.42647107 -7.08172796 36.51295648 -10 34 C-8.76276024 30.28828073 -6.7446651 28.7446651 -4 26 C-1.52065961 22.45808516 -1.63429944 19.24212651 -2 15 C-2.98422146 12.99218823 -3.98234073 10.99107248 -5 9 C-4.88330241 5.14897959 -2.43589629 2.82878279 0 0 Z " fill="#026666" transform="translate(284,207)"/>
<path d="M0 0 C2.64 0 5.28 0 8 0 C8.99 2.64 9.98 5.28 11 8 C11.66 5.36 12.32 2.72 13 0 C15.64 0 18.28 0 21 0 C18.61879245 9.83458076 15.97969258 20.37972378 9 28 C5.75 29.3125 5.75 29.3125 3 30 C2.67 27.69 2.34 25.38 2 23 C3.32 22.01 4.64 21.02 6 20 C4.5317101 15.50140968 3.03350612 11.03405378 1.3125 6.625 C0 3 0 3 0 0 Z " fill="#026666" transform="translate(402,268)"/>
<path d="M0 0 C2.578125 -0.061875 5.15625 -0.12375 7.8125 -0.1875 C9.02450073 -0.22846802 9.02450073 -0.22846802 10.26098633 -0.27026367 C15.54503962 -0.33191427 15.54503962 -0.33191427 17.71875 1.25390625 C19.31056743 3.42324281 19.34974666 4.56190714 19.29296875 7.23046875 C19.28330078 8.03291016 19.27363281 8.83535156 19.26367188 9.66210938 C19.23853516 10.49548828 19.21339844 11.32886719 19.1875 12.1875 C19.16719727 13.4549707 19.16719727 13.4549707 19.14648438 14.74804688 C19.11115799 16.83230384 19.05735139 18.91623277 19 21 C16.69 21 14.38 21 12 21 C11.67 16.38 11.34 11.76 11 7 C10.01 6.67 9.02 6.34 8 6 C7.67 10.95 7.34 15.9 7 21 C4.69 21 2.38 21 0 21 C0 14.07 0 7.14 0 0 Z " fill="#026666" transform="translate(265,268)"/>
<path d="M0 0 C1.45212891 -0.03867187 1.45212891 -0.03867187 2.93359375 -0.078125 C5.5625 0.25 5.5625 0.25 7.34765625 1.578125 C10.11360958 5.38464598 9.67936266 9.45885342 9.625 13.9375 C9.62048828 14.63939453 9.61597656 15.34128906 9.61132812 16.06445312 C9.59956927 17.79300538 9.58163454 19.52151365 9.5625 21.25 C7.1247037 21.30397335 4.68810315 21.34365616 2.25 21.375 C1.21456055 21.40013672 1.21456055 21.40013672 0.15820312 21.42578125 C-3.60885396 21.46217794 -5.22181704 21.39378864 -8.4375 19.25 C-9.56768627 15.61725842 -9.74934852 13.91824682 -8.125 10.4375 C-6.4375 8.25 -6.4375 8.25 -4.4375 7.25 C-2.43789988 7.210008 -0.43702758 7.20653201 1.5625 7.25 C1.5625 6.59 1.5625 5.93 1.5625 5.25 C-1.0775 5.58 -3.7175 5.91 -6.4375 6.25 C-6.7675 4.6 -7.0975 2.95 -7.4375 1.25 C-4.85741408 -0.04004296 -2.88008426 0.04589776 0 0 Z M1.5625 11.25 C0.5725 11.58 -0.4175 11.91 -1.4375 12.25 C-1.1075 13.57 -0.7775 14.89 -0.4375 16.25 C0.5525 15.59 1.5425 14.93 2.5625 14.25 C2.2325 13.26 1.9025 12.27 1.5625 11.25 Z " fill="#026666" transform="translate(252.4375,267.75)"/>
<path d="M0 0 C2.8367179 1.70705148 3.34742379 2.91519108 5 6 C5.78882801 9.96734086 5.38221509 13.16276695 3.6875 16.875 C1.72693899 19.3438546 0.09233852 20.82408031 -3.0859375 21.3359375 C-7.17310165 21.40568433 -9.42122719 21.34967524 -13 19.1875 C-15.61841256 16.32361126 -15.96473004 14.47614448 -16.25 10.625 C-15.98284578 6.7512638 -15.34494559 5.03974428 -13 2 C-8.75758844 -0.82827437 -4.97696843 -0.8876122 0 0 Z M-7 5 C-8.53656962 7.4404341 -9.02089707 8.70744102 -8.8125 11.625 C-8.1535811 14.33651167 -8.1535811 14.33651167 -5 16 C-3.31135412 14.36290685 -3.31135412 14.36290685 -2 12 C-2.22573891 8.80764728 -2.22573891 8.80764728 -3 6 C-4.32 5.67 -5.64 5.34 -7 5 Z " fill="#026666" transform="translate(332,268)"/>
<path d="M0 0 C2.31 0 4.62 0 7 0 C7.33 4.62 7.66 9.24 8 14 C8.99 13.67 9.98 13.34 11 13 C11.33 8.71 11.66 4.42 12 0 C14.31 0 16.62 0 19 0 C19 6.93 19 13.86 19 21 C16 21 13 21 10 21 C8.845 21.0825 7.69 21.165 6.5 21.25 C3 21 3 21 1.29296875 19.53125 C-0.61695472 15.79218532 -0.32108958 12.38100084 -0.1875 8.25 C-0.17396484 7.45722656 -0.16042969 6.66445313 -0.14648438 5.84765625 C-0.11125223 3.89814436 -0.05744821 1.94898374 0 0 Z " fill="#026666" transform="translate(145,268)"/>
<path d="M0 0 C0.17348288 4.75038069 0.30026048 9.49890674 0.38452148 14.25170898 C0.4196529 15.86694462 0.46737171 17.48195874 0.52807617 19.09643555 C0.61333995 21.42291861 0.65275382 23.74645474 0.68359375 26.07421875 C0.71972275 26.79212082 0.75585175 27.51002289 0.79307556 28.24967957 C0.7954062 31.24863009 0.58156875 33.3925488 -1.53463745 35.60293579 C-6.128756 39 -6.128756 39 -9 39 C-9.14847696 34.088839 -9.2572708 29.17898714 -9.32958984 24.26611328 C-9.35973821 22.59563439 -9.40066552 20.9253135 -9.45263672 19.25537109 C-9.52554846 16.85214295 -9.55947188 14.45100836 -9.5859375 12.046875 C-9.61690521 11.30193787 -9.64787292 10.55700073 -9.67977905 9.78948975 C-9.68115234 7.66699219 -9.68115234 7.66699219 -9 4 C-5.86460921 1.24558471 -4.20210024 0 0 0 Z " fill="#026666" transform="translate(458,194)"/>
<path d="M0 0 C2.31 0 4.62 0 7 0 C7.33 4.62 7.66 9.24 8 14 C8.99 14.33 9.98 14.66 11 15 C11.33 10.05 11.66 5.1 12 0 C14.31 0 16.62 0 19 0 C19 6.93 19 13.86 19 21 C16.33333333 21 13.66666667 21 11 21 C9.329375 21.12375 9.329375 21.12375 7.625 21.25 C4 21 4 21 1.7890625 19.53125 C-0.82602795 15.8312967 -0.44017604 12.66062135 -0.25 8.25 C-0.23195313 7.45722656 -0.21390625 6.66445313 -0.1953125 5.84765625 C-0.14833082 3.89791652 -0.07659044 1.94880122 0 0 Z " fill="#026666" transform="translate(97,268)"/>
<path d="M0 0 C1.43472656 -0.07347656 1.43472656 -0.07347656 2.8984375 -0.1484375 C5.625 0.375 5.625 0.375 7.9609375 2.37890625 C10.15017181 6.32055581 10.08029571 9.26969425 9.875 13.6875 C9.85695312 14.42806641 9.83890625 15.16863281 9.8203125 15.93164062 C9.77347337 17.7466571 9.70173789 19.56100166 9.625 21.375 C7.18683415 21.4559723 4.75135616 21.51546972 2.3125 21.5625 C1.27706055 21.60020508 1.27706055 21.60020508 0.22070312 21.63867188 C-4.86686042 21.71240468 -4.86686042 21.71240468 -7.328125 20.078125 C-9.13260114 17.14248472 -8.78464231 14.71065885 -8.375 11.375 C-6.19407617 8.18749593 -4.90071704 7.49631932 -1.125 6.625 C-0.2175 6.5425 0.69 6.46 1.625 6.375 C-1.015 6.375 -3.655 6.375 -6.375 6.375 C-6.705 4.725 -7.035 3.075 -7.375 1.375 C-4.82409127 0.09954563 -2.84834154 0.09927196 0 0 Z M-0.375 12.375 C-0.375 13.695 -0.375 15.015 -0.375 16.375 C0.615 15.715 1.605 15.055 2.625 14.375 C2.625 13.715 2.625 13.055 2.625 12.375 C1.635 12.375 0.645 12.375 -0.375 12.375 Z " fill="#026666" transform="translate(189.375,267.625)"/>
<path d="M0 0 C0.14847696 4.911161 0.2572708 9.82101286 0.32958984 14.73388672 C0.35973821 16.40436561 0.40066552 18.0746865 0.45263672 19.74462891 C0.52554846 22.14785705 0.55947188 24.54899164 0.5859375 26.953125 C0.61690521 27.69806213 0.64787292 28.44299927 0.67977905 29.21051025 C0.68115234 31.33300781 0.68115234 31.33300781 0 35 C-4.65314085 39 -4.65314085 39 -8 39 C-8.14847696 34.088839 -8.2572708 29.17898714 -8.32958984 24.26611328 C-8.35973821 22.59563439 -8.40066552 20.9253135 -8.45263672 19.25537109 C-8.52554846 16.85214295 -8.55947188 14.45100836 -8.5859375 12.046875 C-8.61690521 11.30193787 -8.64787292 10.55700073 -8.67977905 9.78948975 C-8.68115234 7.66699219 -8.68115234 7.66699219 -8 4 C-3.34685915 0 -3.34685915 0 0 0 Z " fill="#026666" transform="translate(273,194)"/>
<path d="M0 0 C0.14847696 4.911161 0.2572708 9.82101286 0.32958984 14.73388672 C0.35973821 16.40436561 0.40066552 18.0746865 0.45263672 19.74462891 C0.52554846 22.14785705 0.55947188 24.54899164 0.5859375 26.953125 C0.61690521 27.69806213 0.64787292 28.44299927 0.67977905 29.21051025 C0.68115234 31.33300781 0.68115234 31.33300781 0 35 C-4.65314085 39 -4.65314085 39 -8 39 C-8.14847696 34.088839 -8.2572708 29.17898714 -8.32958984 24.26611328 C-8.35973821 22.59563439 -8.40066552 20.9253135 -8.45263672 19.25537109 C-8.52554846 16.85214295 -8.55947188 14.45100836 -8.5859375 12.046875 C-8.61690521 11.30193787 -8.64787292 10.55700073 -8.67977905 9.78948975 C-8.68115234 7.66699219 -8.68115234 7.66699219 -8 4 C-3.34685915 0 -3.34685915 0 0 0 Z " fill="#026666" transform="translate(176,194)"/>
<path d="M0 0 C0 11.55 0 23.1 0 35 C-3.96 36.98 -3.96 36.98 -8 39 C-8.14847696 34.088839 -8.2572708 29.17898714 -8.32958984 24.26611328 C-8.35973821 22.59563439 -8.40066552 20.9253135 -8.45263672 19.25537109 C-8.52554846 16.85214295 -8.55947188 14.45100836 -8.5859375 12.046875 C-8.61690521 11.30193787 -8.64787292 10.55700073 -8.67977905 9.78948975 C-8.68115234 7.66699219 -8.68115234 7.66699219 -8 4 C-3.34685915 0 -3.34685915 0 0 0 Z " fill="#026666" transform="translate(338,194)"/>
<path d="M0 0 C0 1.98 0 3.96 0 6 C-1.32 6 -2.64 6 -4 6 C-4 6.66 -4 7.32 -4 8 C-3.01 8.33 -2.02 8.66 -1 9 C-1 10.98 -1 12.96 -1 15 C-2.32 15 -3.64 15 -5 15 C-5 19.95 -5 24.9 -5 30 C-7.31 30 -9.62 30 -12 30 C-12 25.05 -12 20.1 -12 15 C-12.66 15 -13.32 15 -14 15 C-14 13.02 -14 11.04 -14 9 C-13.34 9 -12.68 9 -12 9 C-11.896875 8.071875 -11.79375 7.14375 -11.6875 6.1875 C-11 3 -11 3 -9.9375 1.125 C-6.73943927 -0.73193849 -3.64481003 -0.17925295 0 0 Z " fill="#026666" transform="translate(352,259)"/>
<path d="M0 0 C0.66 0 1.32 0 2 0 C6.27630715 27.31854472 6.27630715 27.31854472 5 39 C4.34 39.66 3.68 40.32 3 41 C-0.125 40.625 -0.125 40.625 -3 40 C-3.20573053 29.89634497 -3.07828024 19.93763024 -2.0625 9.875 C-1.97564941 9.00456055 -1.88879883 8.13412109 -1.79931641 7.23730469 C-1.13686388 1.13686388 -1.13686388 1.13686388 0 0 Z " fill="#AE8A30" transform="translate(231,7)"/>
<path d="M0 0 C2.64 0 5.28 0 8 0 C8 9.9 8 19.8 8 30 C5.36 30 2.72 30 0 30 C0 20.1 0 10.2 0 0 Z " fill="#026666" transform="translate(202,259)"/>
<path d="M0 0 C0 1.98 0 3.96 0 6 C1.32 6 2.64 6 4 6 C4 7.98 4 9.96 4 12 C2.68 12 1.36 12 0 12 C0.33 14.64 0.66 17.28 1 20 C1.99 20.33 2.98 20.66 4 21 C4 22.98 4 24.96 4 27 C-1.95703125 27.390625 -1.95703125 27.390625 -4 27 C-6.35795805 24.76836113 -6.95358002 23.44315607 -7.29296875 20.203125 C-7.25816406 19.22859375 -7.22335938 18.2540625 -7.1875 17.25 C-7.16042969 16.26515625 -7.13335937 15.2803125 -7.10546875 14.265625 C-7.07066406 13.51796875 -7.03585938 12.7703125 -7 12 C-7.66 12 -8.32 12 -9 12 C-9 10.02 -9 8.04 -9 6 C-8.34 6 -7.68 6 -7 6 C-7 4.68 -7 3.36 -7 2 C-1.125 0 -1.125 0 0 0 Z " fill="#026666" transform="translate(138,262)"/>
<path d="M0 0 C0 1.98 0 3.96 0 6 C1.32 6 2.64 6 4 6 C4 7.98 4 9.96 4 12 C2.68 12 1.36 12 0 12 C0.33 14.97 0.66 17.94 1 21 C1.99 21 2.98 21 4 21 C4 22.98 4 24.96 4 27 C-2.625 27.25 -2.625 27.25 -6 25 C-7.00496852 21.98509443 -7.10335303 19.95818308 -7.0625 16.8125 C-7.05347656 15.91144531 -7.04445313 15.01039063 -7.03515625 14.08203125 C-7.02355469 13.39496094 -7.01195312 12.70789063 -7 12 C-7.66 12 -8.32 12 -9 12 C-9 10.02 -9 8.04 -9 6 C-8.34 6 -7.68 6 -7 6 C-7 4.68 -7 3.36 -7 2 C-1.125 0 -1.125 0 0 0 Z " fill="#026666" transform="translate(455,262)"/>
<path d="M0 0 C-0.33 1.98 -0.66 3.96 -1 6 C-3.31 6.33 -5.62 6.66 -8 7 C-8 8.98 -8 10.96 -8 13 C-5.69 13.66 -3.38 14.32 -1 15 C-0.61781233 16.65614657 -0.28604898 18.32457024 0 20 C-1.56033623 21.56033623 -3.08947136 21.20707559 -5.25 21.25 C-9.3091893 21.19191939 -11.85499706 20.76379047 -15 18 C-17.28728656 14.36113501 -17.29270039 11.06094294 -16.58203125 6.9375 C-14.08242046 -1.38335203 -7.1932884 -0.56689663 0 0 Z " fill="#026666" transform="translate(95,268)"/>
<path d="M0 0 C2.31 0 4.62 0 7 0 C7 9.9 7 19.8 7 30 C4.69 30 2.38 30 0 30 C0 20.1 0 10.2 0 0 Z " fill="#026666" transform="translate(120,259)"/>
<path d="M0 0 C4.29 0 8.58 0 13 0 C13 2.31 13 4.62 13 7 C11.68 7.33 10.36 7.66 9 8 C8.67 12.29 8.34 16.58 8 21 C5.36 21 2.72 21 0 21 C0 14.07 0 7.14 0 0 Z " fill="#026666" transform="translate(167,268)"/>
<path d="M0 0 C0.33 1.98 0.66 3.96 1 6 C1.99 6 2.98 6 4 6 C3.67299638 9.21553556 3.463912 11.18678833 2 14 C-1.97834709 16.84069151 -6.38921264 18.46307088 -11 20 C-10.979375 18.824375 -10.95875 17.64875 -10.9375 16.4375 C-10.90602496 13.46835499 -11.16050321 11.27156236 -11.8125 8.3125 C-12 5 -12 5 -10 2.0625 C-6.37309762 -0.43099539 -4.31255674 -0.42279968 0 0 Z M-5 6 C-5.33 6.66 -5.66 7.32 -6 8 C-4.68 8 -3.36 8 -2 8 C-2 7.34 -2 6.68 -2 6 C-2.99 6 -3.98 6 -5 6 Z " fill="#026666" transform="translate(376,198)"/>
<path d="M0 0 C4.33333333 0 8.66666667 0 13 0 C13 2.31 13 4.62 13 7 C11.35 7.33 9.7 7.66 8 8 C7.67 12.29 7.34 16.58 7 21 C4.69 21 2.38 21 0 21 C0 14.07 0 7.14 0 0 Z " fill="#026666" transform="translate(54,268)"/>
<path d="M0 0 C2.66666667 1.33333333 5.33333333 2.66666667 8 4 C9.65 2.68 11.3 1.36 13 0 C14.98 2.31 16.96 4.62 19 7 C16.75 9.5625 16.75 9.5625 14 12 C10.6271792 12 8.54035223 10.0867179 6 8 C4.68 9.32 3.36 10.64 2 12 C-0.88437779 10.70700306 -2.87219421 9.34058637 -5 7 C-3.70700306 4.11562221 -2.34058637 2.12780579 0 0 Z " fill="#026666" transform="translate(202,243)"/>
<path d="M0 0 C0.639375 0.309375 1.27875 0.61875 1.9375 0.9375 C2.68 1.288125 3.4225 1.63875 4.1875 2 C4.765 2.309375 5.3425 2.61875 5.9375 2.9375 C6.35 2.421875 6.7625 1.90625 7.1875 1.375 C8.9375 -0.0625 8.9375 -0.0625 10.875 -0.0625 C13.73814093 1.32568954 15.10565505 3.38600168 16.9375 5.9375 C14.6275 7.9175 12.3175 9.8975 9.9375 11.9375 C8.6175 10.6175 7.2975 9.2975 5.9375 7.9375 C3.44388429 9.14131448 1.25606917 10.39178722 -1.0625 11.9375 C-3.0425 9.6275 -5.0225 7.3175 -7.0625 4.9375 C-2.65645248 -0.08049856 -2.65645248 -0.08049856 0 0 Z " fill="#026666" transform="translate(21.0625,241.0625)"/>
<path d="M0 0 C2.31 0 4.62 0 7 0 C7 6.93 7 13.86 7 21 C4.69 21 2.38 21 0 21 C0 14.07 0 7.14 0 0 Z " fill="#026666" transform="translate(69,268)"/>
<path d="M0 0 C2.88437779 1.29299694 4.87219421 2.65941363 7 5 C5.70700306 7.88437779 4.34058637 9.87219421 2 12 C-0.88437779 10.70700306 -2.87219421 9.34058637 -5 7 C-3.70700306 4.11562221 -2.34058637 2.12780579 0 0 Z " fill="#026666" transform="translate(423,233)"/>
<path d="M0 0 C1.98 1.65 3.96 3.3 6 5 C5.59316505 7.35964273 5.10185661 8.85934088 3.6875 10.8125 C2 12 2 12 0.0625 12 C-2.80064093 10.61181046 -4.16815505 8.55149832 -6 6 C-4.02 4.02 -2.04 2.04 0 0 Z " fill="#026666" transform="translate(298,195)"/>
<path d="M0 0 C2.31 1.65 4.62 3.3 7 5 C5.70700306 7.88437779 4.34058637 9.87219421 2 12 C-0.88437779 10.70700306 -2.87219421 9.34058637 -5 7 C-3.61410019 3.90837736 -2.50816459 2.50816459 0 0 Z " fill="#026666" transform="translate(402,195)"/>
<path d="M0 0 C2.625 0.9375 2.625 0.9375 5 2 C4.67 3.65 4.34 5.3 4 7 C2.34385343 7.38218767 0.67542976 7.71395102 -1 8 C-2 7 -2 7 -2.0625 3.9375 C-2.041875 2.968125 -2.02125 1.99875 -2 1 C-1.34 0.67 -0.68 0.34 0 0 Z " fill="#026666" transform="translate(71,259)"/>
</svg>
