<?xml version="1.0" encoding="UTF-8" standalone="no"?>
<!-- Created with Inkscape (http://www.inkscape.org/) -->

<svg
   xmlns:dc="http://purl.org/dc/elements/1.1/"
   xmlns:cc="http://creativecommons.org/ns#"
   xmlns:rdf="http://www.w3.org/1999/02/22-rdf-syntax-ns#"
   xmlns:svg="http://www.w3.org/2000/svg"
   xmlns="http://www.w3.org/2000/svg"
   xmlns:sodipodi="http://sodipodi.sourceforge.net/DTD/sodipodi-0.dtd"
   xmlns:inkscape="http://www.inkscape.org/namespaces/inkscape"
   id="svg3758"
   version="1.1"
   inkscape:version="0.48.4 r9939"
   width="199"
   height="103"
   sodipodi:docname="Untitled.jpg">
  <metadata
     id="metadata3764">
    <rdf:RDF>
      <cc:Work
         rdf:about="">
        <dc:format>image/svg+xml</dc:format>
        <dc:type
           rdf:resource="http://purl.org/dc/dcmitype/StillImage" />
        <dc:title></dc:title>
      </cc:Work>
    </rdf:RDF>
  </metadata>
  <defs
     id="defs3762" />
  <sodipodi:namedview
     pagecolor="#ffffff"
     bordercolor="#666666"
     borderopacity="1"
     objecttolerance="10"
     gridtolerance="10"
     guidetolerance="10"
     inkscape:pageopacity="0"
     inkscape:pageshadow="2"
     inkscape:window-width="1366"
     inkscape:window-height="706"
     id="namedview3760"
     showgrid="false"
     inkscape:zoom="1.5477387"
     inkscape:cx="99.5"
     inkscape:cy="51.5"
     inkscape:window-x="-8"
     inkscape:window-y="-8"
     inkscape:window-maximized="1"
     inkscape:current-layer="svg3758" />
  <g
     id="g3467"
     transform="matrix(1.25,0,0,-1.25,29.382129,88.231355)">
    <path
       d="m 0,0 -10.67,0 c -2.42,0 -4.19,1.585 -4.19,3.633 0,2.099 1.77,3.653 4.19,3.653 L 0,7.286 0,0 z M 5.365,-0.023 5.352,16.242 c 0,5.674 -2.887,7.868 -7.806,7.868 l -13.838,0 0,-5.141 13.009,0 c 2.806,0 3.275,-0.934 3.275,-3.477 l 0,-3.083 -9.585,0 c -3.472,-0.103 -10.735,-0.36 -10.672,-9.055 0.044,-5.219 3.889,-8.5 9.015,-8.5 l 20.105,0 c 0,0 -3.49,0.689 -3.49,5.123 m 47.977,11.214 11.272,12.919 -6.755,0 -9.82,-11.705 -2.004,0 0,11.71 -8.86,0 c 0,0 3.45,-0.846 3.45,-5.185 l 0,-24.076 5.41,0 0,12.429 3.585,0 8.531,-12.429 6.896,0 -11.705,16.337 z m -26.115,-11.222 -10.663,0 0,7.314 10.663,0 c 2.422,0 4.199,-1.586 4.199,-3.683 0,-2.05 -1.777,-3.631 -4.199,-3.631 m -10.663,19.011 9.569,0 c 2.377,0 3.633,-1.536 3.633,-3.263 0,-1.772 -1.256,-3.312 -3.633,-3.312 l -9.569,0 0,6.575 z m 15.089,-8.703 c 2.19,0.976 3.546,3.297 3.546,5.999 0,5.222 -3.944,7.831 -8.439,7.831 l -19.183,0 c 0,0 3.586,-0.958 3.586,-5.119 l 0,-19.011 c -0.002,-2.837 1.3,-5.136 5.407,-5.136 l 11.262,0 c 5.132,0 8.999,3.259 8.999,8.481 0,3.726 -2.148,5.975 -5.178,6.955"
       style="fill:#1574c4;fill-opacity:1;fill-rule:nonzero;stroke:none"
       id="path3469"
       inkscape:connector-curvature="0" />
  </g>
  <g
     id="g3471"
     transform="matrix(1.25,0,0,-1.25,137.94713,70.805105)">
    <path
       d="M 0,0 C -0.007,1.689 1.164,2.768 2.253,3.91 L 17.418,19.064 12.917,23.567 -1.276,9.385 C -4.569,6.089 -6.369,4.308 -6.369,1.068 l 0,-14.595 c 0,-3.737 1.83,-5.55 5.604,-5.55 l 14.542,0 c 1.193,0 2.25,0.293 3.249,0.824 L 11.49,-12.708 0,-12.708 0,0"
       style="fill:#fab20b;fill-opacity:1;fill-rule:nonzero;stroke:none"
       id="path3473"
       inkscape:connector-curvature="0" />
  </g>
  <g
     id="g3475"
     transform="matrix(1.25,0,0,-1.25,171.10088,86.646355)">
    <path
       d="m 0,0 c -1.686,-0.004 -2.769,1.163 -3.909,2.254 l -15.155,15.163 -4.502,-4.498 14.185,-14.195 c 3.296,-3.292 5.073,-5.092 8.313,-5.092 l 14.598,0 c 3.731,0 5.549,1.83 5.549,5.605 l 0,14.542 c -0.003,1.191 -0.29,2.248 -0.825,3.247 L 12.708,11.491 12.708,0 0,0"
       style="fill:#1574c4;fill-opacity:1;fill-rule:nonzero;stroke:none"
       id="path3477"
       inkscape:connector-curvature="0" />
  </g>
  <g
     id="g3479"
     transform="matrix(1.25,0,0,-1.25,186.94838,53.492605)">
    <path
       d="m 0,0 c 0.005,-1.685 -1.168,-2.768 -2.256,-3.905 l -15.162,-15.159 4.494,-4.5 14.195,14.183 c 3.295,3.292 5.097,5.073 5.097,8.313 l 0,14.595 c 0,3.737 -1.836,5.55 -5.608,5.55 l -14.54,0 c -1.194,0 -2.252,-0.293 -3.251,-0.824 L -11.495,12.708 0,12.708 0,0"
       style="fill:#fab20b;fill-opacity:1;fill-rule:nonzero;stroke:none"
       id="path3481"
       inkscape:connector-curvature="0" />
  </g>
  <g
     id="g3483"
     transform="matrix(1.25,0,0,-1.25,153.78838,37.646356)">
    <path
       d="m 0,0 c 1.688,0.003 2.773,-1.169 3.907,-2.254 l 15.162,-15.163 4.498,4.493 L 9.382,1.271 C 6.087,4.564 4.307,6.368 1.072,6.368 l -14.599,0 c -3.738,0 -5.549,-1.835 -5.549,-5.606 l 0,-14.542 c 0.001,-1.196 0.291,-2.252 0.823,-3.251 l 5.545,5.536 0,11.495 L 0,0"
       style="fill:#1574c4;fill-opacity:1;fill-rule:nonzero;stroke:none"
       id="path3485"
       inkscape:connector-curvature="0" />
  </g>
  <g
     id="g3487"
     transform="matrix(1.25,0,0,-1.25,106.86713,8.5076054)">
    <path
       d="m 0,0 0,-23.269 c 1.188,0.582 2.632,2.283 2.709,3.716 l 0,22.072 L 0,0 z m -28.765,-23.883 c 0,0 3.388,2.365 4.02,-2.858 0,0 -3.951,-0.499 -4.02,2.858 m 13.972,-0.078 c 0,0 1.728,3.236 1.706,4.255 -0.088,4.196 -3.993,6.534 -7.965,6.615 -2.988,0.058 -5.025,-0.54 -6.63,-1.685 -1.592,-1.585 -4.492,-5.69 -4.492,-5.69 0,0 4.581,2.933 8.968,3.156 0.969,0.049 3.962,0.182 5.624,-1.901 0.671,-0.833 1.292,-2.067 1.01,-3.407 -0.491,-2.351 -4.762,-4.004 -6.886,-4.043 0.321,0.43 1.093,1.517 1.066,3.34 -0.024,1.385 -1.073,3.415 -2.873,3.453 -3.194,0.064 -5.916,-6.085 -6.309,-7.861 l 0.006,-0.016 c 0.169,-0.762 0.77,-1.473 1.788,-2.125 -2.976,-1.183 -6.108,-2.057 -11.123,-1.885 -4.752,0.162 -7.389,1.316 -10.398,3.915 -3.766,3.254 -5.468,10.319 -5.576,16.239 l 0,13.907 -2.894,-2.731 0,-11.034 c -2.686,-1.694 -5.588,-3.708 -6.549,-4.442 -1.662,-1.276 -3.542,-3.152 -3.729,-5.135 -0.319,-3.323 2.361,-3.361 3.686,-5.54 1.081,-1.777 -3.618,-5.377 -7.166,-5.311 -9.859,0.183 -3.963,12.343 -3.963,12.343 0,0 -2.567,-2.106 -4.147,-6.524 -1.289,-3.626 -0.361,-6.734 1.554,-8.27 2.611,-2.094 6.873,-2.034 10.752,-0.107 4.322,2.145 7.196,5.469 7.213,7.856 0.023,2.812 -1.751,3.839 -3.494,5.345 -0.691,0.602 -0.936,1.122 -0.219,2.111 0.788,1.088 4.785,3.377 6.079,4.079 0.351,-11.197 7.221,-22.098 20.608,-20.564 6.235,0.717 10.481,2.927 12.403,4.408 5.095,0.013 9.893,2.914 11.95,7.249 m 12.488,21.791 -2.85,-2.67 0.038,-19.769 c 0,-2.646 -0.803,-5.412 -4.014,-6.811 -2.977,-1.291 -7.482,-0.824 -9.485,0.452 0.099,-0.705 2.87,-6.2 10.182,-4.055 6.406,1.876 6.138,8.891 6.138,11.053 l -0.009,21.8 m -16.333,-28.788 0.022,-0.01 -0.015,0.018 -0.007,-0.008 z m -40.951,-2.173 -2.358,2.357 -2.669,-2.668 2.669,-2.668 2.358,2.361 2.355,-2.361 2.67,2.668 -2.67,2.668 -2.355,-2.357 z m 49.303,3.951 c 1.187,0.589 2.63,2.28 2.71,3.72 l 0,18.334 -2.71,-2.523 0,-19.531 z m -1.579,22.498 -1.023,-0.956 0,-2.283 5.309,4.986 0,2.266 -2.324,-2.168 c -0.246,-0.21 -0.564,-0.34 -0.913,-0.34 -0.77,0 -1.392,0.625 -1.392,1.394 0,0.769 0.622,1.394 1.392,1.394 0.36,0 0.685,-0.134 0.932,-0.356 l 1.266,1.12 c -0.556,0.571 -1.336,0.925 -2.198,0.925 -1.702,0 -3.082,-1.379 -3.082,-3.083 0,-1.336 0.846,-2.466 2.033,-2.899"
       style="fill:#1574c4;fill-opacity:1;fill-rule:nonzero;stroke:none"
       id="path3489"
       inkscape:connector-curvature="0" />
  </g>
</svg>
