<?xml version="1.0" encoding="UTF-8"?>
<svg id="Layer_1" xmlns="http://www.w3.org/2000/svg" xmlns:xlink="http://www.w3.org/1999/xlink" version="1.1" viewBox="0 0 6333.16 2078.16">
  <!-- Generator: Adobe Illustrator 29.0.1, SVG Export Plug-In . SVG Version: 2.1.0 Build 192)  -->
  <defs>
    <style>
      .st0 {
        fill: #00a3ff;
      }

      .st1 {
        fill: url(#linear-gradient1);
      }

      .st2 {
        fill: url(#linear-gradient3);
      }

      .st3 {
        fill: url(#linear-gradient5);
      }

      .st4, .st5, .st6, .st7, .st8 {
        isolation: isolate;
      }

      .st5 {
        fill: url(#linear-gradient2);
      }

      .st5, .st6, .st7, .st8 {
        mix-blend-mode: multiply;
        opacity: .5;
      }

      .st6 {
        fill: url(#linear-gradient6);
      }

      .st7 {
        fill: url(#linear-gradient4);
      }

      .st8 {
        fill: url(#linear-gradient);
      }

      .st9 {
        fill: #595f6b;
      }

      .st10 {
        fill: #1501ff;
      }
    </style>
    <linearGradient id="linear-gradient" x1="3571.25" y1="-981.36" x2="4167.27" y2="-716" gradientTransform="translate(0 1490.98)" gradientUnits="userSpaceOnUse">
      <stop offset=".24" stop-color="#000" stop-opacity="0"/>
      <stop offset=".78" stop-color="#000"/>
    </linearGradient>
    <linearGradient id="linear-gradient1" x1="5309.74" y1="-365.17" x2="6300.18" y2="-687.01" gradientTransform="translate(0 1490.98)" gradientUnits="userSpaceOnUse">
      <stop offset=".28" stop-color="#1501ff"/>
      <stop offset=".34" stop-color="#1026ff"/>
      <stop offset=".41" stop-color="#0a52ff"/>
      <stop offset=".49" stop-color="#0575ff"/>
      <stop offset=".56" stop-color="#028eff"/>
      <stop offset=".62" stop-color="#009dff"/>
      <stop offset=".67" stop-color="#00a3ff"/>
    </linearGradient>
    <linearGradient id="linear-gradient2" x1="5443.75" y1="-673.24" x2="5948.08" y2="-448.67" gradientTransform="translate(0 1490.98)" gradientUnits="userSpaceOnUse">
      <stop offset=".18" stop-color="#000"/>
      <stop offset=".79" stop-color="#000" stop-opacity="0"/>
    </linearGradient>
    <linearGradient id="linear-gradient3" x1="3309.86" y1="-490.22" x2="5398.52" y2="-1168.86" gradientTransform="translate(0 1490.98)" gradientUnits="userSpaceOnUse">
      <stop offset=".14" stop-color="#1501ff"/>
      <stop offset=".16" stop-color="#1022ff"/>
      <stop offset=".19" stop-color="#0a50ff"/>
      <stop offset=".22" stop-color="#0674ff"/>
      <stop offset=".25" stop-color="#028eff"/>
      <stop offset=".27" stop-color="#009dff"/>
      <stop offset=".29" stop-color="#00a3ff"/>
      <stop offset=".56" stop-color="#00a3ff"/>
      <stop offset=".6" stop-color="#0199ff"/>
      <stop offset=".66" stop-color="#047fff"/>
      <stop offset=".74" stop-color="#0a54ff"/>
      <stop offset=".83" stop-color="#111aff"/>
      <stop offset=".86" stop-color="#1501ff"/>
    </linearGradient>
    <linearGradient id="linear-gradient4" x1="4539.19" y1="-1050.42" x2="5287.06" y2="-717.43" gradientTransform="translate(0 1490.98)" gradientUnits="userSpaceOnUse">
      <stop offset=".28" stop-color="#000" stop-opacity="0"/>
      <stop offset=".91" stop-color="#000"/>
    </linearGradient>
    <linearGradient id="linear-gradient5" x1="4185.1" y1="-249.37" x2="6251.76" y2="-920.9" gradientTransform="translate(0 1490.98)" gradientUnits="userSpaceOnUse">
      <stop offset=".13" stop-color="#1501ff"/>
      <stop offset=".18" stop-color="#1021ff"/>
      <stop offset=".26" stop-color="#0958ff"/>
      <stop offset=".34" stop-color="#0481ff"/>
      <stop offset=".4" stop-color="#0199ff"/>
      <stop offset=".43" stop-color="#00a3ff"/>
    </linearGradient>
    <linearGradient id="linear-gradient6" x1="4320.56" y1="-673.23" x2="4820.72" y2="-450.55" gradientTransform="translate(0 1490.98)" gradientUnits="userSpaceOnUse">
      <stop offset=".06" stop-color="#000"/>
      <stop offset="1" stop-color="#000" stop-opacity="0"/>
    </linearGradient>
  </defs>
  <g class="st4">
    <g id="Artwork">
      <g>
        <g id="Arab_Bank_Logo_H">
          <g id="Arab_Bank_Logotype">
            <g id="English">
              <path class="st9" d="M414.35,1200.42l-132.13-312.48h-76.34l-131.68,312.48h65.63c37.81-66.5,119.17-86.93,181.14-66.54l27.37,66.54h66.09-.08ZM181.68,1098.15h0l62.13-151.74,54.21,131.83c-40.71-5.58-87.31,2.56-116.34,19.94v-.04h0Z"/>
              <path class="st9" d="M679,1200.42l-69.18-103.6h-86.63v103.6h-58.02v-312.48h136.62c95.98,0,134.81,32.16,134.81,101.79,0,51.8-21,83.92-65.18,98.21l75.89,112.49h-68.31ZM523.19,1046.84h81.69c50.89,0,71.44-15.19,71.44-54.02s-20.55-54.02-71.44-54.02h-81.69v108.04h0Z"/>
              <path class="st9" d="M1124.22,1200.42l-132.13-312.48h-76.34l-131.68,312.48h65.63c37.81-66.5,119.17-86.93,181.14-66.54l27.37,66.54h66.09-.08ZM891.54,1098.15h0l62.13-151.74,54.21,131.83c-40.71-5.58-87.31,2.56-116.34,19.94v-.04h0Z"/>
              <path class="st9" d="M1447.3,1116.05c0,41.96-25.9,84.37-107.14,84.37h-164.74v-312.48h155.36c64.28,0,102.24,26.35,102.24,78.56,0,35.25-18.74,58.92-50.89,70.53,48.22,11.61,65.18,45.09,65.18,79.02h-.01ZM1233.47,1018.71h80.37c36.61,0,58.47-13.84,58.47-41.05s-21-41.09-58.47-41.09h-80.37v82.15h0ZM1386.6,1107.57c0-22.77-14.29-44.64-60.7-44.64h-92.4v88.82h92.4c46.44,0,60.7-22.32,60.7-44.18h0Z"/>
              <path class="st9" d="M1885.28,1116.05c0,41.96-25.9,84.37-107.14,84.37h-164.74v-312.48h155.36c64.28,0,102.24,26.35,102.24,78.56,0,35.25-18.74,58.92-50.89,70.53,48.22,11.61,65.18,45.09,65.18,79.02h-.01ZM1671.46,1018.71h80.37c36.61,0,58.47-13.84,58.47-41.05s-21-41.09-58.47-41.09h-80.37v82.15h0ZM1824.59,1107.57c0-22.77-14.29-44.64-60.69-44.64h-92.4v88.82h92.4c46.41,0,60.69-22.32,60.69-44.18h0Z"/>
              <path class="st9" d="M2253.19,1200.42l-132.13-312.48h-76.34l-131.68,312.48h65.63c37.81-66.5,119.17-86.93,181.14-66.54l27.37,66.54h66.09-.08ZM2020.51,1098.15h0l62.13-151.74,54.21,131.83c-40.71-5.58-87.31,2.56-116.34,19.94v-.04h0Z"/>
              <polygon class="st9" points="2582.67 887.9 2582.67 1200.42 2521.52 1200.42 2356.33 975.85 2356.33 1200.42 2299.18 1200.42 2299.18 887.9 2360.33 887.9 2525.97 1112.47 2525.97 887.9 2582.67 887.9"/>
              <polygon class="st9" points="2788.32 1057.54 2725.36 1126.31 2725.36 1200.42 2667.34 1200.42 2667.34 887.9 2725.36 887.9 2725.36 1045.07 2866.88 887.9 2944.58 887.9 2828.05 1014.23 2949.48 1200.42 2878.04 1200.42 2788.32 1057.54"/>
            </g>
            <g id="Arabic">
              <polygon class="st9" points="2872.35 370.41 2872.35 700.61 2930.33 700.61 2930.33 355.29 2872.35 370.41"/>
              <path class="st9" d="M2062.01,700.61c23.49,0,44.82-9.09,60.81-23.86,16.02,14.78,37.32,23.86,60.85,23.86h69.67c23.49,0,44.82-9.09,60.85-23.86,16.02,14.78,37.32,23.86,60.81,23.86h138.54c23.49,0,44.82-9.09,60.81-23.86,16.02,14.78,37.32,23.86,60.81,23.86h94.32c35.89,0,65.03-29.1,65.03-65.03v-280.33l-58.02,15.12v249.87c0,12.33-9.99,22.36-22.36,22.36h-88.48c-12.33,0-22.36-9.99-22.36-22.36v-148.46l-58.02,15.12v133.34c0,12.33-9.99,22.36-22.36,22.36h-157.51c-12.33,0-22.36-9.99-22.36-22.36v-148.46l-57.98,15.12v133.34c0,12.33-9.99,22.36-22.36,22.36h-88.63c-12.37,0-22.36-9.99-22.36-22.36v-264.98l-57.98,15.12v249.87c0,12.33-9.99,22.36-22.36,22.36h-191.74c-41.28,0-74.98-33.7-74.98-74.98,0-21.22,8.9-40.41,23.22-54.06l-61.22-15.91c-12.63,20.36-19.94,44.3-19.94,69.97,0,73.4,59.64,132.96,132.89,132.96h182.27l.11.04.03-.02Z"/>
              <circle class="st9" cx="2574.91" cy="773.45" r="34.8"/>
              <circle class="st9" cx="2314.14" cy="388.13" r="34.8"/>
              <path class="st9" d="M2009.12,510.46h-28.35c-16.32,0-25.67-6.26-25.67-17.19,0-8.82,5.5-14.51,14.06-14.51,5.24,0,9.95,1.58,12.55,4.18l1.77,1.77,22.51-24.09-1.66-1.66c-9.69-9.69-24.01-15.46-38.34-15.46-26.92,0-48.82,19.11-48.82,42.6,0,8.56,2.6,17.04,7.43,24.35h-19.15v40.15h103.6v-40.15h.08-.01Z"/>
              <polygon class="st9" points="1534.27 700.61 1592.29 700.61 1592.29 355.29 1534.27 370.41 1534.27 700.61"/>
              <path class="st9" d="M1278.82,700.61c-46.97,0-65.71-4.83-97.3-16.66-24.96,9.5-47.42,16.66-85.61,16.66h-180.99c-11.72,0-22.88-2.26-33.1-6.37-3.66,87.65-55.49,105.97-123.39,105.97h-18.85l15.19-52.82,6.94-.53c48.1-3.66,62.62-16.96,62.62-62.99v-196.98l58.02-15.12v148.46c0,12.33,9.99,22.36,22.36,22.36l222.54.15c-21.6-16.21-38.08-67.67-91.57-111.32l7.88-31.29c26.01-25.22,69.1-41.77,117.85-41.77,80.64,0,141.6,43.81,141.6,97.83,0,34.08-18.66,64.5-48.14,86.56h0l121.39-.15c12.33,0,22.36-9.99,22.36-22.36v-249.87l58.02-15.12v280.29c0,35.89-29.1,65.03-65.03,65.03h-112.68l-.08.04h-.03ZM1160.75,508.05c-25.07,0-47.95,5.47-64.46,14.25,40.15,34.19,59.71,93.68,90.36,110.46,30.12-14.06,64.43-39.55,63.52-76.72-.64-26.5-40.38-48.03-89.42-48.03v.04h0Z"/>
              <path class="st9" d="M650.5,486.94v133.34c0,12.33-9.99,22.36-22.36,22.36h-88.4c-12.33,0-22.36-9.99-22.36-22.36v-147.74h-119.77c-35.89,0-65.03,29.1-65.03,65.03v82.75c0,12.33-9.99,22.32-22.36,22.32h-92.02c-43.13,0-80.64-35.32-78.64-78.41.9-19.83,9.61-37.7,23.15-50.55l-61.22-15.91c-12.63,20.36-19.94,44.3-19.94,69.97,0,73.4,59.64,132.93,132.89,132.93h111.1c35.89,0,65.03-29.14,65.03-65.07v-87.57c0-12.33,9.99-22.36,22.36-22.36h46.44v109.97c0,35.93,29.1,65.03,65.03,65.03h119.09c35.89,0,65.03-29.1,65.03-65.03v-163.76l-57.98,15.12-.04-.04v-.02Z"/>
              <circle class="st9" cx="673.68" cy="773.45" r="34.8"/>
              <circle class="st9" cx="286.74" cy="773.45" r="34.8" transform="translate(-498.91 1024.85) rotate(-87.4)"/>
              <circle class="st9" cx="202.75" cy="773.45" r="34.8"/>
            </g>
          </g>
          <g id="Arab_Bank_Symbol">
            <path class="st10" d="M4050.44,785.4c0-137.6-111.55-249.15-249.15-249.15s-249.15,111.55-249.15,249.15,111.55,249.15,249.15,249.15v284.51c-294.77,0-533.7-238.93-533.7-533.7s238.93-533.7,533.7-533.7,533.7,238.93,533.7,533.7h-284.55v.04h0Z"/>
            <path id="Shading_1" class="st8" d="M3267.58,785.4c0-294.77,238.93-533.7,533.7-533.7s533.7,238.93,533.7,533.7h-284.55c0-137.6-111.55-249.15-249.15-249.15s-249.15,111.55-249.15,249.15h-284.55Z"/>
            <path class="st0" d="M5226.75,785.4c0-294.77,238.93-533.7,533.7-533.7s533.7,238.93,533.7,533.7-238.93,533.7-533.7,533.7v-284.51c137.6,0,249.15-111.55,249.15-249.15s-111.55-249.15-249.15-249.15-249.15,111.55-249.15,249.15h-284.55v-.04h0Z"/>
            <path class="st1" d="M5511.3,785.4c0,137.6,111.55,249.15,249.15,249.15s249.15-111.55,249.15-249.15h284.55c0,294.77-238.93,533.7-533.7,533.7s-533.7-238.93-533.7-533.7h284.55Z"/>
            <path id="Shading_2" class="st5" d="M5511.3,785.4c0,137.6,111.55,249.15,249.15,249.15s249.15-111.55,249.15-249.15h284.55c0,294.77-238.93,533.7-533.7,533.7s-533.7-238.93-533.7-533.7h284.55Z"/>
            <path class="st2" d="M4050.44,785.4c0-403.41,327.04-730.41,730.41-730.41s730.41,327.04,730.41,730.41h-284.55c0-246.25-199.61-445.9-445.9-445.9s-445.9,199.61-445.9,445.9c0,294.77-238.93,533.7-533.7,533.7s-533.7-238.93-533.7-533.7h284.55c0,137.6,111.55,249.15,249.15,249.15s249.15-111.55,249.15-249.15h.08,0Z"/>
            <path id="Shading_3" class="st7" d="M4050.44,785.4c0-403.41,327.04-730.41,730.41-730.41s730.41,327.04,730.41,730.41h-284.55c0-246.25-199.61-445.9-445.9-445.9s-445.9,199.61-445.9,445.9h-284.55.08,0Z"/>
            <path class="st3" d="M5760.45,251.73c-294.77,0-533.7,238.93-533.7,533.7,0,246.25-199.65,445.9-445.9,445.9s-445.86-199.61-445.9-445.86c0,154.64-65.78,293.94-170.89,391.39,129.61,203.8,357.38,338.99,616.79,338.99,403.41,0,730.41-327.04,730.41-730.41,0-137.6,111.55-249.15,249.15-249.15s249.15,111.55,249.15,249.15h284.55c0-294.77-238.93-533.7-533.7-533.7h.04Z"/>
            <path id="Shading_4" class="st6" d="M5226.75,785.4c0,246.25-199.65,445.9-445.9,445.9s-445.86-199.61-445.9-445.86c0,154.64-65.78,293.94-170.89,391.39,129.61,203.8,357.38,338.99,616.79,338.99,403.41,0,730.41-327.04,730.41-730.41h-284.55.04,0Z"/>
          </g>
        </g>
        <g>
          <path class="st9" d="M1692.94,1804.62c6.6,0,12.21-5.62,12.21-12.25s-5.62-12.21-12.21-12.21c-7.09,0-12.21,5.62-12.21,12.21s5.13,12.25,12.21,12.25Z"/>
          <path class="st9" d="M1660.9,1804.62c7.09,0,12.21-5.39,12.21-12.25s-5.39-12.21-12.21-12.21-12.21,5.62-12.21,12.21,5.62,12.25,12.21,12.25Z"/>
          <path class="st9" d="M2337.52,1957.98h.08c29.63-.15,49.57-18.25,49.57-51.84,0-17.12-3.92-35.96-7.58-50.14l-19.83,5.13c3.43,15.15,6.86,34.23,6.86,47.46,0,15.91-9.31,23-28.39,23h-585.39c-16.89,0-28.39-3.43-28.39-26.16v-85.61h-20.32v17.61c-58.43,10.25-80.22,33.51-80.22,62.84,0,25.94,18.1,42.56,44.75,42.56,20.55,0,31.78-8.82,37.17-20.77,3.43,22.24,17.34,35.93,45.95,35.96h585.69l.04-.04h0ZM1704.18,1903.43c-4.15,6.37-14.66,12.7-32.76,12.7-16.4,0-28.61-6.11-28.61-19.08,0-13.68,14.93-28.12,61.37-36.45v42.83Z"/>
          <path class="st9" d="M2379.33,1975.85c-7.09,0-12.21,5.62-12.21,12.21s5.13,12.25,12.21,12.25c6.6,0,12.21-5.39,12.21-12.25s-5.62-12.21-12.21-12.21Z"/>
          <path class="st9" d="M2347.28,1975.85c-6.6,0-12.21,5.62-12.21,12.21s5.62,12.25,12.21,12.25c7.09,0,12.21-5.39,12.21-12.25s-5.39-12.21-12.21-12.21Z"/>
          <rect class="st9" x="2418.68" y="1784.56" width="21.04" height="173.41"/>
          <path class="st9" d="M3094.36,1861.13c3.43,15.15,6.86,34.23,6.86,47.46,0,15.91-9.31,23-28.39,23h-459.92c-19.08,0-24.2-8.07-33.25-27.14l-37.17-77.55-20.55,9.54,35.7,75.1c-1.24,14.17-15.91,22.02-37.17,22.02s-36.94-4.41-35.7-30.8l-18.36.98c-1.7,29.1,4.15,56.51,51.38,56.51,27.14,0,44.03-11.01,50.63-30.8,8.78,17.83,19.3,28.61,43.5,28.61h460.3c29.63-.15,49.57-18.25,49.57-51.84,0-17.12-3.92-35.96-7.58-50.14l-19.79,5.13-.08-.08h.02Z"/>
          <path class="st9" d="M3098.01,1975.85c-8.07,0-13.46,6.11-13.46,13.19s5.39,13.46,13.46,13.46c7.58,0,13.19-6.11,13.19-13.46s-5.62-13.19-13.19-13.19Z"/>
          <path class="st9" d="M3322.28,1939.62c0,32.53-21.04,47.2-51.61,47.2s-51.38-15.15-51.38-44.75c0-14.66,4.64-33.02,10.03-45.24l-17.87-6.37c-6.37,13.19-12.48,33.74-12.48,56.74,0,39.13,25.18,66.27,69.97,66.27s74.34-28.12,74.34-77.77v-151.17h-21.04v155.05l.04.04h0Z"/>
          <path class="st9" d="M4111.13,1849.14c-36.94,0-68.95,30.8-96.62,81.69-10.74-1.7-17.61-7.58-17.61-23v-26.16h-20.81v25.67c0,19.83-11.23,24.2-28.12,24.2h-475.12v-5.13c0-38.15-17.38-67.25-48.41-67.25s-51.12,25.67-51.12,57.23c0,23,14.66,40.6,45.5,40.6h32.04c-7.35,15.65-25.45,29.59-58.47,29.59-14.44,0-26.43-1.7-33.02-2.94l-1.96,23.98c5.88,1.96,19.3,4.41,34.23,4.41,45.73,0,68.5-23.71,77.06-54.06h478.66c19.83-.15,32.68-7.43,37.06-23,5.13,15.65,19.3,23,36.68,23h70.2c49.16,0,71.67-20.77,71.67-54.06,0-27.63-20.06-54.78-51.84-54.78h0ZM3421.54,1931.55c-18.59,0-29.37-6.11-29.37-17.12,0-13.46,10.03-29.37,30.08-29.37,23.75,0,32.27,26.65,32.53,46.48h-33.25.01ZM4094.77,1931.55h-62.13c18.85-30.8,44.75-55.76,75.32-55.76,22.51,0,35.7,15.91,35.7,30.57,0,17.61-20.28,25.18-48.93,25.18h.04,0Z"/>
          <path class="st9" d="M4666.96,1908.07c0,19.83-11.01,23.49-28.12,23.49h-349.66v-5.13c0-38.15-17.38-67.25-48.41-67.25s-51.12,25.67-51.12,57.23c0,23,14.66,40.6,45.5,40.6h32.04c-7.35,15.65-25.45,29.59-58.47,29.59-14.44,0-26.43-1.7-33.02-2.94l-1.96,23.98c5.88,1.96,19.3,4.41,34.23,4.41,45.73,0,68.5-23.71,77.06-54.06h353.16c28.2-.15,49.8-15.31,49.8-52.33v-121.09h-21.04v123.5h.01ZM4237.8,1931.55c-18.59,0-29.37-6.11-29.37-17.12,0-13.46,10.03-29.37,30.08-29.37,23.75,0,32.27,26.65,32.53,46.48h-33.25.01Z"/>
          <rect class="st9" x="4724.64" y="1784.56" width="21.04" height="173.41"/>
        </g>
      </g>
    </g>
  </g>
</svg>