<?xml version="1.0" encoding="UTF-8"?>
<svg xmlns="http://www.w3.org/2000/svg" xmlns:xlink="http://www.w3.org/1999/xlink" width="1790.64pt" height="158.17pt" viewBox="0 0 1790.64 158.17" version="1.1">
<defs>
<clipPath id="clip1">
  <path d="M 1026 0 L 1034 0 L 1034 158.171875 L 1026 158.171875 Z M 1026 0 "/>
</clipPath>
<clipPath id="clip2">
  <path d="M 1612 23 L 1790.640625 23 L 1790.640625 136 L 1612 136 Z M 1612 23 "/>
</clipPath>
<clipPath id="clip3">
  <path d="M 1533 139 L 1571 139 L 1571 158.171875 L 1533 158.171875 Z M 1533 139 "/>
</clipPath>
<clipPath id="clip4">
  <path d="M 1167 71 L 1203 71 L 1203 158.171875 L 1167 158.171875 Z M 1167 71 "/>
</clipPath>
<clipPath id="clip5">
  <path d="M 1773 141 L 1790.640625 141 L 1790.640625 158.171875 L 1773 158.171875 Z M 1773 141 "/>
</clipPath>
<clipPath id="clip6">
  <path d="M 1147 141 L 1165 141 L 1165 158.171875 L 1147 158.171875 Z M 1147 141 "/>
</clipPath>
<clipPath id="clip7">
  <path d="M 1128 141 L 1146 141 L 1146 158.171875 L 1128 158.171875 Z M 1128 141 "/>
</clipPath>
</defs>
<g id="surface1">
<path style=" stroke:none;fill-rule:nonzero;fill:rgb(80.799866%,68.598938%,3.898621%);fill-opacity:1;" d="M 136.863281 44.453125 L 136.8125 44.414063 C 135.882813 43.855469 134.476563 43.535156 133.53125 43.953125 C 127.480469 43.382813 121.710938 43.445313 115.601563 43.507813 L 115.421875 43.507813 L 115.175781 43.511719 C 112.117188 43.554688 108.953125 43.585938 105.789063 43.535156 L 80.175781 43.007813 C 74.175781 42.847656 67.59375 42.898438 61.144531 43.140625 C 56.359375 43.179688 51.726563 43.300781 46.996094 43.445313 C 42.074219 43.570313 30.316406 43.609375 23.292969 43.625 C 19.554688 43.640625 17.589844 43.640625 17.34375 43.65625 C 16.507813 43.710938 15.507813 44.859375 15.484375 45.796875 C 15.464844 46.3125 15.777344 46.910156 16.671875 46.996094 C 17.335938 47.074219 21.578125 47.089844 29.292969 47.066406 L 37.175781 47.027344 C 39.273438 47.011719 40.253906 47.058594 40.710938 47.003906 L 40.757813 47.003906 C 46.550781 46.425781 52.375 46.457031 58.003906 46.496094 L 58.4375 46.496094 C 62.082031 46.511719 65.851563 46.535156 69.644531 46.386719 C 70.429688 46.566406 71.261719 46.402344 72.058594 46.234375 L 72.179688 46.214844 C 72.535156 46.140625 72.90625 46.074219 73.265625 46.050781 C 74.128906 46.285156 75.117188 46.273438 76.15625 46.253906 C 77.15625 46.234375 78.183594 46.214844 79.113281 46.441406 L 79.121094 46.464844 L 79.28125 46.457031 L 79.28125 46.433594 C 80.097656 46.152344 80.851563 46.300781 81.636719 46.457031 C 81.660156 46.464844 81.78125 46.480469 81.78125 46.480469 C 82.15625 46.558594 82.507813 46.617188 82.851563 46.628906 C 90.175781 46.433594 98.273438 46.691406 108.367188 47.472656 C 108.359375 47.472656 113.148438 47.980469 113.148438 47.980469 L 113.148438 47.972656 L 113.148438 47.980469 L 113.207031 47.980469 C 117.453125 47.566406 121.84375 47.886719 126.085938 48.191406 C 126.101563 48.199219 126.191406 48.199219 126.191406 48.199219 C 129.386719 48.441406 132.398438 48.664063 135.394531 48.589844 L 135.402344 48.628906 L 135.585938 48.570313 L 135.578125 48.53125 L 137.167969 47.261719 L 137.171875 47.269531 L 137.246094 47.191406 L 137.238281 47.175781 C 137.765625 46.328125 137.597656 45.144531 136.863281 44.453125 "/>
<path style=" stroke:none;fill-rule:nonzero;fill:rgb(3.09906%,43.899536%,19.999695%);fill-opacity:1;" d="M 94.484375 100.359375 L 94.613281 100.277344 L 94.613281 99.960938 L 94.5 89.835938 L 94.5 89.804688 L 94.492188 89.78125 C 94.316406 88.253906 94.285156 86.566406 94.242188 84.785156 C 94.203125 82.78125 94.15625 80.707031 93.890625 78.871094 C 93.84375 76.253906 93.332031 73.433594 92.835938 70.707031 L 92.5 68.867188 L 92.464844 68.691406 L 92.34375 68.566406 C 91.945313 68.152344 91.808594 67.644531 91.65625 67.054688 C 91.527344 66.554688 91.390625 66.046875 91.082031 65.5625 C 90.417969 64.316406 89.359375 63.125 88.421875 62.058594 L 88.371094 62.003906 C 88.140625 61.6875 87.867188 61.511719 87.628906 61.359375 C 87.484375 61.265625 87.355469 61.175781 87.210938 61.050781 L 86.992188 60.859375 L 86.867188 60.890625 L 86.699219 60.757813 C 85.847656 60.074219 85.0625 59.804688 84.152344 59.503906 L 84.136719 59.496094 C 83.871094 59.117188 83.363281 59.058594 83.027344 59.050781 L 83.027344 58.796875 L 82.546875 58.730469 L 80.339844 58.390625 L 80.007813 58.34375 L 79.800781 58.613281 C 79.71875 58.714844 79.703125 58.746094 79.242188 58.566406 C 79.023438 58.492188 78.792969 58.40625 78.53125 58.382813 L 78.273438 58.359375 L 78.144531 58.484375 C 78.078125 58.4375 77.988281 58.382813 77.894531 58.328125 L 76.964844 58.046875 L 76.902344 58.484375 C 76.484375 58.476563 76.132813 58.558594 75.84375 58.714844 L 74.375 58.714844 L 73.023438 58.730469 L 73.175781 59.265625 L 73.152344 59.289063 C 72.550781 59.121094 72.101563 59.496094 71.847656 59.710938 C 71.796875 59.75 71.75 59.789063 71.71875 59.8125 C 71.238281 59.890625 70.964844 60.097656 70.777344 60.25 C 70.632813 60.359375 70.582031 60.398438 70.453125 60.410156 L 70.21875 60.421875 L 70.070313 60.613281 C 69.867188 60.851563 69.230469 61.148438 68.878906 61.304688 L 68.136719 61.640625 L 68.296875 61.804688 C 68.175781 61.855469 68.058594 61.933594 67.945313 62.035156 L 67.226563 62.035156 L 67.226563 62.613281 C 67.191406 62.609375 67.167969 62.609375 67.144531 62.597656 L 66.734375 62.425781 C 66.703125 62.417969 66.445313 62.785156 66.445313 62.785156 C 66.007813 63.402344 65.429688 64.019531 64.828125 64.664063 C 64.125 65.433594 63.390625 66.222656 62.832031 67.078125 L 62.660156 67.324219 L 62.769531 67.589844 C 62.632813 67.667969 62.296875 67.886719 62.234375 68.300781 C 61.960938 68.605469 61.898438 69.011719 61.847656 69.28125 C 61.839844 69.359375 61.824219 69.480469 61.800781 69.535156 C 61.503906 69.890625 61.441406 70.257813 61.394531 70.535156 C 61.351563 70.75 61.335938 70.867188 61.25 70.976563 L 60.890625 71.429688 L 61.050781 71.558594 C 60.945313 71.835938 60.945313 72.113281 60.945313 72.289063 C 60.945313 72.371094 60.9375 72.457031 60.929688 72.527344 L 60.695313 72.667969 L 60.753906 73.027344 C 60.847656 73.742188 60.761719 74.410156 60.664063 75.097656 C 60.574219 75.777344 60.488281 76.460938 60.558594 77.230469 C 60.285156 77.648438 60.347656 78.140625 60.402344 78.460938 C 60.414063 78.5625 60.441406 78.714844 60.429688 78.777344 L 60.070313 79.066406 L 60.324219 79.496094 C 60.519531 79.816406 60.363281 80.34375 60.226563 80.84375 C 60.082031 81.320313 59.921875 81.898438 60.085938 82.414063 C 60.046875 82.449219 60 82.496094 59.964844 82.550781 C 59.902344 82.628906 59.84375 82.789063 59.859375 82.960938 C 59.859375 83.363281 59.820313 83.480469 59.804688 83.511719 L 59.542969 84.0625 L 59.507813 84.277344 L 59.980469 84.613281 C 59.925781 84.9375 59.964844 85.246094 60.007813 85.515625 C 60.066406 85.875 60.070313 86.035156 59.964844 86.183594 L 59.671875 86.726563 L 59.964844 87.082031 L 59.964844 87.179688 C 59.949219 87.425781 59.925781 87.875 60.230469 88.199219 C 60.242188 88.257813 60.25 88.316406 60.265625 88.371094 L 59.726563 88.515625 L 60.070313 89.285156 C 60.070313 89.332031 60.054688 89.40625 60.042969 89.46875 C 59.980469 89.6875 59.886719 90.140625 60.109375 90.535156 C 59.941406 90.976563 60.046875 91.402344 60.121094 91.699219 C 60.136719 91.777344 60.164063 91.898438 60.171875 91.96875 C 59.660156 92.519531 59.910156 93.242188 60.054688 93.628906 C 59.816406 93.996094 59.867188 94.429688 59.921875 94.703125 L 59.230469 94.949219 L 59.933594 95.675781 C 59.90625 95.828125 59.90625 96.023438 60.015625 96.234375 C 60.09375 96.355469 60.199219 96.4375 60.308594 96.480469 L 60.09375 96.558594 C 60.105469 96.582031 60.109375 96.605469 60.121094 96.632813 L 60.363281 97.28125 L 60.359375 97.355469 C 60.304688 97.734375 60.386719 98.109375 60.570313 98.402344 C 60.507813 98.484375 60.46875 98.59375 60.453125 98.722656 L 60.183594 99 L 60.453125 99.390625 C 60.664063 99.691406 60.585938 100.09375 60.429688 100.71875 C 60.292969 101.257813 60.121094 101.96875 60.441406 102.566406 L 60.046875 102.945313 L 60.535156 103.320313 C 60.527344 103.34375 60.507813 103.367188 60.503906 103.390625 C 60.375 103.621094 60.152344 104.066406 60.429688 104.53125 L 60.410156 104.476563 C 60.507813 104.710938 60.464844 105.085938 60.414063 105.46875 C 60.347656 106.039063 60.265625 106.734375 60.570313 107.417969 L 60.46875 108.105469 L 60.492188 108.011719 C 60.414063 108.285156 60.46875 108.511719 60.558594 108.671875 L 60.34375 108.773438 L 60.492188 109.257813 C 60.648438 109.753906 60.652344 110.355469 60.652344 111.003906 C 60.664063 112.230469 60.664063 113.609375 61.746094 114.671875 L 61.984375 114.890625 L 62.289063 114.792969 C 63.109375 114.558594 63.140625 113.730469 63.164063 113.300781 C 63.171875 113.199219 63.171875 113.113281 63.1875 113.039063 L 63.191406 112.921875 L 63.164063 112.8125 C 62.832031 111.691406 62.976563 110.21875 63.097656 108.925781 C 63.132813 108.578125 63.164063 108.257813 63.1875 107.941406 L 63.191406 107.792969 L 63.132813 107.640625 C 62.910156 107.191406 62.964844 106.75 63.027344 106.234375 C 63.082031 105.769531 63.132813 105.242188 62.96875 104.710938 C 63.152344 102.332031 63.054688 99.53125 62.949219 97.054688 C 62.914063 96.011719 62.863281 95.019531 62.847656 94.101563 L 62.847656 94.046875 C 62.710938 92.882813 62.75 91.628906 62.785156 90.40625 C 62.808594 89.3125 62.84375 88.199219 62.75 87.164063 C 63.003906 85.980469 62.988281 84.902344 62.964844 83.753906 C 62.953125 83.234375 62.949219 82.710938 62.964844 82.144531 L 62.96875 82.003906 L 62.929688 81.921875 C 63.1875 81.628906 63.242188 81.3125 63.113281 81.003906 C 63.226563 80.558594 63.253906 80.144531 63.257813 79.777344 C 63.269531 79.476563 63.28125 79.191406 63.339844 78.9375 L 63.371094 78.800781 L 63.332031 78.667969 C 63.269531 78.414063 63.332031 78.128906 63.398438 77.816406 C 63.484375 77.445313 63.582031 77.015625 63.425781 76.582031 C 63.851563 75.6875 63.957031 74.601563 64.035156 73.546875 L 64.070313 73.179688 C 64.109375 72.949219 64.027344 72.726563 63.84375 72.542969 L 63.84375 72.503906 C 63.84375 72.035156 64.085938 71.660156 64.390625 71.1875 C 64.710938 70.664063 65.078125 70.0625 65.179688 69.265625 L 65.1875 69.128906 L 65.179688 69.105469 C 65.222656 69.054688 65.269531 69.015625 65.308594 68.976563 C 65.507813 68.816406 65.8125 68.546875 65.8125 68.128906 C 65.804688 68.046875 65.796875 67.976563 65.773438 67.902344 C 66.15625 67.546875 66.402344 67.148438 66.617188 66.796875 C 66.929688 66.246094 67.152344 65.863281 67.777344 65.683594 L 68.074219 65.59375 L 68.152344 65.285156 C 68.242188 64.933594 68.542969 64.746094 69.019531 64.433594 C 69.378906 64.210938 69.773438 63.953125 70.070313 63.566406 C 70.46875 63.601563 70.707031 63.496094 70.851563 63.335938 C 71.332031 63.21875 71.707031 62.925781 72.011719 62.679688 C 72.515625 62.257813 72.695313 62.171875 73.039063 62.339844 L 73.382813 62.488281 L 73.609375 62.265625 C 73.625 62.265625 73.640625 62.257813 73.65625 62.257813 C 73.816406 62.210938 74.097656 62.140625 74.257813 61.871094 C 74.414063 61.835938 74.546875 61.796875 74.664063 61.757813 C 74.945313 61.65625 75.015625 61.644531 75.117188 61.695313 C 75.210938 61.757813 75.40625 61.832031 75.628906 61.773438 L 75.648438 61.816406 L 76.058594 61.757813 L 76.597656 61.695313 C 78.199219 61.480469 79.578125 61.304688 80.828125 61.980469 L 81.269531 62.21875 L 81.539063 61.816406 C 81.589844 61.875 81.652344 61.941406 81.699219 62.011719 C 82.019531 62.371094 82.582031 62.996094 83.394531 62.855469 C 83.578125 63.023438 83.777344 63.140625 83.949219 63.242188 C 84.019531 63.285156 84.121094 63.347656 84.183594 63.386719 L 84.183594 63.417969 L 84.296875 63.5625 C 84.546875 63.902344 85.082031 64.070313 85.511719 64.085938 C 86.449219 65.085938 87.402344 66.460938 87.402344 67.054688 L 87.402344 67.613281 L 87.820313 67.613281 L 87.820313 67.644531 C 87.980469 68.382813 88.1875 69.304688 88.757813 69.914063 C 88.597656 70.289063 88.734375 70.742188 88.796875 70.933594 C 88.8125 70.996094 88.839844 71.078125 88.851563 71.144531 L 88.707031 71.566406 L 89.078125 71.941406 L 89.15625 71.988281 C 89.132813 72.371094 89.308594 72.726563 89.433594 72.980469 C 89.464844 73.050781 89.503906 73.125 89.527344 73.203125 L 89.4375 73.402344 C 88.945313 74.371094 89.613281 74.910156 89.925781 75.164063 C 89.980469 75.210938 90.015625 75.238281 90.046875 75.257813 C 89.796875 75.449219 89.816406 75.65625 89.757813 75.996094 L 89.796875 76.425781 L 89.976563 76.707031 C 89.976563 76.707031 89.980469 76.714844 89.992188 76.714844 C 89.992188 76.730469 90 76.753906 90.007813 76.769531 C 90.03125 76.847656 90.070313 76.964844 90.140625 77.09375 L 89.953125 77.285156 L 89.816406 77.785156 L 90.097656 78.183594 L 90.308594 78.300781 C 90.304688 78.523438 90.390625 78.730469 90.457031 78.867188 C 90.464844 78.890625 90.480469 78.929688 90.484375 78.953125 L 90.441406 79.199219 C 90.257813 80.121094 90.019531 81.320313 90.59375 82.28125 C 90.574219 82.304688 90.546875 82.320313 90.542969 82.335938 C 90.28125 82.691406 90.34375 83.097656 90.390625 83.394531 C 90.402344 83.484375 90.429688 83.644531 90.425781 83.695313 L 90.28125 84.277344 C 90.273438 84.300781 90.464844 84.355469 90.625 84.386719 C 90.609375 84.441406 90.585938 84.496094 90.566406 84.558594 L 90.449219 85.226563 L 90.671875 85.226563 C 90.632813 85.460938 90.625 85.671875 90.617188 85.863281 C 90.617188 86.207031 90.601563 86.425781 90.484375 86.59375 L 90.429688 86.671875 L 90.417969 86.769531 C 90.246094 87.371094 90.46875 87.941406 90.648438 88.414063 C 90.679688 88.5 90.710938 88.578125 90.746094 88.660156 C 90.648438 88.773438 90.546875 88.921875 90.566406 89.148438 C 90.566406 89.199219 90.59375 89.242188 90.601563 89.277344 L 90.480469 89.40625 L 90.59375 89.722656 C 90.648438 89.921875 90.761719 90.03125 90.894531 90.109375 L 90.808594 90.136719 C 90.785156 90.136719 90.785156 90.570313 90.785156 90.570313 L 90.785156 90.722656 L 90.429688 90.835938 L 90.609375 91.203125 C 90.519531 91.367188 90.429688 91.613281 90.519531 91.886719 L 90.28125 92.316406 C 90.296875 92.3125 90.324219 92.574219 90.535156 92.679688 C 90.320313 93.445313 90.863281 94.007813 91.191406 94.347656 C 91.339844 94.480469 91.417969 94.589844 91.484375 94.671875 L 91.207031 94.671875 L 91.417969 95.398438 L 91.417969 95.417969 C 91.375 95.457031 91.320313 95.523438 91.28125 95.578125 L 90.816406 95.796875 L 90.96875 96.421875 L 90.921875 96.582031 C 90.816406 96.910156 90.902344 97.125 90.992188 97.269531 C 91.015625 97.289063 91.03125 97.304688 91.0625 97.332031 C 90.886719 97.492188 90.710938 97.734375 90.671875 98.109375 L 90.617188 98.640625 L 91.046875 98.710938 C 91.007813 98.828125 90.972656 98.9375 90.953125 99.042969 C 90.894531 99.230469 90.847656 99.402344 90.761719 99.539063 L 90.761719 99.550781 C 90.753906 99.5625 90.734375 99.59375 90.726563 99.617188 L 91.472656 100.039063 C 91.359375 100.230469 91.304688 100.4375 91.257813 100.578125 C 91.230469 100.664063 91.207031 100.761719 91.175781 100.8125 L 91.121094 100.8125 L 90.503906 100.816406 L 90.535156 101.546875 C 90.566406 101.660156 90.585938 101.789063 90.601563 101.941406 C 90.617188 102.074219 90.632813 102.222656 90.671875 102.386719 L 90.671875 103.125 C 90.671875 103.214844 90.671875 103.367188 90.703125 103.527344 L 90.617188 103.570313 L 90.671875 103.980469 C 90.703125 104.183594 90.6875 104.390625 90.671875 104.582031 C 90.664063 104.699219 90.65625 104.839844 90.65625 104.960938 L 90.152344 105.226563 L 90.769531 105.917969 L 90.761719 105.949219 C 90.6875 106.113281 90.601563 106.335938 90.601563 106.597656 L 90.160156 106.597656 L 90.910156 107.53125 C 90.972656 107.597656 91.03125 107.8125 91.070313 107.960938 C 91.082031 107.96875 91.082031 107.996094 91.089844 108.011719 C 90.777344 108.3125 90.726563 108.773438 90.710938 109.007813 C 90.695313 109.117188 90.679688 109.269531 90.65625 109.3125 C 90.65625 109.3125 90.664063 109.308594 90.664063 109.300781 L 90.855469 109.5625 C 90.710938 109.675781 90.617188 109.796875 90.566406 109.902344 C 90.488281 110.078125 90.488281 110.269531 90.503906 110.433594 L 89.78125 110.433594 L 90.375 111.042969 L 89.820313 111.230469 L 90.285156 111.617188 L 90.285156 113.121094 C 90.285156 113.394531 90.417969 113.628906 90.632813 113.738281 C 90.648438 113.746094 90.664063 113.746094 90.664063 113.746094 C 90.96875 113.953125 91.289063 113.949219 91.550781 113.878906 L 91.550781 114.511719 L 92.277344 114.289063 C 92.796875 114.128906 93.195313 114.105469 93.605469 114.191406 L 94.195313 114.308594 L 94.273438 113.707031 C 94.554688 111.457031 94.5 109.277344 94.445313 107.167969 C 94.386719 105.109375 94.339844 103.160156 94.597656 101.253906 C 94.761719 100.878906 94.589844 100.53125 94.484375 100.359375 "/>
<path style=" stroke:none;fill-rule:nonzero;fill:rgb(8.198547%,33.299255%,62.69989%);fill-opacity:1;" d="M 51.980469 100.359375 L 52.109375 100.277344 L 52.109375 99.960938 L 51.996094 89.835938 L 51.996094 89.78125 C 51.8125 88.253906 51.78125 86.566406 51.742188 84.785156 C 51.699219 82.78125 51.652344 80.707031 51.382813 78.871094 C 51.335938 76.253906 50.824219 73.433594 50.328125 70.707031 L 49.992188 68.867188 L 49.96875 68.691406 L 49.839844 68.566406 C 49.441406 68.152344 49.304688 67.644531 49.152344 67.054688 C 49.027344 66.554688 48.890625 66.046875 48.585938 65.5625 C 47.917969 64.316406 46.863281 63.125 45.921875 62.058594 L 45.878906 62.003906 C 45.636719 61.6875 45.367188 61.511719 45.121094 61.359375 C 44.976563 61.265625 44.847656 61.175781 44.707031 61.050781 L 44.496094 60.859375 L 44.371094 60.890625 L 44.195313 60.757813 C 43.355469 60.074219 42.5625 59.804688 41.652344 59.503906 L 41.628906 59.496094 C 41.367188 59.117188 40.871094 59.058594 40.527344 59.050781 L 40.527344 58.796875 L 40.050781 58.730469 L 37.832031 58.390625 L 37.503906 58.34375 L 37.292969 58.613281 C 37.226563 58.714844 37.203125 58.746094 36.738281 58.566406 C 36.519531 58.492188 36.285156 58.40625 36.03125 58.382813 L 35.765625 58.359375 L 35.644531 58.484375 C 35.574219 58.4375 35.492188 58.382813 35.390625 58.328125 L 34.46875 58.046875 L 34.398438 58.484375 C 33.988281 58.476563 33.636719 58.558594 33.339844 58.714844 L 31.875 58.714844 L 30.523438 58.730469 L 30.671875 59.265625 L 30.648438 59.289063 C 30.054688 59.121094 29.597656 59.496094 29.351563 59.710938 C 29.300781 59.75 29.253906 59.789063 29.222656 59.8125 C 28.742188 59.890625 28.460938 60.097656 28.269531 60.25 C 28.125 60.359375 28.078125 60.398438 27.945313 60.410156 L 27.714844 60.421875 L 27.570313 60.613281 C 27.363281 60.851563 26.722656 61.148438 26.386719 61.304688 L 25.632813 61.640625 L 25.796875 61.804688 C 25.683594 61.855469 25.550781 61.933594 25.441406 62.035156 L 24.71875 62.035156 L 24.71875 62.613281 C 24.6875 62.609375 24.65625 62.609375 24.640625 62.597656 L 24.238281 62.425781 C 24.199219 62.417969 23.941406 62.785156 23.941406 62.785156 C 23.503906 63.402344 22.933594 64.019531 22.328125 64.664063 C 21.617188 65.433594 20.890625 66.222656 20.332031 67.078125 L 20.152344 67.324219 L 20.265625 67.589844 C 20.128906 67.667969 19.792969 67.886719 19.738281 68.300781 C 19.457031 68.605469 19.394531 69.011719 19.355469 69.28125 C 19.34375 69.359375 19.324219 69.480469 19.304688 69.535156 C 19.007813 69.890625 18.9375 70.257813 18.886719 70.535156 C 18.855469 70.75 18.835938 70.867188 18.742188 70.976563 L 18.390625 71.429688 L 18.550781 71.558594 C 18.445313 71.835938 18.4375 72.113281 18.4375 72.289063 C 18.4375 72.371094 18.4375 72.457031 18.429688 72.527344 L 18.191406 72.667969 L 18.246094 73.027344 C 18.34375 73.742188 18.253906 74.410156 18.160156 75.097656 C 18.070313 75.777344 17.984375 76.460938 18.0625 77.230469 C 17.78125 77.648438 17.847656 78.140625 17.894531 78.460938 C 17.910156 78.5625 17.933594 78.714844 17.925781 78.777344 L 17.566406 79.066406 L 17.824219 79.496094 C 18.015625 79.816406 17.863281 80.34375 17.710938 80.84375 C 17.582031 81.320313 17.414063 81.898438 17.589844 82.414063 C 17.542969 82.449219 17.503906 82.496094 17.460938 82.550781 C 17.398438 82.628906 17.351563 82.789063 17.359375 82.960938 C 17.359375 83.363281 17.320313 83.480469 17.308594 83.511719 L 17.042969 84.0625 L 17 84.277344 L 17.476563 84.613281 C 17.429688 84.9375 17.460938 85.246094 17.503906 85.515625 C 17.566406 85.875 17.574219 86.035156 17.46875 86.183594 L 17.167969 86.726563 L 17.460938 87.082031 L 17.460938 87.179688 C 17.445313 87.425781 17.429688 87.875 17.726563 88.199219 C 17.734375 88.257813 17.742188 88.316406 17.765625 88.371094 L 17.222656 88.515625 L 17.574219 89.285156 C 17.566406 89.332031 17.550781 89.40625 17.542969 89.46875 C 17.488281 89.6875 17.382813 90.140625 17.605469 90.535156 C 17.4375 90.976563 17.542969 91.402344 17.613281 91.699219 C 17.628906 91.777344 17.664063 91.898438 17.671875 91.96875 C 17.160156 92.519531 17.414063 93.242188 17.550781 93.628906 C 17.308594 93.996094 17.367188 94.429688 17.414063 94.703125 L 16.726563 94.949219 L 17.429688 95.675781 C 17.398438 95.828125 17.398438 96.023438 17.511719 96.234375 C 17.589844 96.355469 17.695313 96.4375 17.804688 96.480469 L 17.589844 96.558594 C 17.597656 96.582031 17.613281 96.605469 17.621094 96.632813 L 17.613281 96.632813 L 17.871094 97.28125 L 17.855469 97.355469 C 17.796875 97.734375 17.886719 98.109375 18.070313 98.402344 C 18.007813 98.484375 17.964844 98.59375 17.949219 98.722656 L 17.679688 99 L 17.949219 99.390625 C 18.160156 99.691406 18.078125 100.09375 17.925781 100.71875 C 17.789063 101.257813 17.621094 101.96875 17.933594 102.566406 L 17.550781 102.945313 L 18.03125 103.320313 C 18.023438 103.34375 18.007813 103.367188 18 103.390625 C 17.871094 103.621094 17.648438 104.066406 17.933594 104.53125 L 17.902344 104.476563 C 18.007813 104.710938 17.957031 105.085938 17.910156 105.46875 C 17.847656 106.039063 17.765625 106.734375 18.0625 107.417969 L 17.964844 108.105469 L 17.992188 108.011719 C 17.910156 108.285156 17.972656 108.511719 18.0625 108.671875 L 17.839844 108.773438 L 17.992188 109.257813 C 18.140625 109.753906 18.148438 110.355469 18.160156 111.003906 C 18.160156 112.230469 18.160156 113.609375 19.25 114.671875 L 19.480469 114.890625 L 19.792969 114.792969 C 20.601563 114.558594 20.640625 113.730469 20.667969 113.300781 C 20.667969 113.199219 20.675781 113.113281 20.683594 113.039063 L 20.699219 112.921875 L 20.667969 112.8125 C 20.339844 111.691406 20.472656 110.21875 20.601563 108.925781 C 20.625 108.578125 20.660156 108.257813 20.683594 107.941406 L 20.691406 107.792969 L 20.625 107.640625 C 20.402344 107.191406 20.457031 106.75 20.523438 106.234375 C 20.578125 105.769531 20.632813 105.242188 20.464844 104.710938 C 20.660156 102.332031 20.546875 99.53125 20.449219 97.054688 C 20.410156 96.011719 20.371094 95.019531 20.355469 94.101563 L 20.355469 94.078125 L 20.347656 94.046875 C 20.210938 92.882813 20.242188 91.628906 20.28125 90.40625 C 20.3125 89.3125 20.347656 88.199219 20.242188 87.164063 C 20.5 85.980469 20.480469 84.902344 20.464844 83.753906 C 20.457031 83.234375 20.449219 82.710938 20.464844 82.144531 L 20.464844 82.003906 L 20.433594 81.921875 C 20.683594 81.628906 20.738281 81.3125 20.609375 81.003906 C 20.730469 80.558594 20.746094 80.144531 20.753906 79.777344 C 20.769531 79.476563 20.777344 79.191406 20.84375 78.9375 L 20.867188 78.800781 L 20.835938 78.667969 C 20.761719 78.414063 20.828125 78.128906 20.898438 77.816406 C 20.976563 77.445313 21.074219 77.015625 20.921875 76.582031 C 21.355469 75.6875 21.449219 74.601563 21.539063 73.546875 L 21.570313 73.179688 C 21.605469 72.949219 21.53125 72.726563 21.347656 72.542969 L 21.347656 72.503906 C 21.347656 72.035156 21.585938 71.660156 21.882813 71.1875 C 22.214844 70.664063 22.582031 70.0625 22.675781 69.265625 L 22.695313 69.128906 L 22.6875 69.105469 C 22.722656 69.054688 22.765625 69.015625 22.8125 68.976563 C 23.015625 68.816406 23.316406 68.546875 23.308594 68.128906 C 23.308594 68.046875 23.292969 67.976563 23.277344 67.902344 C 23.664063 67.546875 23.894531 67.148438 24.109375 66.796875 C 24.421875 66.246094 24.644531 65.863281 25.273438 65.683594 L 25.570313 65.59375 L 25.648438 65.285156 C 25.746094 64.933594 26.042969 64.746094 26.515625 64.433594 C 26.875 64.210938 27.265625 63.953125 27.5625 63.566406 C 27.964844 63.601563 28.203125 63.496094 28.347656 63.335938 C 28.839844 63.21875 29.207031 62.925781 29.511719 62.679688 C 30.023438 62.257813 30.191406 62.171875 30.535156 62.339844 L 30.882813 62.488281 L 31.105469 62.265625 C 31.121094 62.265625 31.144531 62.257813 31.144531 62.257813 C 31.3125 62.210938 31.585938 62.140625 31.753906 61.871094 C 31.90625 61.835938 32.050781 61.796875 32.160156 61.757813 C 32.441406 61.65625 32.515625 61.644531 32.609375 61.695313 C 32.714844 61.757813 32.898438 61.832031 33.128906 61.773438 L 33.144531 61.816406 L 33.554688 61.757813 L 34.09375 61.695313 C 35.695313 61.480469 37.074219 61.304688 38.320313 61.980469 L 38.769531 62.21875 L 39.035156 61.816406 C 39.089844 61.875 39.152344 61.941406 39.203125 62.011719 C 39.527344 62.371094 40.085938 62.996094 40.894531 62.855469 C 41.070313 63.023438 41.269531 63.140625 41.445313 63.242188 C 41.519531 63.285156 41.613281 63.347656 41.6875 63.386719 L 41.6875 63.417969 L 41.789063 63.5625 C 42.046875 63.902344 42.585938 64.070313 43.007813 64.085938 C 43.953125 65.085938 44.898438 66.460938 44.898438 67.054688 L 44.898438 67.613281 L 45.3125 67.613281 L 45.3125 67.644531 C 45.472656 68.382813 45.6875 69.304688 46.253906 69.914063 C 46.09375 70.289063 46.230469 70.742188 46.292969 70.933594 C 46.304688 70.996094 46.332031 71.078125 46.34375 71.144531 L 46.214844 71.566406 L 46.574219 71.941406 L 46.660156 71.988281 C 46.636719 72.371094 46.804688 72.726563 46.933594 72.980469 C 46.964844 73.050781 46.996094 73.125 47.03125 73.203125 L 46.941406 73.402344 C 46.4375 74.371094 47.109375 74.910156 47.429688 75.164063 C 47.476563 75.210938 47.507813 75.238281 47.550781 75.257813 C 47.300781 75.449219 47.308594 75.65625 47.253906 75.996094 L 47.300781 76.425781 L 47.46875 76.707031 C 47.484375 76.714844 47.476563 76.714844 47.484375 76.714844 C 47.492188 76.730469 47.492188 76.753906 47.5 76.769531 C 47.535156 76.847656 47.566406 76.964844 47.636719 77.09375 L 47.445313 77.285156 L 47.316406 77.785156 L 47.589844 78.183594 L 47.8125 78.300781 C 47.796875 78.523438 47.894531 78.730469 47.957031 78.867188 C 47.964844 78.890625 47.972656 78.929688 47.988281 78.953125 L 47.9375 79.199219 C 47.75 80.121094 47.527344 81.320313 48.089844 82.28125 C 48.070313 82.304688 48.054688 82.320313 48.039063 82.335938 C 47.78125 82.691406 47.84375 83.097656 47.894531 83.394531 C 47.902344 83.484375 47.9375 83.644531 47.917969 83.695313 L 47.773438 84.277344 C 47.765625 84.300781 47.964844 84.355469 48.117188 84.386719 C 48.101563 84.441406 48.078125 84.496094 48.070313 84.558594 L 47.941406 85.226563 L 48.164063 85.226563 C 48.136719 85.460938 48.128906 85.671875 48.117188 85.863281 C 48.109375 86.207031 48.101563 86.425781 47.980469 86.59375 L 47.9375 86.671875 L 47.910156 86.769531 C 47.75 87.371094 47.964844 87.941406 48.148438 88.414063 C 48.179688 88.5 48.214844 88.578125 48.238281 88.660156 C 48.148438 88.773438 48.054688 88.921875 48.070313 89.148438 C 48.070313 89.199219 48.089844 89.242188 48.101563 89.277344 L 47.972656 89.40625 L 48.089844 89.722656 C 48.148438 89.921875 48.253906 90.03125 48.394531 90.109375 L 48.300781 90.136719 C 48.28125 90.136719 48.28125 90.570313 48.28125 90.570313 L 48.28125 90.722656 L 47.9375 90.835938 L 48.101563 91.203125 C 48.023438 91.367188 47.925781 91.613281 48.023438 91.886719 L 47.78125 92.316406 C 47.789063 92.3125 47.828125 92.574219 48.039063 92.679688 C 47.8125 93.445313 48.359375 94.007813 48.699219 94.347656 C 48.832031 94.480469 48.921875 94.589844 48.984375 94.671875 L 48.707031 94.671875 L 48.910156 95.398438 L 48.921875 95.417969 C 48.875 95.457031 48.824219 95.523438 48.777344 95.578125 L 48.320313 95.796875 L 48.46875 96.421875 L 48.425781 96.582031 C 48.308594 96.910156 48.398438 97.125 48.492188 97.269531 C 48.511719 97.289063 48.539063 97.304688 48.5625 97.332031 C 48.394531 97.492188 48.210938 97.734375 48.164063 98.109375 L 48.117188 98.640625 L 48.542969 98.710938 C 48.5 98.828125 48.46875 98.9375 48.445313 99.042969 C 48.394531 99.230469 48.347656 99.402344 48.253906 99.539063 L 48.261719 99.550781 C 48.246094 99.5625 48.234375 99.59375 48.222656 99.617188 L 48.96875 100.039063 C 48.863281 100.230469 48.796875 100.4375 48.761719 100.578125 C 48.738281 100.664063 48.707031 100.761719 48.675781 100.8125 L 48.625 100.8125 L 47.996094 100.816406 L 48.03125 101.546875 C 48.070313 101.660156 48.089844 101.789063 48.101563 101.941406 C 48.109375 102.074219 48.128906 102.222656 48.164063 102.386719 L 48.164063 103.125 C 48.164063 103.214844 48.164063 103.367188 48.199219 103.527344 L 48.109375 103.570313 L 48.171875 103.980469 C 48.199219 104.183594 48.1875 104.390625 48.171875 104.582031 C 48.164063 104.699219 48.148438 104.839844 48.15625 104.960938 L 47.652344 105.226563 L 48.273438 105.917969 C 48.261719 105.921875 48.253906 105.941406 48.253906 105.941406 C 48.179688 106.113281 48.101563 106.335938 48.101563 106.597656 L 47.652344 106.597656 L 48.40625 107.53125 C 48.46875 107.597656 48.53125 107.8125 48.566406 107.960938 C 48.578125 107.96875 48.585938 107.996094 48.585938 108.011719 C 48.28125 108.3125 48.234375 108.773438 48.210938 109.007813 C 48.1875 109.117188 48.179688 109.269531 48.148438 109.3125 C 48.148438 109.3125 48.15625 109.308594 48.164063 109.300781 L 48.359375 109.5625 C 48.210938 109.675781 48.117188 109.796875 48.070313 109.902344 C 47.988281 110.078125 47.980469 110.269531 48.003906 110.433594 L 47.277344 110.433594 L 47.878906 111.042969 L 47.316406 111.230469 L 47.78125 111.617188 L 47.78125 113.121094 C 47.78125 113.394531 47.910156 113.628906 48.136719 113.738281 C 48.148438 113.746094 48.15625 113.746094 48.15625 113.746094 C 48.460938 113.953125 48.789063 113.949219 49.054688 113.878906 L 49.054688 114.511719 L 49.769531 114.289063 C 50.289063 114.128906 50.691406 114.105469 51.105469 114.191406 L 51.695313 114.308594 L 51.773438 113.707031 C 52.054688 111.457031 51.996094 109.277344 51.941406 107.167969 C 51.886719 105.109375 51.835938 103.160156 52.101563 101.253906 C 52.253906 100.878906 52.09375 100.53125 51.980469 100.359375 "/>
<path style=" stroke:none;fill-rule:nonzero;fill:rgb(92.199707%,39.99939%,4.299927%);fill-opacity:1;" d="M 136.253906 101.117188 L 136.390625 101.039063 L 136.378906 100.722656 L 136.269531 90.597656 L 136.269531 90.539063 C 136.085938 89.015625 136.050781 87.335938 136.015625 85.550781 C 135.964844 83.542969 135.925781 81.472656 135.660156 79.644531 C 135.609375 77.015625 135.097656 74.203125 134.601563 71.484375 L 134.265625 69.628906 L 134.234375 69.460938 L 134.113281 69.324219 C 133.714844 68.921875 133.574219 68.410156 133.425781 67.816406 C 133.296875 67.320313 133.160156 66.808594 132.855469 66.324219 C 132.191406 65.085938 131.125 63.886719 130.1875 62.824219 L 130.140625 62.769531 C 129.90625 62.449219 129.636719 62.273438 129.394531 62.125 C 129.257813 62.03125 129.121094 61.941406 128.988281 61.816406 L 128.769531 61.632813 L 128.636719 61.660156 L 128.46875 61.519531 C 127.621094 60.835938 126.839844 60.574219 125.925781 60.265625 L 125.902344 60.257813 C 125.640625 59.875 125.140625 59.820313 124.796875 59.804688 L 124.796875 59.558594 L 124.316406 59.484375 L 122.105469 59.152344 L 121.777344 59.097656 L 121.578125 59.375 C 121.496094 59.480469 121.472656 59.503906 121 59.335938 C 120.792969 59.265625 120.558594 59.171875 120.304688 59.144531 L 120.046875 59.121094 L 119.917969 59.25 C 119.847656 59.191406 119.765625 59.144531 119.664063 59.097656 L 118.738281 58.8125 L 118.671875 59.242188 C 118.261719 59.242188 117.90625 59.328125 117.609375 59.480469 L 116.148438 59.480469 L 114.796875 59.484375 L 114.953125 60.019531 C 114.933594 60.027344 114.933594 60.035156 114.917969 60.050781 C 114.324219 59.886719 113.859375 60.257813 113.617188 60.472656 C 113.570313 60.511719 113.519531 60.550781 113.492188 60.574219 C 113.003906 60.660156 112.738281 60.863281 112.539063 61.019531 C 112.394531 61.121094 112.355469 61.160156 112.21875 61.171875 L 111.988281 61.1875 L 111.835938 61.375 C 111.644531 61.632813 111.003906 61.902344 110.648438 62.070313 L 109.902344 62.398438 L 110.074219 62.558594 C 109.957031 62.613281 109.824219 62.695313 109.710938 62.800781 L 108.992188 62.800781 L 108.992188 63.386719 C 108.96875 63.386719 108.925781 63.378906 108.910156 63.371094 L 108.503906 63.195313 C 108.472656 63.179688 108.214844 63.546875 108.214844 63.546875 C 107.777344 64.164063 107.207031 64.785156 106.597656 65.433594 C 105.890625 66.195313 105.160156 66.984375 104.605469 67.84375 L 104.421875 68.101563 L 104.535156 68.351563 C 104.40625 68.4375 104.0625 68.652344 104 69.066406 C 103.730469 69.367188 103.664063 69.78125 103.625 70.042969 C 103.609375 70.128906 103.589844 70.25 103.574219 70.289063 C 103.28125 70.660156 103.207031 71.027344 103.160156 71.296875 C 103.128906 71.511719 103.105469 71.628906 103.015625 71.742188 L 102.664063 72.203125 L 102.824219 72.320313 C 102.710938 72.59375 102.710938 72.882813 102.710938 73.050781 C 102.710938 73.125 102.703125 73.234375 102.695313 73.292969 L 102.464844 73.433594 L 102.519531 73.796875 C 102.617188 74.515625 102.527344 75.164063 102.433594 75.871094 C 102.34375 76.546875 102.261719 77.230469 102.328125 77.992188 C 102.054688 78.410156 102.128906 78.910156 102.167969 79.222656 C 102.183594 79.335938 102.207031 79.476563 102.199219 79.539063 L 101.839844 79.824219 L 102.09375 80.253906 C 102.289063 80.582031 102.136719 81.105469 101.988281 81.605469 C 101.855469 82.085938 101.683594 82.679688 101.855469 83.179688 C 101.816406 83.214844 101.769531 83.257813 101.734375 83.320313 C 101.671875 83.40625 101.625 83.554688 101.628906 83.742188 C 101.628906 84.125 101.589844 84.238281 101.574219 84.277344 L 101.320313 84.820313 L 101.273438 85.042969 L 101.75 85.378906 C 101.695313 85.710938 101.734375 86.011719 101.773438 86.273438 C 101.828125 86.640625 101.847656 86.800781 101.742188 86.941406 L 101.441406 87.5 L 101.734375 87.847656 L 101.734375 87.941406 C 101.71875 88.1875 101.695313 88.632813 102 88.960938 C 102.007813 89.027344 102.023438 89.082031 102.027344 89.136719 L 101.496094 89.28125 L 101.847656 90.050781 C 101.839844 90.105469 101.824219 90.171875 101.808594 90.238281 C 101.75 90.460938 101.65625 90.90625 101.878906 91.300781 C 101.710938 91.742188 101.816406 92.183594 101.894531 92.472656 C 101.90625 92.550781 101.9375 92.660156 101.945313 92.734375 C 101.429688 93.277344 101.679688 94.003906 101.824219 94.382813 C 101.578125 94.757813 101.640625 95.203125 101.683594 95.460938 L 100.996094 95.699219 L 101.703125 96.441406 C 101.671875 96.605469 101.671875 96.792969 101.785156 97 C 101.867188 97.125 101.976563 97.195313 102.078125 97.25 L 101.863281 97.3125 C 101.867188 97.347656 101.878906 97.359375 101.894531 97.386719 L 101.886719 97.386719 L 102.136719 98.046875 L 102.128906 98.109375 C 102.066406 98.496094 102.160156 98.882813 102.34375 99.164063 C 102.277344 99.257813 102.238281 99.351563 102.230469 99.480469 L 101.953125 99.757813 L 102.222656 100.148438 C 102.433594 100.464844 102.351563 100.855469 102.191406 101.484375 C 102.0625 102.03125 101.894531 102.730469 102.207031 103.335938 L 101.824219 103.722656 L 102.3125 104.078125 C 102.296875 104.101563 102.277344 104.128906 102.273438 104.152344 C 102.144531 104.390625 101.917969 104.828125 102.199219 105.300781 L 102.175781 105.242188 C 102.277344 105.472656 102.230469 105.839844 102.183594 106.234375 C 102.121094 106.804688 102.039063 107.5 102.335938 108.179688 L 102.246094 108.859375 L 102.261719 108.785156 C 102.183594 109.042969 102.246094 109.269531 102.328125 109.441406 L 102.113281 109.546875 L 102.261719 110.011719 C 102.421875 110.515625 102.421875 111.132813 102.421875 111.769531 C 102.433594 112.988281 102.433594 114.375 103.515625 115.425781 L 103.753906 115.664063 L 104.0625 115.5625 C 104.875 115.320313 104.910156 114.503906 104.941406 114.058594 C 104.941406 113.972656 104.949219 113.878906 104.957031 113.800781 L 104.964844 113.683594 L 104.941406 113.566406 C 104.613281 112.445313 104.746094 110.980469 104.867188 109.6875 C 104.898438 109.339844 104.929688 109.019531 104.957031 108.707031 L 104.964844 108.546875 L 104.898438 108.410156 C 104.671875 107.960938 104.730469 107.511719 104.796875 106.996094 C 104.851563 106.535156 104.90625 106.003906 104.738281 105.472656 C 104.929688 103.105469 104.816406 100.304688 104.722656 97.816406 C 104.683594 96.765625 104.644531 95.773438 104.628906 94.878906 L 104.617188 94.84375 L 104.617188 94.804688 C 104.484375 93.648438 104.523438 92.386719 104.550781 91.179688 C 104.585938 90.082031 104.617188 88.960938 104.523438 87.929688 C 104.773438 86.753906 104.765625 85.660156 104.738281 84.519531 C 104.730469 84.007813 104.710938 83.460938 104.738281 82.90625 L 104.738281 82.765625 L 104.707031 82.691406 C 104.957031 82.394531 105.015625 82.074219 104.882813 81.757813 C 105.003906 81.320313 105.015625 80.90625 105.035156 80.53125 C 105.042969 80.238281 105.050781 79.96875 105.109375 79.707031 L 105.140625 79.5625 L 105.101563 79.429688 C 105.035156 79.175781 105.101563 78.890625 105.171875 78.597656 C 105.25 78.214844 105.347656 77.777344 105.195313 77.339844 C 105.628906 76.449219 105.722656 75.363281 105.8125 74.304688 L 105.84375 73.949219 C 105.875 73.710938 105.804688 73.496094 105.621094 73.308594 L 105.621094 73.265625 C 105.621094 72.796875 105.851563 72.425781 106.15625 71.949219 C 106.484375 71.425781 106.851563 70.84375 106.953125 70.019531 L 106.96875 69.890625 L 106.957031 69.867188 C 106.992188 69.828125 107.035156 69.789063 107.085938 69.75 C 107.277344 69.574219 107.589844 69.3125 107.578125 68.890625 C 107.578125 68.816406 107.566406 68.730469 107.539063 68.667969 C 107.925781 68.3125 108.167969 67.914063 108.382813 67.550781 C 108.695313 67.015625 108.917969 66.625 109.546875 66.453125 L 109.851563 66.355469 L 109.929688 66.054688 C 110.015625 65.707031 110.316406 65.507813 110.796875 65.203125 C 111.148438 64.972656 111.539063 64.71875 111.835938 64.332031 C 112.234375 64.371094 112.484375 64.25 112.621094 64.101563 C 113.101563 63.980469 113.476563 63.695313 113.78125 63.441406 C 114.296875 63.027344 114.464844 62.933594 114.808594 63.101563 L 115.160156 63.257813 L 115.378906 63.035156 C 115.402344 63.027344 115.414063 63.027344 115.429688 63.027344 C 115.582031 62.988281 115.867188 62.894531 116.027344 62.632813 C 116.175781 62.597656 116.316406 62.558594 116.433594 62.519531 C 116.714844 62.417969 116.78125 62.410156 116.882813 62.464844 C 116.988281 62.519531 117.171875 62.59375 117.402344 62.539063 L 117.417969 62.574219 L 117.828125 62.519531 L 118.363281 62.457031 C 119.96875 62.242188 121.34375 62.070313 122.59375 62.742188 L 123.035156 62.996094 L 123.308594 62.585938 C 123.363281 62.648438 123.417969 62.71875 123.476563 62.769531 C 123.789063 63.132813 124.355469 63.761719 125.164063 63.617188 C 125.339844 63.777344 125.542969 63.902344 125.71875 64.015625 C 125.792969 64.050781 125.886719 64.109375 125.949219 64.148438 L 125.949219 64.171875 L 126.0625 64.324219 C 126.320313 64.664063 126.855469 64.832031 127.277344 64.847656 C 128.21875 65.847656 129.171875 67.214844 129.171875 67.816406 L 129.171875 68.375 L 129.585938 68.375 L 129.59375 68.410156 C 129.746094 69.160156 129.953125 70.074219 130.523438 70.667969 C 130.363281 71.050781 130.503906 71.511719 130.5625 71.699219 C 130.585938 71.757813 130.601563 71.84375 130.621094 71.910156 L 130.484375 72.328125 L 130.851563 72.703125 L 130.925781 72.75 C 130.90625 73.132813 131.085938 73.507813 131.207031 73.75 C 131.230469 73.816406 131.269531 73.894531 131.289063 73.964844 L 131.214844 74.171875 C 130.71875 75.132813 131.382813 75.671875 131.703125 75.925781 C 131.75 75.96875 131.789063 75.996094 131.824219 76.03125 C 131.574219 76.226563 131.578125 76.421875 131.535156 76.769531 L 131.574219 77.1875 L 131.738281 77.46875 L 131.757813 77.472656 C 131.765625 77.492188 131.773438 77.507813 131.773438 77.53125 C 131.808594 77.617188 131.839844 77.730469 131.910156 77.859375 L 131.71875 78.046875 L 131.589844 78.546875 L 131.871094 78.960938 L 132.078125 79.066406 C 132.070313 79.296875 132.167969 79.492188 132.222656 79.636719 C 132.238281 79.660156 132.246094 79.691406 132.253906 79.714844 L 132.207031 79.96875 C 132.023438 80.890625 131.789063 82.089844 132.359375 83.058594 C 132.34375 83.066406 132.328125 83.082031 132.328125 83.082031 C 132.054688 83.457031 132.117188 83.859375 132.167969 84.152344 C 132.175781 84.253906 132.207031 84.417969 132.191406 84.46875 L 132.054688 85.035156 C 132.046875 85.066406 132.230469 85.117188 132.398438 85.144531 C 132.375 85.203125 132.351563 85.257813 132.335938 85.324219 L 132.214844 85.992188 L 132.445313 85.992188 C 132.398438 86.21875 132.398438 86.433594 132.390625 86.625 C 132.382813 86.96875 132.375 87.1875 132.253906 87.363281 L 132.207031 87.445313 L 132.183594 87.53125 C 132.023438 88.144531 132.238281 88.707031 132.414063 89.175781 C 132.453125 89.257813 132.488281 89.351563 132.511719 89.429688 C 132.414063 89.542969 132.328125 89.683594 132.335938 89.902344 C 132.335938 89.957031 132.359375 90 132.375 90.050781 L 132.253906 90.167969 L 132.359375 90.503906 C 132.414063 90.679688 132.527344 90.804688 132.671875 90.871094 L 132.574219 90.890625 C 132.550781 90.894531 132.550781 91.335938 132.550781 91.335938 L 132.550781 91.496094 L 132.207031 91.589844 L 132.382813 91.960938 C 132.292969 92.140625 132.199219 92.375 132.292969 92.652344 L 132.054688 93.082031 C 132.054688 93.082031 132.09375 93.339844 132.3125 93.445313 C 132.085938 94.21875 132.640625 94.773438 132.957031 95.105469 C 133.097656 95.261719 133.191406 95.351563 133.253906 95.441406 L 132.976563 95.441406 L 133.1875 96.160156 L 133.191406 96.179688 C 133.148438 96.234375 133.097656 96.28125 133.046875 96.34375 L 132.589844 96.570313 L 132.734375 97.1875 L 132.6875 97.347656 C 132.589844 97.675781 132.671875 97.902344 132.757813 98.027344 C 132.78125 98.058594 132.808594 98.066406 132.824219 98.089844 C 132.664063 98.261719 132.480469 98.496094 132.445313 98.867188 L 132.390625 99.402344 L 132.816406 99.476563 C 132.78125 99.585938 132.742188 99.695313 132.71875 99.796875 C 132.664063 100.011719 132.621094 100.175781 132.527344 100.308594 L 132.535156 100.308594 C 132.527344 100.335938 132.503906 100.359375 132.496094 100.382813 L 133.238281 100.800781 C 133.136719 101.003906 133.070313 101.191406 133.03125 101.351563 C 133.003906 101.417969 132.964844 101.523438 132.941406 101.570313 L 132.894531 101.570313 L 132.269531 101.578125 L 132.300781 102.320313 C 132.335938 102.429688 132.351563 102.546875 132.367188 102.707031 C 132.382813 102.839844 132.398438 102.992188 132.4375 103.152344 L 132.4375 103.882813 C 132.4375 103.980469 132.445313 104.128906 132.472656 104.285156 L 132.390625 104.335938 L 132.445313 104.746094 C 132.480469 104.949219 132.460938 105.152344 132.445313 105.351563 C 132.429688 105.464844 132.429688 105.59375 132.429688 105.734375 L 131.917969 105.984375 L 132.542969 106.679688 C 132.535156 106.683594 132.527344 106.707031 132.527344 106.722656 C 132.460938 106.886719 132.375 107.113281 132.375 107.363281 L 131.925781 107.363281 L 132.679688 108.289063 C 132.742188 108.363281 132.804688 108.578125 132.84375 108.71875 C 132.847656 108.75 132.855469 108.765625 132.855469 108.785156 C 132.550781 109.085938 132.503906 109.527344 132.480469 109.777344 C 132.460938 109.878906 132.453125 110.03125 132.429688 110.078125 L 132.429688 110.066406 L 132.621094 110.324219 C 132.480469 110.433594 132.390625 110.5625 132.335938 110.667969 C 132.253906 110.847656 132.253906 111.023438 132.277344 111.195313 L 131.550781 111.195313 L 132.152344 111.808594 L 131.589844 111.992188 L 132.054688 112.382813 L 132.054688 113.898438 C 132.054688 114.167969 132.191406 114.386719 132.398438 114.511719 C 132.398438 114.511719 132.429688 114.523438 132.445313 114.523438 C 132.734375 114.722656 133.0625 114.707031 133.332031 114.652344 L 133.332031 115.269531 L 134.039063 115.054688 C 134.5625 114.894531 134.960938 114.867188 135.371094 114.953125 L 135.964844 115.074219 L 136.046875 114.46875 C 136.324219 112.230469 136.269531 110.035156 136.214844 107.933594 C 136.15625 105.875 136.109375 103.933594 136.363281 102.027344 C 136.535156 101.652344 136.363281 101.308594 136.253906 101.117188 "/>
<path style=" stroke:none;fill-rule:nonzero;fill:rgb(92.199707%,39.99939%,4.299927%);fill-opacity:1;" d="M 144.941406 148.421875 L 8.066406 148.421875 L 8.066406 9.453125 L 144.941406 9.453125 Z M 153.042969 1.238281 L 0 1.238281 L 0 156.617188 L 153.046875 156.617188 Z M 153.042969 1.238281 "/>
<g clip-path="url(#clip1)" clip-rule="nonzero">
<path style=" stroke:none;fill-rule:nonzero;fill:rgb(92.199707%,39.99939%,4.299927%);fill-opacity:1;" d="M 1026.679688 158.167969 L 1033.8125 158.167969 L 1033.8125 -0.00390625 L 1026.679688 -0.00390625 Z M 1026.679688 158.167969 "/>
</g>
<path style=" stroke:none;fill-rule:nonzero;fill:rgb(3.09906%,43.899536%,19.999695%);fill-opacity:1;" d="M 268.042969 86.054688 C 268.746094 86.054688 268.746094 85.527344 268.570313 84.996094 L 254.628906 45.988281 C 253.746094 43.515625 253.570313 43.515625 252.6875 45.988281 L 239.449219 84.996094 C 239.09375 85.703125 239.449219 86.054688 239.800781 86.054688 Z M 238.035156 92.234375 C 237.152344 92.234375 236.625 92.761719 236.269531 93.644531 L 228.503906 115.707031 C 226.742188 120.652344 225.503906 125.414063 225.503906 128.242188 C 225.503906 131.417969 227.445313 132.828125 231.328125 132.828125 L 232.566406 132.828125 C 234.152344 132.828125 234.683594 133.359375 234.683594 134.066406 C 234.683594 134.949219 233.269531 135.300781 232.035156 135.300781 C 228.152344 135.300781 220.03125 134.773438 218.09375 134.773438 C 216.324219 134.773438 208.558594 135.300781 201.148438 135.300781 C 199.203125 135.300781 198.324219 134.949219 198.324219 134.066406 C 198.324219 133.359375 199.027344 132.828125 200.441406 132.828125 C 201.324219 132.828125 202.910156 132.828125 203.972656 132.652344 C 211.5625 131.949219 214.5625 126.121094 217.5625 118.707031 L 252.863281 25.691406 C 254.804688 20.570313 255.335938 19.6875 256.570313 19.6875 C 257.453125 19.6875 258.160156 20.394531 260.101563 25.335938 C 262.570313 31.160156 286.574219 92.761719 295.929688 114.824219 C 301.757813 128.769531 306.875 131.066406 309.34375 131.949219 C 311.640625 132.828125 314.113281 132.828125 315.347656 132.828125 C 316.582031 132.828125 317.464844 133.183594 317.464844 134.066406 C 317.464844 134.949219 316.757813 135.300781 314.816406 135.300781 C 313.050781 135.300781 299.8125 135.300781 287.988281 134.949219 C 284.636719 134.773438 283.574219 134.59375 283.574219 133.710938 C 283.574219 133.183594 284.105469 132.652344 284.8125 132.476563 C 285.515625 132.125 286.574219 131.242188 285.515625 128.59375 L 271.570313 93.117188 C 271.21875 92.585938 270.867188 92.234375 270.160156 92.234375 "/>
<path style=" stroke:none;fill-rule:nonzero;fill:rgb(3.09906%,43.899536%,19.999695%);fill-opacity:1;" d="M 333.609375 92.058594 C 333.609375 112.355469 334.3125 122.589844 337.316406 125.414063 C 340.140625 127.886719 343.667969 128.949219 355.847656 128.949219 C 363.613281 128.949219 370.675781 128.949219 374.558594 124.003906 C 376.320313 121.355469 377.558594 117.828125 377.910156 115.179688 C 378.085938 113.765625 378.441406 113.0625 379.324219 113.0625 C 380.027344 113.0625 380.382813 113.589844 380.382813 115.355469 C 380.382813 117.121094 379.324219 127.179688 378.265625 131.242188 C 377.203125 134.773438 377.382813 135.652344 368.910156 135.652344 C 356.90625 135.652344 343.667969 134.773438 326.019531 134.773438 C 320.191406 134.773438 316.664063 135.300781 310.484375 135.300781 C 308.71875 135.300781 307.660156 134.949219 307.660156 133.886719 C 307.660156 133.359375 308.191406 132.828125 309.601563 132.828125 C 311.015625 132.828125 312.425781 132.828125 313.839844 132.476563 C 316.839844 131.949219 317.898438 128.417969 318.429688 124.179688 C 319.488281 117.476563 319.136719 105.292969 319.136719 91.703125 L 319.136719 65.226563 C 319.136719 41.929688 319.136719 38.046875 318.78125 33.277344 C 318.429688 28.335938 317.722656 25.160156 311.71875 24.453125 C 310.664063 24.277344 308.71875 24.277344 307.308594 24.277344 C 306.070313 24.277344 305.367188 23.746094 305.367188 23.042969 C 305.367188 22.160156 306.25 21.808594 308.015625 21.808594 C 315.429688 21.808594 326.015625 22.335938 326.371094 22.335938 C 328.839844 22.335938 339.609375 21.808594 344.550781 21.808594 C 346.316406 21.808594 346.84375 22.335938 346.84375 23.042969 C 346.84375 23.746094 345.964844 24.277344 344.902344 24.277344 C 343.667969 24.277344 341.902344 24.453125 340.140625 24.632813 C 335.195313 25.335938 334.136719 28.160156 333.785156 33.277344 C 333.433594 38.046875 333.609375 41.929688 333.609375 65.226563 "/>
<path style=" stroke:none;fill-rule:nonzero;fill:rgb(3.09906%,43.899536%,19.999695%);fill-opacity:1;" d="M 396.878906 65.226563 C 396.878906 42.105469 396.878906 37.867188 396.523438 33.101563 C 396.171875 28.160156 394.9375 25.691406 389.816406 24.632813 C 388.757813 24.453125 386.992188 24.277344 385.582031 24.277344 C 384.347656 24.277344 383.289063 23.746094 383.289063 23.21875 C 383.289063 22.160156 384.171875 21.808594 385.933594 21.808594 C 389.464844 21.808594 394.230469 22.160156 404.113281 22.335938 C 404.996094 22.335938 436.414063 22.335938 439.945313 22.160156 C 443.476563 21.984375 445.417969 21.808594 446.828125 21.277344 C 447.886719 20.925781 448.066406 20.746094 448.773438 20.746094 C 449.125 20.746094 449.476563 21.101563 449.476563 21.984375 C 449.476563 23.042969 448.417969 25.511719 448.066406 29.925781 C 447.886719 32.925781 447.710938 35.75 447.535156 39.105469 C 447.535156 40.691406 447.183594 41.753906 446.300781 41.753906 C 445.417969 41.753906 445.0625 41.046875 445.0625 39.8125 C 444.886719 37.164063 444.359375 35.398438 443.828125 34.164063 C 442.769531 30.632813 441.183594 29.394531 432.355469 28.867188 C 430.0625 28.691406 412.585938 28.515625 412.234375 28.515625 C 411.703125 28.515625 411.351563 28.867188 411.351563 29.925781 L 411.351563 69.992188 C 411.351563 71.054688 411.527344 71.757813 412.410156 71.757813 C 414.527344 71.757813 432.53125 71.582031 436.238281 71.230469 C 440.300781 71.054688 442.945313 70.523438 444.359375 68.582031 C 445.0625 67.523438 445.59375 67.167969 446.300781 67.167969 C 446.652344 67.167969 447.007813 67.347656 447.007813 68.226563 C 447.007813 69.109375 446.300781 72.464844 445.769531 77.582031 C 445.238281 82.523438 445.238281 86.054688 445.0625 88.351563 C 444.886719 89.761719 444.535156 90.289063 443.828125 90.289063 C 442.945313 90.289063 442.769531 89.234375 442.769531 87.996094 C 442.769531 86.9375 442.59375 85.171875 442.238281 83.761719 C 441.535156 81.464844 440.476563 78.996094 433.769531 78.464844 C 429.707031 78.113281 415.410156 77.757813 412.585938 77.757813 C 411.527344 77.757813 411.351563 78.289063 411.351563 78.996094 L 411.351563 91.878906 C 411.351563 97.351563 411.175781 112.882813 411.351563 115.886719 C 411.703125 122.414063 412.585938 125.769531 416.292969 127.359375 C 418.941406 128.59375 423.179688 128.945313 429.179688 128.945313 C 432.53125 128.945313 438.179688 129.121094 442.59375 127.886719 C 447.886719 126.300781 449.125 122.769531 450.535156 116.238281 C 450.890625 114.472656 451.417969 113.765625 452.125 113.765625 C 453.183594 113.765625 453.183594 115.355469 453.183594 116.414063 C 453.183594 117.648438 451.773438 128.769531 451.242188 131.769531 C 450.535156 135.300781 449.300781 135.652344 443.476563 135.652344 C 431.828125 135.652344 426.882813 135.300781 420.707031 135.300781 C 414.527344 135.125 406.410156 134.769531 399.878906 134.769531 C 395.816406 134.769531 392.464844 135.300781 388.230469 135.300781 C 386.640625 135.300781 385.757813 134.949219 385.757813 134.0625 C 385.757813 133.359375 386.464844 132.828125 387.347656 132.828125 C 388.40625 132.828125 389.640625 132.652344 390.878906 132.300781 C 394.054688 131.59375 396.171875 129.300781 396.523438 118.355469 C 396.703125 112.355469 396.878906 105.117188 396.878906 91.703125 "/>
<path style=" stroke:none;fill-rule:nonzero;fill:rgb(3.09906%,43.899536%,19.999695%);fill-opacity:1;" d="M 512.164063 77.582031 L 487.101563 36.988281 C 482.867188 30.277344 480.746094 26.925781 475.628906 25.335938 C 472.980469 24.457031 470.332031 24.277344 469.453125 24.277344 C 467.6875 24.277344 467.15625 23.570313 467.15625 23.042969 C 467.15625 22.335938 467.6875 21.808594 469.804688 21.808594 C 473.863281 21.808594 487.808594 22.335938 488.867188 22.335938 C 490.277344 22.335938 498.574219 21.808594 504.046875 21.808594 C 506.339844 21.808594 506.871094 22.160156 506.871094 22.867188 C 506.871094 23.75 506.164063 24.277344 504.753906 24.277344 C 503.871094 24.277344 501.574219 24.457031 500.515625 24.808594 C 499.28125 25.160156 498.753906 26.042969 498.753906 26.925781 C 498.753906 28.515625 499.457031 29.925781 500.871094 32.398438 C 508.105469 45.636719 513.226563 54.285156 521.34375 67.167969 C 525.933594 60.636719 542.171875 36.105469 543.585938 32.75 C 544.820313 30.457031 545.527344 29.398438 545.527344 27.457031 C 545.527344 26.394531 544.996094 24.984375 542.347656 24.632813 C 541.113281 24.457031 539.347656 24.277344 538.464844 24.277344 C 537.230469 24.277344 536.347656 23.75 536.347656 22.867188 C 536.347656 22.335938 536.878906 21.808594 538.820313 21.808594 C 545.171875 21.808594 552.230469 22.335938 553.46875 22.335938 C 554.878906 22.335938 561.765625 21.808594 567.414063 21.808594 C 569 21.808594 569.53125 22.335938 569.53125 22.867188 C 569.53125 23.75 568.648438 24.277344 567.589844 24.277344 C 566 24.277344 563.882813 24.632813 561.941406 25.160156 C 557.703125 26.394531 554.527344 31.515625 550.46875 37.164063 L 525.582031 72.992188 C 528.757813 77.9375 555.058594 121.179688 558.410156 125.242188 C 560.527344 127.886719 562.824219 131.066406 567.234375 132.125 C 569.53125 132.652344 571.296875 132.828125 572 132.828125 C 573.769531 132.828125 574.121094 133.535156 574.121094 134.066406 C 574.121094 134.949219 573.414063 135.300781 571.824219 135.300781 C 561.941406 135.300781 552.054688 135.476563 543.40625 134.949219 C 540.582031 134.773438 540.761719 134.242188 540.761719 133.359375 C 540.761719 132.828125 541.46875 132.652344 542.527344 132.300781 C 544.289063 131.773438 543.761719 130.359375 542.347656 128.0625 C 534.230469 113.414063 525.402344 98.941406 516.402344 84.289063 L 492.574219 123.121094 C 491.339844 125.242188 489.925781 128.0625 489.925781 129.652344 C 489.925781 131.066406 490.984375 132.300781 493.105469 132.652344 C 494.160156 132.828125 494.339844 132.828125 495.222656 132.828125 C 496.808594 132.828125 497.339844 133.359375 497.339844 134.066406 C 497.339844 134.773438 496.808594 135.300781 495.398438 135.300781 C 491.691406 135.300781 481.277344 134.773438 479.863281 134.773438 C 478.804688 134.773438 471.746094 135.300781 466.273438 135.300781 C 464.507813 135.300781 463.980469 134.59375 463.980469 134.066406 C 463.980469 133.359375 464.683594 132.828125 465.921875 132.828125 C 466.980469 132.828125 468.570313 132.652344 471.039063 132.125 C 475.628906 130.886719 478.984375 127.535156 483.925781 120.121094 "/>
<path style=" stroke:none;fill-rule:nonzero;fill:rgb(3.09906%,43.899536%,19.999695%);fill-opacity:1;" d="M 605.578125 83.585938 C 605.578125 94.703125 605.578125 114.121094 605.757813 115.53125 C 606.285156 123.300781 606.109375 125.59375 611.40625 127.886719 C 615.640625 130.003906 622.703125 130.183594 624.464844 130.183594 C 632.058594 130.183594 645.296875 126.476563 645.296875 110.234375 C 645.296875 101.234375 642.117188 87.644531 630.113281 79.523438 C 624.820313 76.347656 621.640625 75.992188 618.113281 75.640625 C 615.113281 75.289063 608.933594 75.289063 606.464844 75.640625 C 605.933594 75.640625 605.578125 75.816406 605.578125 76.699219 Z M 605.578125 68.40625 C 605.578125 69.640625 605.933594 69.816406 606.464844 70.167969 C 607.519531 70.347656 609.464844 70.699219 615.289063 70.699219 C 624.289063 70.699219 626.9375 70.167969 630.289063 66.460938 C 633.113281 63.109375 634.882813 58.167969 634.882813 52.34375 C 634.882813 40.164063 629.410156 26.570313 614.40625 26.570313 C 612.992188 26.570313 609.289063 26.925781 607.699219 27.457031 C 606.109375 27.808594 605.578125 28.160156 605.578125 29.042969 Z M 591.8125 65.226563 C 591.8125 42.105469 591.8125 37.691406 591.460938 32.925781 C 591.105469 28.160156 589.871094 25.691406 584.578125 24.632813 C 583.164063 24.453125 580.691406 24.277344 580.339844 24.277344 C 578.753906 24.277344 578.046875 23.746094 578.046875 23.042969 C 578.046875 22.160156 579.105469 21.808594 580.691406 21.808594 C 588.105469 21.808594 598.695313 22.335938 599.050781 22.335938 C 603.285156 22.335938 609.109375 21.808594 615.996094 21.808594 C 642.46875 21.808594 647.765625 36.457031 647.765625 44.046875 C 647.765625 57.109375 640.351563 65.402344 632.9375 71.230469 C 644.765625 74.757813 659.945313 85.527344 659.945313 102.824219 C 659.945313 119.238281 646.707031 135.652344 619.878906 135.652344 C 617.054688 135.652344 613.523438 135.300781 608.933594 135.300781 C 603.992188 134.949219 599.757813 134.773438 599.050781 134.773438 C 593.578125 134.773438 588.988281 135.300781 583.164063 135.300781 C 581.574219 135.300781 580.691406 134.949219 580.691406 134.242188 C 580.691406 133.710938 580.871094 132.828125 583.164063 132.828125 C 584.398438 132.828125 584.929688 132.828125 586.339844 132.476563 C 589.339844 131.945313 590.398438 128.238281 590.929688 124.003906 C 591.8125 117.476563 591.8125 105.472656 591.8125 91.703125 "/>
<path style=" stroke:none;fill-rule:nonzero;fill:rgb(3.09906%,43.899536%,19.999695%);fill-opacity:1;" d="M 715.015625 86.054688 C 715.722656 86.054688 715.722656 85.527344 715.546875 84.996094 L 701.601563 45.988281 C 700.71875 43.515625 700.539063 43.515625 699.65625 45.988281 L 686.421875 84.996094 C 686.066406 85.703125 686.421875 86.054688 686.773438 86.054688 Z M 685.007813 92.234375 C 684.125 92.234375 683.597656 92.761719 683.242188 93.644531 L 675.476563 115.707031 C 673.710938 120.652344 672.476563 125.414063 672.476563 128.242188 C 672.476563 131.417969 674.417969 132.828125 678.300781 132.828125 L 679.535156 132.828125 C 681.125 132.828125 681.652344 133.359375 681.652344 134.066406 C 681.652344 134.949219 680.242188 135.300781 679.007813 135.300781 C 675.125 135.300781 667.003906 134.773438 665.0625 134.773438 C 663.296875 134.773438 655.53125 135.300781 648.117188 135.300781 C 646.175781 135.300781 645.292969 134.949219 645.292969 134.066406 C 645.292969 133.359375 646 132.828125 647.410156 132.828125 C 648.296875 132.828125 649.882813 132.828125 650.941406 132.652344 C 658.53125 131.949219 661.53125 126.121094 664.53125 118.707031 L 699.835938 25.691406 C 701.777344 20.570313 702.304688 19.6875 703.539063 19.6875 C 704.425781 19.6875 705.128906 20.394531 707.070313 25.335938 C 709.542969 31.160156 733.546875 92.761719 742.902344 114.824219 C 748.726563 128.769531 753.847656 131.066406 756.316406 131.949219 C 758.613281 132.828125 761.082031 132.828125 762.320313 132.828125 C 763.554688 132.828125 764.4375 133.183594 764.4375 134.066406 C 764.4375 134.949219 763.730469 135.300781 761.789063 135.300781 C 760.023438 135.300781 746.785156 135.300781 734.960938 134.949219 C 731.605469 134.773438 730.546875 134.59375 730.546875 133.710938 C 730.546875 133.183594 731.074219 132.652344 731.78125 132.476563 C 732.488281 132.125 733.546875 131.242188 732.488281 128.59375 L 718.546875 93.117188 C 718.191406 92.585938 717.839844 92.234375 717.132813 92.234375 "/>
<path style=" stroke:none;fill-rule:nonzero;fill:rgb(3.09906%,43.899536%,19.999695%);fill-opacity:1;" d="M 758.070313 26.925781 C 758.070313 21.453125 758.601563 19.6875 760.011719 19.6875 C 761.25 19.6875 764.25 23.21875 765.484375 24.453125 C 767.074219 26.21875 787.132813 51.285156 811.84375 76.523438 C 825.609375 89.9375 843.261719 108.117188 847.851563 112.355469 L 845.90625 38.925781 C 845.730469 29.398438 844.675781 26.21875 839.90625 24.984375 C 836.90625 24.453125 834.257813 24.277344 833.023438 24.277344 C 831.257813 24.277344 830.90625 23.570313 830.90625 22.867188 C 830.90625 21.984375 832.316406 21.808594 834.082031 21.808594 C 841.671875 21.808594 849.085938 22.335938 850.675781 22.335938 C 852.4375 22.335938 857.910156 21.808594 864.796875 21.808594 C 866.734375 21.808594 867.265625 21.984375 867.265625 22.867188 C 867.265625 23.570313 866.734375 24.101563 865.675781 24.277344 C 864.617188 24.453125 863.207031 24.453125 861.265625 24.808594 C 857.203125 25.691406 855.96875 27.457031 855.96875 38.046875 L 855.617188 126.652344 C 855.617188 135.476563 855.261719 136.359375 854.027344 136.359375 C 852.792969 136.359375 851.027344 135.125 842.378906 127.003906 C 841.671875 126.652344 817.136719 102.292969 801.78125 87.289063 C 783.425781 68.230469 770.253906 49.871094 765.839844 45.28125 L 768.132813 114.296875 C 768.484375 126.476563 769.546875 131.066406 773.957031 132.125 C 776.78125 132.828125 779.78125 132.828125 781.195313 132.828125 C 782.605469 132.828125 783.3125 133.359375 783.3125 134.066406 C 783.3125 134.949219 782.429688 135.300781 780.488281 135.300781 C 770.957031 135.300781 764.601563 134.773438 763.367188 134.773438 C 762.132813 134.773438 755.601563 135.300781 748.011719 135.300781 C 746.421875 135.300781 745.363281 135.125 745.363281 134.066406 C 745.363281 133.359375 746.070313 132.828125 747.835938 132.828125 C 749.070313 132.828125 751.011719 132.828125 753.308594 132.125 C 757.1875 130.886719 758.070313 126.121094 758.070313 113.238281 C 758.070313 29.042969 758.246094 56.226563 758.070313 26.925781 "/>
<path style=" stroke:none;fill-rule:nonzero;fill:rgb(3.09906%,43.899536%,19.999695%);fill-opacity:1;" d="M 893.214844 73.523438 C 901.332031 66.285156 920.570313 47.929688 928.515625 39.28125 C 936.988281 29.925781 937.691406 29.042969 937.691406 27.101563 C 937.691406 25.867188 936.988281 24.984375 934.867188 24.277344 C 933.632813 23.925781 932.929688 23.570313 932.929688 22.867188 C 932.929688 22.335938 933.28125 21.808594 934.691406 21.808594 C 935.753906 21.808594 941.046875 22.335938 946.695313 22.335938 C 951.988281 22.335938 961.695313 21.808594 963.992188 21.808594 C 966.464844 21.808594 966.816406 22.160156 966.816406 22.867188 C 966.816406 23.570313 966.285156 24.101563 964.875 24.277344 C 962.050781 24.453125 958.34375 25.160156 956.226563 26.042969 C 951.988281 27.457031 949.695313 29.398438 940.515625 37.691406 C 927.632813 49.339844 912.277344 64.34375 904.511719 71.40625 C 914.039063 81.289063 942.636719 109.53125 950.050781 116.238281 C 962.402344 127.535156 968.40625 130.710938 975.464844 132.300781 C 977.40625 132.652344 976.527344 132.476563 979.527344 132.828125 C 981.113281 133.007813 981.996094 133.359375 981.996094 134.242188 C 981.996094 134.949219 981.113281 135.300781 979.171875 135.300781 L 967.699219 135.300781 C 953.933594 135.300781 950.402344 133.710938 943.339844 128.769531 C 935.398438 123.121094 907.15625 94.175781 893.214844 77.757813 L 893.214844 91.703125 C 893.214844 105.292969 893.039063 117.648438 893.917969 124.003906 C 894.625 129.121094 895.332031 131.066406 899.921875 132.125 C 902.214844 132.652344 905.921875 132.828125 906.628906 132.828125 C 908.214844 133.007813 908.566406 133.359375 908.566406 134.066406 C 908.566406 134.773438 907.863281 135.300781 906.097656 135.300781 C 897.097656 135.300781 886.859375 134.773438 885.976563 134.773438 C 885.445313 134.773438 875.03125 135.300781 870.089844 135.300781 C 868.503906 135.300781 867.265625 134.949219 867.265625 134.066406 C 867.265625 133.359375 867.972656 132.828125 869.5625 132.828125 C 870.445313 132.828125 872.386719 132.652344 873.796875 132.300781 C 876.796875 131.59375 877.328125 128.0625 877.859375 123.828125 C 878.738281 117.476563 878.738281 104.941406 878.738281 91.703125 L 878.738281 65.226563 C 878.738281 41.929688 878.738281 37.691406 878.386719 32.925781 C 878.035156 28.160156 876.976563 25.511719 873.269531 24.808594 C 871.503906 24.453125 870.265625 24.453125 869.210938 24.277344 C 867.972656 24.101563 867.265625 23.746094 867.265625 23.042969 C 867.265625 22.160156 867.972656 21.808594 869.914063 21.808594 C 875.386719 21.808594 885.445313 22.335938 885.976563 22.335938 C 886.683594 22.335938 896.921875 21.808594 901.863281 21.808594 C 903.628906 21.808594 904.511719 22.160156 904.511719 23.042969 C 904.511719 23.746094 903.980469 24.101563 902.566406 24.277344 C 901.511719 24.453125 900.628906 24.453125 899.390625 24.632813 C 894.273438 25.335938 893.742188 27.984375 893.390625 33.105469 C 893.039063 37.867188 893.214844 41.929688 893.214844 65.226563 "/>
<g clip-path="url(#clip2)" clip-rule="nonzero">
<path style=" stroke:none;fill-rule:nonzero;fill:rgb(3.09906%,43.899536%,19.999695%);fill-opacity:1;" d="M 1766.25 92.605469 L 1773.570313 100.371094 L 1773.570313 117.789063 L 1759.378906 117.789063 L 1759.378906 71.414063 L 1734.988281 92.605469 L 1742.308594 100.371094 L 1742.308594 117.789063 L 1726.050781 117.789063 L 1694.238281 74.195313 L 1653.898438 23.007813 L 1648.320313 54.835938 L 1658.898438 56.25 L 1669.871094 69.773438 L 1680.980469 84.953125 L 1704.859375 117.789063 L 1612.441406 117.789063 L 1612.441406 135.414063 L 1790.640625 135.414063 L 1790.640625 71.414063 "/>
</g>
<path style=" stroke:none;fill-rule:nonzero;fill:rgb(3.09906%,43.899536%,19.999695%);fill-opacity:1;" d="M 1477.070313 100.371094 L 1477.070313 117.789063 L 1461.820313 117.789063 L 1461.820313 71.414063 L 1437.429688 92.605469 L 1444.75 100.371094 L 1444.75 117.789063 L 1430.351563 117.789063 L 1430.351563 71.414063 L 1405.960938 92.605469 L 1413.28125 100.371094 L 1413.28125 117.789063 L 1397.140625 117.789063 L 1397.140625 108.835938 C 1397.140625 94.796875 1385.71875 83.375 1371.679688 83.375 L 1345.699219 83.375 L 1379.101563 22.9375 L 1371.539063 22.9375 L 1314.671875 101.277344 L 1371.679688 101.277344 C 1375.851563 101.277344 1379.238281 104.667969 1379.238281 108.835938 L 1379.238281 117.789063 L 1307.339844 117.789063 L 1307.339844 71.414063 L 1282.949219 92.605469 L 1290.269531 100.371094 L 1290.269531 117.789063 L 1270.570313 117.789063 L 1237.378906 71.414063 L 1231.648438 102.050781 L 1242.089844 104.261719 L 1251.460938 117.789063 L 1212.101563 117.789063 L 1212.101563 135.414063 L 1485.230469 135.414063 C 1490.148438 135.414063 1494.140625 131.425781 1494.140625 126.507813 L 1494.140625 71.414063 L 1469.75 92.605469 "/>
<path style=" stroke:none;fill-rule:nonzero;fill:rgb(3.09906%,43.899536%,19.999695%);fill-opacity:1;" d="M 1667.648438 99.054688 L 1662.609375 93.261719 L 1660.769531 95 L 1646.75 95 L 1652.300781 87.953125 L 1658.550781 87.359375 L 1654.300781 80.226563 L 1641.011719 95 L 1635.039063 95 L 1630.988281 99.054688 L 1641.199219 99.054688 "/>
<g clip-path="url(#clip3)" clip-rule="nonzero">
<path style=" stroke:none;fill-rule:nonzero;fill:rgb(3.09906%,43.899536%,19.999695%);fill-opacity:1;" d="M 1563.640625 154.039063 L 1549.621094 154.039063 L 1555.179688 146.988281 L 1561.429688 146.398438 L 1557.171875 139.261719 L 1543.890625 154.039063 L 1537.921875 154.039063 L 1533.871094 158.089844 L 1570.519531 158.089844 L 1565.488281 152.300781 "/>
</g>
<path style=" stroke:none;fill-rule:nonzero;fill:rgb(3.09906%,43.899536%,19.999695%);fill-opacity:1;" d="M 1603.671875 44.203125 L 1579.28125 23.007813 L 1579.28125 135.414063 C 1588.710938 135.414063 1596.359375 127.769531 1596.359375 118.34375 L 1596.359375 69.382813 L 1596.351563 69.382813 L 1596.351563 51.964844 "/>
<path style=" stroke:none;fill-rule:nonzero;fill:rgb(3.09906%,43.899536%,19.999695%);fill-opacity:1;" d="M 1553.449219 51.964844 L 1553.449219 98.589844 L 1535.640625 74.195313 L 1495.308594 23.007813 L 1489.730469 54.835938 L 1500.308594 56.25 L 1511.28125 69.773438 L 1522.390625 84.953125 L 1546.269531 117.789063 L 1501.289063 117.789063 L 1501.289063 135.414063 L 1570.519531 135.414063 L 1570.519531 23.007813 L 1546.128906 44.203125 "/>
<g clip-path="url(#clip4)" clip-rule="nonzero">
<path style=" stroke:none;fill-rule:nonzero;fill:rgb(3.09906%,43.899536%,19.999695%);fill-opacity:1;" d="M 1185.558594 100.371094 L 1185.558594 135.414063 C 1182.808594 151.675781 1171.671875 153.636719 1171.671875 153.636719 C 1166.25 154.300781 1168 158.089844 1168 158.089844 C 1200.730469 159.785156 1202.628906 133.734375 1202.628906 133.734375 L 1202.628906 71.414063 L 1178.238281 92.605469 "/>
</g>
<path style=" stroke:none;fill-rule:nonzero;fill:rgb(3.09906%,43.899536%,19.999695%);fill-opacity:1;" d="M 1127.25 117.789063 L 1106.441406 117.789063 L 1125.261719 89.179688 C 1125.890625 88.324219 1127.25 88.769531 1127.25 89.832031 Z M 1162.28125 135.414063 L 1168.429688 135.414063 C 1173.351563 135.414063 1177.328125 131.425781 1177.328125 126.507813 L 1177.328125 71.414063 L 1152.941406 92.605469 L 1160.269531 100.371094 L 1160.269531 117.789063 L 1142.921875 117.789063 L 1142.921875 60.316406 C 1142.921875 59.054688 1141.339844 58.480469 1140.539063 59.449219 L 1093.050781 117.789063 L 1080.441406 135.414063 L 1160.261719 135.414063 "/>
<g clip-path="url(#clip5)" clip-rule="nonzero">
<path style=" stroke:none;fill-rule:nonzero;fill:rgb(3.09906%,43.899536%,19.999695%);fill-opacity:1;" d="M 1782.140625 141.078125 C 1777.441406 141.078125 1773.628906 144.886719 1773.628906 149.585938 C 1773.628906 154.28125 1777.441406 158.089844 1782.140625 158.089844 C 1786.828125 158.089844 1790.640625 154.28125 1790.640625 149.585938 C 1790.640625 144.886719 1786.828125 141.078125 1782.140625 141.078125 "/>
</g>
<path style=" stroke:none;fill-rule:nonzero;fill:rgb(3.09906%,43.899536%,19.999695%);fill-opacity:1;" d="M 1747.179688 65.746094 C 1751.878906 65.746094 1755.691406 61.9375 1755.691406 57.238281 C 1755.691406 52.542969 1751.878906 48.734375 1747.179688 48.734375 C 1742.480469 48.734375 1738.679688 52.542969 1738.679688 57.238281 C 1738.679688 61.9375 1742.480469 65.746094 1747.179688 65.746094 "/>
<g clip-path="url(#clip6)" clip-rule="nonzero">
<path style=" stroke:none;fill-rule:nonzero;fill:rgb(3.09906%,43.899536%,19.999695%);fill-opacity:1;" d="M 1156.050781 141.078125 C 1151.351563 141.078125 1147.539063 144.886719 1147.539063 149.585938 C 1147.539063 154.28125 1151.351563 158.089844 1156.050781 158.089844 C 1160.75 158.089844 1164.550781 154.28125 1164.550781 149.585938 C 1164.550781 144.886719 1160.75 141.078125 1156.050781 141.078125 "/>
</g>
<g clip-path="url(#clip7)" clip-rule="nonzero">
<path style=" stroke:none;fill-rule:nonzero;fill:rgb(3.09906%,43.899536%,19.999695%);fill-opacity:1;" d="M 1137.300781 141.078125 C 1132.609375 141.078125 1128.800781 144.886719 1128.800781 149.585938 C 1128.800781 154.28125 1132.609375 158.089844 1137.300781 158.089844 C 1142 158.089844 1145.808594 154.28125 1145.808594 149.585938 C 1145.808594 144.886719 1142 141.078125 1137.300781 141.078125 "/>
</g>
<path style=" stroke:none;fill-rule:nonzero;fill:rgb(3.09906%,43.899536%,19.999695%);fill-opacity:1;" d="M 1294.558594 65.746094 C 1299.261719 65.746094 1303.070313 61.9375 1303.070313 57.238281 C 1303.070313 52.542969 1299.261719 48.734375 1294.558594 48.734375 C 1289.859375 48.734375 1286.058594 52.542969 1286.058594 57.238281 C 1286.058594 61.9375 1289.859375 65.746094 1294.558594 65.746094 "/>
<path style=" stroke:none;fill-rule:nonzero;fill:rgb(3.09906%,43.899536%,19.999695%);fill-opacity:1;" d="M 1123.609375 65.746094 C 1128.308594 65.746094 1132.121094 61.9375 1132.121094 57.238281 C 1132.121094 52.542969 1128.308594 48.734375 1123.609375 48.734375 C 1118.910156 48.734375 1115.101563 52.542969 1115.101563 57.238281 C 1115.101563 61.9375 1118.910156 65.746094 1123.609375 65.746094 "/>
<path style=" stroke:none;fill-rule:nonzero;fill:rgb(3.09906%,43.899536%,19.999695%);fill-opacity:1;" d="M 1110.738281 79.917969 C 1115.441406 79.917969 1119.25 76.109375 1119.25 71.410156 C 1119.25 66.714844 1115.441406 62.90625 1110.738281 62.90625 C 1106.039063 62.90625 1102.230469 66.714844 1102.230469 71.410156 C 1102.230469 76.109375 1106.039063 79.917969 1110.738281 79.917969 "/>
</g>
</svg>
