<svg xmlns="http://www.w3.org/2000/svg" xmlns:xlink="http://www.w3.org/1999/xlink" version="1.1" id="layer" x="0px" y="0px" style="enable-background:new 0 0 652 652;" xml:space="preserve" viewBox="20.4 200.8 600 240.5">
<style type="text/css">
	.st0{fill-rule:evenodd;clip-rule:evenodd;fill:#F58423;}
	.st1{fill-rule:evenodd;clip-rule:evenodd;fill:#1858A8;}
</style>
<path class="st0" d="M210.8,383.1v-28c-13,1-26,6-36,13C183.8,376.1,196.7,381.1,210.8,383.1L210.8,383.1z M210.8,339.1v-14h-60.1  c1,12,6,22,13,31C176.7,347,192.7,340,210.8,339.1L210.8,339.1z M210.8,310v-14c-18.1-1-34.1-8-47.1-17c-7.1,9-11.1,20-13,31H210.8z   M210.8,279.9v-28.1c-14,2-26,7.1-36,15C184.7,273.9,196.7,279,210.8,279.9L210.8,279.9z M226.8,251.9v28.1c13-1,26-6,36-13  C252.8,258.9,239.8,253.9,226.8,251.9L226.8,251.9z M226.8,296v14h60.1c-1-12.1-6-22.1-13-31C260.9,287.9,243.9,294,226.8,296  L226.8,296z M226.8,325v14c18.1,1,34.1,8,47.1,17c7-9,11-20,13-31H226.8z M226.8,354.1v28c14-2,26-7,36-15  C252.8,360.1,239.8,356.1,226.8,354.1L226.8,354.1z M133.7,317c0-45.1,38-81.1,85.1-81.1c47.1,0,85.1,36,85.1,81.1  s-38.1,81.1-85.1,81.1C171.7,398.1,133.7,362.1,133.7,317L133.7,317z M133.7,317"/>
<path class="st1" d="M53.5,200.8h225.4v21H106.6c-12,0-21,9-21,20v158.3c0,11,9,20,21,20h171.3v21H53.5c-18.1,0-33.1-14-33.1-31  V231.8C20.5,214.8,35.5,200.8,53.5,200.8L53.5,200.8z M408.1,419.2c-12,0-22-9-22-20V241.9c0-11,9-20,21-20h1c12.1,0,21.1,9,21.1,20  v158.3C429.2,410.2,420.1,419.2,408.1,419.2L408.1,419.2z M513.2,221.8c-12,0-21,9-21,20v158.3c0,11,9,20,21,20h5  c22.1,0,40.1-20,40.1-44.1c0-24.1-18-44.1-40.1-44.1h-5v-22h5c22.1,0,40.1-20,40.1-44.1c0-24.1-18-44.1-40.1-44.1H513.2z   M300.9,441.2v-21c12,0,22-9,22-20V241.9c0-11-9-20-21-20v-21h247.4c34,0,62.1,27,62.1,60.1c0,23.1-14,44.1-34.1,54.1  c25,9,43.1,33,43.1,61.1c0,36-30,65.1-66.1,65.1H300.9z M300.9,441.2"/>
</svg>