<svg width="1200" height="240" version="1.1" xmlns="http://www.w3.org/2000/svg" desc="Created with imagetracer.js version 1.2.6" ><path fill="rgb(180,212,220)" stroke="rgb(180,212,220)" stroke-width="1" opacity="0.27058823529411763" d="M 115.5 46 L 141.5 46 L 142 47.5 L 148.5 51 L 153.5 51 L 156.5 53 L 165 54 L 167.5 58 L 173.5 62 L 179 63.5 L 178 64.5 L 182.5 69 Q 184.8 68.3 184 70.5 L 188 73.5 Q 196 82.5 201 94.5 L 204 103.5 L 204 108.5 L 205.5 110 L 256.5 110 L 257 112.5 Q 263.8 115.2 262 126.5 L 257.5 132 L 253.5 134 L 226.5 135 L 225.5 134 L 210.5 134 Q 208.3 134.8 209 138.5 Q 213.7 148.3 221.5 155 Q 229.4 162.1 240.5 166 L 253.5 168 Q 254.9 165.4 259.5 166 L 264.5 168 L 275.5 166 L 285 160.5 L 286.5 158 L 288.5 159 L 299 150.5 L 307 138.5 L 310 128.5 L 311 116.5 L 307 100.5 L 296.5 86 L 284.5 77 L 274.5 73 Q 273 75.5 267.5 74 L 263.5 71 L 252.5 71 L 238.5 74 L 218.5 84 Q 211.8 82.8 208 78.5 Q 205.4 75.6 206 69.5 L 211.5 62 L 220 56.5 L 221.5 54 L 227.5 54 Q 230.1 50.1 237.5 51 L 246.5 46 L 270.5 46 L 274.5 50 L 285.5 52 L 301.5 60 Q 313.1 66.9 321 77.5 L 333 99.5 L 335 115 L 337 115.5 L 336 117.5 L 337 120.5 Q 333.2 128.2 333 139.5 L 329 148.5 L 316 168 L 307 175.5 Q 308.4 180.1 302.5 178 L 291.5 185 L 280.5 189 L 270.5 190 L 263.5 194 L 252.5 194 L 244.5 190 L 235.5 189 L 224.5 185 Q 210.5 178 200 167.5 L 187 149.5 L 182 134 L 161.5 135 L 160.5 134 L 149.5 134 L 146.5 135 L 145.5 134 L 132.5 134 Q 126.4 132.6 124 127.5 L 123 120.5 L 129 112.5 L 129 110 L 177.5 110 L 178 106.5 L 179 104.5 L 174 94.5 L 162.5 82 Q 157.1 83.9 158 80.5 L 154.5 77 L 144.5 73 L 128.5 71 L 127.5 72 L 117.5 72 L 108.5 74 Q 95.9 78.4 88 87.5 L 78 103.5 L 77 110.5 L 78 111.5 L 78 129.5 L 77 132.5 L 82 143.5 L 91.5 155 L 101.5 162 L 113.5 167 Q 115 164.5 120.5 166 L 122.5 168 L 134.5 168 Q 136.3 165.3 142.5 167 L 150.5 163 L 153.5 163 L 164 155.5 L 164.5 154 L 172 154 L 174.5 158 L 178 160.5 Q 181 163.5 180 170.5 L 174.5 177 L 155 187.5 L 153.5 190 L 144.5 189 L 133.5 194 L 122.5 194 Q 116.6 188.9 105.5 189 L 87.5 181 Q 75 173.5 66 162.5 L 56 146.5 L 55 140.5 L 53.5 139 L 52 138.5 L 52 130 L 55 131.5 Q 60.1 158.4 78.5 172 L 88.5 179 L 107.5 187 L 119.5 188 L 120.5 189 L 136.5 189 L 137.5 188 L 150.5 187 L 152.5 185 L 160.5 183 L 176 172.5 L 178 166.5 L 174.5 160 Q 171.6 157.4 165.5 158 L 146.5 168 L 131.5 171 L 124.5 171 L 114.5 168 L 112.5 168 Q 97.5 164 88 154.5 Q 80.3 147.2 76 136.5 L 75 127.5 L 73 122.5 L 73 116.5 Q 75.9 112.9 75 105.5 L 80 94.5 L 93.5 80 L 107.5 72 L 129.5 68 L 151.5 73 Q 163.9 78.6 172 88.5 Q 179.1 96.4 182 108.5 L 181 111 L 174.5 112 L 133.5 112 L 127 117.5 L 125 123.5 L 130.5 131 L 133.5 132 L 182.5 132 L 184 133.5 L 192 153.5 L 202 167 L 218.5 179 L 236.5 187 L 249.5 188 L 250.5 189 L 265.5 189 L 266.5 188 L 279.5 187 Q 283.3 183.3 290.5 183 L 302.5 176 L 314 167 L 324 153.5 L 330 140.5 L 332 133.5 L 333 118.5 L 332 117.5 L 332 105.5 L 328 93.5 Q 320.7 77.3 307.5 67 L 297.5 60 L 281.5 53 L 256.5 49 L 243.5 52 L 237.5 52 L 223.5 57 L 209 67.5 L 208 72.5 L 213.5 80 L 220.5 81 L 240.5 71 L 248.5 69 L 266.5 69 L 270.5 71 L 278.5 72 L 288.5 77 L 300 86.5 Q 307.1 94.4 311 105.5 L 313 114.5 L 313 124.5 L 308 141.5 L 296.5 156 Q 288.3 163.8 276.5 168 L 261.5 171 L 254.5 171 L 239.5 168 L 230.5 164 L 216 152.5 L 208 141.5 L 206 134.5 L 208.5 132 L 252.5 132 L 259 127.5 L 260 119.5 L 257.5 116 L 252.5 112 L 213.5 112 L 211.5 111 L 206.5 113 L 202 109.5 L 202 105.5 L 196 88.5 L 184 72 L 161.5 56 L 157.5 56 L 148.5 52 L 126.5 49 L 125.5 50 L 108.5 52 L 94.5 57 Q 80.6 63.6 71 74.5 L 61 88.5 L 53.5 109 L 52 108.5 L 52 101 Q 55 102.3 54 98.5 L 59 86.5 L 72.5 67 L 90.5 56 Q 96.3 55.8 99 52.5 L 100.5 50 L 108.5 51 L 114 49 L 115.5 46 Z " /><path fill="rgb(180,212,220)" stroke="rgb(180,212,220)" stroke-width="1" opacity="0.27058823529411763" d="M 382 46 L 386 47.5 L 376 54.5 L 372 62.5 L 372 68 Q 369.3 69.1 370 66.5 Q 372.5 65 371 59.5 L 373 55.5 L 378.5 50 L 382 47.5 L 382 46 Z " /><path fill="rgb(180,212,220)" stroke="rgb(180,212,220)" stroke-width="1" opacity="0.27058823529411763" d="M 415 46 L 417.5 47 L 434.5 47 L 437 46 Q 438.1 48.7 435.5 48 L 434.5 49 L 416.5 49 L 415 46 Z " /><path fill="rgb(180,212,220)" stroke="rgb(180,212,220)" stroke-width="1" opacity="0.27058823529411763" d="M 447 46 Q 450.8 45 452 47.5 L 453.5 50 L 461 56.5 L 462 68.5 Q 460.4 75.4 454.5 78 L 447.5 81 L 407.5 81 L 406 82.5 L 406 101.5 L 407.5 102 L 408.5 103 L 450.5 103 L 459 109.5 Q 463.9 113.6 462 124.5 L 455.5 133 L 449.5 136 L 407 136 L 406 138.5 L 406 156.5 L 407.5 158 L 447.5 158 Q 456.5 160.4 461 167.5 L 462 179.5 Q 460.4 186.4 454.5 189 L 449 191 L 447.5 194 L 432.5 194 L 431.5 192 L 400 192 L 399.5 194 L 385.5 194 L 384 191 Q 376.7 189.6 373 183.5 L 371 179.5 Q 371.6 174.1 370 172 Q 373.7 170.7 372 176.5 L 377.5 186 L 387.5 190 L 444.5 190 L 452.5 188 L 457 184.5 Q 461.7 180.7 460 170.5 L 455.5 164 L 447.5 160 L 406.5 160 L 404 157.5 L 404 137.5 L 406.5 134 L 447.5 134 Q 455.6 132.6 459 126.5 Q 461.7 122.7 460 114.5 L 453.5 107 L 444.5 104 L 405 104 L 404 101.5 L 404 82.5 L 406.5 79 L 446.5 79 L 454.5 76 L 457 73.5 L 460 69.5 L 460 58.5 L 454.5 52 L 447 47.5 L 447 46 Z " /><path fill="rgb(180,212,220)" stroke="rgb(180,212,220)" stroke-width="1" opacity="0.27058823529411763" d="M 533.5 46 L 554.5 47 Q 556 44.5 561.5 46 L 564 47 L 565.5 50 L 573.5 51 L 590.5 59 L 609 75.5 L 612 84.5 Q 609.5 93.5 602.5 98 L 597.5 100 L 590.5 100 L 585.5 98 L 571.5 86 L 563.5 82 L 552.5 80 L 543.5 80 Q 541.8 82.8 535.5 81 L 522.5 87 L 513 95.5 L 505 111.5 L 505 127.5 L 510 139.5 L 519.5 150 L 535.5 158 L 554.5 159 Q 572.2 155.7 582 144.5 L 581.5 142 L 551.5 142 L 543 137 L 539 129.5 L 539 123.5 Q 541.3 116.8 546.5 113 L 553.5 110 L 606.5 110 L 607.5 109 Q 610.5 110.5 607.5 112 L 552.5 112 L 544 117.5 L 541 123.5 L 541 128.5 L 546.5 137 L 555.5 141 L 578.5 141 L 580.5 140 L 584 141 L 584 144.5 L 576.5 152 L 563.5 159 L 553.5 161 L 541.5 161 Q 523 158 513 146.5 Q 506.9 140.1 504 130.5 L 503 114.5 Q 506.2 95.7 519.5 87 L 532.5 80 L 540.5 78 L 554.5 78 Q 574.9 82.1 585.5 96 L 591.5 98 L 596.5 98 Q 603.9 96.9 607 91.5 Q 610.3 87.8 609 79.5 Q 606 72 599.5 68 L 590.5 61 L 570.5 52 L 565.5 52 L 556.5 49 L 538.5 49 L 529.5 52 L 525.5 52 L 512.5 57 Q 497 64.5 487 77.5 L 476 95.5 L 472 111.5 L 472 128.5 Q 477.1 154.4 493.5 169 L 506.5 179 L 524.5 187 L 534.5 189 L 541.5 189 L 542.5 190 L 553.5 190 L 554.5 189 L 567.5 188 Q 572 184.5 579.5 184 L 593.5 176 L 605 165.5 L 616 147.5 L 620 132.5 L 620 126.5 Q 618.5 118.9 613.5 115 Q 611.3 115.8 612 113.5 L 611 110 L 614 111.5 Q 612.9 114.8 615.5 114 L 621 121.5 L 622 132.5 Q 617.1 158.6 600.5 173 L 583.5 184 L 571.5 189 L 562.5 190 L 556.5 194 L 538.5 194 L 535 193 Q 536.1 190.3 533.5 191 Q 502.6 184.4 486 163.5 L 479 154.5 L 471 134.5 Q 472.3 129.7 470 128.5 L 470 110.5 L 472 101.5 L 479 85.5 L 494.5 67 Q 509.1 53.3 532 49 L 533.5 46 Z " /><path fill="rgb(180,212,220)" stroke="rgb(180,212,220)" stroke-width="1" opacity="0.27058823529411763" d="M 657 46 L 661 47.5 Q 653.3 51.3 652 61.5 L 653 65.5 L 652 68 Q 649.3 69.1 650 66.5 L 651 65.5 L 651 55.5 Q 656 52 657 46 Z " /><path fill="rgb(180,212,220)" stroke="rgb(180,212,220)" stroke-width="1" opacity="0.27058823529411763" d="M 679 46 Q 683.9 48.1 693.5 47 L 697.5 46 L 695.5 49 L 680.5 49 L 679 47.5 L 679 46 Z " /><path fill="rgb(180,212,220)" stroke="rgb(180,212,220)" stroke-width="1" opacity="0.27058823529411763" d="M 701 46 L 705 46 L 705 47.5 L 707.5 50 L 713.5 51 L 726 60.5 L 733 71.5 L 735 86.5 L 733 96.5 L 722 114 Q 734.1 118 741 128.5 L 746 138.5 L 748 152.5 Q 745.4 155.4 746 161.5 L 742 169.5 L 732.5 180 L 723.5 186 L 716.5 189 L 708.5 190 L 703.5 194 L 692 194 Q 693.2 190.3 688 192 L 687.5 194 L 660 194 L 657.5 190 L 652 185.5 L 651 183.5 L 651 74.5 L 650 72 Q 652.7 70.9 652 73.5 L 653 74.5 L 653 182.5 L 658.5 189 L 663.5 190 L 698.5 190 L 699.5 189 L 713.5 188 Q 717 184.5 723.5 184 L 739 170.5 Q 747.4 161.9 745 142.5 Q 741.4 128.6 731.5 121 L 719 113.5 L 728 102.5 L 732 93.5 L 733 80.5 Q 730.5 64.5 719.5 57 L 701 48.5 L 701 46 Z " /><path fill="rgb(180,212,220)" stroke="rgb(180,212,220)" stroke-width="1" opacity="0.27058823529411763" d="M 824 46 L 828 48.5 L 893 178.5 L 893 183.5 L 888.5 189 L 881.5 193 L 872 185.5 L 853 146.5 L 849.5 143 L 799.5 143 L 796 146.5 L 781 178.5 L 772.5 190 L 770 191.5 L 769.5 193 L 767.5 193 L 758 186.5 L 757 177.5 L 819 52.5 L 824 46 Z M 825 51 L 823 52 L 759 178 L 759 185 L 765 189 Q 771 190 774 187 L 780 177 L 793 148 L 799 141 L 850 141 L 852 142 L 854 145 L 872 183 L 879 189 L 887 188 L 891 183 L 888 173 L 828 54 L 825 51 Z " /><path fill="rgb(180,212,220)" stroke="rgb(180,212,220)" stroke-width="1" opacity="0.27058823529411763" d="M 904 46 Q 907.8 44.5 907 47.5 L 926.5 68 Q 931.5 67.5 932 71.5 L 932 73.5 L 1002.5 145 L 1005 144.5 L 1005 81.5 Q 1001.2 78.3 1003 69.5 Q 1007 66 1005 56.5 L 1008.5 50 L 1011 48.5 L 1012.5 46 Q 1019.5 44.5 1019 47.5 L 1025 52.5 L 1027 60.5 L 1027 185.5 L 1023.5 191 L 1020.5 191 L 951 121.5 L 925.5 95 Q 921.3 93.7 923 98.5 L 924 99.5 L 924 154.5 L 926 156.5 L 926 172 L 924 172.5 L 924 179.5 L 919.5 189 L 915 191.5 L 914.5 193 L 910 192.5 L 910.5 191 L 903 186.5 L 901 181.5 L 901 90.5 L 900 88.5 L 901 87.5 L 901 52.5 L 904 46 Z M 1014 50 L 1010 52 L 1007 57 L 1007 146 L 1006 147 Q 1007 149 1004 148 L 930 74 L 921 66 Q 922 63 920 64 L 913 57 L 907 51 L 903 54 L 903 182 L 904 185 L 910 189 L 918 188 L 921 184 L 921 95 L 924 92 L 988 156 Q 987 158 990 157 L 996 165 L 1022 189 L 1025 187 L 1025 59 L 1024 55 L 1018 50 L 1014 50 Z " /><path fill="rgb(180,212,220)" stroke="rgb(180,212,220)" stroke-width="1" opacity="0.27058823529411763" d="M 1047 46 Q 1051.1 44.3 1050 48.5 L 1044 53.5 L 1043 55.5 L 1043 183.5 L 1046.5 188 L 1054.5 189 L 1060 185.5 L 1061 182.5 L 1061 132.5 L 1068.5 124 L 1071.5 124 L 1079 131.5 L 1128.5 188 L 1136.5 189 L 1141 187 L 1144 180.5 L 1137 170.5 L 1085 111.5 L 1085 109.5 L 1086 107 L 1087.5 107 L 1132 65.5 L 1133.5 63 L 1138 62 L 1137.5 65 L 1135.5 65 L 1087 109.5 L 1088 112.5 L 1142 173.5 Q 1146.5 176 1145 184.5 L 1139.5 190 L 1133.5 193 L 1122 184.5 L 1080.5 136 Q 1078.3 136.8 1079 134.5 L 1071.5 126 L 1069.5 126 L 1063 132.5 L 1063 182.5 L 1059.5 189 L 1051.5 194 L 1043 187.5 L 1040 178.5 L 1040 59.5 L 1043 51.5 L 1047 46 Z " /><path fill="rgb(180,212,220)" stroke="rgb(180,212,220)" stroke-width="1" opacity="0.27058823529411763" d="M 1054 46 Q 1058.1 44.3 1057 48.5 Q 1061.7 50.8 1063 56.5 L 1063 101 L 1072.5 94 L 1121 48.5 L 1122.5 46 Q 1126.3 44.8 1125 48.5 L 1109.5 61 L 1065.5 103 L 1062.5 104 L 1061 102.5 L 1061 56.5 L 1058.5 52 L 1054 48.5 L 1054 46 Z " /><path fill="rgb(180,212,220)" stroke="rgb(180,212,220)" stroke-width="1" opacity="0.27058823529411763" d="M 1129 46 Q 1133.1 44.3 1132 48.5 Q 1133.3 52 1138 51 Q 1139.7 55.1 1135.5 54 L 1129 48.5 L 1129 46 Z " /><path fill="rgb(180,212,220)" stroke="rgb(180,212,220)" stroke-width="1" opacity="0.27058823529411763" d="M 675.5 62 L 678.5 63 L 701.5 63 Q 710.4 64.6 714 71.5 L 716 75.5 L 717 86.5 L 715 95.5 L 707.5 104 L 696.5 109 Q 683.8 107.3 675.5 110 L 672 107.5 L 672 64.5 L 673.5 63 L 675.5 62 Z M 674 65 L 673 68 L 674 71 L 674 103 L 673 104 L 674 107 L 697 107 L 709 101 L 715 90 Q 717 77 712 72 Q 710 66 704 65 L 674 65 Z " /><path fill="rgb(180,212,220)" stroke="rgb(180,212,220)" stroke-width="1" opacity="0.27058823529411763" d="M 370 76 L 372 76.5 L 372 164 Q 369.3 165.1 370 162.5 L 371 161.5 L 371 78.5 L 370 76 Z " /><path fill="rgb(180,212,220)" stroke="rgb(180,212,220)" stroke-width="1" opacity="0.27058823529411763" d="M 823.5 88 L 827 89.5 L 844 125.5 L 838.5 128 L 837.5 127 L 814.5 127 L 812.5 128 L 810.5 128 L 805 127 L 805 123.5 L 820 95.5 L 821 90.5 L 823.5 88 Z M 824 91 L 807 125 Q 809 128 815 126 L 817 126 L 821 125 Q 827 123 829 126 L 841 126 L 842 125 L 826 93 Q 827 90 824 91 Z " /><path fill="rgb(180,212,220)" stroke="rgb(180,212,220)" stroke-width="1" opacity="0.27058823529411763" d="M 674.5 123 L 701.5 123 Q 703 125.5 708.5 124 Q 717.8 127.2 723 134.5 L 727 142.5 L 727 156.5 L 719.5 168 L 706.5 175 Q 701.7 173.7 700.5 176 L 674.5 176 L 672 175 L 672 125.5 L 674.5 123 Z M 676 125 L 673 128 L 674 131 L 674 170 L 673 171 L 674 174 L 703 174 L 717 168 Q 723 164 725 156 L 725 144 L 718 131 L 709 126 Q 704 127 703 125 L 676 125 Z " /><path fill="rgb(0,0,0)" stroke="rgb(0,0,0)" stroke-width="1" opacity="0" d="M 0 0 L 1199.5 0 L 1200 0.5 L 1200 240 L 0.5 240 L 0 239.5 L 0 0 Z M 114 46 L 110 49 L 100 50 Q 96 54 89 54 L 76 62 L 74 66 Q 71 65 72 68 L 69 70 L 67 73 L 65 74 L 55 91 L 52 92 L 52 147 L 54 147 Q 57 157 64 165 L 67 166 L 69 170 L 95 187 Q 100 186 102 190 L 112 191 L 118 194 L 140 194 Q 144 189 155 190 L 172 182 L 173 179 L 176 178 Q 179 179 178 177 L 182 174 L 182 163 L 180 160 L 174 154 L 163 154 L 158 158 Q 154 157 155 160 Q 153 163 147 162 L 141 166 L 117 166 L 113 165 L 110 162 L 104 161 L 94 154 L 85 144 Q 86 141 84 142 L 78 130 L 78 109 L 82 104 L 82 100 Q 86 97 87 92 L 94 86 L 95 83 L 99 82 Q 101 83 100 81 L 105 78 L 107 79 L 112 75 L 117 74 L 142 74 L 149 78 L 155 79 L 165 86 L 174 99 L 174 102 L 178 107 L 178 110 L 129 110 Q 127 115 122 114 L 122 130 L 124 130 L 126 134 L 130 134 L 140 138 L 143 137 L 178 137 L 181 136 Q 184 138 182 145 Q 186 147 186 153 L 189 154 L 190 159 L 199 169 Q 198 171 201 170 L 203 174 L 207 175 L 222 186 Q 229 186 232 190 L 242 191 L 248 194 L 269 194 L 279 190 L 285 190 L 293 186 Q 296 187 295 184 L 300 182 Q 303 183 302 181 L 308 178 L 311 174 Q 314 175 313 173 L 317 170 L 318 168 Q 317 165 321 166 L 327 157 Q 326 153 329 154 L 331 148 Q 330 144 334 146 L 334 140 L 336 137 L 338 127 L 338 114 L 334 100 Q 335 93 333 94 L 330 90 Q 331 85 328 86 L 323 77 L 320 74 L 317 70 Q 314 71 315 69 L 296 54 L 290 53 L 284 49 L 278 49 L 273 46 L 245 46 L 240 49 L 232 49 L 231 50 Q 227 49 228 52 L 221 54 L 218 57 L 208 62 L 205 67 Q 204 75 206 81 L 216 86 L 222 86 L 232 79 L 238 78 L 241 75 L 245 74 L 271 74 L 276 75 L 279 78 L 283 78 L 290 83 Q 292 82 291 85 L 296 89 Q 295 91 298 90 L 306 104 L 306 111 L 309 117 L 308 127 L 306 129 L 306 137 L 299 148 L 292 154 L 290 157 L 270 166 L 247 166 L 243 165 L 240 162 L 236 162 L 228 157 Q 225 158 226 156 L 224 154 L 218 148 L 216 146 Q 213 145 214 142 L 211 139 L 211 136 L 214 137 L 251 137 Q 253 134 260 134 L 262 132 Q 261 129 264 130 L 265 126 L 265 119 Q 262 120 263 115 L 258 110 L 208 110 L 206 109 L 207 105 L 206 100 L 203 97 L 202 91 L 198 85 Q 199 80 195 82 Q 195 76 190 73 L 187 70 L 184 66 L 173 58 L 155 49 Q 146 51 144 46 L 114 46 Z M 382 46 Q 379 50 374 50 L 373 53 Q 374 56 370 54 L 369 61 L 371 72 L 369 81 L 369 160 L 371 168 L 370 170 L 370 184 L 371 185 Q 370 187 373 186 L 375 190 Q 381 190 385 194 L 449 194 L 457 190 L 458 188 L 462 186 L 464 178 L 464 171 L 462 166 L 454 158 L 450 157 L 409 157 L 407 156 L 410 144 L 410 154 L 412 153 L 414 154 L 428 154 L 429 153 L 454 153 L 456 154 L 457 157 L 461 158 L 463 165 L 466 163 L 467 163 L 467 168 L 480 168 L 480 176 L 490 177 Q 491 173 489 174 L 487 172 L 482 168 L 481 163 L 478 164 Q 480 158 476 157 Q 477 154 474 155 L 473 153 Q 474 150 470 151 L 471 141 L 473 142 L 474 148 Q 473 151 476 150 L 478 157 L 482 160 Q 481 163 484 162 L 486 167 L 494 174 L 497 175 L 498 178 L 502 179 Q 504 178 503 181 L 521 190 L 532 191 L 537 194 L 559 194 Q 564 190 575 190 L 591 182 L 602 174 L 610 164 L 613 162 L 616 156 Q 615 153 618 154 L 619 148 Q 618 145 621 146 L 623 140 L 623 121 L 622 120 Q 623 117 620 118 L 619 113 L 609 109 L 552 109 Q 545 110 543 114 Q 540 113 541 117 L 538 118 L 538 134 L 540 134 L 542 139 L 548 143 Q 552 142 554 144 L 578 144 L 579 143 Q 581 142 580 145 L 569 153 Q 561 154 562 152 Q 562 149 567 149 L 568 146 L 561 146 L 560 148 Q 559 150 555 149 L 556 146 L 553 147 Q 547 148 545 145 L 546 143 Q 541 143 540 139 Q 537 140 538 136 L 537 136 L 533 129 L 534 117 L 537 116 L 538 116 L 538 112 L 543 109 Q 545 110 544 108 L 547 106 L 549 106 L 551 105 L 560 105 L 560 102 L 564 102 L 565 105 L 576 105 L 579 106 L 581 105 Q 587 107 586 103 L 584 102 Q 580 103 581 100 L 578 98 Q 576 95 574 97 Q 575 93 572 94 L 570 91 L 564 89 Q 561 90 562 87 L 545 87 L 544 86 L 533 87 L 532 90 Q 525 89 526 92 L 523 94 L 519 99 Q 520 101 516 100 L 515 103 Q 517 110 511 108 L 512 132 L 512 129 L 513 129 L 513 132 Q 516 131 515 136 L 518 136 L 519 142 L 522 144 Q 521 148 526 146 L 526 149 Q 528 152 535 150 L 536 152 L 535 154 L 544 154 L 545 153 Q 555 152 561 155 L 558 157 L 538 157 L 533 154 L 527 153 L 522 149 Q 519 150 520 148 L 517 145 L 510 136 L 510 132 L 507 130 L 507 111 L 510 108 L 510 104 L 517 94 Q 519 95 518 93 L 526 87 L 531 86 Q 531 83 536 83 L 538 83 Q 543 85 545 82 L 563 83 L 564 86 Q 568 85 571 88 Q 573 87 572 90 L 576 91 L 584 99 L 590 102 L 599 102 L 607 97 Q 606 94 609 95 L 611 90 L 614 89 L 614 79 L 611 78 L 610 74 L 593 58 Q 587 58 586 54 L 580 53 L 577 50 L 567 49 L 563 46 L 533 46 L 529 49 L 519 50 L 513 54 Q 508 52 509 56 L 498 62 L 496 65 L 494 66 Q 491 65 492 68 L 489 70 L 482 78 L 482 80 L 478 82 L 477 87 L 474 89 L 474 91 L 473 94 Q 475 99 471 98 L 469 99 L 471 92 Q 470 88 473 89 L 474 84 L 474 80 L 477 80 Q 475 75 480 76 L 487 67 Q 491 65 488 63 Q 482 62 481 64 L 479 65 L 479 72 Q 473 74 475 68 L 467 68 L 466 76 L 464 75 Q 461 74 462 78 Q 461 81 459 78 L 464 69 Q 466 60 462 57 Q 463 53 461 54 L 458 50 L 452 46 L 382 46 Z M 657 46 Q 655 51 650 50 L 649 57 Q 647 63 650 65 L 650 76 L 649 77 L 649 168 L 650 169 Q 652 175 649 177 L 650 187 L 652 190 L 661 194 L 705 194 L 710 191 L 720 190 L 728 186 L 737 178 Q 739 179 738 177 L 742 174 Q 741 169 746 168 L 748 160 Q 747 157 750 158 L 751 156 L 750 144 L 747 141 L 746 132 L 742 129 Q 743 125 741 126 L 738 123 Q 734 117 726 114 L 724 112 L 727 110 L 731 104 Q 730 101 733 102 L 734 101 L 735 91 L 737 87 L 737 79 L 735 78 L 734 68 L 731 66 L 730 63 L 724 57 L 722 54 L 716 50 L 709 49 L 706 46 L 657 46 Z M 824 46 L 819 47 Q 816 48 818 50 L 818 54 L 814 59 L 813 64 L 810 67 L 802 83 L 801 88 L 798 91 L 798 94 L 794 99 L 794 102 L 789 109 L 789 112 L 782 123 L 781 128 L 774 139 L 774 142 L 769 149 L 769 152 L 762 162 L 761 168 L 754 179 L 754 186 L 756 186 L 757 189 Q 758 191 756 190 L 754 188 L 753 188 L 751 188 L 751 192 L 754 193 L 759 190 L 767 194 L 777 190 Q 780 189 779 184 L 782 182 L 782 179 L 786 173 L 787 168 L 790 166 Q 789 162 792 160 Q 791 157 794 158 L 795 152 L 798 146 L 847 146 L 849 145 L 853 150 L 854 156 L 858 160 L 858 164 Q 862 166 862 172 L 866 176 L 866 180 Q 870 181 870 187 L 875 191 L 881 194 L 884 194 L 890 191 L 894 187 L 894 175 L 891 174 L 891 172 L 891 170 L 890 168 L 887 166 L 886 161 Q 887 157 885 158 Q 881 157 882 152 L 879 150 L 878 144 Q 874 142 874 136 L 871 134 L 870 128 L 867 126 L 866 120 Q 862 118 862 112 L 859 110 L 858 104 Q 854 102 854 96 L 851 94 L 850 88 L 847 86 L 846 80 Q 841 78 842 72 L 839 70 L 838 64 L 835 62 L 834 56 L 831 54 L 830 48 Q 829 45 824 46 Z M 900 46 L 898 48 Q 897 52 899 54 L 899 185 L 902 190 Q 908 190 912 194 L 923 189 Q 922 185 925 186 L 926 184 L 926 100 L 928 99 L 956 129 L 956 130 L 964 137 Q 963 139 966 138 L 968 142 L 972 145 Q 971 147 974 146 L 976 150 L 980 153 L 982 156 L 992 165 Q 991 167 994 166 L 995 169 L 1002 174 L 1003 177 L 1006 178 L 1007 181 L 1019 192 L 1027 193 L 1028 192 L 1028 181 L 1029 180 L 1029 61 L 1027 52 L 1020 46 L 1012 46 L 1007 50 L 1005 50 L 1005 54 L 1002 56 L 1002 138 L 1003 139 L 1003 142 L 1001 141 L 999 139 L 996 137 L 996 136 L 948 88 Q 949 85 947 86 L 944 82 L 940 80 Q 941 77 939 78 L 937 76 L 935 74 L 933 72 L 928 68 Q 929 65 927 66 L 925 64 L 923 62 L 921 60 L 916 56 L 914 53 L 908 46 L 900 46 Z M 1047 46 L 1043 49 L 1041 53 L 1038 54 L 1038 84 L 1037 85 L 1038 185 L 1041 186 L 1042 190 L 1051 194 L 1054 194 L 1060 190 L 1062 190 L 1063 188 Q 1062 185 1065 186 L 1066 180 L 1065 176 Q 1063 169 1066 168 L 1066 145 L 1067 144 L 1065 133 L 1070 128 L 1072 128 L 1075 133 Q 1074 135 1077 134 L 1099 161 Q 1098 163 1101 162 L 1102 165 L 1105 166 L 1110 173 Q 1109 175 1112 174 L 1114 178 L 1117 179 Q 1118 185 1123 189 L 1133 194 L 1136 194 L 1144 190 L 1146 188 L 1147 184 L 1146 180 Q 1147 173 1145 174 L 1142 170 L 1138 168 Q 1139 165 1137 166 L 1128 156 Q 1129 153 1126 154 L 1122 148 L 1120 146 L 1101 124 L 1098 122 L 1097 120 Q 1098 117 1096 118 L 1094 116 L 1089 112 Q 1089 106 1093 106 Q 1095 107 1094 105 L 1102 98 Q 1104 99 1103 97 L 1107 94 L 1108 91 L 1115 86 Q 1117 87 1116 85 L 1128 74 Q 1130 75 1129 73 L 1133 70 L 1134 68 L 1138 66 L 1138 60 L 1137 59 L 1138 50 Q 1133 51 1132 46 L 1122 46 L 1117 50 L 1115 53 L 1111 54 L 1109 58 Q 1106 57 1107 60 L 1104 62 L 1102 65 L 1090 74 L 1088 78 Q 1085 77 1086 80 L 1079 85 L 1077 88 L 1075 89 L 1065 98 L 1066 93 L 1066 57 L 1065 56 Q 1066 53 1063 54 Q 1064 49 1060 48 L 1058 48 L 1058 46 L 1047 46 Z M 1113 47 L 1112 48 L 1104 48 L 1105 56 L 1105 54 L 1108 53 Q 1111 54 1109 50 L 1111 50 L 1113 50 Q 1116 49 1113 47 Z M 163 48 L 163 49 L 168 49 L 163 48 Z M 172 48 L 171 53 L 176 54 L 176 48 L 172 48 Z M 216 48 L 217 51 Q 218 48 224 49 L 216 48 Z M 297 48 L 298 50 Q 300 49 299 53 L 304 53 L 304 52 Q 298 54 300 48 L 297 48 Z M 304 48 Q 302 54 308 52 L 307 57 L 309 57 L 312 61 L 314 60 L 320 60 L 320 52 Q 314 50 316 56 L 312 55 Q 311 50 316 52 L 316 48 L 304 48 Z M 368 48 L 368 52 Q 371 53 370 50 L 373 49 L 368 48 Z M 462 48 Q 460 53 464 52 Q 466 47 462 48 Z M 496 48 L 496 52 Q 501 51 499 55 L 497 56 Q 494 55 495 58 L 497 57 L 499 58 L 500 55 L 502 55 L 507 53 L 506 52 Q 508 48 514 49 L 496 48 Z M 583 48 L 583 49 L 588 50 Q 591 49 589 53 L 594 54 Q 596 53 595 57 L 600 58 Q 602 57 601 60 L 605 62 L 607 66 L 611 69 L 611 72 L 615 72 Q 613 78 618 76 L 619 81 L 619 88 Q 615 87 617 92 L 614 92 Q 613 97 616 97 L 616 109 L 619 110 Q 621 109 620 112 L 622 112 L 624 117 L 626 116 L 627 121 Q 626 125 629 124 L 630 129 L 629 133 Q 630 138 627 137 L 627 144 L 623 144 L 622 156 L 620 155 Q 617 156 618 160 Q 619 162 621 160 L 632 160 L 632 168 Q 638 166 636 172 L 640 172 L 640 168 L 645 168 L 645 76 Q 638 74 640 80 L 632 80 L 632 92 L 624 92 L 624 85 L 625 84 L 624 80 Q 626 74 620 76 L 620 72 L 616 72 L 616 68 L 624 68 L 624 64 L 608 64 L 608 48 L 604 48 L 604 56 L 596 56 L 596 48 L 583 48 Z M 640 48 Q 641 58 639 64 L 642 65 L 645 64 L 645 52 L 649 52 L 649 48 L 640 48 Z M 720 48 L 720 49 Q 725 48 726 53 Q 725 55 728 54 L 728 56 L 730 56 L 731 61 L 735 60 L 736 64 L 736 48 Q 730 46 732 52 L 728 52 L 728 48 L 720 48 Z M 840 48 L 840 51 L 837 53 Q 836 57 839 58 Q 838 62 842 60 L 843 71 L 844 71 Q 843 66 848 68 L 848 52 Q 842 54 844 48 L 840 48 Z M 924 48 Q 926 54 921 52 Q 919 50 918 53 L 922 54 L 925 58 Q 927 57 926 60 L 928 60 L 928 48 L 924 48 Z M 992 48 L 992 56 Q 998 58 996 52 L 1002 52 L 1002 48 L 992 48 Z M 1030 48 Q 1028 54 1035 52 Q 1037 46 1030 48 Z M 1066 48 L 1066 52 L 1072 52 L 1072 48 L 1066 48 Z M 208 52 L 208 57 Q 211 58 210 54 L 217 53 L 208 52 Z M 809 56 L 808 60 L 809 60 L 809 56 Z M 997 56 Q 998 62 992 60 Q 990 66 997 64 L 997 56 Z M 1070 56 L 1071 61 L 1071 80 L 1070 81 L 1070 87 L 1074 86 L 1077 82 Q 1079 83 1078 80 L 1083 76 Q 1085 77 1084 74 L 1086 74 L 1086 72 L 1088 72 L 1088 70 L 1092 69 L 1094 66 Q 1096 64 1094 63 Q 1089 62 1088 64 L 1080 64 L 1080 60 L 1073 60 Q 1075 54 1070 56 Z M 804 63 L 800 64 L 800 72 L 799 73 L 799 80 L 801 80 L 802 76 Q 801 70 805 72 L 806 65 L 804 63 Z M 933 63 L 931 65 L 934 69 L 937 70 L 940 74 L 942 74 Q 940 78 944 77 L 945 78 L 944 76 L 945 64 Q 941 62 933 63 Z M 196 64 L 196 72 Q 200 73 198 68 L 200 68 Q 202 62 196 64 Z M 332 64 Q 334 70 328 68 Q 326 74 332 72 L 332 80 L 331 81 Q 329 86 335 84 L 335 92 L 336 92 L 336 65 L 332 64 Z M 322 68 L 323 72 L 324 72 Q 325 67 322 68 Z M 846 72 Q 844 78 849 76 Q 851 70 846 72 Z M 1136 72 L 1134 76 L 1132 75 L 1130 78 L 1127 80 L 1130 81 L 1136 80 L 1136 72 Z M 201 76 L 200 80 L 201 80 L 201 76 Z M 110 78 L 111 82 Q 102 81 99 86 L 96 90 Q 93 89 94 92 L 92 92 L 92 100 L 96 100 L 96 92 L 99 92 L 100 92 L 100 96 L 108 96 L 108 100 L 116 100 L 116 97 L 124 96 L 124 88 L 120 88 L 120 80 L 124 80 L 110 78 Z M 129 79 L 129 80 L 132 80 L 129 79 Z M 137 79 L 137 80 L 142 80 L 137 79 Z M 249 79 L 249 80 L 268 80 L 249 79 Z M 949 79 L 947 81 L 948 83 Q 949 87 954 86 L 954 89 L 959 93 L 961 92 L 960 80 L 949 79 Z M 202 80 L 203 88 L 204 88 L 204 81 L 202 80 Z M 853 80 L 855 92 L 856 92 L 856 89 L 859 89 Q 858 86 861 87 L 861 84 L 864 84 L 864 80 L 853 80 Z M 988 80 L 988 92 L 973 92 L 972 95 L 965 96 Q 963 94 962 97 L 966 98 L 967 101 Q 966 103 969 102 L 976 110 Q 979 109 978 113 L 981 114 L 986 122 L 993 127 Q 995 126 994 130 L 998 131 L 997 128 L 997 85 L 996 84 L 996 80 L 988 80 Z M 289 87 L 288 92 Q 294 90 292 96 Q 295 97 294 93 L 292 91 L 289 87 Z M 1118 87 Q 1120 91 1116 90 L 1114 94 L 1110 96 Q 1111 98 1113 96 L 1117 97 L 1121 96 L 1120 92 L 1121 88 L 1118 87 Z M 160 90 L 160 96 L 165 96 L 165 92 L 162 92 Q 163 89 160 90 Z M 213 90 Q 210 94 216 92 L 216 96 Q 222 98 220 91 L 214 91 L 213 90 Z M 859 91 Q 857 93 858 100 L 861 101 Q 860 104 863 106 L 864 111 L 865 108 L 866 116 L 869 117 L 871 124 Q 870 127 874 125 L 875 135 L 878 136 Q 877 140 880 141 L 882 140 Q 884 144 883 151 L 886 154 L 887 161 L 889 160 Q 892 162 891 168 L 892 168 Q 891 163 894 164 L 893 96 L 884 96 L 884 112 L 880 112 L 880 104 L 873 104 L 872 100 L 865 100 L 865 92 L 859 91 Z M 207 92 Q 205 98 212 96 Q 214 90 207 92 Z M 788 95 L 787 96 L 784 97 L 784 112 L 785 112 L 785 104 L 789 104 L 790 97 L 788 95 Z M 87 100 L 88 105 Q 86 110 92 108 L 92 100 L 87 100 Z M 609 101 L 603 104 L 604 105 L 609 105 L 609 101 Z M 1103 102 L 1096 107 L 1094 112 L 1098 114 L 1100 118 Q 1103 117 1102 121 L 1105 122 L 1104 116 L 1105 112 L 1105 103 L 1103 102 Z M 734 104 Q 736 109 731 107 L 731 113 L 736 114 L 737 117 Q 736 119 739 118 L 739 120 L 742 120 L 742 124 L 746 125 L 747 129 Q 746 134 750 132 L 751 137 Q 750 142 754 140 L 754 148 L 755 149 L 754 159 Q 753 161 752 159 L 750 167 L 747 168 L 746 176 L 742 178 Q 741 181 744 180 L 744 184 L 749 184 L 749 177 L 753 177 L 754 173 Q 753 167 757 169 L 758 164 Q 756 159 760 160 L 761 161 L 761 153 L 763 152 L 764 148 L 764 152 L 765 152 L 765 145 L 768 144 L 769 145 L 769 137 L 773 137 L 774 133 Q 772 126 777 128 L 778 124 Q 777 118 781 120 Q 783 114 777 116 L 777 112 L 775 111 L 773 112 L 771 113 L 771 124 L 764 124 L 764 120 L 753 120 L 752 112 L 741 112 L 740 111 L 737 111 L 737 104 L 734 104 Z M 1031 108 L 1030 152 L 1031 152 L 1031 108 Z M 930 109 L 931 113 L 931 152 L 932 156 L 940 156 L 940 148 L 952 148 L 953 144 L 964 144 Q 965 146 966 144 L 962 142 L 961 140 Q 962 136 958 138 L 958 137 L 953 133 Q 954 128 950 130 L 950 128 L 946 122 L 943 121 L 941 118 L 937 116 Q 938 113 936 114 L 934 111 L 930 109 Z M 266 112 Q 264 118 270 116 L 271 121 L 270 125 Q 269 129 272 128 L 272 112 L 266 112 Z M 115 116 L 117 124 L 118 120 Q 120 114 115 116 Z M 112 124 Q 110 130 116 128 Q 118 122 112 124 Z M 1112 127 L 1110 129 L 1111 132 L 1114 133 L 1115 137 L 1118 138 Q 1120 137 1119 140 L 1121 140 L 1120 128 L 1112 127 Z M 116 128 Q 114 133 118 132 Q 120 127 116 128 Z M 268 128 L 267 132 L 268 132 L 268 128 Z M 122 131 L 121 132 L 119 132 L 119 136 L 122 137 Q 124 136 123 140 L 126 141 L 128 140 L 128 144 L 132 144 L 132 143 L 128 139 L 122 131 Z M 112 132 Q 110 138 116 136 Q 118 130 112 132 Z M 268 132 Q 270 138 264 136 Q 262 142 268 140 L 268 144 L 272 144 L 272 132 L 268 132 Z M 1071 133 L 1071 168 L 1072 172 L 1080 172 L 1080 164 L 1091 164 L 1091 171 L 1089 172 L 1087 172 L 1087 176 L 1090 177 L 1092 176 Q 1095 177 1093 173 L 1100 172 L 1101 172 L 1101 168 L 1099 167 Q 1096 168 1097 164 L 1094 162 L 1094 160 L 1090 155 L 1085 152 L 1084 150 Q 1085 147 1082 148 L 1078 142 Q 1080 137 1076 138 L 1074 136 L 1071 133 Z M 258 139 L 258 140 L 260 140 L 258 139 Z M 112 140 L 112 144 L 120 144 L 120 140 L 112 140 Z M 260 140 Q 258 146 264 144 Q 266 138 260 140 Z M 177 142 L 176 148 L 178 148 L 177 142 Z M 223 142 L 220 143 L 220 144 Q 223 143 222 147 Q 223 149 228 148 L 228 144 L 224 144 Q 225 141 223 142 Z M 141 143 L 141 144 L 144 144 L 141 143 Z M 249 143 L 249 144 L 252 144 L 249 143 Z M 92 144 L 94 148 Q 96 147 95 150 L 96 150 Q 98 142 92 144 Z M 164 144 L 164 149 L 172 149 L 172 144 L 164 144 Z M 236 144 Q 234 150 240 148 Q 242 142 236 144 Z M 288 144 L 288 148 L 293 149 L 294 147 L 294 144 L 288 144 Z M 1126 144 L 1127 149 L 1129 152 L 1133 154 L 1135 158 L 1136 158 L 1136 144 L 1126 144 Z M 228 148 L 228 152 L 230 152 L 232 154 L 232 152 L 236 152 L 236 148 L 228 148 Z M 849 150 L 848 151 L 803 151 L 802 152 L 800 151 L 798 160 L 796 159 L 794 165 L 795 169 Q 796 173 792 171 L 792 168 L 790 176 L 793 177 L 800 176 L 801 172 L 800 168 L 801 164 L 812 164 Q 810 158 816 160 L 816 156 L 832 156 L 832 160 L 836 160 L 836 164 L 847 164 L 848 176 L 852 177 L 859 176 L 858 169 Q 857 166 856 168 L 853 168 L 853 156 L 850 156 L 849 150 Z M 101 152 Q 100 154 104 154 Q 105 151 101 152 Z M 179 152 L 182 156 Q 184 150 179 152 Z M 236 152 Q 234 158 240 156 Q 242 150 236 152 Z M 334 152 Q 332 157 336 156 Q 338 151 334 152 Z M 975 154 L 976 160 L 982 160 L 980 158 Q 977 159 978 156 L 975 154 Z M 185 156 L 184 160 L 185 160 L 185 156 Z M 332 156 L 331 160 L 332 160 L 332 156 Z M 1140 159 L 1138 161 L 1139 165 L 1141 164 Q 1144 163 1143 167 L 1144 167 Q 1143 162 1148 164 Q 1149 167 1146 169 Q 1145 172 1148 173 L 1152 173 L 1152 160 L 1141 160 L 1140 159 Z M 117 160 L 117 161 L 120 161 L 117 160 Z M 186 160 L 187 172 L 188 172 Q 187 166 191 168 Q 192 165 189 164 Q 191 158 186 160 Z M 265 160 L 265 161 L 271 161 L 265 160 Z M 618 163 L 617 164 L 615 164 L 615 168 L 611 168 L 612 176 Q 618 178 616 173 L 620 172 L 621 172 L 621 165 L 619 165 Q 620 162 618 163 Z M 193 166 L 192 172 Q 186 170 188 176 L 201 176 L 195 172 L 193 166 Z M 989 167 L 988 172 Q 994 170 992 176 L 997 176 L 996 175 L 994 171 L 990 170 L 989 167 Z M 318 172 L 318 174 L 315 176 L 320 176 Q 322 171 318 172 Z M 861 172 L 860 176 L 861 176 L 861 172 Z M 1105 172 L 1103 177 L 1104 181 L 1103 185 L 1104 189 Q 1102 194 1108 192 L 1110 188 Q 1114 187 1112 192 L 1122 192 L 1121 191 L 1113 182 Q 1114 179 1110 180 L 1109 177 L 1109 175 L 1105 175 L 1105 172 Z M 645 176 Q 646 182 640 180 L 640 188 L 645 188 L 645 176 Z M 1072 176 L 1071 183 L 1070 184 L 1067 184 Q 1069 189 1065 188 L 1065 192 L 1072 192 L 1073 188 L 1072 176 Z M 496 182 L 496 192 Q 502 194 500 188 Q 506 186 504 192 L 514 192 L 509 190 L 509 187 L 504 187 L 502 183 L 496 182 Z M 599 182 L 596 184 L 600 184 Q 601 181 599 182 Z M 80 183 L 80 192 L 84 192 L 84 186 Q 81 187 82 183 L 80 183 Z M 174 183 Q 175 187 172 186 L 172 192 L 176 192 L 176 184 L 174 183 Z M 208 183 L 208 192 L 225 192 L 220 190 Q 216 191 218 187 L 214 186 Q 211 187 212 183 L 208 183 Z M 736 183 L 735 186 L 733 187 Q 729 186 730 190 L 725 192 L 732 193 L 737 192 L 736 183 Z M 600 184 L 600 192 Q 606 194 604 188 L 608 188 L 608 184 L 600 184 Z M 863 184 L 864 189 L 864 192 L 870 192 L 869 190 Q 870 186 866 188 L 866 184 L 863 184 Z M 1034 184 Q 1032 189 1036 188 Q 1038 183 1034 184 Z M 303 186 L 302 187 Q 296 186 298 190 L 292 192 L 304 192 L 304 187 L 303 186 Z M 89 187 L 88 192 L 95 192 L 91 191 L 89 187 Z M 587 187 L 587 190 Q 586 192 581 192 L 588 193 L 592 192 Q 595 193 593 189 Q 592 186 587 187 Z M 1008 187 L 1008 192 L 1013 192 L 1009 189 Q 1010 186 1008 187 Z M 368 188 L 368 192 L 373 192 L 368 188 Z M 462 188 Q 463 191 459 190 L 459 193 L 464 192 Q 466 187 462 188 Z M 649 188 L 648 192 L 649 192 L 649 188 Z M 780 188 Q 781 191 778 190 L 778 192 L 784 192 Q 786 186 780 188 Z M 894 188 L 894 192 L 901 193 L 902 191 Q 900 187 894 188 Z M 926 188 Q 924 193 928 192 Q 930 187 926 188 Z M 1146 188 Q 1144 193 1148 192 Q 1150 187 1146 188 Z M 167 190 L 162 192 L 168 192 Q 169 189 167 190 Z " /><path fill="rgb(0,0,0)" stroke="rgb(0,0,0)" stroke-width="1" opacity="0" d="M 675 66 L 703.5 66 L 707 68.5 Q 706.3 70.8 708.5 70 L 714 81.5 L 713 85.5 L 714 87.5 L 711 95.5 L 704.5 102 Q 700 101.5 699.5 105 L 679.5 105 L 675 106 L 675 66 Z M 680 71 L 679 77 L 679 100 L 678 101 L 683 102 L 696 102 L 697 101 Q 701 102 700 99 L 705 98 L 706 95 L 710 93 L 709 88 L 709 75 L 705 74 L 705 71 L 680 71 Z " /><path fill="rgb(0,0,0)" stroke="rgb(0,0,0)" stroke-width="1" opacity="0" d="M 454.5 79 Q 460.4 76.9 459 81.5 L 455 83 Q 456.7 87.1 452.5 86 L 451.5 87 L 428.5 87 L 427.5 86 L 413.5 86 L 411.5 86 L 410 86.5 L 410 95 L 408 95 L 408 88.5 L 409 87.5 L 407 83.5 L 409.5 82 L 410.5 83 L 448.5 83 L 454.5 79 Z " /><path fill="rgb(0,0,0)" stroke="rgb(0,0,0)" stroke-width="1" opacity="0" d="M 823 94 Q 828.3 92.2 826 99.5 Q 830 101.8 830 107 Q 826.3 108.5 827 105.5 L 825 101 Q 822.3 99.9 823 102.5 L 820.5 108 L 819 107.5 L 819 102 L 822 100.5 L 823 94 Z " /><path fill="rgb(0,0,0)" stroke="rgb(0,0,0)" stroke-width="1" opacity="0" d="M 409.5 97 L 410.5 98 L 435.5 98 L 439.5 97 L 443.5 98 L 447.5 97 L 454 99.5 L 455.5 102 L 460 103 L 463.5 109 L 466 107.5 Q 464.9 101.4 467.5 99 L 469 100.5 L 469 138.5 L 467.5 141 L 464.5 130 L 462 131 L 460.5 134 Q 457.9 133.2 459 136.5 Q 457.5 139.5 451.5 138 L 453.5 135 L 458 134 L 460.5 130 Q 463.1 130.8 462 127.5 Q 464.9 122.9 464 114.5 Q 461 113.3 462 109 L 459 107.5 Q 460.3 103.3 455.5 105 L 451.5 101 L 407 101 L 409.5 97 Z " /><path fill="rgb(0,0,0)" stroke="rgb(0,0,0)" stroke-width="1" opacity="0" d="M 829.5 108 L 833 110.5 L 834 115.5 Q 838.8 118 839 124 L 832.5 123 L 814.5 123 L 810 124 Q 810.4 117.8 815 114.5 L 815 111.5 L 817.5 109 L 818 116 L 816 116.5 L 818.5 118 L 833 118 Q 834.5 113.5 830 115 L 830 109.5 L 829.5 108 Z " /><path fill="rgb(0,0,0)" stroke="rgb(0,0,0)" stroke-width="1" opacity="0" d="M 520 116 L 528 116 L 528 119.5 L 527 124 L 523 124 L 523 120 Q 518.1 121.6 520 116 Z " /><path fill="rgb(0,0,0)" stroke="rgb(0,0,0)" stroke-width="1" opacity="0" d="M 675 126 L 678.5 127 L 707.5 127 Q 709.4 130.7 714.5 131 L 720 136.5 L 722 139.5 L 723 151.5 L 722 152.5 L 722 160.5 L 720.5 162 Q 718.3 161.3 719 163.5 L 712.5 169 L 705.5 170 L 703.5 172 L 684.5 172 L 682.5 173 L 680.5 173 Q 675.1 173.6 675 172.5 L 675 126 Z M 706 130 L 705 131 Q 702 130 703 133 L 696 133 L 700 132 L 680 131 L 680 160 L 682 160 L 682 164 Q 679 163 680 166 L 683 167 Q 687 168 689 166 L 699 166 L 700 167 Q 706 168 710 165 Q 714 167 713 163 L 717 161 L 717 153 L 718 152 L 717 148 L 718 144 L 718 141 L 715 135 L 710 134 L 708 132 L 706 130 Z " /><path fill="rgb(0,0,0)" stroke="rgb(0,0,0)" stroke-width="1" opacity="0" d="M 408 138 L 411.5 139 L 413.5 139 L 451.5 139 L 452 140.5 L 450.5 142 L 410.5 142 L 409.5 143 Q 407 141.8 408 138 Z " /><path fill="rgb(0,0,0)" stroke="rgb(0,0,0)" stroke-width="1" opacity="0" d="M 443.5 150 L 446 151.5 L 440.5 152 L 440.5 151 L 443.5 150 Z " /><path fill="rgb(0,0,0)" stroke="rgb(0,0,0)" stroke-width="1" opacity="0" d="M 432.5 151 L 436 151.5 L 432.5 152 L 432.5 151 Z " /><path fill="rgb(252,253,254)" stroke="rgb(252,253,254)" stroke-width="1" opacity="0.01568627450980392" d="M 113.5 46 L 115 46.5 L 114 49 L 105 51 Q 103.7 47.3 109.5 49 L 113.5 46 Z " /><path fill="rgb(252,253,254)" stroke="rgb(252,253,254)" stroke-width="1" opacity="0.01568627450980392" d="M 142 46 L 147.5 49 L 157.5 50 L 160 52.5 L 156.5 53 L 153.5 51 L 145.5 50 L 142 47.5 L 142 46 Z " /><path fill="rgb(252,253,254)" stroke="rgb(252,253,254)" stroke-width="1" opacity="0.01568627450980392" d="M 244.5 46 L 246 46.5 L 240.5 50 L 232.5 51 Q 230.6 54.6 224.5 54 L 224.5 53 L 228 52 Q 226.8 49 230.5 50 L 231.5 49 L 239.5 49 L 244.5 46 Z " /><path fill="rgb(252,253,254)" stroke="rgb(252,253,254)" stroke-width="1" opacity="0.01568627450980392" d="M 271.5 46 L 277.5 49 L 283.5 49 L 289.5 53 L 295.5 54 L 315 68.5 Q 314.3 70.8 316.5 70 L 319.5 74 L 323 76.5 L 328 86 Q 331.3 84.7 330 89.5 L 332.5 94 Q 335.3 93.4 334 99.5 L 338 113.5 L 338 126.5 L 336 136.5 L 334 139.5 L 334 146 Q 330.2 144.5 331 147.5 L 328.5 154 Q 325.9 153.2 327 156.5 L 321 166 Q 317.3 164.5 318 167.5 L 317 170 L 313 172.5 Q 313.8 175.1 310.5 174 L 307.5 178 L 307 175.5 L 316 168 L 324 157.5 L 333 139.5 L 334 129.5 L 337 118.5 L 336 116.5 L 336.5 115 Q 333.1 115.9 335 110.5 Q 329.2 79.3 307.5 64 L 285.5 52 L 274.5 50 L 271.5 46 Z " /><path fill="rgb(252,253,254)" stroke="rgb(252,253,254)" stroke-width="1" opacity="0.01568627450980392" d="M 381.5 46 L 382 47.5 L 373 55.5 Q 370 59 370.5 66 L 369 60.5 L 370 54 Q 373.8 55.5 373 52.5 L 374 50 Q 379.3 50 381.5 46 Z " /><path fill="rgb(252,253,254)" stroke="rgb(252,253,254)" stroke-width="1" opacity="0.01568627450980392" d="M 417.5 46 L 435 46.5 L 417.5 47 L 417.5 46 Z " /><path fill="rgb(252,253,254)" stroke="rgb(252,253,254)" stroke-width="1" opacity="0.01568627450980392" d="M 451.5 46 L 458 50 L 460.5 54 Q 463.1 53.2 462 56.5 Q 465.8 59.7 464 68.5 L 459 77.5 Q 460.5 80.5 462 77.5 Q 460.9 74.2 463.5 75 L 466 76 L 467 68 L 475 68 Q 473 74 479 72 L 479 64.5 L 480.5 64 Q 482 61.5 487.5 63 Q 490.8 64.8 487 66.5 L 479.5 76 Q 474.9 74.8 477 80 L 474 80 L 474 83.5 L 473 89 L 477 86.5 L 478 82 L 482 79.5 L 482 77.5 L 488.5 70 L 492 67.5 Q 491.3 65.3 493.5 66 L 496 65 L 497.5 62 L 509 55.5 Q 508.1 52.5 512.5 54 L 518.5 50 L 528.5 49 L 532.5 46 L 532 47.5 Q 532.8 49.8 530.5 49 Q 502.6 55.6 487 74.5 L 479 85.5 L 471 104.5 Q 472.3 109.3 470 110.5 L 470 128.5 L 475 146.5 L 479 154.5 L 495.5 173 L 513.5 185 Q 520 185.5 523.5 189 L 528.5 189 L 535 191 L 534.5 193 L 531.5 191 L 520.5 190 L 503 180.5 Q 503.8 178.3 501.5 179 L 498 178 L 496.5 175 L 493.5 174 L 486 166.5 L 483.5 162 Q 480.9 162.8 482 159.5 L 478 156.5 L 476 150 Q 473 151.3 474 147.5 L 473 142 L 470.5 141 L 470 151 Q 473.7 149.5 473 152.5 L 474 155 Q 476.7 153.9 476 156.5 Q 479.5 158.2 478 164 L 480.5 163 L 482 168 L 487 171.5 L 488.5 174 Q 491.5 173.3 490 177 L 480 176 L 480 168 L 467 168 L 467 163 L 465.5 163 L 463 164.5 L 460.5 158 L 457 157 L 455.5 154 L 453.5 153 L 428.5 153 L 427.5 154 L 413.5 154 L 411.5 153 L 410 153.5 L 409.5 144 L 407 155.5 L 408.5 157 L 449.5 157 L 453.5 158 L 462 165.5 L 464 170.5 L 464 177.5 L 462 186 L 458 187.5 L 456.5 190 L 448.5 194 L 449 192.5 Q 448.3 190.3 450.5 191 L 461 182.5 L 462 170.5 Q 460.4 163.6 454.5 161 L 447.5 158 L 407.5 158 L 406 156.5 L 406 138.5 L 407 136 L 449.5 136 Q 456.3 133.8 460 128.5 Q 463.7 124.2 462 114.5 L 456.5 107 L 450.5 103 L 408.5 103 L 406 102 L 406 82.5 L 407.5 81 L 447.5 81 Q 456.5 78.5 461 71.5 L 462 59.5 Q 460.4 52.6 454.5 50 L 452 48.5 L 451.5 46 Z M 455 79 L 449 83 L 411 83 L 410 82 L 407 84 L 409 88 L 408 89 L 408 95 L 410 95 L 410 87 L 412 86 L 414 86 L 428 86 L 429 87 L 452 87 L 453 86 Q 457 87 455 83 L 459 82 Q 460 77 455 79 Z M 471 89 L 469 96 L 470 99 L 473 98 L 474 91 L 471 89 Z M 410 97 L 407 101 L 452 101 L 456 105 Q 460 103 459 108 L 462 109 Q 461 113 464 115 Q 465 123 462 128 Q 463 131 461 130 L 458 134 L 454 135 L 452 138 Q 457 139 459 137 Q 458 133 461 134 L 462 131 L 465 130 L 468 141 L 469 139 L 469 101 L 468 99 Q 465 101 466 108 L 464 109 L 460 103 L 456 102 L 454 100 L 448 97 L 444 98 L 440 97 L 436 98 L 411 98 L 410 97 Z M 408 138 Q 407 142 410 143 L 411 142 L 451 142 L 452 141 L 452 139 L 414 139 L 412 139 L 408 138 Z M 444 150 L 441 151 L 441 152 L 446 152 L 444 150 Z M 433 151 L 433 152 L 436 152 L 433 151 Z " /><path fill="rgb(252,253,254)" stroke="rgb(252,253,254)" stroke-width="1" opacity="0.01568627450980392" d="M 541.5 46 L 555 46.5 L 541.5 47 L 541.5 46 Z " /><path fill="rgb(252,253,254)" stroke="rgb(252,253,254)" stroke-width="1" opacity="0.01568627450980392" d="M 656.5 46 L 657 47.5 L 651 55.5 L 650.5 66 Q 647.7 63.3 649 56.5 L 650 50 Q 655.1 50.8 656.5 46 Z " /><path fill="rgb(252,253,254)" stroke="rgb(252,253,254)" stroke-width="1" opacity="0.01568627450980392" d="M 682.5 46 L 694 46.5 L 682.5 47 L 682.5 46 Z " /><path fill="rgb(252,253,254)" stroke="rgb(252,253,254)" stroke-width="1" opacity="0.01568627450980392" d="M 705.5 46 L 708.5 49 L 715.5 50 L 722 54 L 723.5 57 L 730 62.5 L 731 66 L 734 67.5 L 735 78 L 737 78.5 L 737 86.5 L 735 90.5 L 734 100.5 L 732.5 102 Q 730.3 101.3 731 103.5 L 726.5 110 L 724 111.5 L 725.5 114 Q 733.5 116.5 738 122.5 L 740.5 126 Q 743.1 125.2 742 128.5 L 746 131.5 L 747 140.5 L 750 143.5 L 751 155.5 L 750 158 Q 747.3 156.9 748 159.5 L 746 167.5 Q 741.3 168.9 742 174 L 738 176.5 Q 738.8 178.8 736.5 178 L 727.5 186 L 719.5 190 L 709.5 191 L 704.5 194 L 706.5 191 Q 728.3 187.8 739 173.5 L 746 161.5 L 748 148.5 L 744 133.5 Q 739.1 123.9 730.5 118 L 722 114 L 733 96.5 L 735 80.5 L 733 71.5 L 730 65.5 L 723.5 58 L 713.5 51 L 707.5 50 L 705 47.5 L 705.5 46 Z " /><path fill="rgb(252,253,254)" stroke="rgb(252,253,254)" stroke-width="1" opacity="0.01568627450980392" d="M 823.5 46 L 824 47.5 L 819 52.5 L 759 172.5 L 757 177.5 L 757 184.5 L 760.5 189 L 767.5 193 L 769 192.5 Q 769.8 195.1 766.5 194 L 758.5 190 L 753.5 193 L 751 192 L 751 188 L 752.5 188 L 754 187.5 L 755.5 190 Q 757.8 190.8 757 188.5 L 756 186 L 754 185.5 L 754 178.5 L 761 167.5 L 762 161.5 L 769 151.5 L 769 148.5 L 774 141.5 L 774 138.5 L 781 127.5 L 782 122.5 L 789 111.5 L 789 108.5 L 794 101.5 L 794 98.5 L 798 93.5 L 798 90.5 L 801 87.5 L 802 82.5 L 810 66.5 L 813 63.5 L 814 58.5 L 818 53.5 L 818 49.5 Q 815.8 48.2 818.5 47 L 823.5 46 Z " /><path fill="rgb(252,253,254)" stroke="rgb(252,253,254)" stroke-width="1" opacity="0.01568627450980392" d="M 826.5 46 L 830 47.5 L 831 54 L 834 55.5 L 835 62 L 838 63.5 L 839 70 L 842 71.5 Q 841.3 78.2 846 79.5 L 847 86 L 850 87.5 L 851 94 L 854 95.5 Q 854 101.5 858 103.5 L 859 110 L 862 111.5 Q 862 117.5 866 119.5 L 867 126 L 870 127.5 L 871 134 L 874 135.5 Q 874 141.5 878 143.5 L 879 150 L 882 151.5 Q 881.4 156.6 884.5 158 Q 887.9 158.9 886 153.5 L 883 150.5 Q 883.8 143.8 881.5 140 L 879.5 141 Q 877 139.8 878 136 L 875 134.5 L 874 125 Q 870.2 126.5 871 123.5 L 869 117 L 866 115.5 L 864.5 108 L 863.5 111 L 863 105.5 Q 860.3 104.4 861 101 L 858 99.5 Q 857.3 93.4 859 91 L 865 92 L 865 100 L 872 100 L 872.5 104 L 880 104 L 880 112 L 884 112 L 884 96 L 893 96 L 894 164 Q 890.7 162.7 892 167.5 L 891 167.5 Q 891.8 161.7 888.5 160 Q 885.8 161.4 887 166 L 890 167.5 L 891 169.5 L 891 171.5 L 891 174 L 894 174.5 L 894 186.5 L 889.5 191 L 883.5 194 L 880.5 194 L 874.5 191 L 870 186.5 Q 869.7 181.4 866 179.5 L 866 175.5 L 862 171.5 Q 862 165.5 858 163.5 L 858 159.5 L 854 155.5 L 853 149.5 L 848.5 145 L 846.5 146 L 798 146 L 795 151.5 L 794 158 Q 791.3 156.9 792 159.5 Q 789.2 161.5 790 166 L 787 167.5 L 786 172.5 L 782 178.5 L 782 182 L 779 183.5 Q 779.6 188.6 776.5 190 L 770.5 193 L 770 191.5 L 777 185.5 L 793 154.5 L 794 149.5 L 799.5 143 L 849.5 143 L 853 146.5 L 872 185.5 L 876.5 190 L 882.5 193 L 891 186.5 Q 894 184.5 893 178.5 L 826.5 46 Z M 887 158 L 886 161 L 887 161 L 887 158 Z " /><path fill="rgb(252,253,254)" stroke="rgb(252,253,254)" stroke-width="1" opacity="0.01568627450980392" d="M 899.5 46 Q 904.9 44.1 904 47.5 L 901 52.5 L 901 87.5 L 900 89.5 L 901 90.5 L 901 181.5 L 905.5 189 L 912.5 193 L 914 192.5 Q 914.7 195.5 911 194 L 910.5 192 Q 909 194.5 907.5 191 L 902.5 190 L 900.5 193 L 894 192 Q 891.8 186 898.5 188 L 901.5 190 L 902 188.5 L 899 184.5 L 899 53.5 Q 896.8 52.3 898 47.5 L 899.5 46 Z " /><path fill="rgb(252,253,254)" stroke="rgb(252,253,254)" stroke-width="1" opacity="0.01568627450980392" d="M 907.5 46 L 914 54 Q 916.7 52.9 916 55.5 L 921 59.5 L 922.5 62 L 925 63.5 L 926.5 66 Q 929.1 65.3 928 68 L 926.5 68 L 908 49.5 L 907.5 46 Z " /><path fill="rgb(252,253,254)" stroke="rgb(252,253,254)" stroke-width="1" opacity="0.01568627450980392" d="M 1011.5 46 L 1011 47.5 L 1009.5 50 L 1007 51.5 Q 1003.6 56.6 1005 66.5 L 1003 69.5 L 1003 78.5 L 1005 81.5 L 1005 145 L 1002.5 145 L 977 119.5 L 932 73.5 L 931 70.5 L 933 71.5 L 934.5 74 L 937 75.5 L 938.5 78 Q 940.8 77.3 940 79.5 L 944 82 L 946.5 86 Q 948.8 85.3 948 87.5 L 996 135.5 L 996 137 L 999 138.5 L 1000.5 141 L 1002.5 142 L 1003 138.5 L 1002 137.5 L 1002 55.5 L 1005 54 L 1005 50 L 1006.5 50 L 1011.5 46 Z " /><path fill="rgb(252,253,254)" stroke="rgb(252,253,254)" stroke-width="1" opacity="0.01568627450980392" d="M 1019.5 46 L 1027 51.5 L 1029 60.5 L 1029 179.5 L 1028 180.5 L 1028 191.5 L 1026.5 193 L 1022.5 192 L 1020.5 193 L 1007 180.5 L 1005.5 178 L 1003 176.5 L 1001.5 174 L 995 168.5 L 993.5 166 Q 991.3 166.8 992 164.5 L 982 155.5 L 980 152.5 L 976 150 L 973.5 146 Q 971.3 146.8 972 144.5 L 968 142 L 965.5 138 Q 963.3 138.8 964 136.5 L 956 130 L 956 128.5 L 927.5 99 L 926 99.5 L 926 155.5 L 924 154.5 L 924 99.5 L 923 95 L 925.5 95 L 951 120.5 L 1020.5 191 Q 1025.3 191.8 1026 188.5 L 1027 185.5 L 1027 60.5 Q 1024.7 59.3 1026 54.5 L 1023.5 51 L 1019 47.5 L 1019.5 46 Z " /><path fill="rgb(252,253,254)" stroke="rgb(252,253,254)" stroke-width="1" opacity="0.01568627450980392" d="M 1046.5 46 L 1047 47.5 Q 1041.3 51.3 1040 59.5 L 1040 178.5 L 1041 183.5 L 1044.5 189 L 1051 193.5 L 1049.5 193 L 1042 190 L 1041 186 L 1038 184.5 L 1037 84.5 L 1038 83.5 L 1038 54 L 1041 52.5 L 1042.5 49 L 1046.5 46 Z " /><path fill="rgb(252,253,254)" stroke="rgb(252,253,254)" stroke-width="1" opacity="0.01568627450980392" d="M 1057.5 46 L 1058 48 L 1063 51.5 L 1063 54 Q 1065.7 52.9 1065 55.5 L 1066 56.5 L 1066 92.5 L 1065 97.5 L 1074.5 89 L 1077 87.5 L 1078.5 85 L 1086 79.5 Q 1085.3 77.3 1087.5 78 L 1090 74 L 1102 64.5 L 1103.5 62 L 1107 59.5 Q 1106.3 57.3 1108.5 58 L 1111 54 L 1115 52.5 L 1116.5 50 L 1121.5 46 L 1121 47.5 L 1114.5 55 L 1072.5 94 L 1063 101 L 1063 56.5 Q 1061.7 50.8 1057 48.5 L 1057.5 46 Z " /><path fill="rgb(252,253,254)" stroke="rgb(252,253,254)" stroke-width="1" opacity="0.01568627450980392" d="M 1112.5 47 Q 1115.5 48.5 1112.5 50 L 1110.5 50 L 1109 50 Q 1110.5 53.8 1107.5 53 L 1105 54 L 1104.5 56 L 1104 48 L 1111.5 48 L 1112.5 47 Z " /><path fill="rgb(252,253,254)" stroke="rgb(252,253,254)" stroke-width="1" opacity="0.01568627450980392" d="M 1132.5 47 L 1138 50.5 L 1134.5 51 Q 1130.9 49.9 1132.5 47 Z " /><path fill="rgb(252,253,254)" stroke="rgb(252,253,254)" stroke-width="1" opacity="0.01568627450980392" d="M 162.5 48 L 168 48.5 L 162.5 49 L 162.5 48 Z " /><path fill="rgb(252,253,254)" stroke="rgb(252,253,254)" stroke-width="1" opacity="0.01568627450980392" d="M 172 48 L 176 48 L 176 54 L 171 52.5 L 172 48 Z " /><path fill="rgb(252,253,254)" stroke="rgb(252,253,254)" stroke-width="1" opacity="0.01568627450980392" d="M 216 48 L 224 48.5 Q 218.2 47.7 216.5 51 L 216 48 Z " /><path fill="rgb(252,253,254)" stroke="rgb(252,253,254)" stroke-width="1" opacity="0.01568627450980392" d="M 296.5 48 Q 302.2 46.4 300 52 L 304 52 L 304 48 L 316 48 Q 314 54 320 52 L 320 60 L 311.5 61 L 308.5 57 L 307 56.5 L 308 52 L 299 53 Q 300.5 49.3 297.5 50 L 296.5 48 Z M 312 52 L 312 55 L 316 56 Q 318 50 312 52 Z " /><path fill="rgb(252,253,254)" stroke="rgb(252,253,254)" stroke-width="1" opacity="0.01568627450980392" d="M 368 48 L 373 48.5 L 370 50 Q 371 53 368 52 L 368 48 Z " /><path fill="rgb(252,253,254)" stroke="rgb(252,253,254)" stroke-width="1" opacity="0.01568627450980392" d="M 462 48 Q 465.7 46.8 464 52 Q 460.3 53.2 462 48 Z " /><path fill="rgb(252,253,254)" stroke="rgb(252,253,254)" stroke-width="1" opacity="0.01568627450980392" d="M 496 48 L 514 48.5 Q 507.7 47.7 506 51.5 L 506.5 53 L 501.5 55 L 500 54.5 L 498.5 58 L 496.5 57 L 495 57.5 Q 494.3 55.3 496.5 56 L 499 55 Q 500.5 50.5 496 52 L 496 48 Z " /><path fill="rgb(252,253,254)" stroke="rgb(252,253,254)" stroke-width="1" opacity="0.01568627450980392" d="M 564.5 48 L 573.5 49 L 579.5 53 L 585.5 54 Q 587.4 57.6 592.5 58 L 610 73.5 L 611 78 L 614 78.5 L 614 88.5 L 611 90 L 608.5 95 Q 606.3 94.3 607 96.5 L 598.5 102 L 589.5 102 L 583.5 99 L 575.5 91 L 572 90 Q 573.1 87.3 570.5 88 Q 568.5 85.2 564 86 L 562.5 83 L 544.5 82 Q 543 84.5 537.5 83 L 535.5 83 Q 531 82.5 530.5 86 L 525.5 87 L 518 92.5 Q 518.8 94.8 516.5 94 L 510 103.5 L 510 107.5 L 507 110.5 L 507 130 L 510 131.5 L 510 135.5 L 516.5 145 L 520 147.5 Q 519.3 149.8 521.5 149 L 526.5 153 L 532.5 154 L 537.5 157 L 557.5 157 L 561 154.5 Q 554.7 151.8 544.5 153 L 543.5 154 L 534.5 154 L 536 151.5 L 534.5 150 Q 527.8 151.8 526 148.5 L 526 146 Q 520.8 148.1 522 143.5 L 519 142 L 518 136 L 515 136 Q 516.3 130.7 513 131.5 L 513 128.5 L 512 128.5 L 511.5 132 L 511 108 Q 517.4 110.3 515 102.5 L 516 100 Q 519.8 101.5 519 98.5 L 522.5 94 L 526 91.5 Q 525.4 88.8 531.5 90 L 533 87 L 543.5 86 L 544.5 87 L 562 87 Q 560.9 89.7 563.5 89 L 570 91 L 571.5 94 Q 575.3 92.8 574 96.5 Q 575.8 94.9 577.5 98 L 581 99.5 Q 579.8 103.3 583.5 102 L 586 103 Q 587.4 107 580.5 105 L 578.5 106 L 575.5 105 L 564.5 105 L 564 102 L 560 102 L 559.5 105 L 550.5 105 L 548.5 106 L 546.5 106 L 544 107.5 Q 544.8 109.8 542.5 109 L 538 112 L 538 116 L 536.5 116 L 534 117 L 533 128.5 L 536.5 136 L 538 136 Q 536.5 139.8 539.5 139 Q 540.2 142.8 545.5 142 L 543.5 139 Q 541.3 139.8 542 137.5 L 539.5 134 L 538 133.5 L 538 118 L 541 116.5 Q 539.9 113.2 542.5 114 Q 545.3 109.8 551.5 109 L 606.5 109 L 606.5 110 L 553.5 110 Q 545.2 111.2 542 117.5 Q 538 121 539 129.5 L 543 137 L 551.5 142 L 582 142 L 580.5 146 L 571.5 153 L 560.5 158 L 540.5 159 Q 522.3 155.7 513 143.5 L 505 127.5 L 505 111.5 L 510 99.5 L 518.5 90 L 535.5 81 L 552.5 80 Q 554.3 82.8 560.5 81 L 571.5 86 L 585.5 98 L 590.5 100 L 597.5 100 Q 605.4 97.9 609 91.5 L 612 82.5 L 609 75.5 L 597.5 64 L 583.5 55 Q 577 54.5 573.5 51 L 565.5 50 L 564.5 48 Z M 520 116 Q 518 122 523 120 L 523 124 L 527 124 L 528 120 L 528 116 L 520 116 Z M 547 142 L 545 145 L 550 147 L 556 146 L 554 149 L 559 149 L 560 146 L 568 146 L 568 148 L 565 149 L 562 153 L 569 153 L 579 145 Q 581 146 580 143 L 578 144 L 554 144 L 547 142 Z " /><path fill="rgb(252,253,254)" stroke="rgb(252,253,254)" stroke-width="1" opacity="0.01568627450980392" d="M 582.5 48 L 596 48 L 596 56 L 604 56 L 604 48 L 608 48 L 608 64 L 623.5 64 L 624 68 L 616 68 L 616 72 L 620 72 L 620 76 Q 625.6 73.8 624 79.5 L 625 83.5 L 624 84.5 L 624 92 L 632 92 L 632 80 L 640 80 Q 637.9 73.6 645 76 L 645 167.5 L 640 168 L 640 172 L 636 172 Q 638 166 632 168 L 632 160 L 620.5 160 Q 619.3 162.3 618 159.5 Q 617.3 155.8 619.5 155 L 622 156 L 623 144 L 627 144 L 627 136.5 Q 630 137.5 629 132.5 L 630 128.5 L 629 124 Q 625.7 125.3 627 120.5 L 626 116 L 623.5 117 L 622 112 L 620 112 Q 621.1 109.3 618.5 110 L 616 109 L 616 96.5 Q 612.8 97.3 614 92 L 617 92 Q 615.3 86.8 619 88 L 619 80.5 L 618 76 Q 613.1 77.6 615 72 L 611 72 L 611 68.5 L 607 66 L 604.5 62 L 601 59.5 Q 601.8 57.3 599.5 58 L 595 57 Q 596.5 53.2 593.5 54 L 589 53 Q 590.5 49.3 587.5 50 L 582.5 49 L 582.5 48 Z " /><path fill="rgb(252,253,254)" stroke="rgb(252,253,254)" stroke-width="1" opacity="0.01568627450980392" d="M 640 48 L 649 48 L 649 52 L 645 52 L 645 63.5 L 641.5 65 L 639 64 Q 641 57.9 640 48 Z " /><path fill="rgb(252,253,254)" stroke="rgb(252,253,254)" stroke-width="1" opacity="0.01568627450980392" d="M 719.5 48 L 727.5 48 L 728 52 L 732 52 Q 730 46 736 48 L 735.5 64 L 735 60 L 731 61 L 730 56 L 728 56 L 728 54 Q 725.3 55.1 726 52.5 Q 725.3 48.3 719.5 49 L 719.5 48 Z " /><path fill="rgb(252,253,254)" stroke="rgb(252,253,254)" stroke-width="1" opacity="0.01568627450980392" d="M 840 48 L 844 48 Q 842 54 848 52 L 848 68 Q 842.8 65.9 844 70.5 L 843 70.5 L 842 60 Q 837.9 61.7 839 57.5 Q 836.3 56.7 837 52.5 L 840 51 L 840 48 Z " /><path fill="rgb(252,253,254)" stroke="rgb(252,253,254)" stroke-width="1" opacity="0.01568627450980392" d="M 924 48 L 928 48 L 928 60 L 926 60 Q 927.1 57.3 924.5 58 L 922 54 L 918 52.5 Q 919.3 49.8 920.5 52 Q 926.2 53.6 924 48 Z " /><path fill="rgb(252,253,254)" stroke="rgb(252,253,254)" stroke-width="1" opacity="0.01568627450980392" d="M 992 48 L 1002 48 L 1002 52 L 996 52 L 996 55.5 L 997 56.5 L 997 64 Q 989.9 66.4 992 60 Q 998 62 996 56 L 992 56 L 992 48 Z " /><path fill="rgb(252,253,254)" stroke="rgb(252,253,254)" stroke-width="1" opacity="0.01568627450980392" d="M 1030 48 Q 1037.1 45.6 1035 52 Q 1027.9 54.4 1030 48 Z " /><path fill="rgb(252,253,254)" stroke="rgb(252,253,254)" stroke-width="1" opacity="0.01568627450980392" d="M 1066 48 L 1072 48 L 1072 52 L 1066 52 L 1066 48 Z " /><path fill="rgb(252,253,254)" stroke="rgb(252,253,254)" stroke-width="1" opacity="0.01568627450980392" d="M 99.5 50 L 99 51.5 L 97.5 54 L 90.5 56 L 72.5 67 L 72.5 66 L 76 63.5 Q 75.3 61.3 77.5 62 L 88.5 54 Q 96.3 54.3 99.5 50 Z " /><path fill="rgb(252,253,254)" stroke="rgb(252,253,254)" stroke-width="1" opacity="0.01568627450980392" d="M 208 52 L 217 52.5 L 210 54 Q 211.3 58.1 208 57 L 208 52 Z " /><path fill="rgb(252,253,254)" stroke="rgb(252,253,254)" stroke-width="1" opacity="0.01568627450980392" d="M 165.5 54 L 184 66 L 186.5 70 L 190 72.5 Q 194.6 75.8 195 82 Q 199.1 80.3 198 84.5 L 202 90.5 L 203 96.5 L 206 99.5 L 207 104.5 L 206 108.5 L 206.5 110 L 204 108.5 L 204 103.5 L 201 94.5 Q 195.6 81.4 186.5 72 L 184 70.5 Q 184.8 68.3 182.5 69 L 178 64.5 L 178.5 63 L 173.5 62 L 165 55.5 L 165.5 54 Z " /><path fill="rgb(252,253,254)" stroke="rgb(252,253,254)" stroke-width="1" opacity="0.01568627450980392" d="M 220.5 54 L 220 55.5 L 218.5 58 L 207 66.5 L 206 73.5 L 209.5 80 L 220.5 84 L 229.5 78 L 241.5 73 L 246.5 73 L 252.5 71 L 263.5 71 L 267 73.5 L 244.5 74 L 240.5 75 L 237.5 78 L 231.5 79 L 221.5 86 L 215.5 86 L 206 80.5 Q 203.6 75.4 205 66.5 L 207.5 62 L 217.5 57 L 220.5 54 Z " /><path fill="rgb(252,253,254)" stroke="rgb(252,253,254)" stroke-width="1" opacity="0.01568627450980392" d="M 808.5 56 L 809 59.5 L 808 59.5 L 808.5 56 Z " /><path fill="rgb(252,253,254)" stroke="rgb(252,253,254)" stroke-width="1" opacity="0.01568627450980392" d="M 1070 56 Q 1074.9 54.4 1073 60 L 1080 60 L 1080 64 L 1087.5 64 Q 1088.7 61.7 1093.5 63 Q 1096.3 64.3 1094 65.5 L 1091.5 69 L 1088 70 L 1088 72 L 1086 72 L 1086 74 L 1084 74 Q 1085.1 76.7 1082.5 76 L 1078 79.5 Q 1079.1 82.8 1076.5 82 L 1074 86 L 1070 87 L 1070 80.5 L 1071 79.5 L 1071 60.5 L 1070 56 Z " /><path fill="rgb(252,253,254)" stroke="rgb(252,253,254)" stroke-width="1" opacity="0.01568627450980392" d="M 803.5 63 L 806 64.5 L 805 72 Q 800.5 70.3 802 75.5 L 801 80 L 799 79.5 L 799 72.5 L 800 71.5 L 800 64 L 803.5 63 Z " /><path fill="rgb(252,253,254)" stroke="rgb(252,253,254)" stroke-width="1" opacity="0.01568627450980392" d="M 932.5 63 Q 941.4 61.7 945 64 L 944 75.5 L 945 77.5 L 943.5 77 Q 940.5 77.7 942 74 L 939.5 74 L 936.5 70 L 934 68.5 L 931 64.5 L 932.5 63 Z " /><path fill="rgb(252,253,254)" stroke="rgb(252,253,254)" stroke-width="1" opacity="0.01568627450980392" d="M 196 64 Q 202 62 200 68 L 198 68 Q 199.7 73.2 196 72 L 196 64 Z " /><path fill="rgb(252,253,254)" stroke="rgb(252,253,254)" stroke-width="1" opacity="0.01568627450980392" d="M 332 64 L 336 64.5 L 336 91.5 L 335 91.5 L 335 84 Q 329.4 86.2 331 80.5 L 332 79.5 L 332 72 Q 326 74 328 68 Q 334 70 332 64 Z " /><path fill="rgb(252,253,254)" stroke="rgb(252,253,254)" stroke-width="1" opacity="0.01568627450980392" d="M 1136.5 64 L 1137.5 66 L 1134 67.5 L 1132.5 70 L 1129 72.5 Q 1129.8 74.8 1127.5 74 L 1116 84.5 Q 1116.8 86.8 1114.5 86 L 1108 91 L 1106.5 94 L 1103 96.5 Q 1103.8 98.8 1101.5 98 L 1094 104.5 Q 1094.8 106.8 1092.5 106 Q 1088.5 106.5 1089 111.5 L 1094 115.5 L 1095.5 118 Q 1097.8 117.3 1097 119.5 L 1098 122 L 1101 123.5 L 1119.5 146 L 1122 147.5 L 1126 154 Q 1128.7 152.9 1128 155.5 L 1136.5 166 Q 1138.8 165.3 1138 167.5 L 1142 170 L 1144.5 174 Q 1147.3 173.4 1146 179.5 L 1147 183.5 L 1146 188 Q 1149.7 186.8 1148 192 Q 1144.7 193.3 1146 188.5 L 1143.5 190 L 1135.5 194 L 1132.5 194 L 1123 188.5 Q 1118 185 1117 179 L 1114 177.5 L 1111.5 174 Q 1109.3 174.8 1110 172.5 L 1104.5 166 L 1102 164.5 L 1100.5 162 Q 1098.3 162.8 1099 160.5 L 1077 134 Q 1074.3 135.1 1075 132.5 L 1072 128 L 1069.5 128 L 1065 132.5 L 1067 143.5 L 1066 144.5 L 1066 167.5 Q 1063.3 169.2 1065 175.5 L 1066 179.5 L 1065 186 Q 1062.3 184.9 1063 187.5 L 1062 190 L 1059.5 190 L 1053.5 194 L 1056.5 190 L 1061 187.5 L 1063 182.5 L 1063 132.5 L 1069.5 126 Q 1073.5 125.5 1074 128.5 L 1079 136 L 1082 137.5 L 1126.5 189 L 1134.5 193 L 1145 184.5 Q 1146.5 176 1142 173.5 L 1088 112.5 L 1087 109.5 L 1136.5 64 Z " /><path fill="rgb(252,253,254)" stroke="rgb(252,253,254)" stroke-width="1" opacity="0.01568627450980392" d="M 674 65 L 703.5 65 Q 709.6 66.4 712 71.5 Q 716.6 77.4 715 89.5 L 708.5 101 L 696.5 107 L 674 107 L 673 103.5 L 674 102.5 L 674 70.5 L 673 67.5 L 674 65 Z M 675 66 L 675 106 L 680 105 L 700 105 Q 700 102 705 102 L 711 96 L 714 88 L 713 86 L 714 82 L 709 70 Q 706 71 707 69 L 704 66 L 675 66 Z " /><path fill="rgb(252,253,254)" stroke="rgb(252,253,254)" stroke-width="1" opacity="0.01568627450980392" d="M 322 68 Q 325.3 66.7 324 71.5 L 323 71.5 L 322 68 Z " /><path fill="rgb(252,253,254)" stroke="rgb(252,253,254)" stroke-width="1" opacity="0.01568627450980392" d="M 70.5 69 L 70 70.5 L 59 86.5 L 55 94.5 L 54 101 L 52 100.5 L 52 92 L 55 90.5 L 64.5 74 L 67 72.5 L 68.5 70 L 70.5 69 Z " /><path fill="rgb(252,253,254)" stroke="rgb(252,253,254)" stroke-width="1" opacity="0.01568627450980392" d="M 128.5 71 L 144.5 73 L 154.5 77 L 158 80.5 L 157.5 82 L 154.5 79 L 148.5 78 L 141.5 74 L 116.5 74 L 111.5 75 L 106.5 79 L 104.5 78 L 100 80.5 Q 100.8 82.8 98.5 82 L 95 83 L 93.5 86 L 87 91.5 Q 86.4 97.4 82 99.5 L 82 103.5 Q 78.3 105.8 77.5 111 L 77 106.5 L 82 95.5 L 90.5 85 Q 97.7 77.7 108.5 74 L 117.5 72 L 127.5 72 L 128.5 71 Z " /><path fill="rgb(252,253,254)" stroke="rgb(252,253,254)" stroke-width="1" opacity="0.01568627450980392" d="M 680 71 L 704.5 71 L 705 73.5 L 709 75 L 709 87.5 L 710 93 L 706 94.5 L 704.5 98 L 700 99 Q 701.3 102.3 696.5 101 L 695.5 102 L 682.5 102 L 678 100.5 L 679 99.5 L 679 76.5 L 680 71 Z " /><path fill="rgb(252,253,254)" stroke="rgb(252,253,254)" stroke-width="1" opacity="0.01568627450980392" d="M 846 72 Q 850.9 70.4 849 76 Q 844.1 77.6 846 72 Z " /><path fill="rgb(252,253,254)" stroke="rgb(252,253,254)" stroke-width="1" opacity="0.01568627450980392" d="M 1135.5 72 L 1136 80 L 1129.5 81 L 1127 79.5 L 1130 77.5 L 1131.5 75 L 1133.5 76 L 1135.5 72 Z " /><path fill="rgb(252,253,254)" stroke="rgb(252,253,254)" stroke-width="1" opacity="0.01568627450980392" d="M 274.5 73 L 284.5 77 L 299 88.5 L 307 100.5 L 310 110.5 L 311 122.5 L 306 140.5 L 294.5 155 L 287.5 159 L 288.5 157 Q 290.8 157.8 290 155.5 L 299 147.5 L 306 136.5 L 306 128.5 L 308 126.5 L 309 116.5 L 306 110.5 L 306 103.5 L 298 90 Q 295.3 91.1 296 88.5 L 291 84.5 Q 291.8 82.3 289.5 83 L 282.5 78 L 278.5 78 Q 276.9 74.1 271 74.5 L 274.5 73 Z " /><path fill="rgb(252,253,254)" stroke="rgb(252,253,254)" stroke-width="1" opacity="0.01568627450980392" d="M 650.5 74 L 651 183.5 L 656.5 190 L 660 192.5 L 658.5 193 L 652 190 L 650 186.5 L 649 176.5 Q 651.7 174.8 650 168.5 L 649 167.5 L 649 76.5 L 650.5 74 Z " /><path fill="rgb(252,253,254)" stroke="rgb(252,253,254)" stroke-width="1" opacity="0.01568627450980392" d="M 200.5 76 L 201 79.5 L 200 79.5 L 200.5 76 Z " /><path fill="rgb(252,253,254)" stroke="rgb(252,253,254)" stroke-width="1" opacity="0.01568627450980392" d="M 109.5 78 L 124 79.5 L 120 80 L 120 87.5 L 124 88 L 124 96 L 116 97 L 116 100 L 108 100 L 108 96 L 100 96 L 100 91.5 L 98.5 92 L 96 92 L 96 100 L 92 100 L 92 108 L 88 108 L 87 100 L 92 100 L 92 92 L 94 92 Q 92.9 89.3 95.5 90 L 98.5 86 Q 102 80.6 111 82 L 109.5 78 Z " /><path fill="rgb(252,253,254)" stroke="rgb(252,253,254)" stroke-width="1" opacity="0.01568627450980392" d="M 370.5 78 L 371 161.5 L 370 161.5 L 369 159.5 L 369 80.5 L 370.5 78 Z " /><path fill="rgb(252,253,254)" stroke="rgb(252,253,254)" stroke-width="1" opacity="0.01568627450980392" d="M 128.5 79 L 132 79.5 L 128.5 80 L 128.5 79 Z " /><path fill="rgb(252,253,254)" stroke="rgb(252,253,254)" stroke-width="1" opacity="0.01568627450980392" d="M 136.5 79 L 142 79.5 L 136.5 80 L 136.5 79 Z " /><path fill="rgb(252,253,254)" stroke="rgb(252,253,254)" stroke-width="1" opacity="0.01568627450980392" d="M 248.5 79 L 268 79.5 L 248.5 80 L 248.5 79 Z " /><path fill="rgb(252,253,254)" stroke="rgb(252,253,254)" stroke-width="1" opacity="0.01568627450980392" d="M 948.5 79 L 960 80 L 961 92 L 958.5 93 L 954 88.5 L 954 86 Q 949.3 86.8 948 82.5 L 947 80.5 L 948.5 79 Z " /><path fill="rgb(252,253,254)" stroke="rgb(252,253,254)" stroke-width="1" opacity="0.01568627450980392" d="M 202 80 L 204 80.5 L 204 87.5 L 203 87.5 L 202 80 Z " /><path fill="rgb(252,253,254)" stroke="rgb(252,253,254)" stroke-width="1" opacity="0.01568627450980392" d="M 853 80 L 864 80 L 864 84 L 861 84 L 861 87 Q 858 86 859 89 L 856 89 L 856 91.5 L 855 91.5 L 853 80 Z " /><path fill="rgb(252,253,254)" stroke="rgb(252,253,254)" stroke-width="1" opacity="0.01568627450980392" d="M 988 80 L 996 80 L 996 83.5 L 997 84.5 L 997 127.5 L 998 131 L 994 129.5 Q 995.1 126.2 992.5 127 L 986 121.5 L 980.5 114 L 978 112.5 Q 979.3 108.8 975.5 110 L 968.5 102 Q 966.3 102.8 967 100.5 L 966 98 L 962 96.5 Q 963.3 93.7 964.5 96 L 972 95 L 972.5 92 L 988 92 L 988 80 Z " /><path fill="rgb(252,253,254)" stroke="rgb(252,253,254)" stroke-width="1" opacity="0.01568627450980392" d="M 160.5 82 L 162.5 82 L 171 90.5 L 179 106 L 176 104.5 Q 173.4 103.1 174 98.5 L 164.5 86 L 160.5 82 Z " /><path fill="rgb(252,253,254)" stroke="rgb(252,253,254)" stroke-width="1" opacity="0.01568627450980392" d="M 288.5 87 L 291.5 91 L 294 92.5 Q 295.3 97.3 292 96 Q 294 90 288 92 L 288.5 87 Z " /><path fill="rgb(252,253,254)" stroke="rgb(252,253,254)" stroke-width="1" opacity="0.01568627450980392" d="M 1118 87 L 1121 87.5 L 1120 91.5 L 1121 96 L 1116.5 97 L 1112.5 96 Q 1111.3 98.3 1110 95.5 L 1114 94 L 1115.5 90 Q 1119.7 91.1 1118 87 Z " /><path fill="rgb(252,253,254)" stroke="rgb(252,253,254)" stroke-width="1" opacity="0.01568627450980392" d="M 160 90 Q 163 89 162 92 L 165 92 L 165 96 L 160 96 L 160 90 Z " /><path fill="rgb(252,253,254)" stroke="rgb(252,253,254)" stroke-width="1" opacity="0.01568627450980392" d="M 212.5 90 L 213.5 91 L 220 91 Q 222.4 98.1 216 96 Q 218 90 212 92 Q 214.1 98.4 207 96 L 207 92 Q 212.8 94 212.5 90 Z " /><path fill="rgb(252,253,254)" stroke="rgb(252,253,254)" stroke-width="1" opacity="0.01568627450980392" d="M 823.5 91 Q 826.8 89.9 826 92.5 L 842 124.5 L 840.5 126 L 828.5 126 Q 826.7 123.3 820.5 125 L 816.5 126 L 814.5 126 Q 808.5 127.5 807 124.5 L 823.5 91 Z M 823 94 L 822 101 L 819 102 L 819 108 L 821 108 L 823 103 Q 822 100 825 101 L 827 106 Q 826 108 830 107 Q 830 102 826 100 Q 828 92 823 94 Z M 830 108 L 830 110 L 830 115 Q 835 114 833 118 L 819 118 L 816 117 L 818 116 L 818 109 L 815 112 L 815 115 Q 810 118 810 124 L 815 123 L 833 123 L 839 124 Q 839 118 834 116 L 833 111 L 830 108 Z " /><path fill="rgb(252,253,254)" stroke="rgb(252,253,254)" stroke-width="1" opacity="0.01568627450980392" d="M 787.5 95 L 790 96.5 L 789 104 L 785 104 L 785 111.5 L 784 111.5 L 784 96.5 L 786.5 96 L 787.5 95 Z " /><path fill="rgb(252,253,254)" stroke="rgb(252,253,254)" stroke-width="1" opacity="0.01568627450980392" d="M 608.5 101 L 609 105 L 603.5 105 L 603 103.5 L 608.5 101 Z " /><path fill="rgb(252,253,254)" stroke="rgb(252,253,254)" stroke-width="1" opacity="0.01568627450980392" d="M 1102.5 102 L 1105 102.5 L 1105 111.5 L 1104 115.5 L 1105 122 L 1102 120.5 Q 1103.3 116.8 1099.5 118 L 1098 114 L 1094 111.5 L 1096 107 L 1102.5 102 Z " /><path fill="rgb(252,253,254)" stroke="rgb(252,253,254)" stroke-width="1" opacity="0.01568627450980392" d="M 734 104 L 737 104 L 737 111 L 739.5 111 L 740.5 112 L 752 112 L 753 120 L 763.5 120 L 764 124 L 771 124 L 771 112.5 L 772.5 112 L 774.5 111 L 777 112 L 777 116 Q 783 114 781 120 Q 776.5 118.3 778 123.5 L 777 128 Q 772.1 126.2 774 132.5 L 773 137 L 769 137 L 769 144.5 L 767.5 144 L 765 144.5 L 765 151.5 L 764 151.5 L 763.5 148 L 763 152 L 761 152.5 L 761 160.5 L 759.5 160 Q 756.5 159.1 758 163.5 L 757 169 Q 752.5 167.3 754 172.5 L 753 177 L 749 177 L 749 184 L 744 184 L 744 180 Q 741 181.3 742 177.5 L 746 176 L 747 168 L 750 166.5 L 751.5 159 Q 752.8 161.3 754 158.5 L 755 148.5 L 754 147.5 L 754 140 Q 749.5 141.8 751 136.5 L 750 132 Q 745.5 133.8 747 128.5 L 746 125 L 742 123.5 L 742 120 L 739 120 L 739 118 Q 736.3 119.1 737 116.5 L 736 114 L 731 113 L 731 107 Q 735.5 108.5 734 104 Z " /><path fill="rgb(252,253,254)" stroke="rgb(252,253,254)" stroke-width="1" opacity="0.01568627450980392" d="M 1030.5 108 L 1031 151.5 L 1030 151.5 L 1030.5 108 Z " /><path fill="rgb(252,253,254)" stroke="rgb(252,253,254)" stroke-width="1" opacity="0.01568627450980392" d="M 930 109 L 934 110.5 L 935.5 114 Q 937.8 113.3 937 115.5 L 941 118 L 942.5 121 L 946 122 L 950 127.5 L 950 130 Q 954.1 128.3 953 132.5 L 958 136.5 L 958 138 Q 961.8 136.5 961 139.5 L 962 142 L 966 143.5 Q 964.7 146.3 963.5 144 L 952.5 144 L 951.5 148 L 940 148 L 940 156 L 932 156 L 931 151.5 L 931 112.5 L 930 109 Z " /><path fill="rgb(252,253,254)" stroke="rgb(252,253,254)" stroke-width="1" opacity="0.01568627450980392" d="M 128.5 110 L 129 112.5 Q 123.3 115.8 123 124.5 Q 124.4 130.6 129.5 133 L 148.5 135 L 149.5 134 L 160.5 134 L 161.5 135 L 173.5 135 L 174.5 134 L 182 134 L 187 149.5 L 201.5 169 L 224.5 185 L 235.5 189 L 244.5 190 L 252 193.5 L 247.5 194 L 241.5 191 L 231.5 190 Q 228.5 186 221.5 186 L 206.5 175 L 203 174 L 200.5 170 Q 198.3 170.8 199 168.5 L 190 158.5 L 189 154 L 186 152.5 Q 186 146.5 182 144.5 Q 183.7 137.8 180.5 136 L 177.5 137 L 142.5 137 L 139.5 138 L 129.5 134 L 126 134 L 123.5 130 L 122 129.5 L 122 114 Q 127.1 114.8 128.5 110 Z " /><path fill="rgb(252,253,254)" stroke="rgb(252,253,254)" stroke-width="1" opacity="0.01568627450980392" d="M 257.5 110 L 263 114.5 Q 262 119.5 265 118.5 L 265 125.5 L 264 130 Q 261.3 128.9 262 131.5 L 259.5 134 Q 253.5 134 250.5 137 L 213.5 137 L 211 136 L 211 138.5 L 214 141.5 Q 213.3 145.3 215.5 146 L 218 147.5 L 223.5 154 L 226 155.5 Q 225.3 157.8 227.5 157 L 235.5 162 L 239.5 162 L 242.5 165 L 256 166.5 L 252.5 168 L 251.5 167 L 243.5 167 L 233.5 163 Q 223.7 158.3 217 150.5 L 210 140.5 L 209 135.5 L 210.5 134 L 225.5 134 L 226.5 135 L 237.5 135 L 238.5 134 L 253.5 134 L 261 128.5 Q 263.3 125.3 262 118.5 L 257 112.5 L 257.5 110 Z " /><path fill="rgb(252,253,254)" stroke="rgb(252,253,254)" stroke-width="1" opacity="0.01568627450980392" d="M 266 112 L 272 112 L 272 128 Q 268.7 129.3 270 124.5 L 271 120.5 L 270 116 Q 264 118 266 112 Z " /><path fill="rgb(252,253,254)" stroke="rgb(252,253,254)" stroke-width="1" opacity="0.01568627450980392" d="M 614 112 L 619 113 L 620 118 Q 622.7 116.9 622 119.5 L 623 120.5 L 623 139.5 L 620.5 146 Q 618.3 145.3 619 147.5 L 618 154 Q 615.3 152.9 616 155.5 L 612.5 162 L 610 163.5 L 601.5 174 L 581.5 187 Q 575.9 186.4 574.5 190 L 564.5 191 L 557.5 194 L 558.5 192 L 562.5 190 L 571.5 189 L 583.5 184 Q 595.9 177.9 605 168.5 Q 619.7 153.7 622 126.5 L 621 121.5 L 615.5 114 Q 612.9 114.7 614 112 Z " /><path fill="rgb(252,253,254)" stroke="rgb(252,253,254)" stroke-width="1" opacity="0.01568627450980392" d="M 115 116 Q 119.5 114.3 118 119.5 L 116 128 Q 119.7 126.8 118 132 Q 114.3 130.8 116 136 L 112 136 L 112 132 Q 118 134 116 128 Q 110 130 112 124 Q 117.6 126.2 116 120.5 L 115 116 Z " /><path fill="rgb(252,253,254)" stroke="rgb(252,253,254)" stroke-width="1" opacity="0.01568627450980392" d="M 675.5 125 L 702.5 125 Q 703.8 127.3 708.5 126 L 718 131 L 725 143.5 L 725 155.5 Q 722.9 163.9 716.5 168 L 702.5 174 L 674 174 L 673 170.5 L 674 169.5 L 674 130.5 L 673 127.5 L 675.5 125 Z M 675 126 L 675 173 Q 675 174 681 173 L 683 173 L 685 172 L 704 172 L 706 170 L 713 169 L 719 164 Q 718 161 721 162 L 722 161 L 722 153 L 723 152 L 722 140 L 720 137 L 715 131 Q 709 131 708 127 L 679 127 L 675 126 Z " /><path fill="rgb(252,253,254)" stroke="rgb(252,253,254)" stroke-width="1" opacity="0.01568627450980392" d="M 1111.5 127 L 1120 128 L 1121 140 L 1119 140 Q 1120.1 137.3 1117.5 138 L 1115 137 L 1113.5 133 L 1111 131.5 L 1110 128.5 L 1111.5 127 Z " /><path fill="rgb(252,253,254)" stroke="rgb(252,253,254)" stroke-width="1" opacity="0.01568627450980392" d="M 267.5 128 L 268 132 L 272 132 L 272 144 L 268 144 Q 270 138 264 140 Q 266 146 260 144 Q 262.1 138.8 257.5 140 L 257.5 139 L 264 140 L 264 136 Q 269.6 138.2 268 132.5 L 267.5 128 Z " /><path fill="rgb(252,253,254)" stroke="rgb(252,253,254)" stroke-width="1" opacity="0.01568627450980392" d="M 77 130 Q 80 128.8 79 132.5 L 82 136.5 Q 81 141 83.5 142 Q 85.8 141.3 85 143.5 L 93.5 154 L 103.5 161 L 109.5 162 Q 110.9 165.6 116 165.5 L 113.5 167 L 101.5 162 L 90 153.5 Q 80.1 144.6 77 130 Z " /><path fill="rgb(252,253,254)" stroke="rgb(252,253,254)" stroke-width="1" opacity="0.01568627450980392" d="M 705.5 130 L 708 131.5 L 709.5 134 L 715 135 L 718 140.5 L 718 143.5 L 717 147.5 L 718 151.5 L 717 152.5 L 717 161 L 713 162.5 Q 714.3 166.7 709.5 165 Q 706.2 167.7 699.5 167 L 698.5 166 L 688.5 166 Q 687.3 168.3 682.5 167 L 680 166 Q 679 163 682 164 L 682 160 L 680 159.5 L 680 131 L 700 131.5 L 696 132.5 L 703 133 Q 701.9 130.3 704.5 131 L 705.5 130 Z " /><path fill="rgb(252,253,254)" stroke="rgb(252,253,254)" stroke-width="1" opacity="0.01568627450980392" d="M 121.5 131 L 127.5 139 L 132 142.5 L 132 144 L 128 144 L 127.5 140 L 125.5 141 L 123 140 Q 124.5 136.3 121.5 137 L 119 136 L 119 132 L 120.5 132 L 121.5 131 Z " /><path fill="rgb(252,253,254)" stroke="rgb(252,253,254)" stroke-width="1" opacity="0.01568627450980392" d="M 1070.5 133 L 1074 135.5 L 1075.5 138 Q 1079.7 136.7 1078 141.5 L 1082 148 Q 1084.7 146.9 1084 149.5 L 1085 152 L 1090 154.5 L 1094 159.5 L 1094 162 L 1097 163.5 Q 1095.5 167.9 1098.5 167 L 1101 168 L 1101 172 L 1099.5 172 L 1093 173 Q 1094.5 176.8 1091.5 176 L 1089.5 177 L 1087 176 L 1087 172 L 1088.5 172 L 1091 171 L 1091 164 L 1080 164 L 1080 172 L 1072 172 L 1071 167.5 L 1070.5 133 Z " /><path fill="rgb(252,253,254)" stroke="rgb(252,253,254)" stroke-width="1" opacity="0.01568627450980392" d="M 52 139 L 55 140.5 L 55 144.5 L 63 158.5 L 77.5 174 L 97.5 186 Q 103.6 185.4 105.5 189 L 114.5 190 L 122 193.5 L 117.5 194 L 111.5 191 L 101.5 190 Q 100.1 186.4 94.5 187 L 69 170 L 66.5 166 L 64 164.5 Q 57.2 157.2 54 147 L 52 146.5 L 52 139 Z " /><path fill="rgb(252,253,254)" stroke="rgb(252,253,254)" stroke-width="1" opacity="0.01568627450980392" d="M 112 140 L 120 140 L 120 144 L 112 144 L 112 140 Z " /><path fill="rgb(252,253,254)" stroke="rgb(252,253,254)" stroke-width="1" opacity="0.01568627450980392" d="M 176.5 142 L 178 148 L 176 148 L 176.5 142 Z " /><path fill="rgb(252,253,254)" stroke="rgb(252,253,254)" stroke-width="1" opacity="0.01568627450980392" d="M 222.5 142 Q 225.1 141.3 224 144 L 228 144 L 228 148 L 236 148 Q 234 142 240 144 L 240 148 Q 234 146 236 152 Q 242 150 240 156 L 235.5 157 L 236 155.5 Q 237.6 149.8 232 152 L 231.5 154 L 228 152 Q 230.3 146 223.5 148 L 222 144 L 219 143.5 L 222.5 142 Z " /><path fill="rgb(252,253,254)" stroke="rgb(252,253,254)" stroke-width="1" opacity="0.01568627450980392" d="M 140.5 143 L 144 143.5 L 140.5 144 L 140.5 143 Z " /><path fill="rgb(252,253,254)" stroke="rgb(252,253,254)" stroke-width="1" opacity="0.01568627450980392" d="M 248.5 143 L 252 143.5 L 248.5 144 L 248.5 143 Z " /><path fill="rgb(252,253,254)" stroke="rgb(252,253,254)" stroke-width="1" opacity="0.01568627450980392" d="M 92 144 Q 98.4 141.7 96 149.5 L 95 149.5 Q 95.8 147.3 93.5 148 L 92 144 Z " /><path fill="rgb(252,253,254)" stroke="rgb(252,253,254)" stroke-width="1" opacity="0.01568627450980392" d="M 164 144 L 172 144 L 172 149 L 164 149 L 164 144 Z " /><path fill="rgb(252,253,254)" stroke="rgb(252,253,254)" stroke-width="1" opacity="0.01568627450980392" d="M 288 144 L 294 144 L 294 146.5 L 293 149 L 288 148 L 288 144 Z " /><path fill="rgb(252,253,254)" stroke="rgb(252,253,254)" stroke-width="1" opacity="0.01568627450980392" d="M 1126 144 L 1136 144 L 1136 157.5 L 1135 157.5 L 1132.5 154 L 1129 151.5 L 1127 148.5 L 1126 144 Z " /><path fill="rgb(252,253,254)" stroke="rgb(252,253,254)" stroke-width="1" opacity="0.01568627450980392" d="M 848.5 150 L 850 156 L 853 156 L 853 167.5 L 855.5 168 Q 856.8 165.8 858 168.5 L 859 176 L 851.5 177 L 848 176 L 847 164 L 836 164 L 836 160 L 832 160 L 831.5 156 L 816 156 L 816 160 Q 810 158 812 164 L 800.5 164 L 800 167.5 L 801 171.5 L 800 176 L 792.5 177 L 790 176 L 791.5 168 L 792 171 Q 796.1 172.7 795 168.5 L 794 164.5 L 795.5 159 L 798 160 L 799.5 151 L 801.5 152 L 802.5 151 L 847.5 151 L 848.5 150 Z " /><path fill="rgb(252,253,254)" stroke="rgb(252,253,254)" stroke-width="1" opacity="0.01568627450980392" d="M 100.5 152 Q 105.3 150.7 104 154 Q 99.8 154 100.5 152 Z " /><path fill="rgb(252,253,254)" stroke="rgb(252,253,254)" stroke-width="1" opacity="0.01568627450980392" d="M 178.5 152 Q 183.8 150.3 182 155.5 L 178.5 152 Z " /><path fill="rgb(252,253,254)" stroke="rgb(252,253,254)" stroke-width="1" opacity="0.01568627450980392" d="M 334 152 Q 337.7 150.8 336 156 Q 332.3 157.2 334 152 Z " /><path fill="rgb(252,253,254)" stroke="rgb(252,253,254)" stroke-width="1" opacity="0.01568627450980392" d="M 162.5 154 Q 164.8 153.3 164 155.5 L 153.5 163 L 150.5 163 L 142.5 167 L 122.5 168 L 121.5 166 L 140.5 166 L 146.5 162 Q 153 163 155 159.5 Q 154.2 156.9 157.5 158 L 162.5 154 Z " /><path fill="rgb(252,253,254)" stroke="rgb(252,253,254)" stroke-width="1" opacity="0.01568627450980392" d="M 172 154 L 180 159.5 L 182 162.5 L 182 174 L 178 176.5 Q 178.8 179.1 175.5 178 L 173 179 L 171.5 182 L 154.5 190 L 155 188.5 L 156.5 186 Q 170.8 182.3 179 172.5 L 180 164.5 L 175.5 158 L 172 155.5 L 172 154 Z " /><path fill="rgb(252,253,254)" stroke="rgb(252,253,254)" stroke-width="1" opacity="0.01568627450980392" d="M 975 154 L 978 155.5 Q 976.9 158.8 979.5 158 L 982 159.5 L 976 160 L 975 154 Z " /><path fill="rgb(252,253,254)" stroke="rgb(252,253,254)" stroke-width="1" opacity="0.01568627450980392" d="M 184.5 156 L 185 159.5 L 184 159.5 L 184.5 156 Z " /><path fill="rgb(252,253,254)" stroke="rgb(252,253,254)" stroke-width="1" opacity="0.01568627450980392" d="M 331.5 156 L 332 159.5 L 331 159.5 L 331.5 156 Z " /><path fill="rgb(252,253,254)" stroke="rgb(252,253,254)" stroke-width="1" opacity="0.01568627450980392" d="M 285.5 158 L 285 159.5 L 282.5 163 L 272.5 167 L 262.5 168 L 260 166.5 L 273.5 165 L 276.5 162 Q 283.9 162.9 285.5 158 Z " /><path fill="rgb(252,253,254)" stroke="rgb(252,253,254)" stroke-width="1" opacity="0.01568627450980392" d="M 1139.5 159 L 1140.5 160 L 1152 160 L 1152 173 L 1147.5 173 Q 1145.3 172.3 1146 168.5 Q 1148.8 167.4 1148 164 Q 1142.8 161.9 1144 166.5 L 1143 166.5 Q 1144.3 162.8 1140.5 164 L 1139 164.5 L 1138 160.5 L 1139.5 159 Z " /><path fill="rgb(252,253,254)" stroke="rgb(252,253,254)" stroke-width="1" opacity="0.01568627450980392" d="M 116.5 160 L 120 160.5 L 116.5 161 L 116.5 160 Z " /><path fill="rgb(252,253,254)" stroke="rgb(252,253,254)" stroke-width="1" opacity="0.01568627450980392" d="M 186 160 Q 190.5 158.3 189 163.5 Q 191.7 164.6 191 168 Q 186.1 166.4 188 172 Q 194.4 174.3 192 166.5 L 193 166.5 L 195 172 L 201 175.5 L 188 176 L 186 160 Z " /><path fill="rgb(252,253,254)" stroke="rgb(252,253,254)" stroke-width="1" opacity="0.01568627450980392" d="M 264.5 160 L 271 160.5 L 264.5 161 L 264.5 160 Z " /><path fill="rgb(252,253,254)" stroke="rgb(252,253,254)" stroke-width="1" opacity="0.01568627450980392" d="M 617.5 163 Q 619.8 162.3 619 164.5 L 621 164.5 L 621 171.5 L 619.5 172 L 616 173 Q 617.6 177.9 612 176 L 611 168 L 615 168 L 615 164 L 616.5 164 L 617.5 163 Z " /><path fill="rgb(252,253,254)" stroke="rgb(252,253,254)" stroke-width="1" opacity="0.01568627450980392" d="M 988.5 167 L 990 170 L 994 171 L 995.5 175 L 997 175.5 L 992 176 Q 994 170 988 172 L 988.5 167 Z " /><path fill="rgb(252,253,254)" stroke="rgb(252,253,254)" stroke-width="1" opacity="0.01568627450980392" d="M 318 172 Q 321.7 170.8 320 176 L 315 175.5 L 318 173.5 L 318 172 Z " /><path fill="rgb(252,253,254)" stroke="rgb(252,253,254)" stroke-width="1" opacity="0.01568627450980392" d="M 860.5 172 L 861 175.5 L 860 175.5 L 860.5 172 Z " /><path fill="rgb(252,253,254)" stroke="rgb(252,253,254)" stroke-width="1" opacity="0.01568627450980392" d="M 924 172 L 926 172.5 L 926 183.5 L 925 186 Q 922 184.8 923 188.5 L 915.5 193 L 915 191.5 L 921 187.5 Q 925.1 181.7 924 172 Z " /><path fill="rgb(252,253,254)" stroke="rgb(252,253,254)" stroke-width="1" opacity="0.01568627450980392" d="M 1104.5 172 L 1105 175 L 1109 175 L 1109 176.5 L 1110 180 Q 1113.8 178.5 1113 181.5 L 1120.5 191 L 1122 191.5 L 1112 192 Q 1114.1 186.8 1109.5 188 L 1108 192 Q 1102.4 194.2 1104 188.5 L 1103 184.5 L 1104 180.5 L 1103 176.5 L 1104.5 172 Z " /><path fill="rgb(252,253,254)" stroke="rgb(252,253,254)" stroke-width="1" opacity="0.01568627450980392" d="M 370.5 174 Q 371.1 184.9 378.5 189 L 384 191 L 385 193.5 L 382.5 192 L 375 190 L 372.5 186 Q 370.3 186.8 371 184.5 L 370 183.5 L 370.5 174 Z " /><path fill="rgb(252,253,254)" stroke="rgb(252,253,254)" stroke-width="1" opacity="0.01568627450980392" d="M 644.5 176 L 645 188 L 640 188 L 640 180 Q 645.8 182 644.5 176 Z " /><path fill="rgb(252,253,254)" stroke="rgb(252,253,254)" stroke-width="1" opacity="0.01568627450980392" d="M 1071.5 176 L 1073 187.5 L 1072 192 L 1065 192 L 1065 188 Q 1068.7 189.2 1067 184 L 1069.5 184 L 1071 182.5 L 1071.5 176 Z " /><path fill="rgb(252,253,254)" stroke="rgb(252,253,254)" stroke-width="1" opacity="0.01568627450980392" d="M 302.5 178 L 305 178.5 L 302 180.5 Q 302.8 183.1 299.5 182 L 295 184 Q 296.3 187 292.5 186 L 284.5 190 L 278.5 190 L 268.5 194 L 264.5 194 L 264.5 193 L 270.5 190 L 280.5 189 L 291.5 185 L 302.5 178 Z " /><path fill="rgb(252,253,254)" stroke="rgb(252,253,254)" stroke-width="1" opacity="0.01568627450980392" d="M 496 182 L 502 183 L 503.5 187 L 509 187 L 509 189.5 L 514 191.5 L 504 192 Q 506 186 500 188 Q 502 194 496 192 L 496 182 Z " /><path fill="rgb(252,253,254)" stroke="rgb(252,253,254)" stroke-width="1" opacity="0.01568627450980392" d="M 598.5 182 L 600 182 L 600.5 184 L 608 184 L 608 188 L 604 188 Q 606 194 600 192 L 600 184 L 596.5 184 L 596.5 183 L 598.5 182 Z " /><path fill="rgb(252,253,254)" stroke="rgb(252,253,254)" stroke-width="1" opacity="0.01568627450980392" d="M 80 183 L 82 183 Q 80.7 187.1 84 186 L 84 192 L 80 192 L 80 183 Z " /><path fill="rgb(252,253,254)" stroke="rgb(252,253,254)" stroke-width="1" opacity="0.01568627450980392" d="M 174 183 L 176 183.5 L 176 192 L 172 192 L 172 186 Q 175.3 187.1 174 183 Z " /><path fill="rgb(252,253,254)" stroke="rgb(252,253,254)" stroke-width="1" opacity="0.01568627450980392" d="M 208 183 L 212 183 Q 210.5 186.8 213.5 186 L 218 187 Q 216.5 190.7 219.5 190 L 225 191.5 L 208 192 L 208 183 Z " /><path fill="rgb(252,253,254)" stroke="rgb(252,253,254)" stroke-width="1" opacity="0.01568627450980392" d="M 735.5 183 L 737 192 L 731.5 193 L 725 191.5 L 730 189.5 Q 728.8 185.8 732.5 187 L 735 186 L 735.5 183 Z " /><path fill="rgb(252,253,254)" stroke="rgb(252,253,254)" stroke-width="1" opacity="0.01568627450980392" d="M 863 184 L 866 184 L 866 188 Q 869.7 186.5 869 189.5 L 870 192 L 864 192 L 864 188.5 L 863 184 Z " /><path fill="rgb(252,253,254)" stroke="rgb(252,253,254)" stroke-width="1" opacity="0.01568627450980392" d="M 1034 184 Q 1037.7 182.8 1036 188 Q 1032.3 189.2 1034 184 Z " /><path fill="rgb(252,253,254)" stroke="rgb(252,253,254)" stroke-width="1" opacity="0.01568627450980392" d="M 302.5 186 L 304 186.5 L 304 192 L 292 191.5 L 298 190 Q 296.3 185.5 301.5 187 L 302.5 186 Z " /><path fill="rgb(252,253,254)" stroke="rgb(252,253,254)" stroke-width="1" opacity="0.01568627450980392" d="M 88.5 187 L 90.5 191 L 95 191.5 L 88 192 L 88.5 187 Z " /><path fill="rgb(252,253,254)" stroke="rgb(252,253,254)" stroke-width="1" opacity="0.01568627450980392" d="M 586.5 187 Q 591.8 185.8 593 188.5 Q 594.5 192.9 591.5 192 L 587.5 193 L 581 191.5 Q 585.6 192.1 587 189.5 L 586.5 187 Z " /><path fill="rgb(252,253,254)" stroke="rgb(252,253,254)" stroke-width="1" opacity="0.01568627450980392" d="M 1007.5 187 Q 1009.8 186.3 1009 188.5 L 1013 191.5 L 1008 192 L 1007.5 187 Z " /><path fill="rgb(252,253,254)" stroke="rgb(252,253,254)" stroke-width="1" opacity="0.01568627450980392" d="M 368 188 L 373 191.5 L 368 192 L 368 188 Z " /><path fill="rgb(252,253,254)" stroke="rgb(252,253,254)" stroke-width="1" opacity="0.01568627450980392" d="M 462 188 Q 465.7 186.8 464 192 L 459 193 L 459 190 Q 463.1 191.3 462 188 Z " /><path fill="rgb(252,253,254)" stroke="rgb(252,253,254)" stroke-width="1" opacity="0.01568627450980392" d="M 648.5 188 L 649 191.5 L 648 191.5 L 648.5 188 Z " /><path fill="rgb(252,253,254)" stroke="rgb(252,253,254)" stroke-width="1" opacity="0.01568627450980392" d="M 780 188 Q 786 186 784 192 L 778 192 L 778 190 Q 781 191 780 188 Z " /><path fill="rgb(252,253,254)" stroke="rgb(252,253,254)" stroke-width="1" opacity="0.01568627450980392" d="M 926 188 Q 929.7 186.8 928 192 Q 924.3 193.2 926 188 Z " /><path fill="rgb(252,253,254)" stroke="rgb(252,253,254)" stroke-width="1" opacity="0.01568627450980392" d="M 144.5 189 L 148 190.5 L 139.5 194 L 134.5 194 L 134.5 193 L 144.5 189 Z " /><path fill="rgb(252,253,254)" stroke="rgb(252,253,254)" stroke-width="1" opacity="0.01568627450980392" d="M 166.5 190 Q 169.1 189.3 168 192 L 162 191.5 L 166.5 190 Z " /><path fill="rgb(252,253,254)" stroke="rgb(252,253,254)" stroke-width="1" opacity="0.01568627450980392" d="M 400 192 L 431.5 192 L 432 194 L 400.5 194 L 400 192 Z " /><path fill="rgb(252,253,254)" stroke="rgb(252,253,254)" stroke-width="1" opacity="0.01568627450980392" d="M 688 192 Q 693.2 190.3 692 194 Q 686.8 195.7 688 192 Z " /><path fill="rgb(9,169,167)" stroke="rgb(9,169,167)" stroke-width="1" opacity="0.9686274509803922" d="M 117.5 52 L 147.5 53 L 155.5 57 L 159.5 57 L 173.5 65 L 186 76.5 L 195 89.5 L 199 99.5 L 201 110.5 L 204.5 114 L 251.5 114 L 258 118.5 L 259 124.5 L 254.5 130 L 251.5 131 L 206.5 131 L 205 132.5 L 204 134.5 L 207 142.5 L 218.5 157 L 229.5 165 L 241.5 170 Q 247.8 169.2 250.5 172 L 265.5 172 Q 268.2 169.2 274.5 170 L 286.5 165 L 301 153.5 L 309 142.5 L 313 132.5 L 314 127.5 L 314 112.5 L 312 103.5 L 300 84 L 289.5 76 L 279.5 71 L 264.5 67 L 251.5 67 L 233.5 72 L 222.5 79 L 214.5 79 L 210 74.5 L 210 69.5 L 214.5 64 L 227.5 57 L 230.5 57 L 238.5 53 L 268.5 52 L 269.5 53 L 277.5 53 Q 281.3 56.7 288.5 57 L 298.5 62 L 314 74.5 L 326 92.5 L 330 103.5 L 331 107.5 L 331 131.5 L 323 152.5 L 310.5 168 L 295.5 179 L 277.5 186 Q 272 184.5 270.5 187 L 244.5 187 Q 243.2 184.7 238.5 186 L 220.5 179 L 202 164.5 L 194 154.5 L 183.5 131 L 135.5 131 L 131.5 130 L 128 126.5 L 127 120.5 L 130.5 116 L 134.5 114 L 178.5 114 L 184 110.5 Q 180 93 168.5 83 L 158.5 75 L 150.5 71 L 135.5 67 L 121.5 67 L 105.5 71 L 96.5 76 L 82 89.5 L 74 104.5 L 72 112.5 L 72 127.5 L 77 141.5 L 87 156 L 105.5 168 L 116.5 170 L 120.5 172 L 135.5 172 L 148.5 169 L 158.5 164 L 161.5 161 L 170.5 160 L 175 162.5 L 176 169.5 L 174 174 L 159.5 182 Q 152 182.5 147.5 186 Q 142.8 184.7 141.5 187 L 114.5 187 Q 88.5 181.5 73 165.5 Q 63.4 155.1 58 140.5 L 57 132.5 L 54 124.5 L 54 114.5 L 59 96.5 L 63 88.5 Q 70.3 74.8 82.5 66 Q 96.5 55.5 117.5 52 Z " /><path fill="rgb(6,57,111)" stroke="rgb(6,57,111)" stroke-width="1" opacity="0.9921568627450981" d="M 432.5 51 L 434.5 52 L 448.5 52 L 452.5 53 L 456 56.5 Q 459.8 59.7 458 68.5 L 452.5 75 L 448.5 76 L 406.5 76 L 403 78.5 L 402 81.5 L 402 102.5 L 404.5 106 L 406.5 107 L 447.5 107 L 455 110 L 458 114.5 L 459 119.5 Q 457.6 127.6 451.5 131 Q 446.7 129.7 445.5 132 L 404.5 132 L 403 133.5 L 402 136.5 L 402 157.5 L 404.5 162 L 446.5 162 L 456 167.5 Q 459.8 170.7 458 179.5 L 452.5 186 L 449.5 187 L 383.5 187 L 377 182.5 L 374 175.5 L 374 63.5 L 379.5 54 L 384.5 52 L 431.5 52 L 432.5 51 Z " /><path fill="rgb(6,57,111)" stroke="rgb(6,57,111)" stroke-width="1" opacity="0.9921568627450981" d="M 688.5 51 L 692.5 52 L 694.5 52 L 710.5 54 L 723 62.5 L 730 74.5 L 731 89.5 L 727 100.5 L 716 114.5 L 718.5 117 L 723.5 118 L 728.5 121 L 737 129.5 L 743 141.5 L 743 158.5 Q 739.4 168.4 732.5 175 Q 723 184 707.5 187 L 658.5 187 L 655 181.5 L 655 56.5 L 657.5 53 L 659.5 52 L 687.5 52 L 688.5 51 Z M 673 60 L 669 66 L 669 106 L 670 110 L 673 112 L 695 112 L 701 109 L 704 109 L 710 105 Q 717 100 719 89 L 719 80 L 716 71 L 709 63 L 700 60 L 673 60 Z M 673 121 L 669 127 L 669 174 L 670 176 L 675 178 L 708 177 L 718 172 Q 725 167 729 158 L 729 142 L 725 134 Q 718 123 704 121 L 673 121 Z " /><path fill="rgb(6,57,111)" stroke="rgb(6,57,111)" stroke-width="1" opacity="0.9921568627450981" d="M 538.5 52 L 566.5 53 Q 571 56.5 578.5 57 L 588.5 62 L 606 77.5 Q 608.3 80.7 607 87.5 L 600.5 95 L 593.5 96 Q 592.3 93.7 587.5 95 Q 578.9 85.1 566.5 79 L 556.5 76 L 545.5 75 Q 544 77.5 538.5 76 L 521.5 83 L 510 93.5 L 503 104.5 L 500 121.5 L 504 136.5 Q 508.7 146.8 517.5 153 L 531.5 161 L 539.5 163 L 555.5 163 Q 574.8 159.3 585 146.5 Q 587.6 145.1 587 140.5 L 585.5 139 L 554.5 139 L 545 132.5 Q 542.7 129.3 544 122.5 L 547.5 117 L 552.5 114 L 607.5 114 L 615 119.5 Q 618.6 124.9 617 135.5 L 610 155.5 L 600.5 168 L 597.5 170 L 586.5 178 L 567.5 186 Q 562.8 184.7 561.5 187 L 533.5 187 L 516.5 182 L 508.5 178 Q 497.2 171.3 489 161.5 L 482 151.5 L 477 140.5 Q 477.1 131.9 474 126.5 L 474 113.5 L 477 99.5 L 482 87.5 L 496.5 70 L 514.5 58 Q 523.3 57.3 528.5 53 L 537.5 53 L 538.5 52 Z " /><path fill="rgb(6,57,111)" stroke="rgb(6,57,111)" stroke-width="1" opacity="0.9921568627450981" d="M 1015.5 52 L 1019.5 53 L 1022 55.5 L 1023 57.5 L 1023 186 L 1020.5 186 L 984 149.5 Q 984.8 147.3 982.5 148 L 976 140 L 972 137.5 Q 972.8 135.3 970.5 136 L 966.5 131 Q 964.3 131.8 965 129.5 L 961 126.5 L 926.5 91 L 921.5 90 L 919 92.5 L 919 183.5 L 915.5 187 Q 907.5 188.5 906 183.5 L 905 181.5 L 905 54 L 907.5 54 L 924 70.5 Q 923.3 72.8 925.5 72 L 928 76 L 936 82.5 Q 935.3 84.8 937.5 84 L 940 88 L 944 90.5 L 945.5 93 Q 947.8 92.3 947 94.5 L 955 101 L 955 102.5 L 1002.5 150 Q 1008.6 151.3 1008 148.5 L 1009 147.5 L 1009 55.5 L 1011.5 53 L 1015.5 52 Z " /><path fill="rgb(6,57,111)" stroke="rgb(6,57,111)" stroke-width="1" opacity="0.9921568627450981" d="M 1049.5 52 Q 1056 51 1058 54.5 L 1059 56.5 L 1059 105.5 L 1060.5 107 L 1063.5 107 L 1071.5 100 L 1121.5 53 L 1129.5 52 L 1137 57 L 1136.5 59 L 1135.5 58 L 1131 62.5 L 1126.5 68 L 1083 108.5 L 1083 112.5 L 1139 175.5 L 1142 180.5 L 1138.5 186 L 1130.5 187 L 1126 184 L 1120 175.5 L 1072.5 122 L 1069.5 121 L 1060 129.5 L 1059 131.5 L 1059 182.5 L 1056.5 186 L 1048.5 187 L 1045 183.5 L 1045 55.5 L 1049.5 52 Z " /><path fill="rgb(6,57,111)" stroke="rgb(6,57,111)" stroke-width="1" opacity="0.9921568627450981" d="M 823.5 54 L 827 55.5 L 887 175.5 L 888 183.5 L 887 186 Q 884.6 187.8 878.5 187 L 874 181.5 L 856 143.5 L 852.5 140 L 850.5 139 L 797.5 139 L 792 145.5 L 774 183.5 L 771.5 186 L 764.5 187 L 762 186 Q 760.2 183.6 761 177.5 L 823.5 54 Z M 825 85 L 823 86 L 819 90 L 819 93 L 803 123 L 803 128 L 807 130 L 811 129 L 838 129 L 839 130 Q 844 131 846 128 L 846 124 L 833 100 L 828 87 L 825 85 Z " /><path fill="rgb(82,150,171)" stroke="rgb(82,150,171)" stroke-width="1" opacity="0.6784313725490196" d="M 385.5 46 L 414.5 46 L 415 47.5 L 416.5 49 L 434.5 49 L 437 48 L 437.5 46 L 447 46 L 449.5 50 L 456 53.5 L 460 58.5 L 460 69.5 L 454.5 76 L 446.5 79 L 406.5 79 L 405 80.5 L 404 82.5 L 404 101.5 L 405 104 L 444.5 104 L 453.5 107 L 459 112.5 Q 461.7 116.3 460 124.5 L 453.5 132 L 447.5 134 L 406.5 134 L 405 135.5 L 404 137.5 L 404 157.5 L 406.5 160 L 447.5 160 L 457 165.5 Q 461.7 169.3 460 179.5 L 454.5 187 L 444.5 190 L 387.5 190 L 380.5 188 L 376 184.5 Q 371.2 180.2 372 172 Q 369 173.3 370 169.5 L 371 167.5 L 370 164 L 372 163.5 L 372 76 Q 369 77.3 370 73.5 L 371 71.5 L 370 68 Q 374 69.4 372 62.5 L 377.5 53 Q 383.3 51.8 386 47.5 L 385.5 46 Z M 433 51 L 432 52 L 385 52 L 380 54 L 374 64 L 374 176 L 377 183 L 384 187 L 450 187 L 453 186 L 458 180 Q 460 171 456 168 L 447 162 L 405 162 L 402 158 L 402 137 L 403 134 L 405 132 L 446 132 Q 447 130 452 131 Q 458 128 459 120 L 458 115 L 455 110 L 448 107 L 407 107 L 405 106 L 402 103 L 402 82 L 403 79 L 407 76 L 449 76 L 453 75 L 458 69 Q 460 60 456 57 L 453 53 L 449 52 L 435 52 L 433 51 Z " /><path fill="rgb(82,150,171)" stroke="rgb(82,150,171)" stroke-width="1" opacity="0.6784313725490196" d="M 660.5 46 L 678.5 46 L 679 47.5 L 680.5 49 L 695.5 49 Q 696.7 45.2 701 46 L 702.5 50 Q 718.9 53.1 727 64.5 L 732 74.5 L 733 87.5 Q 730.8 88.8 732 93.5 L 728 102.5 L 719 113.5 L 731.5 121 L 737 126.5 L 744 138.5 Q 746.5 146 745 157.5 Q 740.8 172.3 729.5 180 L 723.5 184 L 707.5 189 L 699.5 189 L 698.5 190 L 663.5 190 L 658.5 189 L 654 184.5 L 653 182.5 L 653 74.5 L 652 72 Q 648.3 73.2 650 68 Q 652.7 69.1 652 66.5 L 653 62.5 L 652 60.5 Q 653.8 51.2 661 47.5 L 660.5 46 Z M 689 51 L 688 52 L 660 52 L 658 53 L 655 57 L 655 182 L 659 187 L 708 187 Q 723 184 733 175 Q 739 168 743 159 L 743 142 L 737 130 L 729 121 L 724 118 L 719 117 L 716 115 L 727 101 L 731 90 L 730 75 L 723 63 L 711 54 L 695 52 L 693 52 L 689 51 Z " /><path fill="rgb(82,150,171)" stroke="rgb(82,150,171)" stroke-width="1" opacity="0.6784313725490196" d="M 1050 46 Q 1055.2 43.9 1054 48.5 L 1060 53.5 L 1061 56.5 L 1061 102.5 L 1062.5 104 L 1065.5 103 L 1109.5 61 L 1125 48.5 Q 1123.8 43.9 1129 46 L 1129 48.5 L 1133.5 53 L 1138 54 Q 1139.7 58.1 1135.5 57 L 1129.5 52 L 1124.5 52 L 1113.5 60 L 1063.5 107 L 1060.5 107 L 1059 105.5 L 1059 56.5 L 1056.5 53 L 1049.5 52 L 1045 55.5 L 1045 183.5 L 1048.5 187 Q 1055.8 188.3 1058 184.5 L 1059 182.5 L 1059 131.5 L 1067.5 122 L 1070.5 121 L 1079 128.5 L 1126 182.5 L 1126 184 L 1130.5 187 L 1136.5 187 L 1141 183.5 L 1142 180.5 L 1139 175.5 L 1083 112.5 L 1083 108.5 L 1131 63.5 L 1135.5 58 L 1138 59 Q 1139.7 63.1 1135.5 62 L 1132 64.5 L 1129.5 68 L 1087.5 107 L 1086 107 L 1085 111.5 L 1137 170.5 Q 1142 174.5 1144 181.5 L 1141 187 Q 1138.1 189.9 1130.5 189 L 1120 179.5 L 1071.5 124 L 1068.5 124 L 1062 130.5 L 1061 132.5 L 1061 182.5 L 1057.5 188 L 1048.5 189 L 1044 185.5 L 1043 183.5 L 1043 55.5 L 1046.5 51 L 1050 48.5 L 1050 46 Z " /><path fill="rgb(82,150,171)" stroke="rgb(82,150,171)" stroke-width="1" opacity="0.6784313725490196" d="M 126.5 49 L 148.5 52 L 157.5 56 L 161.5 56 L 184 72 L 196 88.5 Q 200.8 97.2 202 109.5 L 204.5 112 L 206.5 113 L 212.5 111 L 213.5 112 L 252.5 112 L 259 117.5 L 260 125.5 L 255.5 131 L 252.5 132 L 208.5 132 L 206 134.5 L 208 141.5 L 219.5 156 Q 227.7 163.8 239.5 168 L 254.5 171 L 261.5 171 L 276.5 168 L 285.5 164 L 300 152.5 L 308 141.5 L 311 133.5 L 313 124.5 L 313 114.5 Q 309.7 95.8 298.5 85 Q 289.4 75.6 275.5 71 Q 269.2 71.8 266.5 69 L 248.5 69 Q 233.3 71.8 223.5 80 L 216.5 81 L 209 75.5 L 208 70.5 L 212.5 64 L 223.5 57 L 237.5 52 L 260.5 49 L 272.5 52 L 278.5 52 L 297.5 60 Q 310 67.5 319 78.5 Q 326.7 88.3 331 101.5 L 333 121.5 L 332 122.5 L 332 133.5 L 328 145.5 L 324 153.5 L 314 167 L 297.5 179 L 279.5 187 L 266.5 188 L 265.5 189 L 250.5 189 L 249.5 188 L 236.5 187 Q 234.6 183.4 228.5 184 L 213.5 176 L 202 167 L 192 153.5 L 182.5 132 L 133.5 132 L 127 127.5 L 125 121.5 L 129.5 115 L 133.5 112 L 174.5 112 L 181 111 L 182 108.5 Q 177.1 90.9 164.5 81 L 151.5 73 L 137.5 69 L 126.5 68 L 107.5 72 L 97.5 77 L 83 90.5 L 75 105.5 L 73 122.5 L 75 127.5 L 76 136.5 Q 80.8 148.2 89.5 156 Q 99.4 164.6 113.5 169 L 117.5 168 Q 121.9 172 131.5 171 L 149.5 167 L 165.5 158 L 169.5 158 L 176 161.5 L 178 168.5 L 172.5 176 L 150.5 187 L 144.5 187 L 136.5 189 L 120.5 189 L 119.5 188 L 107.5 187 L 88.5 179 Q 76.6 171.9 68 161.5 L 58 144.5 L 55 131.5 L 53.5 130 L 52 129.5 L 52 109 L 55 107.5 L 56 100.5 L 61 88.5 Q 67.1 77.1 76.5 69 L 94.5 57 L 102.5 55 L 104.5 53 L 126.5 49 Z M 118 52 Q 97 56 83 66 Q 70 75 63 89 L 59 97 L 54 115 L 54 125 L 57 133 L 58 141 Q 63 155 73 166 Q 89 181 115 187 L 142 187 Q 143 185 148 186 Q 152 182 160 182 L 174 174 L 176 170 L 175 163 L 171 160 L 162 161 L 159 164 L 149 169 L 136 172 L 121 172 L 117 170 L 106 168 L 87 156 L 77 142 L 72 128 L 72 113 L 74 105 L 82 90 L 97 76 L 106 71 L 122 67 L 136 67 L 151 71 L 159 75 L 169 83 Q 180 93 184 111 L 179 114 L 135 114 L 131 116 L 127 121 L 128 127 L 132 130 L 136 131 L 184 131 L 194 155 L 202 165 L 221 179 L 239 186 Q 243 185 245 187 L 271 187 Q 272 185 278 186 L 296 179 L 311 168 L 323 153 L 331 132 L 331 108 L 330 104 L 326 93 L 314 75 L 299 62 L 289 57 Q 281 57 278 53 L 270 53 L 269 52 L 239 53 L 231 57 L 228 57 L 215 64 L 210 70 L 210 75 L 215 79 L 223 79 L 234 72 L 252 67 L 265 67 L 280 71 L 290 76 L 300 84 L 312 104 L 314 113 L 314 128 L 313 133 L 309 143 L 301 154 L 287 165 L 275 170 Q 268 169 266 172 L 251 172 Q 248 169 242 170 L 230 165 L 219 157 L 207 143 L 204 135 L 205 133 L 207 131 L 252 131 L 255 130 L 259 125 L 258 119 L 252 114 L 205 114 L 201 111 L 199 100 L 195 90 L 186 77 L 174 65 L 160 57 L 156 57 L 148 53 L 118 52 Z " /><path fill="rgb(82,150,171)" stroke="rgb(82,150,171)" stroke-width="1" opacity="0.6784313725490196" d="M 538.5 49 L 556.5 49 L 565.5 52 L 570.5 52 L 590.5 61 L 607 75.5 Q 610.3 79.2 609 87.5 L 602.5 96 L 596.5 98 L 591.5 98 L 585.5 96 L 577.5 88 L 565.5 81 L 554.5 78 L 540.5 78 Q 520.4 82.4 510 96.5 L 504 108.5 L 503 125.5 Q 505.6 139.9 514.5 148 Q 521.5 155 531.5 159 L 541.5 161 L 553.5 161 L 563.5 159 L 573.5 154 L 584 144.5 Q 585.7 139.7 581.5 141 L 579.5 140 L 578.5 141 L 555.5 141 Q 548 139.5 544 134.5 L 541 128.5 L 541 123.5 L 545.5 116 L 552.5 112 L 607.5 112 L 611 110 L 612 115 L 616 117.5 Q 620.7 122.3 620 132.5 Q 615.1 159.1 597.5 173 L 581.5 183 L 567.5 188 L 554.5 189 L 553.5 190 L 542.5 190 L 541.5 189 L 527.5 188 L 516.5 184 Q 500.7 177.3 490 165.5 Q 481.3 156.2 476 143.5 L 472 128.5 L 472 111.5 L 476 95.5 L 481 85.5 L 499.5 65 L 514.5 56 L 538.5 49 Z M 539 52 L 538 53 L 529 53 Q 523 57 515 58 L 497 70 L 482 88 L 477 100 L 474 114 L 474 127 Q 477 132 477 141 L 482 152 L 489 162 Q 497 171 509 178 L 517 182 L 534 187 L 562 187 Q 563 185 568 186 L 587 178 L 598 170 L 601 168 L 610 156 L 617 136 Q 619 125 615 120 L 608 114 L 553 114 L 548 117 L 544 123 Q 543 129 545 133 L 555 139 L 586 139 L 587 141 Q 588 145 585 147 Q 575 159 556 163 L 540 163 L 532 161 L 518 153 Q 509 147 504 137 L 500 122 L 503 105 L 510 94 L 522 83 L 539 76 Q 544 78 546 75 L 557 76 L 567 79 Q 579 85 588 95 Q 592 94 594 96 L 601 95 L 607 88 Q 608 81 606 78 L 589 62 L 579 57 Q 571 57 567 53 L 539 52 Z " /><path fill="rgb(82,150,171)" stroke="rgb(82,150,171)" stroke-width="1" opacity="0.6784313725490196" d="M 1013.5 50 L 1017.5 50 L 1024 54.5 L 1025 58.5 L 1025 186.5 L 1021.5 189 L 996 164.5 L 989.5 157 Q 987.3 157.8 988 155.5 L 923.5 92 L 921 94.5 L 921 183.5 L 917.5 188 L 909.5 189 L 904 184.5 L 903 181.5 L 903 53.5 L 906.5 51 L 913 56.5 L 919.5 64 Q 921.8 63.3 921 65.5 L 930 73.5 L 1003.5 148 Q 1006.8 149.1 1006 146.5 L 1007 145.5 L 1007 56.5 L 1009.5 52 L 1013.5 50 Z M 1016 52 L 1012 53 L 1009 56 L 1009 148 L 1008 149 Q 1009 151 1003 150 L 955 103 L 955 101 L 947 95 Q 948 92 946 93 L 944 91 L 940 88 L 938 84 Q 935 85 936 83 L 928 76 L 926 72 Q 923 73 924 71 L 908 54 L 905 54 L 905 182 L 906 184 Q 908 189 916 187 L 919 184 L 919 93 L 922 90 L 927 91 L 961 127 L 965 130 Q 964 132 967 131 L 971 136 Q 973 135 972 138 L 976 140 L 983 148 Q 985 147 984 150 L 1021 186 L 1023 186 L 1023 58 L 1022 56 L 1020 53 L 1016 52 Z " /><path fill="rgb(82,150,171)" stroke="rgb(82,150,171)" stroke-width="1" opacity="0.6784313725490196" d="M 824.5 51 L 828 53.5 L 888 172.5 L 891 182.5 L 886.5 188 L 878.5 189 L 872 182.5 L 854 144.5 L 851.5 142 L 849.5 141 L 798.5 141 L 793 147.5 L 780 176.5 L 774 187 Q 771.4 189.7 764.5 189 L 759 184.5 L 759 177.5 L 822.5 52 L 824.5 51 Z M 824 54 L 761 178 Q 760 184 762 186 L 765 187 L 772 186 L 774 184 L 792 146 L 798 139 L 851 139 L 853 140 L 856 144 L 874 182 L 879 187 Q 885 188 887 186 L 888 184 L 887 176 L 827 56 L 824 54 Z " /><path fill="rgb(82,150,171)" stroke="rgb(82,150,171)" stroke-width="1" opacity="0.6784313725490196" d="M 672.5 60 L 699.5 60 L 708.5 63 L 716 70.5 L 719 79.5 L 719 88.5 Q 717.3 99.8 709.5 105 L 703.5 109 L 700.5 109 L 694.5 112 L 672.5 112 L 670 109.5 L 669 105.5 L 669 65.5 L 672.5 60 Z M 676 62 L 674 63 L 672 65 L 672 108 L 676 110 Q 684 107 697 109 L 708 104 L 715 96 L 717 87 L 716 76 L 714 72 Q 710 65 702 63 L 679 63 L 676 62 Z " /><path fill="rgb(82,150,171)" stroke="rgb(82,150,171)" stroke-width="1" opacity="0.6784313725490196" d="M 824.5 85 L 828 86.5 L 833 99.5 L 846 123.5 L 846 127.5 Q 844 130.5 838.5 130 L 837.5 129 L 810.5 129 L 806.5 130 L 803 127.5 L 803 122.5 L 819 92.5 L 819 89.5 L 822.5 86 L 824.5 85 Z M 824 88 L 821 91 L 820 96 L 805 124 L 805 127 L 811 128 L 813 128 L 815 127 L 838 127 L 839 128 L 844 126 L 827 90 L 824 88 Z " /><path fill="rgb(82,150,171)" stroke="rgb(82,150,171)" stroke-width="1" opacity="0.6784313725490196" d="M 672.5 121 L 703.5 121 Q 718 123.5 725 133.5 L 729 141.5 L 729 157.5 Q 725 166.5 717.5 172 L 707.5 177 L 674.5 178 L 670 175.5 L 669 173.5 L 669 126.5 L 672.5 121 Z M 675 123 L 672 126 L 672 175 L 675 176 L 701 176 Q 702 174 707 175 L 720 168 L 727 157 L 727 143 L 723 135 Q 718 127 709 124 Q 703 126 702 123 L 675 123 Z " /></svg>