<svg width="1100" height="732" version="1.1" xmlns="http://www.w3.org/2000/svg" desc="Created with imagetracer.js version 1.2.6" ><path fill="rgb(0,0,0)" stroke="rgb(0,0,0)" stroke-width="1" opacity="0" d="M 0 0 L 1100 0 L 1100 732 L 0 732 L 0 0 Z M 392 4 Q 390 10 396 8 Q 398 2 392 4 Z M 386 8 L 386 9 L 392 9 L 386 8 Z M 356 13 L 352 14 L 349 19 L 349 51 L 350 52 L 350 386 L 754 386 L 754 16 L 753 14 L 389 14 L 388 13 L 356 13 Z M 344 43 L 341 44 L 340 49 L 340 52 L 345 52 L 346 49 L 346 43 L 344 43 Z M 492 416 Q 494 422 488 420 L 488 424 L 480 424 Q 482 430 476 428 L 476 432 L 468 432 L 468 438 L 471 438 Q 473 437 471 436 L 474 434 L 496 434 L 496 438 L 544 438 L 545 437 L 554 438 L 555 441 L 562 441 L 563 442 Q 568 441 566 445 L 573 446 L 574 449 L 578 450 L 580 454 L 581 452 L 584 458 L 584 457 L 585 457 Q 584 461 587 460 L 589 464 Q 593 463 591 468 L 592 468 L 592 457 L 588 456 L 588 448 Q 582 450 584 444 L 580 444 L 580 440 L 576 440 L 576 436 L 572 436 L 572 432 L 568 432 L 568 428 L 560 428 L 560 424 L 548 424 Q 550 418 544 420 L 544 416 L 492 416 Z M 908 424 L 908 428 L 900 428 Q 902 434 896 432 L 897 438 L 899 439 L 898 440 Q 893 439 892 441 L 889 440 L 887 441 L 873 441 L 872 440 L 860 440 L 860 448 L 860 448 L 844 448 Q 846 454 840 452 L 840 460 L 832 460 L 832 456 L 824 456 Q 826 450 820 452 L 820 448 L 812 448 L 812 436 L 798 436 L 799 438 L 800 438 L 800 442 L 792 440 L 774 440 L 773 438 L 772 438 Q 773 441 771 440 L 767 448 Q 766 452 768 454 Q 770 459 767 461 L 767 516 L 766 472 L 765 476 L 762 476 L 762 448 L 760 449 L 760 456 Q 754 454 756 460 L 752 460 L 752 464 L 748 464 L 748 468 L 744 468 L 744 472 L 736 472 L 736 484 L 728 484 L 728 476 L 724 476 L 724 468 Q 718 470 720 464 L 716 464 L 716 456 Q 710 458 712 452 L 708 452 L 708 448 L 704 448 L 704 440 L 694 440 L 693 442 L 697 444 L 698 444 L 698 448 L 702 448 L 703 453 Q 702 458 706 456 L 706 464 L 707 465 Q 706 470 710 468 L 711 473 L 711 476 L 714 477 L 714 483 L 718 484 L 720 492 L 721 488 L 724 500 L 725 496 Q 727 502 727 511 L 729 508 L 730 509 L 730 520 L 729 520 Q 730 517 727 518 L 724 513 L 724 508 L 721 504 L 723 501 L 722 501 L 715 492 L 715 488 L 713 486 Q 709 484 711 478 L 710 478 L 701 464 L 700 456 Q 695 454 696 448 L 693 444 Q 690 445 691 443 L 686 440 L 684 441 L 672 440 L 670 440 L 660 440 L 660 448 Q 654 446 656 452 L 652 452 L 652 456 L 648 456 L 648 460 L 640 460 L 640 468 L 636 469 L 636 476 L 632 476 L 632 484 L 628 484 L 628 492 Q 622 494 624 488 Q 618 486 620 492 Q 614 494 616 488 L 612 488 L 612 484 L 608 484 L 608 480 L 600 480 L 600 472 L 596 472 Q 598 467 594 468 L 595 473 L 595 480 L 598 480 L 597 488 L 596 484 Q 596 494 593 500 L 592 496 L 590 501 L 588 502 Q 585 501 586 506 Q 585 509 583 506 L 584 502 Q 583 499 587 500 L 589 498 L 591 490 L 590 472 L 587 468 Q 588 465 586 466 L 576 453 L 563 446 L 558 446 L 552 444 Q 549 443 551 442 L 548 440 L 467 440 L 464 444 Q 462 450 465 452 L 464 457 L 464 587 L 465 588 Q 467 594 462 592 L 461 584 L 460 588 L 458 584 L 458 565 L 462 564 L 462 473 L 458 472 L 458 452 Q 454 451 456 456 L 452 456 L 452 460 L 448 460 L 448 464 L 444 464 L 444 472 L 440 472 Q 438 477 442 476 L 442 484 L 443 485 Q 442 490 446 488 L 447 493 L 447 500 L 450 500 L 449 505 L 450 509 L 450 524 L 449 525 Q 450 529 447 528 L 447 540 L 446 541 Q 448 546 443 544 L 442 549 Q 443 553 440 552 L 440 564 L 444 565 L 444 576 L 448 576 L 448 600 L 444 601 L 444 636 L 440 636 L 440 640 L 432 640 L 432 648 L 189 648 L 188 648 L 188 640 L 169 640 L 168 636 L 160 636 Q 162 630 156 632 L 156 620 Q 150 622 152 616 L 148 616 L 148 612 L 144 612 L 144 604 L 140 604 L 140 592 L 132 592 L 132 588 L 119 588 L 118 592 L 115 594 Q 109 592 111 598 L 119 597 L 118 596 L 122 595 L 123 598 Q 125 597 124 600 L 115 601 L 110 606 Q 104 607 103 604 L 109 601 Q 113 602 111 598 L 99 598 L 98 597 Q 95 598 96 594 Q 93 595 92 592 L 90 592 L 90 588 L 80 588 L 80 592 L 72 592 L 72 596 L 64 596 L 64 600 L 56 600 L 56 608 L 48 608 L 48 612 L 40 612 L 40 628 L 50 625 L 56 625 L 55 624 L 61 621 L 66 622 Q 68 621 67 624 L 54 630 L 49 630 L 41 635 L 38 638 L 37 651 L 34 652 L 33 648 L 34 636 L 32 636 L 32 640 L 20 640 Q 22 646 16 644 L 16 652 L 12 652 L 12 672 L 16 672 L 16 680 Q 22 678 20 684 L 24 684 L 24 688 L 30 688 L 29 686 Q 24 687 26 682 L 33 683 L 34 686 L 37 687 L 38 690 Q 37 692 44 691 L 46 691 L 134 691 L 139 692 Q 140 690 141 693 L 140 694 L 128 695 L 126 695 L 69 695 L 68 698 L 54 698 L 53 697 L 52 698 L 43 698 L 41 695 L 37 694 L 34 690 L 32 690 L 32 696 L 28 696 L 28 700 L 24 700 L 24 704 L 20 704 L 20 712 L 44 712 L 45 716 L 56 716 L 56 720 L 148 720 L 149 716 L 508 716 L 508 716 L 508 708 L 530 708 Q 532 702 526 704 L 526 698 L 516 698 L 516 694 L 490 694 Q 487 693 490 691 L 512 691 L 513 692 L 514 691 L 535 691 L 536 691 Q 537 694 535 693 L 530 701 L 531 705 Q 530 708 535 706 L 540 712 L 548 712 L 549 711 Q 551 712 550 710 Q 551 705 557 706 Q 558 698 555 693 L 549 689 L 555 686 L 559 680 Q 561 673 558 672 L 559 658 L 560 657 L 560 636 L 558 633 L 558 631 L 562 632 L 563 637 L 563 656 L 562 657 L 562 684 L 558 684 L 558 688 L 572 688 L 572 684 L 580 684 L 580 676 Q 584 677 582 672 L 584 672 L 584 661 L 580 660 L 580 644 Q 574 646 576 640 L 572 640 L 572 632 Q 566 634 568 628 L 558 628 L 555 630 L 547 630 Q 542 626 534 627 L 533 625 L 535 622 Q 543 620 547 624 L 572 624 L 572 620 L 580 620 Q 578 614 584 616 L 584 612 L 600 612 L 601 608 L 616 608 L 617 604 L 644 604 Q 642 598 648 600 L 648 592 Q 654 594 652 588 L 664 588 Q 662 582 668 584 L 668 580 L 684 580 L 684 584 L 688 584 L 689 588 L 704 588 Q 702 594 708 592 L 708 600 Q 714 598 712 604 L 732 604 L 732 608 L 736 608 L 736 612 L 748 612 L 748 616 L 768 616 L 768 612 L 776 612 L 777 608 L 784 608 Q 782 602 788 604 L 788 600 L 792 600 L 792 598 L 775 598 L 773 596 L 782 592 Q 786 591 788 593 Q 794 594 797 591 Q 800 593 796 595 L 798 596 L 808 596 L 808 592 L 812 592 L 812 580 L 828 580 L 828 576 L 832 576 L 832 564 Q 838 562 836 568 L 840 568 L 840 572 L 848 572 Q 846 578 852 576 L 852 580 L 856 580 L 856 584 L 860 584 L 860 596 L 879 596 L 878 594 Q 875 595 876 592 L 874 592 L 874 591 L 870 588 L 869 586 Q 870 582 866 584 L 866 583 L 864 581 L 862 579 L 860 577 L 858 574 L 854 572 L 853 566 L 852 568 L 851 568 Q 852 563 849 564 L 846 557 Q 842 558 843 555 Q 842 552 838 553 Q 839 549 837 548 Q 832 549 834 544 L 830 541 L 829 537 Q 826 538 827 535 L 827 533 L 831 536 L 838 545 Q 837 548 840 547 L 841 550 L 853 559 L 862 573 Q 864 572 863 575 L 869 578 Q 875 583 878 591 L 883 594 L 898 594 L 899 595 Q 903 594 901 598 L 893 599 L 893 600 Q 898 598 896 604 L 904 604 L 904 608 L 912 608 L 912 612 L 936 612 L 937 608 L 972 608 L 972 608 L 972 600 L 996 600 L 997 596 L 1008 596 L 1008 592 Q 1014 590 1012 596 L 1016 596 L 1016 600 L 1020 600 L 1020 604 L 1024 604 L 1024 608 L 1028 608 L 1028 612 L 1036 612 L 1036 614 L 1051 614 L 1055 616 L 1068 616 L 1069 612 L 1080 612 Q 1078 606 1084 608 L 1084 604 L 1088 604 L 1088 552 L 1084 552 L 1084 548 L 1060 548 Q 1062 542 1056 544 L 1056 540 L 1052 540 L 1052 536 L 1048 536 L 1048 532 L 1044 532 L 1044 528 L 1040 528 L 1040 524 L 1036 524 L 1036 489 L 1032 488 L 1032 484 L 1026 484 L 1014 494 L 1011 494 Q 1012 498 1010 497 L 1008 497 L 1005 501 L 1000 502 L 1002 499 Q 1004 500 1003 498 L 1007 496 L 1008 493 L 1013 491 Q 1015 492 1014 490 L 1018 487 L 1019 485 L 1026 478 L 1028 478 L 1039 469 L 1041 466 L 1048 459 L 1053 458 L 1055 456 Q 1054 453 1058 454 L 1059 452 L 1057 444 L 1054 441 L 1036 441 L 1035 440 L 1027 441 L 1025 447 L 1008 461 L 1005 460 L 1007 457 Q 1006 453 1010 454 L 1011 452 L 1008 452 L 1008 444 Q 1002 446 1004 440 L 993 440 L 992 436 L 973 436 L 972 432 L 968 432 L 968 428 L 917 428 L 916 424 L 908 424 Z M 18 440 L 17 451 L 15 456 L 15 498 L 17 502 L 17 580 L 16 581 L 17 590 L 19 591 L 27 591 L 28 592 L 51 592 L 54 591 L 56 587 L 56 520 L 55 519 L 56 514 L 62 526 L 63 533 L 66 534 L 73 550 L 78 557 L 78 560 L 82 565 Q 80 571 84 570 L 88 581 L 91 582 L 93 591 L 96 592 L 107 592 L 108 593 L 115 591 L 119 580 Q 118 577 121 578 Q 123 576 122 571 L 127 565 L 127 561 Q 128 557 132 558 L 133 552 Q 132 549 135 550 L 139 540 Q 138 537 141 538 L 147 522 L 153 513 L 154 514 L 153 515 L 153 582 L 152 583 L 152 590 L 156 592 L 191 592 L 194 591 L 196 587 L 196 444 L 194 441 L 190 440 L 182 440 L 181 441 Q 176 439 168 440 L 166 440 L 157 442 L 153 449 Q 154 451 151 450 L 149 458 L 140 476 Q 141 479 139 478 L 136 484 Q 137 487 135 486 L 121 512 L 121 515 L 117 520 L 116 525 Q 117 527 115 526 L 112 533 L 110 534 Q 106 533 107 528 L 102 522 L 102 516 L 99 514 L 98 509 L 94 504 L 92 497 Q 93 494 91 495 L 87 488 L 84 486 L 83 480 L 67 449 Q 68 446 66 447 Q 61 446 62 441 L 58 440 L 55 441 L 50 440 L 18 440 Z M 235 440 L 227 442 L 222 448 Q 221 452 223 454 L 222 458 L 222 576 L 223 577 Q 225 583 222 585 L 223 590 L 229 592 L 264 592 L 266 591 L 268 589 L 269 584 L 269 445 L 267 442 L 257 440 L 254 441 Q 242 443 235 440 Z M 302 440 L 295 443 L 294 448 Q 293 452 295 454 L 295 578 L 297 580 L 297 590 L 300 592 L 358 592 L 360 592 Q 369 594 374 590 L 385 590 Q 390 586 400 585 L 402 582 L 409 579 L 414 574 L 416 574 L 423 569 L 427 564 Q 426 561 429 562 L 433 556 L 436 554 Q 439 552 438 547 L 442 541 L 442 535 L 444 529 L 444 520 L 446 517 L 446 512 L 444 510 L 444 504 L 442 498 L 442 491 L 440 490 L 440 488 L 436 482 Q 437 477 435 476 Q 436 472 431 474 Q 428 474 428 470 L 423 466 L 421 464 L 421 462 Q 420 459 416 460 L 407 452 Q 397 451 391 446 L 383 446 L 378 443 Q 371 443 367 440 L 350 440 L 349 441 L 346 440 L 311 440 L 310 441 L 302 440 Z M 625 620 L 623 623 L 621 625 L 613 626 L 608 629 L 606 631 L 606 645 Q 613 646 617 643 L 629 643 L 631 644 L 630 651 L 630 662 L 632 669 L 603 669 L 602 668 Q 599 669 600 667 Q 602 665 600 664 L 593 666 L 590 669 L 586 680 Q 585 687 587 690 L 591 691 L 920 692 L 914 699 L 914 708 L 915 709 Q 914 712 918 710 L 919 713 L 920 714 L 933 714 L 938 708 L 941 710 L 944 714 L 955 714 L 961 709 L 961 698 L 960 696 L 955 693 Q 949 690 955 688 Q 954 685 958 686 L 961 692 L 962 691 L 1020 691 Q 1022 687 1028 686 L 1031 681 Q 1030 678 1034 679 L 1037 684 L 1041 686 L 1042 689 L 1053 696 L 1064 696 L 1072 691 L 1079 682 L 1079 655 L 1076 650 Q 1077 645 1075 644 L 1075 642 L 1071 642 L 1071 641 L 1065 636 Q 1066 633 1064 634 L 1062 632 L 1056 627 L 1054 624 L 1053 620 Q 1047 619 1046 621 L 1037 621 L 1036 620 L 1031 621 L 1023 629 Q 1024 632 1020 630 L 1019 639 L 1015 649 L 1016 653 L 1016 660 L 1012 668 L 1008 670 L 963 670 L 965 660 L 965 645 L 964 644 L 963 632 L 962 630 L 955 630 L 951 628 L 940 626 L 938 628 L 938 669 L 660 669 L 658 668 L 658 639 L 656 638 L 656 636 L 654 634 Q 651 633 652 629 L 650 626 Q 643 627 641 624 L 641 620 L 625 620 Z " /><path fill="rgb(0,0,0)" stroke="rgb(0,0,0)" stroke-width="1" opacity="0" d="M 463 78 L 470.5 80 L 681.5 80 Q 683.3 77.3 689.5 79 L 691 81.5 L 688 87.5 L 688 281.5 L 690 286.5 L 684.5 282 L 681 279.5 L 677.5 275 L 672 272 L 671 268 L 667 265.5 Q 667.8 263.3 665.5 264 L 655 255.5 Q 655.8 253.3 653.5 254 L 646.5 246 L 642 242.5 L 638.5 238 L 635.5 237 L 628 229.5 L 626.5 227 L 623 226 L 620.5 222 L 603 209 L 594.5 198 L 582 187.5 L 579.5 184 L 577 182.5 L 573.5 178 L 564 171.5 L 562.5 168 L 560 166.5 L 558.5 164 L 553.5 162 L 542 151.5 L 537.5 146 L 534 143.5 L 531.5 140 L 524 136 L 514.5 124 Q 512.3 124.8 513 122.5 Q 511.8 119.3 508 120 L 509 117.5 Q 508 115 503.5 116 L 496 108.5 L 494.5 106 L 481 95.5 L 476 88 L 467.5 82 Q 463.8 82.8 463 80.5 L 463 78 Z " /><path fill="rgb(0,0,0)" stroke="rgb(0,0,0)" stroke-width="1" opacity="0" d="M 414 118 L 423 124.5 L 426.5 130 L 433 134.5 Q 432.3 136.8 434.5 136 L 439 139.5 L 440.5 142 L 444 144.5 L 445.5 148 L 448 149.5 L 449.5 152 Q 451.8 151.3 451 153.5 L 460 160.5 Q 459.2 163.1 462.5 162 L 475 173.5 L 477.5 177 L 480.5 178 L 492 189.5 Q 491.3 191.8 493.5 191 L 501 196.5 Q 500.3 198.8 502.5 198 Q 506.5 198.5 506 203.5 L 498 210.5 L 495.5 214 L 480 225 L 478.5 228 Q 475.9 227.2 477 230.5 L 460 243 L 460 245 Q 457.3 243.9 458 246.5 L 441.5 262 L 440 262 L 437.5 266 L 414.5 287 L 414 284.5 L 416 281.5 L 416 123.5 L 414 118 Z " /><path fill="rgb(0,0,0)" stroke="rgb(0,0,0)" stroke-width="1" opacity="0" d="M 551 245 L 553.5 245 L 559 250.5 L 565.5 258 Q 570.5 257.5 571 261.5 Q 570.3 263.8 572.5 263 L 579 268.5 L 579 270.5 L 583.5 275 L 591 280.5 L 592.5 283 L 594.5 283 L 603 290 L 604 296 L 610.5 298 L 627 313.5 L 629.5 317 L 639 323.5 Q 639.8 325.8 637.5 325 L 636.5 324 L 467.5 324 L 464 325 L 465.5 322 L 467.5 322 L 477 314.5 L 484.5 306 L 500 294.5 L 501.5 292 Q 503.8 292.8 503 290.5 L 513 282.5 Q 512.5 278.5 515.5 278 L 523 272.5 L 524.5 270 L 537.5 258 L 540 258 L 542.5 254 L 548 250.5 L 551 245 Z " /><path fill="rgb(0,0,0)" stroke="rgb(0,0,0)" stroke-width="1" opacity="0" d="M 937.5 434 L 962.5 434 L 966 435 L 967.5 438 L 973 439 L 972.5 443 L 972 441 L 966.5 440 L 930.5 440 L 929 440.5 Q 928.3 438.3 930.5 439 L 934 438 Q 932.3 433.9 936.5 435 L 937.5 434 Z " /><path fill="rgb(0,0,0)" stroke="rgb(0,0,0)" stroke-width="1" opacity="0" d="M 927.5 439 L 928 443.5 L 927 443.5 L 927.5 439 Z " /><path fill="rgb(0,0,0)" stroke="rgb(0,0,0)" stroke-width="1" opacity="0" d="M 904.5 440 L 906 444.5 L 906 583.5 L 907 587.5 L 906 592 L 902 592 L 902 584.5 L 903 583.5 L 903 444.5 L 904.5 440 Z " /><path fill="rgb(0,0,0)" stroke="rgb(0,0,0)" stroke-width="1" opacity="0" d="M 669.5 442 L 670 446.5 L 668 450 L 665 451.5 L 665 456.5 L 661 463.5 L 661 466.5 L 656 476.5 L 651 482.5 L 649 489.5 L 645 493.5 L 636 516.5 L 631 524 Q 628.3 522.9 629 525.5 L 629 527.5 L 626.5 533 L 626 524 L 630 522.5 Q 628.5 515.5 631.5 516 Q 635.5 514.3 634 508 L 638 505.5 L 638 496 L 641 496 Q 638.9 490.8 643.5 492 L 646 488.5 L 645 484 Q 648.8 485 650 482.5 Q 648.5 475.5 651.5 476 L 654 473.5 L 654 464 Q 658.5 465.8 657 460.5 L 658 456 Q 662.5 457.8 661 452.5 L 662 448 L 666 446.5 Q 664.9 443.2 667.5 444 L 669.5 442 Z M 642 496 L 641 499 L 642 499 L 642 496 Z " /><path fill="rgb(0,0,0)" stroke="rgb(0,0,0)" stroke-width="1" opacity="0" d="M 803.5 444 Q 807.3 442.8 806 446.5 L 807.5 450 L 808.5 448 L 811.5 454 L 812.5 452 L 815.5 458 L 816.5 456 L 819.5 462 L 820.5 460 L 824 468 Q 826.7 466.9 826 469.5 L 827 472 L 831.5 475 Q 832.8 472.8 834 475.5 Q 832.9 478.8 835.5 478 Q 839.9 480.1 839 486 Q 842 484.8 841 488.5 L 846 491.5 L 845.5 496 L 831.5 478 Q 827.8 478.8 827 476.5 L 825.5 474 L 822 471.5 L 822 469.5 L 815 462.5 L 815 460 L 807 454.5 L 802 448.5 L 802 445.5 L 803.5 444 Z " /><path fill="rgb(0,0,0)" stroke="rgb(0,0,0)" stroke-width="1" opacity="0" d="M 867 444 L 872 444 L 872 454.5 L 871 455.5 L 870.5 476 L 869.5 460 L 869 476 L 867 475.5 L 867 460.5 L 866 459.5 L 866 448.5 L 867 444 Z " /><path fill="rgb(0,0,0)" stroke="rgb(0,0,0)" stroke-width="1" opacity="0" d="M 922 444 L 925 444.5 L 925 464 L 923 463.5 L 923 448.5 L 922 444 Z " /><path fill="rgb(0,0,0)" stroke="rgb(0,0,0)" stroke-width="1" opacity="0" d="M 974 444 L 978 444.5 L 978 471.5 L 977 472.5 L 977 480 L 975 479.5 L 975 452.5 L 974 451.5 L 974 444 Z " /><path fill="rgb(0,0,0)" stroke="rgb(0,0,0)" stroke-width="1" opacity="0" d="M 1000.5 462 Q 1004.3 461 1003 464 L 999 465 L 1000.5 462 Z " /><path fill="rgb(0,0,0)" stroke="rgb(0,0,0)" stroke-width="1" opacity="0" d="M 339.5 464 L 356.5 465 Q 360.8 469.2 369.5 469 L 373.5 472 L 375.5 471 L 389 481.5 L 389 483.5 L 393 488.5 L 393 492.5 L 398 500.5 L 398 533.5 L 394 539.5 L 393 546 L 389 547 L 388 549.5 L 389 551.5 L 377.5 562 Q 368.4 562.4 364.5 568 L 357.5 568 L 356.5 567 L 341.5 567 L 338 568 L 340 561.5 L 340 471.5 L 337 467.5 L 339.5 464 Z " /><path fill="rgb(0,0,0)" stroke="rgb(0,0,0)" stroke-width="1" opacity="0" d="M 508 464 L 518.5 464 L 519 466 L 508.5 466 L 508 464 Z " /><path fill="rgb(0,0,0)" stroke="rgb(0,0,0)" stroke-width="1" opacity="0" d="M 996.5 466 Q 999.8 464.9 999 467.5 L 995.5 472 L 991 473 L 992.5 470 Q 994.8 470.8 994 468.5 L 996.5 466 Z " /><path fill="rgb(0,0,0)" stroke="rgb(0,0,0)" stroke-width="1" opacity="0" d="M 538.5 471 Q 542.3 470 541 473 L 538.5 471 Z " /><path fill="rgb(0,0,0)" stroke="rgb(0,0,0)" stroke-width="1" opacity="0" d="M 986 474 L 991 474.5 L 986 477 L 986 474 Z " /><path fill="rgb(0,0,0)" stroke="rgb(0,0,0)" stroke-width="1" opacity="0" d="M 543.5 475 L 545 477.5 L 543 478.5 L 543.5 475 Z " /><path fill="rgb(0,0,0)" stroke="rgb(0,0,0)" stroke-width="1" opacity="0" d="M 983.5 478 Q 985.8 477.3 985 479.5 L 982 481 L 983.5 478 Z " /><path fill="rgb(0,0,0)" stroke="rgb(0,0,0)" stroke-width="1" opacity="0" d="M 975 482 L 980 482 L 980 483.5 L 974 488.5 L 975 482 Z " /><path fill="rgb(0,0,0)" stroke="rgb(0,0,0)" stroke-width="1" opacity="0" d="M 543 491 L 545 491.5 L 543 492.5 L 543 491 Z " /><path fill="rgb(0,0,0)" stroke="rgb(0,0,0)" stroke-width="1" opacity="0" d="M 511.5 498 L 514 499.5 L 513 503 Q 510.3 504.1 511 501.5 L 510 499.5 L 511.5 498 Z " /><path fill="rgb(0,0,0)" stroke="rgb(0,0,0)" stroke-width="1" opacity="0" d="M 675.5 500 L 677 507 L 675 506.5 L 675.5 500 Z " /><path fill="rgb(0,0,0)" stroke="rgb(0,0,0)" stroke-width="1" opacity="0" d="M 798.5 500 L 802 502.5 L 801 511.5 L 802 512.5 L 802 567.5 L 803 568.5 L 803 588 L 801 588 Q 802.7 593.2 799 592 L 799 512.5 L 800 508.5 L 798.5 500 Z " /><path fill="rgb(0,0,0)" stroke="rgb(0,0,0)" stroke-width="1" opacity="0" d="M 996.5 503 Q 999.8 501.9 999 504.5 L 998 509 L 995 507.5 Q 994.3 503.8 996.5 503 Z " /><path fill="rgb(0,0,0)" stroke="rgb(0,0,0)" stroke-width="1" opacity="0" d="M 856.5 506 L 857.5 508 Q 854.7 508.7 856.5 506 Z " /><path fill="rgb(0,0,0)" stroke="rgb(0,0,0)" stroke-width="1" opacity="0" d="M 580.5 507 Q 582.8 506.3 582 508.5 Q 579.2 509.6 580 513 L 574.5 514 Q 571.5 512.5 574.5 511 L 580.5 507 Z " /><path fill="rgb(0,0,0)" stroke="rgb(0,0,0)" stroke-width="1" opacity="0" d="M 999 510 Q 1003.5 508.5 1002 513 L 999 511.5 L 999 510 Z " /><path fill="rgb(0,0,0)" stroke="rgb(0,0,0)" stroke-width="1" opacity="0" d="M 864.5 514 L 866 516.5 L 864.5 517 Q 861.5 515.5 864.5 514 Z " /><path fill="rgb(0,0,0)" stroke="rgb(0,0,0)" stroke-width="1" opacity="0" d="M 1004 514 L 1010 516.5 Q 1009.3 518.8 1011.5 518 L 1014 519 Q 1012.5 522.7 1015.5 522 L 1018.5 526 L 1022 527.5 L 1023.5 530 L 1027 532.5 Q 1026.1 535.9 1031.5 534 L 1034 535 Q 1032.5 538.8 1035.5 538 L 1038 539 Q 1036.3 543.1 1040.5 542 L 1042 546 L 1046 547.5 Q 1044.9 550.8 1047.5 550 L 1050 551 Q 1048.5 554.7 1051.5 554 L 1054 555 Q 1052.3 559.5 1057.5 558 L 1059.5 562 L 1060.5 560 L 1063.5 566 L 1064.5 564 L 1068.5 570 L 1071 570 Q 1069.3 574.1 1073.5 573 L 1078 575.5 Q 1077.3 579.3 1079.5 580 Q 1083.7 578.7 1082 583.5 L 1083 587.5 L 1082 592 Q 1077.5 593.8 1079 588.5 L 1080 584.5 L 1076.5 578 L 1069.5 576 L 1059 566.5 L 1050.5 556 L 1048.5 556 L 1043 551.5 L 1038.5 546 L 1034 542.5 Q 1034.8 540.3 1032.5 541 L 1026.5 535 Q 1021.8 534.8 1020 531.5 L 1017.5 528 Q 1014.9 528.8 1016 525.5 L 1007 519.5 Q 1008.1 516.2 1005.5 517 L 1004 514 Z " /><path fill="rgb(0,0,0)" stroke="rgb(0,0,0)" stroke-width="1" opacity="0" d="M 582.5 515 L 585 515 Q 583.5 518.7 586.5 518 L 590 520.5 Q 588.9 523.8 591.5 523 Q 595 524.3 594 529 Q 591.3 530.1 592 527.5 L 591 525 L 587 522.5 Q 587.8 520.3 585.5 521 Q 582 519 582.5 515 Z " /><path fill="rgb(0,0,0)" stroke="rgb(0,0,0)" stroke-width="1" opacity="0" d="M 867.5 518 L 869 520.5 L 867 519.5 L 867.5 518 Z " /><path fill="rgb(0,0,0)" stroke="rgb(0,0,0)" stroke-width="1" opacity="0" d="M 814 519 L 817 520.5 Q 817.7 523.5 814 522 L 814 519 Z " /><path fill="rgb(0,0,0)" stroke="rgb(0,0,0)" stroke-width="1" opacity="0" d="M 732.5 520 L 734 521.5 Q 733.4 526.9 735 529 Q 737.7 527.9 737 530.5 L 738 535.5 L 736 534.5 L 733.5 528 Q 731.3 528.8 732 526.5 L 730 522.5 L 732.5 520 Z " /><path fill="rgb(0,0,0)" stroke="rgb(0,0,0)" stroke-width="1" opacity="0" d="M 871.5 521 L 873 525.5 L 871 524.5 L 870 522.5 L 871.5 521 Z " /><path fill="rgb(0,0,0)" stroke="rgb(0,0,0)" stroke-width="1" opacity="0" d="M 665.5 524 L 666 530 L 668.5 531 L 671.5 530 L 672.5 531 L 684.5 531 L 687 530 L 687.5 528 L 690 531.5 L 688.5 533 L 669.5 533 L 667.5 533 L 660 532.5 L 665.5 524 Z " /><path fill="rgb(0,0,0)" stroke="rgb(0,0,0)" stroke-width="1" opacity="0" d="M 818 524 Q 821 523 820 526 Q 817 527 818 524 Z " /><path fill="rgb(0,0,0)" stroke="rgb(0,0,0)" stroke-width="1" opacity="0" d="M 512.5 527 L 514 530 L 510 528.5 L 512.5 527 Z " /><path fill="rgb(0,0,0)" stroke="rgb(0,0,0)" stroke-width="1" opacity="0" d="M 534.5 528 Q 539 527 540 529.5 L 536.5 530 L 534.5 528 Z " /><path fill="rgb(0,0,0)" stroke="rgb(0,0,0)" stroke-width="1" opacity="0" d="M 596.5 529 Q 598.9 531.1 598 536.5 L 596 535.5 L 595 531.5 L 596.5 529 Z " /><path fill="rgb(0,0,0)" stroke="rgb(0,0,0)" stroke-width="1" opacity="0" d="M 541 531 Q 544.8 530 546 532.5 Q 546.8 535.1 543.5 534 L 541 533 L 541 531 Z " /><path fill="rgb(0,0,0)" stroke="rgb(0,0,0)" stroke-width="1" opacity="0" d="M 623 533 Q 626.3 531.7 625 536.5 L 622.5 540 L 622 535.5 L 623 533 Z " /><path fill="rgb(0,0,0)" stroke="rgb(0,0,0)" stroke-width="1" opacity="0" d="M 739 537 Q 741.7 535.9 741 538.5 Q 743.5 540 742 545.5 L 740 544.5 L 739 537 Z " /><path fill="rgb(0,0,0)" stroke="rgb(0,0,0)" stroke-width="1" opacity="0" d="M 550.5 539 L 552 540.5 L 553 549.5 Q 550.8 550.8 552 555.5 L 550.5 557 L 550 554.5 Q 552.2 553.3 551 548.5 L 550 547.5 L 550.5 539 Z " /><path fill="rgb(0,0,0)" stroke="rgb(0,0,0)" stroke-width="1" opacity="0" d="M 599 539 Q 601.7 537.9 601 540.5 L 602 544.5 L 601 545.5 L 601 555 Q 598.3 556.1 599 553.5 L 600 552.5 L 600 543.5 L 599 539 Z " /><path fill="rgb(0,0,0)" stroke="rgb(0,0,0)" stroke-width="1" opacity="0" d="M 974.5 540 L 977 541.5 L 979 544.5 L 975 546 L 974.5 540 Z " /><path fill="rgb(0,0,0)" stroke="rgb(0,0,0)" stroke-width="1" opacity="0" d="M 619 541 Q 622.5 539.9 621 547.5 L 620 550 Q 616 551.4 618 544.5 L 619 541 Z " /><path fill="rgb(0,0,0)" stroke="rgb(0,0,0)" stroke-width="1" opacity="0" d="M 744.5 550 L 745 552.5 L 744 552.5 L 744.5 550 Z " /><path fill="rgb(0,0,0)" stroke="rgb(0,0,0)" stroke-width="1" opacity="0" d="M 987 551 L 996 556 Q 997.3 559 993.5 558 L 991 557 L 989.5 553 Q 985.8 554 987 551 Z " /><path fill="rgb(0,0,0)" stroke="rgb(0,0,0)" stroke-width="1" opacity="0" d="M 615.5 552 Q 618.3 553.4 617 558 Q 612.1 559.8 614 553.5 L 615.5 552 Z " /><path fill="rgb(0,0,0)" stroke="rgb(0,0,0)" stroke-width="1" opacity="0" d="M 648.5 554 L 654 556.5 L 649 559.5 L 647.5 562 L 647 555.5 L 648.5 554 Z " /><path fill="rgb(0,0,0)" stroke="rgb(0,0,0)" stroke-width="1" opacity="0" d="M 695.5 555 Q 701 554 702 557.5 L 703 561.5 L 700.5 562 L 698 559.5 Q 698.8 556.9 695.5 558 L 694.5 557 L 684.5 557 L 683.5 558 L 672.5 558 L 671.5 557 L 657 556.5 L 694.5 556 L 695.5 555 Z " /><path fill="rgb(0,0,0)" stroke="rgb(0,0,0)" stroke-width="1" opacity="0" d="M 747.5 555 L 750 558.5 L 748.5 559 Q 746 558 747.5 555 Z " /><path fill="rgb(0,0,0)" stroke="rgb(0,0,0)" stroke-width="1" opacity="0" d="M 975 556 L 977 556.5 L 977 563.5 L 978 564.5 Q 976.5 576 979 583.5 L 976.5 592 L 976 588 L 974 587.5 L 974 580.5 L 975 579.5 L 975 556 Z " /><path fill="rgb(0,0,0)" stroke="rgb(0,0,0)" stroke-width="1" opacity="0" d="M 546.5 558 Q 549.8 556.9 549 559.5 L 545 561 Q 546 564 543 563 L 546.5 558 Z " /><path fill="rgb(0,0,0)" stroke="rgb(0,0,0)" stroke-width="1" opacity="0" d="M 996.5 560 Q 1001.9 558.1 1001 561.5 L 1005.5 568 L 1018 576.5 Q 1017.5 581.5 1021.5 582 L 1026 585.5 Q 1025.3 587.8 1027.5 587 L 1030.5 591 L 1045.5 593 L 1046.5 592 L 1063.5 592 L 1077 595 L 1075.5 598 L 1034.5 598 L 1033 596.5 Q 1033.8 594.3 1031.5 595 L 1026 593 Q 1027.5 589.2 1024.5 590 L 1022 586 L 1018 584.5 Q 1019.1 581.2 1016.5 582 L 1014 578 L 1010 576.5 L 1007.5 573 L 1006 573 Q 1007.5 569.3 1004.5 570 L 1000.5 565 L 998 563.5 L 996.5 560 Z " /><path fill="rgb(0,0,0)" stroke="rgb(0,0,0)" stroke-width="1" opacity="0" d="M 596.5 561 Q 599.5 560.1 598 564.5 L 597 567 Q 593.3 568.4 595 562.5 L 596.5 561 Z " /><path fill="rgb(0,0,0)" stroke="rgb(0,0,0)" stroke-width="1" opacity="0" d="M 644.5 562 L 646 562.5 L 646 572 Q 642.3 573.5 643 570.5 L 642 567.5 L 644.5 562 Z " /><path fill="rgb(0,0,0)" stroke="rgb(0,0,0)" stroke-width="1" opacity="0" d="M 535 563 Q 538 562 537 565 Q 534 566 535 563 Z " /><path fill="rgb(0,0,0)" stroke="rgb(0,0,0)" stroke-width="1" opacity="0" d="M 751.5 564 Q 755 565.3 754 570 L 751 568.5 L 751.5 564 Z " /><path fill="rgb(0,0,0)" stroke="rgb(0,0,0)" stroke-width="1" opacity="0" d="M 509.5 565 L 511.5 565 L 514 566.5 Q 514.9 569.9 509.5 568 Q 506.5 566.5 509.5 565 Z " /><path fill="rgb(0,0,0)" stroke="rgb(0,0,0)" stroke-width="1" opacity="0" d="M 607 565 L 609 565 L 609 570 Q 606.3 568.9 607 571.5 L 606 571.5 L 607 565 Z " /><path fill="rgb(0,0,0)" stroke="rgb(0,0,0)" stroke-width="1" opacity="0" d="M 703.5 565 L 704 571.5 L 703 571.5 L 703.5 565 Z " /><path fill="rgb(0,0,0)" stroke="rgb(0,0,0)" stroke-width="1" opacity="0" d="M 923 568 L 925 568.5 L 925 583.5 L 927 590 L 931.5 592 L 944.5 593 L 945.5 592 L 962.5 592 L 970 595 L 968.5 598 L 934.5 598 L 933 596.5 Q 934.4 591.9 928.5 594 Q 925 592.7 926 588 Q 920.4 590.2 922 584.5 L 923 583.5 L 923 568 Z " /><path fill="rgb(0,0,0)" stroke="rgb(0,0,0)" stroke-width="1" opacity="0" d="M 706.5 569 L 709.5 579 L 712 578 Q 714.7 580.6 714 587.5 L 715.5 589 L 724.5 593 L 728.5 593 L 729.5 592 L 745.5 592 L 748 593.5 L 744 594.5 L 753.5 595 L 755 596.5 L 754.5 598 L 722.5 598 L 721 595 L 714 593 Q 716.4 585.9 710 588 L 710 581.5 L 708.5 579 L 707 579.5 L 705 572.5 L 706.5 569 Z " /><path fill="rgb(0,0,0)" stroke="rgb(0,0,0)" stroke-width="1" opacity="0" d="M 591.5 570 Q 593.8 569.3 593 571.5 L 589 574.5 L 587.5 578 L 581 582 Q 582.5 585.7 579.5 585 L 576 586 Q 578.2 591.6 572.5 590 L 568 591 L 566.5 594 L 556.5 595 L 555.5 594 L 520 594 Q 518.7 590.7 523.5 592 L 527.5 593 L 528.5 592 L 542.5 592 L 544.5 593 L 556.5 590 L 559.5 591 L 564.5 590 L 569.5 586 L 575.5 585 L 578 582.5 L 580.5 579 Q 582.8 579.8 582 577.5 L 591.5 570 Z " /><path fill="rgb(0,0,0)" stroke="rgb(0,0,0)" stroke-width="1" opacity="0" d="M 804.5 571 L 805 575.5 L 804 575.5 L 804.5 571 Z " /><path fill="rgb(0,0,0)" stroke="rgb(0,0,0)" stroke-width="1" opacity="0" d="M 602 573 L 606 574.5 L 603.5 578 L 602 578 L 602 573 Z " /><path fill="rgb(0,0,0)" stroke="rgb(0,0,0)" stroke-width="1" opacity="0" d="M 641.5 573 L 642 584 L 638 584 L 638 588 L 636.5 588 L 633 590 Q 633.4 583.8 638 580.5 L 639 574 L 641.5 573 Z " /><path fill="rgb(0,0,0)" stroke="rgb(0,0,0)" stroke-width="1" opacity="0" d="M 755 574 L 758 575.5 Q 759 579.3 756 578 L 755 574 Z " /><path fill="rgb(0,0,0)" stroke="rgb(0,0,0)" stroke-width="1" opacity="0" d="M 598 579 L 601 580.5 L 601 588 L 598 588 L 598 579 Z " /><path fill="rgb(0,0,0)" stroke="rgb(0,0,0)" stroke-width="1" opacity="0" d="M 766.5 580 L 767 584.5 L 766 584.5 L 766.5 580 Z " /><path fill="rgb(0,0,0)" stroke="rgb(0,0,0)" stroke-width="1" opacity="0" d="M 760 581 L 762 581.5 L 762 588 L 760 587.5 L 760 581 Z " /><path fill="rgb(0,0,0)" stroke="rgb(0,0,0)" stroke-width="1" opacity="0" d="M 472.5 592 L 475 593.5 L 471.5 594 L 472.5 592 Z " /><path fill="rgb(0,0,0)" stroke="rgb(0,0,0)" stroke-width="1" opacity="0" d="M 482.5 592 L 492 593.5 L 480.5 594 L 480.5 593 L 482.5 592 Z " /><path fill="rgb(0,0,0)" stroke="rgb(0,0,0)" stroke-width="1" opacity="0" d="M 613.5 592 L 624.5 593 L 631 592 L 629 595.5 L 629.5 597 L 627.5 598 L 604.5 598 Q 601.5 596.5 604.5 595 Q 610.5 595 613.5 592 Z " /><path fill="rgb(0,0,0)" stroke="rgb(0,0,0)" stroke-width="1" opacity="0" d="M 771.5 592 L 772.5 594 Q 769.7 594.7 771.5 592 Z " /><path fill="rgb(0,0,0)" stroke="rgb(0,0,0)" stroke-width="1" opacity="0" d="M 475.5 595 Q 480.8 593.8 482 596.5 L 474.5 597 L 475.5 595 Z " /><path fill="rgb(0,0,0)" stroke="rgb(0,0,0)" stroke-width="1" opacity="0" d="M 128.5 600 L 130 606 Q 132.7 607.1 132 604.5 L 133 604.5 Q 132.3 610.7 136.5 612 L 138 612 L 138 616 L 142 616 L 142 619.5 L 140.5 624 L 140 620 Q 136.7 618.7 138 623.5 L 137 623.5 L 136 615.5 L 134.5 614 L 131 611.5 Q 131.8 608.9 128.5 610 L 127 606.5 L 128.5 600 Z " /><path fill="rgb(0,0,0)" stroke="rgb(0,0,0)" stroke-width="1" opacity="0" d="M 479.5 602 Q 486.3 600.3 488 603.5 Q 488.9 606.5 484.5 605 L 482.5 606 L 478 605 L 479.5 602 Z " /><path fill="rgb(0,0,0)" stroke="rgb(0,0,0)" stroke-width="1" opacity="0" d="M 96.5 606 L 104 606.5 L 95.5 612 L 85.5 612 L 85.5 611 L 95 610 L 94 607.5 L 96.5 606 Z " /><path fill="rgb(0,0,0)" stroke="rgb(0,0,0)" stroke-width="1" opacity="0" d="M 474.5 606 Q 479.3 604.7 478 608 L 473 611.5 L 471.5 614 L 470 614.5 L 470 622.5 L 471 626 Q 474.7 624.5 474 627.5 L 472.5 627 L 469 627 Q 470.1 624.3 467.5 625 L 465 624 L 466 612 L 470 612 Q 468.5 608.3 471.5 609 L 474.5 606 Z " /><path fill="rgb(0,0,0)" stroke="rgb(0,0,0)" stroke-width="1" opacity="0" d="M 488 606 Q 492.7 605 494 608.5 L 493.5 611 L 488 607.5 L 488 606 Z " /><path fill="rgb(0,0,0)" stroke="rgb(0,0,0)" stroke-width="1" opacity="0" d="M 80.5 614 L 86 614.5 L 84.5 616 L 77 617 Q 78.1 619.7 75.5 619 Q 74 621.5 68.5 620 L 68.5 619 L 74 618 Q 72.2 612.8 79.5 615 L 80.5 614 Z " /><path fill="rgb(0,0,0)" stroke="rgb(0,0,0)" stroke-width="1" opacity="0" d="M 499 617 Q 502 616 501 619 Q 498 620 499 617 Z " /><path fill="rgb(0,0,0)" stroke="rgb(0,0,0)" stroke-width="1" opacity="0" d="M 497.5 621 L 498 628 L 494 629.5 L 493.5 633 L 493 631 L 490.5 630 L 488.5 631 Q 485.5 629.5 488.5 628 L 495 624.5 L 497.5 621 Z " /><path fill="rgb(0,0,0)" stroke="rgb(0,0,0)" stroke-width="1" opacity="0" d="M 464.5 627 L 465 629.5 Q 462.4 630.9 463 635.5 L 464 640.5 L 462 639.5 L 462 628.5 L 463.5 628 L 464.5 627 Z " /><path fill="rgb(0,0,0)" stroke="rgb(0,0,0)" stroke-width="1" opacity="0" d="M 123.5 628 L 127 629.5 L 127 631.5 Q 125.8 635.3 129.5 634 L 132 635.5 L 127.5 637 L 124 636 L 123.5 633 L 122.5 634 L 112.5 634 L 112.5 633 Q 119.7 632.2 123.5 628 Z " /><path fill="rgb(0,0,0)" stroke="rgb(0,0,0)" stroke-width="1" opacity="0" d="M 526 628 Q 530.5 626.3 529 631.5 L 528 632.5 L 527.5 652 L 526 647.5 L 525 632.5 L 526 628 Z " /><path fill="rgb(0,0,0)" stroke="rgb(0,0,0)" stroke-width="1" opacity="0" d="M 459.5 631 L 460 634.5 L 459 634.5 L 459.5 631 Z " /><path fill="rgb(0,0,0)" stroke="rgb(0,0,0)" stroke-width="1" opacity="0" d="M 495 632 Q 498.3 630.7 497 635.5 L 498 639.5 L 496.5 648 L 495 632 Z " /><path fill="rgb(0,0,0)" stroke="rgb(0,0,0)" stroke-width="1" opacity="0" d="M 523.5 632 L 524 635.5 L 523 635.5 L 523.5 632 Z " /><path fill="rgb(0,0,0)" stroke="rgb(0,0,0)" stroke-width="1" opacity="0" d="M 107.5 634 L 110 634.5 L 107.5 635 L 107.5 634 Z " /><path fill="rgb(0,0,0)" stroke="rgb(0,0,0)" stroke-width="1" opacity="0" d="M 564.5 636 L 565 655.5 L 564 655.5 L 564.5 636 Z " /><path fill="rgb(0,0,0)" stroke="rgb(0,0,0)" stroke-width="1" opacity="0" d="M 130.5 638 Q 136.5 636.5 138 639.5 L 131.5 640 L 130.5 638 Z " /><path fill="rgb(0,0,0)" stroke="rgb(0,0,0)" stroke-width="1" opacity="0" d="M 138.5 642 L 145 643 Q 143.3 647.5 148.5 646 Q 151 647.2 150 651 L 143 646.5 Q 143.8 643.9 140.5 645 L 138.5 642 Z " /><path fill="rgb(0,0,0)" stroke="rgb(0,0,0)" stroke-width="1" opacity="0" d="M 1050.5 647 Q 1054.3 646.3 1055 648.5 L 1058 657.5 L 1058 663.5 L 1056 669 Q 1053 671 1045.5 670 L 1042 667.5 L 1041 659.5 L 1041 657.5 L 1042 649 L 1050.5 647 Z " /><path fill="rgb(0,0,0)" stroke="rgb(0,0,0)" stroke-width="1" opacity="0" d="M 152.5 653 L 154 656.5 L 152 655.5 L 152.5 653 Z " /><path fill="rgb(0,0,0)" stroke="rgb(0,0,0)" stroke-width="1" opacity="0" d="M 46.5 654 L 48.5 655 L 63.5 655 L 70 656.5 L 60.5 657 L 59.5 658 L 43.5 658 L 41 657 Q 39.6 653.3 45.5 655 L 46.5 654 Z " /><path fill="rgb(0,0,0)" stroke="rgb(0,0,0)" stroke-width="1" opacity="0" d="M 116 655 Q 122.1 653.3 124 656.5 L 123.5 663 L 123 658 L 120.5 657 L 118.5 657 Q 114.8 658 116 655 Z " /><path fill="rgb(0,0,0)" stroke="rgb(0,0,0)" stroke-width="1" opacity="0" d="M 496.5 656 L 498 659.5 L 497 661.5 L 498 666 L 524.5 666 L 526 664.5 Q 525.3 661.9 528 663 L 530 669 L 512.5 668 L 511.5 669 L 493 669 Q 492.3 665.6 495 664.5 L 495 657.5 L 496.5 656 Z " /><path fill="rgb(0,0,0)" stroke="rgb(0,0,0)" stroke-width="1" opacity="0" d="M 155 657 L 158 658.5 L 158 663 Q 163.2 661.3 162 665 L 176 665 L 176.5 662 L 432 662 L 432.5 665 L 447.5 665 L 448.5 666 L 461.5 666 L 464.5 665 L 467 666 L 466.5 669 L 156.5 669 Q 153.8 667.8 156 666.5 Q 156.9 659.7 155 657 Z " /><path fill="rgb(0,0,0)" stroke="rgb(0,0,0)" stroke-width="1" opacity="0" d="M 29.5 665 L 124 666 L 122.5 669 L 40.5 669 L 35.5 670 L 26.5 668 L 25 668.5 Q 24.3 666.3 26.5 667 L 29.5 665 Z " /><path fill="rgb(0,0,0)" stroke="rgb(0,0,0)" stroke-width="1" opacity="0" d="M 23.5 668 L 24 680 Q 20.3 681.2 22 676 L 18 676 L 18 672 Q 24.8 674.4 23.5 668 Z " /><path fill="rgb(0,0,0)" stroke="rgb(0,0,0)" stroke-width="1" opacity="0" d="M 485.5 686 L 487 688.5 L 483 690 L 485.5 686 Z " /><path fill="rgb(0,0,0)" stroke="rgb(0,0,0)" stroke-width="1" opacity="0" d="M 144.5 687 L 146 690 Q 140.8 691.7 142 688 L 144.5 687 Z " /><path fill="rgb(0,0,0)" stroke="rgb(0,0,0)" stroke-width="1" opacity="0" d="M 147 691 L 442.5 691 L 447.5 692 L 448.5 691 L 465.5 691 L 468.5 692 L 469.5 691 L 481.5 691 Q 484.5 692.5 481.5 694 L 440.5 694 L 439.5 698 L 176 698 Q 177.8 693.5 172.5 695 L 171.5 694 L 148.5 694 L 147 692.5 L 147 691 Z " /><path fill="rgb(0,0,0)" stroke="rgb(0,0,0)" stroke-width="1" opacity="0" d="M 932 691 L 944 691.5 L 938 696.5 Q 938.7 699.1 936 698 L 934.5 694 L 932 692.5 L 932 691 Z " /><path fill="rgb(32,34,30)" stroke="rgb(32,34,30)" stroke-width="1" opacity="0.9176470588235294" d="M 476.5 448 Q 481.3 446.7 482.5 449 L 501.5 449 L 502.5 448 L 529.5 448 L 530.5 449 L 542.5 449 L 558.5 452 L 569.5 457 L 579 466.5 L 584 476.5 L 585 483.5 Q 582.7 484.7 584 489.5 L 580 498.5 L 572.5 506 L 566 510.5 L 565 514.5 L 567.5 518 Q 579.9 520.1 585 529.5 Q 591.8 537.2 591 552.5 L 588 562.5 L 576.5 576 L 557.5 584 L 549.5 584 L 548.5 585 L 474.5 585 L 472 584 L 472 451.5 L 474.5 449 L 476.5 448 Z M 510 457 L 506 458 L 502 462 L 502 505 L 503 507 L 506 509 Q 511 508 513 510 L 514 509 L 536 509 L 545 504 L 553 493 Q 551 486 554 485 Q 554 473 547 468 L 534 459 L 521 458 L 520 457 L 510 457 Z M 509 518 L 506 519 L 502 524 L 502 571 L 506 575 L 532 575 L 546 571 L 552 567 Q 557 562 559 554 L 559 544 L 555 533 Q 549 525 540 521 L 524 518 L 509 518 Z " /><path fill="rgb(32,34,30)" stroke="rgb(32,34,30)" stroke-width="1" opacity="0.9176470588235294" d="M 678.5 448 Q 688.3 446.3 690 452.5 L 706 488.5 L 720 514.5 L 720 517.5 L 730 539.5 L 740 557.5 L 744 569.5 L 751 580.5 L 751 584 L 748.5 585 L 723.5 585 L 720 582.5 L 708 554.5 L 703.5 549 L 700.5 547 L 649.5 547 L 644 550.5 L 628 584 L 625.5 585 L 612.5 585 L 610 584 L 610 580.5 L 639 524.5 L 640 518.5 Q 648.4 509.4 652 495.5 L 655 492.5 L 660 481.5 L 660 478.5 Q 667.5 469.5 671 456.5 L 676.5 449 L 678.5 448 Z M 674 493 L 670 497 Q 663 516 653 533 L 654 538 L 657 539 L 695 539 L 697 538 L 698 536 L 698 533 L 680 499 L 680 496 Q 679 492 674 493 Z " /><path fill="rgb(32,34,30)" stroke="rgb(32,34,30)" stroke-width="1" opacity="0.9176470588235294" d="M 778.5 448 Q 794.6 445.4 800 453.5 L 814.5 471 L 818 473.5 L 872.5 535 Q 877 536 878 533.5 L 879 524.5 Q 876.2 522.8 878 516.5 L 879 515.5 L 879 457.5 Q 876.8 456.3 878 451.5 L 880.5 448 L 893.5 448 L 896 450.5 L 897 454.5 L 896 455.5 L 896 585.5 L 893.5 588 L 886.5 588 L 880 583.5 L 804.5 497 L 800 493.5 Q 800.8 491.3 798.5 492 L 794.5 491 L 793 492.5 L 793 582.5 L 790.5 585 L 778.5 585 L 776 584 L 775 579.5 L 776 578.5 L 776 455.5 L 775 453.5 L 778.5 448 Z " /><path fill="rgb(32,34,30)" stroke="rgb(32,34,30)" stroke-width="1" opacity="0.9176470588235294" d="M 938.5 448 L 953.5 449 L 954.5 448 L 962.5 448 L 966 451.5 L 966 490.5 L 965 495.5 L 967.5 499 L 973.5 498 L 1019 459.5 L 1021.5 456 L 1034.5 448 L 1048.5 448 Q 1051.3 449.3 1049 450.5 L 1045.5 455 L 1042.5 456 L 987 503.5 L 986 506.5 L 994.5 516 L 1049 564.5 L 1050.5 567 L 1069 582.5 L 1067.5 585 L 1036.5 585 L 1034.5 584 L 986.5 540 L 972.5 528 L 969.5 527 L 966 529.5 L 965 532.5 L 966 533.5 L 966 582.5 L 962.5 585 L 937.5 585 L 935 582.5 L 935 451.5 L 938.5 448 Z " /><path fill="rgb(32,34,30)" stroke="rgb(32,34,30)" stroke-width="1" opacity="0.9176470588235294" d="M 116.5 609 L 120.5 609 L 126 614.5 L 127 620 L 115.5 624 L 111.5 627 L 102.5 629 L 92 635.5 Q 90.5 639.9 93.5 639 L 98.5 641 L 115.5 641 L 126.5 644 L 139.5 651 L 147 658.5 L 148 670.5 L 150.5 673 L 152.5 674 L 470.5 674 L 474 670.5 L 474 636.5 L 475.5 635 L 480.5 635 L 487 637 L 487 670.5 L 490.5 674 L 533.5 674 L 537 670.5 L 537 642.5 L 536 637.5 Q 537.5 633.5 544.5 635 L 548.5 636 L 551 638.5 L 550 678.5 L 546.5 682 L 541.5 684 L 501.5 684 Q 500.3 686.2 495.5 685 L 491 681.5 L 488.5 678 L 485.5 677 L 481 680.5 L 478.5 684 L 471.5 685 L 470.5 684 L 159.5 684 L 157.5 685 L 153.5 684 L 147.5 679 L 143.5 679 L 133.5 685 L 122.5 685 L 121.5 686 L 44.5 686 L 35 678.5 L 34 675.5 L 37.5 674 L 38.5 675 L 120.5 675 L 129 672 L 133 665.5 L 133 657.5 L 126.5 650 L 111.5 647 L 46.5 647 L 44 646 Q 42.8 641.4 45.5 640 L 52.5 636 L 79.5 626 L 85.5 622 L 91.5 621 L 97.5 617 L 102.5 616 L 116.5 609 Z " /><path fill="rgb(32,34,30)" stroke="rgb(32,34,30)" stroke-width="1" opacity="0.9176470588235294" d="M 481.5 612 L 486 613 L 488 616.5 L 488 620.5 Q 487 625 480.5 624 L 476 620.5 L 476 617.5 L 481.5 612 Z " /><path fill="rgb(32,34,30)" stroke="rgb(32,34,30)" stroke-width="1" opacity="0.9176470588235294" d="M 542.5 693 Q 547.3 693.3 549 696.5 L 550 699.5 L 546.5 704 L 542.5 705 Q 538.5 703 538 697.5 L 540.5 694 L 542.5 693 Z " /><path fill="rgb(10,150,100)" stroke="rgb(10,150,100)" stroke-width="1" opacity="0.9529411764705882" d="M 358.5 20 L 374.5 20 L 375.5 21 L 440.5 21 L 442.5 22 L 443.5 21 L 549.5 21 L 553.5 22 L 554.5 21 L 745.5 21 Q 749.1 22.9 749 28.5 L 748 29.5 L 748 373.5 L 749 378.5 L 748 381 L 745.5 382 L 357.5 382 L 355 379.5 L 355 36.5 L 354 35.5 L 354 24.5 L 356.5 21 L 358.5 20 Z M 460 75 L 457 76 L 458 81 L 514 132 L 519 135 L 521 139 L 523 139 L 574 187 L 579 190 L 580 193 L 611 220 L 613 224 L 619 228 Q 621 227 620 230 L 622 230 L 690 294 L 695 295 L 697 292 L 696 289 L 696 79 L 692 75 L 460 75 Z M 410 110 L 408 112 L 408 290 L 407 291 L 408 294 L 411 295 L 416 293 L 418 290 L 506 210 L 510 208 L 512 205 L 511 200 L 465 158 L 459 152 L 443 138 L 435 130 L 414 110 L 410 110 Z M 552 240 L 548 242 L 541 250 L 523 265 L 520 269 L 467 317 L 462 320 Q 457 323 457 329 L 460 330 L 644 330 L 647 328 L 646 324 L 613 294 L 606 286 L 605 286 L 568 253 L 563 248 L 557 241 L 552 240 Z " /><path fill="rgb(10,150,100)" stroke="rgb(10,150,100)" stroke-width="1" opacity="0.9529411764705882" d="M 28.5 446 L 58.5 447 L 62 450.5 L 107.5 540 L 112.5 541 L 156 453.5 L 161.5 447 L 186.5 447 L 190 449.5 L 191 457.5 L 190 458.5 L 190 577.5 L 191 580.5 L 187.5 586 L 161.5 586 L 159 585 L 158 582.5 L 158 510.5 Q 160.8 508.7 159 502.5 L 158 499 Q 153.3 498 152 501.5 Q 137.7 534.7 120 564.5 L 119 569.5 L 114 576.5 L 113 580.5 L 108.5 585 L 101.5 586 L 96 582.5 L 65 520.5 L 61 515.5 L 55 501 L 52.5 500 Q 48.2 504.2 50 514.5 L 51 515.5 L 51 583.5 Q 48.3 586.8 42.5 587 L 41.5 586 L 24.5 586 L 21 583.5 L 21 450.5 L 22 448 L 28.5 446 Z " /><path fill="rgb(10,150,100)" stroke="rgb(10,150,100)" stroke-width="1" opacity="0.9529411764705882" d="M 475.5 446 L 537.5 446 Q 538.8 448.3 543.5 447 L 557.5 450 L 570.5 456 L 581 466.5 L 586 477.5 L 586 488.5 L 584 494.5 L 577.5 504 L 568 511.5 Q 567 516 569.5 517 L 576.5 519 L 587 529.5 L 593 542.5 L 593 553.5 L 589 564.5 L 577.5 577 L 560.5 585 L 547.5 586 L 546.5 587 L 475.5 587 L 470 583.5 L 470 450.5 L 472.5 447 L 475.5 446 Z M 477 448 L 475 449 L 472 452 L 472 584 L 475 585 L 549 585 L 550 584 L 558 584 L 577 576 L 588 563 L 591 553 Q 592 537 585 530 Q 580 520 568 518 L 565 515 L 566 511 L 573 506 L 580 499 L 584 490 Q 583 485 585 484 L 584 477 L 579 467 L 570 457 L 559 452 L 543 449 L 531 449 L 530 448 L 503 448 L 502 449 L 483 449 Q 481 447 477 448 Z " /><path fill="rgb(10,150,100)" stroke="rgb(10,150,100)" stroke-width="1" opacity="0.9529411764705882" d="M 677.5 446 Q 687.3 444.3 690 449.5 L 721 513.5 L 722 518.5 L 726 524.5 L 732 539.5 L 740 553.5 L 745 567.5 L 753 580.5 L 753 584.5 L 750.5 587 L 723.5 587 L 719 583.5 L 713 572.5 L 706 554.5 L 701.5 550 L 699.5 549 L 649.5 549 L 644 553.5 L 633 578.5 L 627.5 586 Q 621.3 588.8 610.5 587 L 608 586 L 608 580.5 Q 616.1 570.6 620 556.5 L 624 551.5 L 635 526.5 L 639 520.5 L 639 517.5 L 649 497.5 L 653 492.5 L 672 451.5 L 677.5 446 Z M 679 448 L 677 449 L 671 457 Q 668 470 660 479 L 660 482 L 655 493 L 652 496 Q 648 509 640 519 L 639 525 L 610 581 L 610 584 L 613 585 L 626 585 L 628 584 L 644 551 L 650 547 L 701 547 L 704 549 L 708 555 L 720 583 L 724 585 L 749 585 L 751 584 L 751 581 L 744 570 L 740 558 L 730 540 L 720 518 L 720 515 L 706 489 L 690 453 Q 688 446 679 448 Z " /><path fill="rgb(10,150,100)" stroke="rgb(10,150,100)" stroke-width="1" opacity="0.9529411764705882" d="M 777.5 446 L 792.5 446 L 800 451.5 L 872.5 533 Q 876.3 533.8 877 531.5 L 877 520.5 L 876 518.5 L 877 517.5 L 877 456.5 L 876 452.5 L 878 447 L 880.5 446 L 894.5 446 L 898 450.5 L 898 585.5 L 895.5 589 L 886.5 590 L 880 585.5 L 819 515.5 L 797.5 493 L 794 494.5 Q 792.3 500.8 795 502.5 L 795 539.5 Q 792.3 541.3 794 547.5 Q 796.8 549.3 795 555.5 L 794 556.5 L 794 576.5 Q 796.3 577.8 795 582.5 L 792.5 586 Q 787.4 588.4 778.5 587 L 774 583.5 L 774 450.5 L 777.5 446 Z M 779 448 L 775 454 L 776 456 L 776 579 L 775 580 L 776 584 L 779 585 L 791 585 L 793 583 L 793 493 L 795 491 L 799 492 Q 801 491 800 494 L 805 497 L 880 584 L 887 588 L 894 588 L 896 586 L 896 456 L 897 455 L 896 451 L 894 448 L 881 448 L 878 452 Q 877 456 879 458 L 879 516 L 878 517 Q 876 523 879 525 L 878 534 Q 877 536 873 535 L 818 474 L 815 471 L 800 454 Q 795 445 779 448 Z " /><path fill="rgb(10,150,100)" stroke="rgb(10,150,100)" stroke-width="1" opacity="0.9529411764705882" d="M 937.5 446 L 963.5 446 L 967 448.5 L 968 450.5 L 968 496 L 970.5 497 L 1000 474 Q 998.9 471.3 1001.5 472 L 1018 459 L 1020.5 455 L 1033.5 446 L 1050.5 446 Q 1052.8 446.8 1052 450.5 L 1048.5 455 L 1043.5 457 L 1027.5 472 L 989 503.5 Q 987.8 510.8 992.5 512 L 1071 582.5 Q 1071.8 586.3 1069.5 587 L 1037.5 587 L 1032.5 585 L 987.5 543 L 973.5 531 L 969.5 530 L 968 531.5 L 968 583.5 L 965.5 586 L 962.5 587 L 938.5 587 L 933 583.5 L 933 450.5 L 935.5 447 L 937.5 446 Z M 939 448 L 935 452 L 935 583 L 938 585 L 963 585 L 966 583 L 966 534 L 965 533 L 966 530 L 970 527 L 973 528 L 987 540 L 1035 584 L 1037 585 L 1068 585 L 1069 583 L 1051 567 L 1049 565 L 995 516 L 986 507 L 987 504 L 1043 456 L 1046 455 L 1049 451 Q 1051 449 1049 448 L 1035 448 L 1022 456 L 1019 460 L 974 498 L 968 499 L 965 496 L 966 491 L 966 452 L 963 448 L 955 448 L 954 449 L 939 448 Z " /><path fill="rgb(10,150,100)" stroke="rgb(10,150,100)" stroke-width="1" opacity="0.9529411764705882" d="M 233.5 447 L 258.5 447 L 261 449.5 L 262 451.5 L 262 582.5 L 261 585 L 258.5 586 L 233.5 586 L 230 583.5 L 229 578.5 L 230 577.5 L 230 454.5 L 230 452.5 Q 229.5 447.5 233.5 447 Z " /><path fill="rgb(10,150,100)" stroke="rgb(10,150,100)" stroke-width="1" opacity="0.9529411764705882" d="M 303.5 447 L 363.5 447 L 367.5 449 L 384.5 451 Q 390.6 455.4 400.5 456 L 407.5 460 Q 419.4 467.1 428 477.5 L 439 499.5 Q 437.8 504.2 440 505.5 L 440 527.5 L 434 544.5 L 429 553.5 L 414.5 569 L 397.5 579 L 383.5 582 L 377.5 585 Q 371.2 583.3 369.5 586 L 302.5 586 L 300 583.5 L 300 450.5 L 301 448 L 303.5 447 Z M 339 459 L 336 460 L 333 463 L 333 571 L 338 574 L 359 574 L 369 572 Q 381 568 389 559 Q 395 554 398 546 L 403 528 L 403 505 L 402 500 L 393 480 L 380 467 L 367 461 L 351 460 L 350 459 L 339 459 Z " /><path fill="rgb(10,150,100)" stroke="rgb(10,150,100)" stroke-width="1" opacity="0.9529411764705882" d="M 509.5 457 L 519.5 457 L 520.5 458 L 533.5 459 L 547 467.5 Q 553.5 473 554 484.5 Q 551.3 486.2 553 492.5 L 544.5 504 L 535.5 509 L 513.5 509 L 512.5 510 Q 511 507.5 505.5 509 L 503 506.5 L 502 504.5 L 502 461.5 L 505.5 458 L 509.5 457 Z M 509 459 L 504 463 L 504 504 L 505 506 L 509 508 L 531 508 L 542 504 Q 549 499 552 489 Q 553 477 548 472 Q 543 464 534 461 L 523 460 L 522 459 L 509 459 Z " /><path fill="rgb(10,150,100)" stroke="rgb(10,150,100)" stroke-width="1" opacity="0.9529411764705882" d="M 673.5 493 Q 679 492 680 495.5 L 680 498.5 L 698 532.5 L 698 535.5 L 697 538 L 694.5 539 L 656.5 539 L 654 538 L 653 532.5 Q 663.4 516.4 670 496.5 L 673.5 493 Z M 676 494 L 674 495 L 655 533 Q 654 537 658 537 L 695 537 L 696 536 L 696 533 L 693 529 L 687 514 L 683 509 L 678 495 L 676 494 Z " /><path fill="rgb(10,150,100)" stroke="rgb(10,150,100)" stroke-width="1" opacity="0.9529411764705882" d="M 508.5 518 L 523.5 518 L 539.5 521 Q 549.2 524.8 555 532.5 L 559 543.5 L 559 553.5 Q 557.1 562.1 551.5 567 L 545.5 571 L 531.5 575 L 505.5 575 L 502 570.5 L 502 523.5 L 505.5 519 L 508.5 518 Z M 508 521 L 505 522 L 504 525 L 504 571 L 507 573 L 531 573 L 544 570 L 549 567 Q 555 563 557 555 Q 559 538 552 532 Q 546 525 536 522 Q 531 523 530 521 L 508 521 Z " /><path fill="rgb(10,150,100)" stroke="rgb(10,150,100)" stroke-width="1" opacity="0.9529411764705882" d="M 118.5 606 L 128 614.5 L 129 619.5 L 122.5 624 Q 114.8 624.8 110.5 629 L 104.5 630 L 95 636.5 Q 94.3 638.8 96.5 638 L 97.5 639 L 111.5 639 L 112.5 640 L 123.5 641 L 139.5 649 L 147 655.5 Q 151.1 660 150 669.5 L 152.5 672 L 155.5 673 L 467.5 673 L 472 669.5 L 472 635.5 L 474.5 633 L 486.5 635 L 489 637.5 L 489 670.5 L 490.5 671 L 493.5 673 L 530.5 673 L 535 669.5 L 535 642.5 L 534 637.5 L 537.5 633 L 543.5 633 L 552 636.5 L 553 638.5 L 553 651.5 L 552 652.5 L 552 678.5 L 548.5 683 L 543.5 686 L 531.5 686 L 530.5 687 L 495.5 687 L 485.5 679 L 476.5 687 L 156.5 687 Q 150.4 685.6 147.5 681 L 144.5 681 L 133.5 687 L 49.5 687 L 45.5 688 Q 37.1 684.4 32 677.5 L 31 675.5 L 32 673 L 122.5 673 L 129 668.5 Q 132 665.5 131 658.5 L 126.5 652 L 116.5 649 L 46.5 649 L 42 645.5 Q 41 639 45.5 638 L 74.5 625 L 79.5 624 L 83.5 621 L 91.5 619 L 118.5 606 Z M 117 609 L 103 616 L 98 617 L 92 621 L 86 622 L 80 626 L 53 636 L 46 640 Q 43 641 44 646 L 47 647 L 112 647 L 127 650 L 133 658 L 133 666 L 129 672 L 121 675 L 39 675 L 38 674 L 34 676 L 35 679 L 45 686 L 122 686 L 123 685 L 134 685 L 144 679 L 148 679 L 154 684 L 158 685 L 160 684 L 471 684 L 472 685 L 479 684 L 481 681 L 486 677 L 489 678 L 491 682 L 496 685 Q 500 686 502 684 L 542 684 L 547 682 L 550 679 L 551 639 L 549 636 L 545 635 Q 538 634 536 638 L 537 643 L 537 671 L 534 674 L 491 674 L 487 671 L 487 637 L 481 635 L 476 635 L 474 637 L 474 671 L 471 674 L 153 674 L 151 673 L 148 671 L 147 659 L 140 651 L 127 644 L 116 641 L 99 641 L 94 639 Q 91 640 92 636 L 103 629 L 112 627 L 116 624 L 127 620 L 126 615 L 121 609 L 117 609 Z " /><path fill="rgb(10,150,100)" stroke="rgb(10,150,100)" stroke-width="1" opacity="0.9529411764705882" d="M 482.5 610 L 490 615.5 L 490 620.5 L 484.5 626 L 479.5 626 L 475 621.5 L 474 618.5 L 480.5 611 L 482.5 610 Z M 482 612 L 476 618 L 476 621 L 481 624 Q 487 625 488 621 L 488 617 L 486 613 L 482 612 Z " /><path fill="rgb(10,150,100)" stroke="rgb(10,150,100)" stroke-width="1" opacity="0.9529411764705882" d="M 1036.5 626 L 1047.5 627 L 1060 635.5 Q 1068.3 643.2 1073 654.5 L 1076 662.5 L 1076 675.5 L 1067.5 687 L 1060.5 691 L 1055.5 691 Q 1044.8 686.2 1038 677.5 L 1035.5 674 L 1032.5 673 L 1026 678.5 L 1024.5 681 L 1016.5 686 L 963.5 686 L 957.5 679 L 955.5 679 L 946.5 686 L 594.5 686 L 592 681.5 L 596.5 673 L 633.5 673 L 637 670.5 L 638 668.5 L 638 647.5 L 633.5 640 L 630.5 638 L 620.5 637 Q 617.5 639.8 612 639 L 611 635.5 L 613.5 632 L 626.5 628 L 637.5 628 Q 644.4 629.6 648 634.5 L 652 644.5 L 652 667.5 L 656.5 673 L 940.5 673 L 943 670.5 L 943 636.5 L 945.5 634 L 952.5 634 L 959 636 L 960 638.5 L 960 666.5 L 959 671.5 L 961.5 674 L 1008.5 674 Q 1016.5 672.9 1019 666.5 L 1020 656.5 L 1022 652.5 L 1023 639.5 L 1029.5 630 L 1036.5 626 Z M 1047 641 L 1041 644 L 1038 647 L 1035 655 Q 1033 663 1036 667 L 1047 675 L 1052 675 L 1058 672 L 1062 666 L 1062 654 L 1058 645 Q 1055 640 1047 641 Z " /><path fill="rgb(10,150,100)" stroke="rgb(10,150,100)" stroke-width="1" opacity="0.9529411764705882" d="M 543.5 691 L 551 696.5 L 552 699.5 L 546.5 706 L 542.5 707 Q 536.9 704.6 536 697.5 L 539.5 693 L 543.5 691 Z M 543 693 L 541 694 L 538 698 Q 538 703 543 705 L 547 704 L 550 700 L 549 697 Q 547 693 543 693 Z " /><path fill="rgb(10,150,100)" stroke="rgb(10,150,100)" stroke-width="1" opacity="0.9529411764705882" d="M 922.5 696 Q 929 695 931 698.5 L 932 704.5 L 927.5 710 Q 922 711 921 707.5 L 919 700.5 L 922.5 696 Z " /><path fill="rgb(10,150,100)" stroke="rgb(10,150,100)" stroke-width="1" opacity="0.9529411764705882" d="M 945.5 696 Q 953.1 694.9 955 699.5 L 955 704.5 L 949.5 710 L 947.5 710 L 942 704.5 Q 940.8 697.3 945.5 696 Z " /><path fill="rgb(225,237,233)" stroke="rgb(225,237,233)" stroke-width="1" opacity="0.10980392156862745" d="M 392 4 Q 398 2 396 8 L 385.5 9 L 385.5 8 L 392 8 L 392 4 Z " /><path fill="rgb(225,237,233)" stroke="rgb(225,237,233)" stroke-width="1" opacity="0.10980392156862745" d="M 355.5 13 L 387.5 13 L 388.5 14 L 752.5 14 L 754 15.5 L 754 386 L 350 386 L 350 51.5 L 349 50.5 L 349 18.5 L 351.5 14 L 355.5 13 Z M 359 20 L 357 21 L 354 25 L 354 36 L 355 37 L 355 380 L 358 382 L 746 382 L 748 381 L 749 379 L 748 374 L 748 30 L 749 29 Q 749 23 746 21 L 555 21 L 554 22 L 550 21 L 444 21 L 443 22 L 441 21 L 376 21 L 375 20 L 359 20 Z " /><path fill="rgb(225,237,233)" stroke="rgb(225,237,233)" stroke-width="1" opacity="0.10980392156862745" d="M 343.5 43 L 346 43 L 346 48.5 L 345 52 L 340 52 L 340 48.5 L 341 44 L 343.5 43 Z " /><path fill="rgb(225,237,233)" stroke="rgb(225,237,233)" stroke-width="1" opacity="0.10980392156862745" d="M 459.5 75 L 691.5 75 L 696 78.5 L 696 288.5 L 697 291.5 L 694.5 295 L 689.5 294 L 621.5 230 L 620 230 Q 621.1 227.3 618.5 228 L 613 224 L 610.5 220 L 580 192.5 L 578.5 190 L 573.5 187 L 522.5 139 L 521 139 L 518.5 135 L 513.5 132 L 458 80.5 L 457 76 L 459.5 75 Z M 463 78 L 463 81 Q 464 83 468 82 L 476 88 L 481 96 L 495 106 L 496 109 L 504 116 Q 508 115 509 118 L 508 120 Q 512 119 513 123 Q 512 125 515 124 L 524 136 L 532 140 L 534 144 L 538 146 L 542 152 L 554 162 L 559 164 L 560 167 L 563 168 L 564 172 L 574 178 L 577 183 L 580 184 L 582 188 L 595 198 L 603 209 L 621 222 L 623 226 L 627 227 L 628 230 L 636 237 L 639 238 L 642 243 L 647 246 L 654 254 Q 656 253 655 256 L 666 264 Q 668 263 667 266 L 671 268 L 672 272 L 678 275 L 681 280 L 685 282 L 690 287 L 688 282 L 688 88 L 691 82 L 690 79 Q 683 77 682 80 L 471 80 L 463 78 Z " /><path fill="rgb(225,237,233)" stroke="rgb(225,237,233)" stroke-width="1" opacity="0.10980392156862745" d="M 409.5 110 L 413.5 110 L 435 129.5 L 442.5 138 L 459 151.5 L 464.5 158 L 511 199.5 L 512 204.5 L 509.5 208 L 505.5 210 L 418 289.5 L 415.5 293 L 410.5 295 L 408 294 L 407 290.5 L 408 289.5 L 408 111.5 L 409.5 110 Z M 414 118 L 416 124 L 416 282 L 414 285 L 415 287 L 438 266 L 440 262 L 442 262 L 458 247 Q 457 244 460 245 L 460 243 L 477 231 Q 476 227 479 228 L 480 225 L 496 214 L 498 211 L 506 204 Q 506 199 503 198 Q 500 199 501 197 L 494 191 Q 491 192 492 190 L 481 178 L 478 177 L 475 174 L 463 162 Q 459 163 460 161 L 451 154 Q 452 151 450 152 L 448 150 L 446 148 L 444 145 L 441 142 L 439 140 L 435 136 Q 432 137 433 135 L 427 130 L 423 125 L 414 118 Z " /><path fill="rgb(225,237,233)" stroke="rgb(225,237,233)" stroke-width="1" opacity="0.10980392156862745" d="M 551.5 240 L 556.5 241 L 563 247.5 L 567.5 253 L 604.5 286 L 606 286 L 612.5 294 L 646 323.5 L 647 327.5 L 643.5 330 L 459.5 330 L 457 329 Q 456.8 322.5 461.5 320 L 466.5 317 L 520 268.5 L 522.5 265 L 541 249.5 L 547.5 242 L 551.5 240 Z M 551 245 L 548 251 L 543 254 L 540 258 L 538 258 L 525 270 L 523 273 L 516 278 Q 513 279 513 283 L 503 291 Q 504 293 502 292 L 500 295 L 485 306 L 477 315 L 468 322 L 466 322 L 464 325 L 468 324 L 637 324 L 638 325 Q 640 326 639 324 L 630 317 L 627 314 L 611 298 L 604 296 L 603 290 L 595 283 L 593 283 L 591 281 L 584 275 L 579 271 L 579 269 L 573 263 Q 570 264 571 262 Q 571 258 566 258 L 559 251 L 554 245 L 551 245 Z " /><path fill="rgb(225,237,233)" stroke="rgb(225,237,233)" stroke-width="1" opacity="0.10980392156862745" d="M 492 416 L 544 416 L 544 420 Q 550 418 548 424 L 559.5 424 L 560 428 L 568 428 L 568 432 L 572 432 L 572 436 L 576 436 L 576 440 L 580 440 L 580 444 L 584 444 Q 582 450 588 448 L 588 456 L 592 456.5 L 592 467.5 L 591 467.5 Q 592.7 462.7 588.5 464 L 587 460 Q 583.7 461.3 585 456.5 L 584 456.5 L 583.5 458 L 580.5 452 L 579.5 454 L 578 450 L 574 448.5 L 572.5 446 L 566 445 Q 567.8 440.5 562.5 442 L 561.5 441 L 555 441 L 553.5 438 L 544.5 437 L 543.5 438 L 496 438 L 495.5 434 L 473.5 434 L 471 435.5 Q 473.2 436.8 470.5 438 L 468 438 L 468 432 L 476 432 L 476 428 Q 482 430 480 424 L 488 424 L 488 420 Q 494 422 492 416 Z " /><path fill="rgb(225,237,233)" stroke="rgb(225,237,233)" stroke-width="1" opacity="0.10980392156862745" d="M 908 424 L 916 424 L 916.5 428 L 967.5 428 L 968 432 L 972 432 L 972.5 436 L 991.5 436 L 992.5 440 L 1004 440 Q 1002 446 1008 444 L 1008 452 L 1010.5 452 L 1009.5 454 Q 1005.8 452.8 1007 456.5 L 1005 459.5 L 1007.5 461 L 1025 446.5 L 1027 441 L 1034.5 440 L 1035.5 441 L 1053.5 441 L 1057 443.5 L 1059 451.5 L 1058 454 Q 1054.3 452.5 1055 455.5 L 1052.5 458 L 1047.5 459 L 1041 465.5 L 1038.5 469 L 1027.5 478 L 1025.5 478 L 1019 484.5 L 1017.5 487 L 1014 489.5 Q 1014.8 491.8 1012.5 491 L 1008 493 L 1006.5 496 L 1003 497.5 Q 1003.8 499.8 1001.5 499 L 999.5 502 L 1005 501 L 1007.5 497 L 1009.5 497 Q 1012.5 497.7 1011 494 L 1013.5 494 L 1025.5 484 L 1032 484 L 1032 488 L 1036 488.5 L 1036 524 L 1040 524 L 1040 528 L 1044 528 L 1044 532 L 1048 532 L 1048 536 L 1052 536 L 1052 540 L 1056 540 L 1056 544 Q 1062 542 1060 548 L 1083.5 548 L 1084 552 L 1088 552 L 1088 604 L 1084 604 L 1084 608 Q 1078 606 1080 612 L 1068.5 612 L 1067.5 616 L 1054.5 616 L 1050.5 614 L 1036 614 L 1035.5 612 L 1028 612 L 1028 608 L 1024 608 L 1024 604 L 1020 604 L 1020 600 L 1016 600 L 1016 596 L 1012 596 Q 1014 590 1008 592 L 1008 596 L 996.5 596 L 995.5 600 L 972 600 L 972 607.5 L 971.5 608 L 936.5 608 L 935.5 612 L 912 612 L 912 608 L 904 608 L 904 604 L 896 604 Q 898.2 598.4 892.5 600 L 892.5 599 L 901 598 Q 902.7 593.9 898.5 595 L 897.5 594 L 882.5 594 L 878 591 Q 875.4 583.2 868.5 578 L 863 575 Q 864.1 572.3 861.5 573 L 852.5 559 L 841 550 L 839.5 547 Q 836.9 547.8 838 544.5 L 830.5 536 L 827.5 534 L 827 537 L 830 538.5 Q 828.9 541.8 831.5 541 Q 835.3 542.5 834 548 L 838 549.5 Q 836.3 554.8 841.5 553 L 843 557 L 847 558.5 L 849 564 Q 852.3 562.7 851 567.5 L 852 567.5 L 852.5 566 L 854 572 L 858 573.5 L 859.5 577 L 862 578.5 L 863.5 581 L 866 582.5 L 866 584 Q 869.7 582.5 869 585.5 L 870 588 L 874 590.5 L 874 592 L 876 592 Q 874.9 594.7 877.5 594 L 878.5 596 L 860 596 L 860 584 L 856 584 L 856 580 L 852 580 L 852 576 Q 846 578 848 572 L 840 572 L 840 568 L 836 568 Q 838 562 832 564 L 832 575.5 L 828 576 L 828 580 L 812 580 L 812 592 L 808 592 L 807.5 596 L 797.5 596 L 796 594.5 Q 799.7 592.8 796.5 591 Q 793.8 593.8 787.5 593 Q 786.3 590.8 781.5 592 L 773 595.5 L 774.5 598 L 791.5 598 L 792 600 L 788 600 L 788 604 Q 782 602 784 608 L 776.5 608 L 776 612 L 768 612 L 768 616 L 748 616 L 748 612 L 736 612 L 736 608 L 732 608 L 731.5 604 L 712 604 Q 714 598 708 600 L 708 592 Q 702 594 704 588 L 688.5 588 L 688 584 L 684 584 L 684 580 L 668 580 L 668 584 Q 662 582 664 588 L 652 588 Q 654 594 648 592 L 648 600 Q 642 598 644 604 L 616.5 604 L 615.5 608 L 600.5 608 L 599.5 612 L 584 612 L 584 616 Q 578 614 580 620 L 572 620 L 571.5 624 L 546.5 624 Q 543.3 620.2 534.5 622 L 533 624.5 L 533.5 627 Q 542.4 626.1 546.5 630 L 554.5 630 L 557.5 628 L 568 628 Q 566 634 572 632 L 572 640 L 576 640 Q 574 646 580 644 L 580 659.5 L 584 660.5 L 584 672 L 582 672 Q 583.7 677.2 580 676 L 580 684 L 572 684 L 571.5 688 L 558 688 L 558 684 L 562 683.5 L 562 656.5 L 563 655.5 L 563 636.5 L 562 632 L 557.5 631 L 558 632.5 L 560 635.5 L 560 656.5 L 559 657.5 L 558 671.5 Q 560.8 673.3 559 679.5 L 554.5 686 L 549 688.5 L 555 692.5 Q 558 697.8 557 706 Q 551.4 705 550 709.5 Q 550.8 711.8 548.5 711 L 547.5 712 L 539.5 712 L 534.5 706 Q 530.1 707.5 531 704.5 L 530 704.5 L 529.5 708 L 508 708 L 508 715.5 L 507.5 716 L 148.5 716 L 147.5 720 L 56 720 L 56 716 L 44.5 716 L 43.5 712 L 20 712 L 20 704 L 24 704 L 24 700 L 28 700 L 28 696 L 32 696 L 32 690 L 34 690 L 36.5 694 L 41 695 L 42.5 698 L 51.5 698 L 52.5 697 L 53.5 698 L 68 698 L 68.5 695 L 125.5 695 L 127.5 695 L 139.5 694 L 141 692.5 Q 139.8 689.8 138.5 692 L 133.5 691 L 45.5 691 L 43.5 691 Q 37.4 692.3 38 689.5 L 37 687 L 34 685.5 L 32.5 683 L 26 682 Q 23.9 687.2 28.5 686 L 29.5 688 L 24 688 L 24 684 L 20 684 Q 22 678 16 680 L 16 672 L 12 672 L 12 652 L 16 652 L 16 644 Q 22 646 20 640 L 31.5 640 L 32 636 L 34 636 L 33 647.5 L 34 652 L 37 650.5 L 38 637.5 L 40.5 635 L 48.5 630 L 53.5 630 L 67 623.5 Q 67.8 621.3 65.5 622 L 60.5 621 L 55 623.5 L 55.5 625 L 49.5 625 L 40 628 L 40 612 L 47.5 612 L 48 608 L 56 608 L 56 600 L 64 600 L 64 596 L 72 596 L 72 592 L 80 592 L 80 588 L 90 588 L 90 592 L 91.5 592 Q 92.6 594.8 96 594 Q 94.5 597.8 97.5 597 L 98.5 598 L 111 598 Q 108.8 592.4 114.5 594 L 118 592 L 118.5 588 L 132 588 L 132 592 L 140 592 L 140 603.5 L 144 604 L 144 612 L 148 612 L 148 616 L 152 616 Q 150 622 156 620 L 156 632 Q 162 630 160 636 L 168 636 L 168.5 640 L 188 640 L 188 647.5 L 188.5 648 L 432 648 L 432 640 L 440 640 L 440 636 L 444 635.5 L 444 600.5 L 448 599.5 L 448 576 L 444 576 L 444 564.5 L 440 563.5 L 440 552 Q 443.3 553.3 442 548.5 L 443 544 Q 447.5 545.8 446 540.5 L 447 539.5 L 447 528 Q 450.3 529.3 449 524.5 L 450 523.5 L 450 508.5 L 449 504.5 L 450 500 L 447 500 L 447 492.5 L 446 488 Q 441.5 489.8 443 484.5 L 442 483.5 L 442 476 Q 438.3 477.2 440 472 L 444 472 L 444 464 L 448 464 L 448 460 L 452 460 L 452 456 L 456 456 Q 454.3 450.8 458 452 L 458 471.5 L 462 472.5 L 462 564 L 458 564.5 L 458 583.5 L 459.5 588 L 460.5 584 L 462 592 Q 466.9 593.8 465 587.5 L 464 586.5 L 464 456.5 L 465 451.5 Q 462.3 449.8 464 443.5 L 466.5 440 L 547.5 440 L 551 441.5 Q 548.8 442.8 551.5 444 L 557.5 446 L 562.5 446 L 576 453 L 585.5 466 Q 587.8 465.3 587 467.5 L 590 471.5 L 591 489.5 L 589 497.5 L 586.5 500 Q 583.2 498.9 584 501.5 L 583 505.5 Q 584.5 508.5 586 505.5 Q 584.5 501.1 587.5 502 L 590 501 L 591.5 496 L 592.5 500 Q 595.6 493.6 595.5 484 L 596.5 488 L 598 480 L 595 480 L 595 472.5 L 594 468 Q 597.7 466.8 596 472 L 600 472 L 600 480 L 608 480 L 608 484 L 612 484 L 612 488 L 616 488 Q 614 494 620 492 Q 618 486 624 488 Q 622 494 628 492 L 628 484 L 632 484 L 632 476 L 636 476 L 636 468.5 L 640 468 L 640 460 L 648 460 L 648 456 L 652 456 L 652 452 L 656 452 Q 654 446 660 448 L 660 440 L 669.5 440 L 671.5 440 L 683.5 441 L 685.5 440 L 691 442.5 Q 690.3 444.8 692.5 444 L 696 447.5 Q 695 454.5 700 455.5 L 701 463.5 L 709.5 478 L 711 477.5 Q 709.3 484.3 712.5 486 L 715 487.5 L 715 491.5 L 721.5 501 Q 723.8 500.3 723 496.5 L 720.5 488 L 719.5 492 L 718 484 L 714 482.5 L 714 476.5 L 711 476 L 711 472.5 L 710 468 Q 705.5 469.8 707 464.5 L 706 463.5 L 706 456 Q 701.5 457.8 703 452.5 L 702 448 L 698 448 L 698 444 L 696.5 444 L 693 442 L 693.5 440 L 704 440 L 704 448 L 708 448 L 708 452 L 712 452 Q 710 458 716 456 L 716 464 L 720 464 Q 718 470 724 468 L 724 475.5 L 728 476 L 728 484 L 736 484 L 736 472 L 744 472 L 744 468 L 748 468 L 748 464 L 752 464 L 752 460 L 756 460 Q 754 454 760 456 L 760 448.5 L 762 448 L 762 475.5 L 765 476 L 765.5 472 L 766.5 516 L 767 460.5 Q 769.5 459 768 453.5 Q 765.8 452.2 767 447.5 L 770.5 440 Q 773.1 440.8 772 437.5 L 773 437.5 L 773.5 440 L 791.5 440 L 800 442 L 800 438 L 798.5 438 L 797.5 436 L 812 436 L 812 448 L 820 448 L 820 452 Q 826 450 824 456 L 831.5 456 L 832 460 L 840 460 L 840 452 Q 846 454 844 448 L 859.5 448 L 860 447.5 L 860 440 L 871.5 440 L 872.5 441 L 886.5 441 L 888.5 440 L 891.5 441 Q 892.7 438.7 897.5 440 L 899 438.5 L 897 438 L 896 432 Q 902 434 900 428 L 908 428 L 908 424 Z M 938 434 L 937 435 Q 932 434 934 438 L 931 439 Q 928 438 929 441 L 931 440 L 967 440 L 972 441 L 973 443 L 973 439 L 968 438 L 966 435 L 963 434 L 938 434 Z M 928 439 L 927 444 L 928 444 L 928 439 Z M 905 440 L 903 445 L 903 584 L 902 585 L 902 592 L 906 592 L 907 588 L 906 584 L 906 445 L 905 440 Z M 670 442 L 668 444 Q 665 443 666 447 L 662 448 L 661 453 Q 663 458 658 456 L 657 461 Q 659 466 654 464 L 654 474 L 652 476 Q 649 475 650 483 Q 649 485 645 484 L 646 490 Q 645 493 641 492 L 642 499 L 641 499 Q 642 494 638 496 L 638 506 L 636 508 Q 633 507 634 514 L 630 516 L 630 523 L 629 524 L 631 524 L 636 517 L 645 494 L 649 490 L 651 483 L 656 477 L 661 467 L 661 464 L 665 457 L 665 452 L 668 450 L 670 447 L 670 442 Z M 804 444 L 802 446 L 802 449 L 807 455 L 815 460 L 815 463 L 822 470 L 822 472 L 826 474 L 827 477 Q 828 479 832 478 L 835 484 L 841 489 Q 842 485 839 486 Q 840 480 836 478 Q 833 479 834 476 Q 833 473 832 475 L 827 472 L 826 470 Q 827 467 824 468 L 821 460 L 820 462 L 817 456 L 816 458 L 813 452 L 812 454 L 809 448 L 808 450 L 806 447 Q 807 443 804 444 Z M 867 444 L 866 449 L 866 460 L 867 461 L 867 476 L 869 476 L 870 460 L 871 476 L 871 456 L 872 455 L 872 444 L 867 444 Z M 922 444 L 923 449 L 923 464 L 925 464 L 925 445 L 922 444 Z M 974 444 L 974 452 L 975 453 L 975 480 L 977 480 L 977 473 L 978 472 L 978 445 L 974 444 Z M 476 446 L 473 447 L 470 451 L 470 584 L 476 587 L 547 587 L 548 586 L 561 585 L 578 577 L 589 565 L 593 554 L 593 543 L 587 530 L 577 519 L 570 517 Q 567 516 568 512 L 578 504 L 584 495 L 586 489 L 586 478 L 581 467 L 571 456 L 558 450 L 544 447 Q 539 448 538 446 L 476 446 Z M 678 446 L 672 452 L 653 493 L 649 498 L 639 518 L 639 521 L 635 527 L 624 552 L 620 557 Q 616 571 608 581 L 608 586 L 611 587 Q 621 589 628 586 L 633 579 L 644 554 L 650 549 L 700 549 L 702 550 L 706 555 L 713 573 L 719 584 L 724 587 L 751 587 L 753 585 L 753 581 L 745 568 L 740 554 L 732 540 L 726 525 L 722 519 L 721 514 L 690 450 Q 687 444 678 446 Z M 778 446 L 774 451 L 774 584 L 779 587 Q 787 588 793 586 L 795 583 Q 796 578 794 577 L 794 557 L 795 556 Q 797 549 794 548 Q 792 541 795 540 L 795 503 Q 792 501 794 495 L 798 493 L 819 516 L 880 586 L 887 590 L 896 589 L 898 586 L 898 451 L 895 446 L 881 446 L 878 447 L 876 453 L 877 457 L 877 518 L 876 519 L 877 521 L 877 532 Q 876 534 873 533 L 800 452 L 793 446 L 778 446 Z M 938 446 L 936 447 L 933 451 L 933 584 L 939 587 L 963 587 L 966 586 L 968 584 L 968 532 L 970 530 L 974 531 L 988 543 L 1033 585 L 1038 587 L 1070 587 Q 1072 586 1071 583 L 993 512 Q 988 511 989 504 L 1028 472 L 1044 457 L 1049 455 L 1052 451 Q 1053 447 1051 446 L 1034 446 L 1021 455 L 1018 459 L 1002 472 Q 999 471 1000 474 L 971 497 L 968 496 L 968 451 L 967 449 L 964 446 L 938 446 Z M 1001 462 L 999 465 L 1003 464 Q 1004 461 1001 462 Z M 997 466 L 994 469 Q 995 471 993 470 L 991 473 L 996 472 L 999 468 Q 1000 465 997 466 Z M 986 474 L 986 477 L 991 475 L 986 474 Z M 984 478 L 982 481 L 985 480 Q 986 477 984 478 Z M 975 482 L 974 489 L 980 484 L 980 482 L 975 482 Z M 842 489 L 841 492 L 846 496 L 846 492 L 842 489 Z M 725 496 L 723 501 Q 724 503 721 502 L 724 508 L 724 513 L 727 517 L 729 520 L 730 520 L 730 509 L 729 508 L 727 511 Q 727 502 725 496 Z M 799 500 L 800 509 L 799 513 L 799 592 Q 803 593 801 588 L 803 588 L 803 569 L 802 568 L 802 513 L 801 512 L 802 503 L 799 500 Z M 997 503 Q 994 504 995 508 L 998 509 L 999 505 Q 1000 502 997 503 Z M 857 506 Q 855 509 858 508 L 857 506 Z M 581 507 L 575 511 Q 572 513 575 514 L 580 513 Q 579 510 582 509 Q 583 506 581 507 Z M 999 510 L 999 512 L 1002 513 Q 1004 509 999 510 Z M 865 514 Q 862 516 865 517 L 866 517 L 865 514 Z M 1004 514 L 1006 517 Q 1008 516 1007 520 L 1016 526 Q 1015 529 1018 528 L 1020 532 Q 1022 535 1027 535 L 1033 541 Q 1035 540 1034 543 L 1039 546 L 1043 552 L 1049 556 L 1051 556 L 1059 567 Q 1065 576 1078 579 L 1078 576 L 1074 573 Q 1069 574 1071 570 L 1069 570 L 1065 564 L 1064 566 L 1061 560 L 1060 562 L 1058 558 Q 1052 560 1054 555 L 1052 554 Q 1049 555 1050 551 L 1048 550 Q 1045 551 1046 548 L 1042 546 L 1041 542 Q 1036 543 1038 539 L 1036 538 Q 1033 539 1034 535 L 1032 534 Q 1026 536 1027 533 L 1024 530 L 1022 528 L 1019 526 L 1016 522 Q 1012 523 1014 519 L 1012 518 Q 1009 519 1010 517 L 1004 514 Z M 583 515 Q 582 519 586 521 Q 588 520 587 523 L 591 525 L 592 528 Q 591 530 594 529 Q 595 524 592 523 Q 589 524 590 521 L 587 518 Q 584 519 585 515 L 583 515 Z M 868 518 L 867 520 L 869 521 L 868 518 Z M 814 519 L 814 522 Q 818 523 817 521 L 814 519 Z M 733 520 L 730 523 L 732 527 Q 731 529 734 528 L 735 529 L 734 522 L 733 520 Z M 872 521 L 870 523 L 871 525 L 873 526 L 872 521 Z M 626 524 L 627 533 L 629 528 L 629 526 Q 630 523 626 524 Z M 818 524 Q 817 527 820 526 Q 821 523 818 524 Z M 597 529 L 595 532 L 596 536 L 598 537 Q 599 531 597 529 Z M 735 529 L 736 535 L 738 536 L 737 531 Q 738 528 735 529 Z M 623 533 L 622 536 L 623 540 L 625 537 Q 626 532 623 533 Z M 739 537 L 740 545 L 742 546 Q 744 540 741 539 Q 742 536 739 537 Z M 599 539 L 600 544 L 600 553 L 599 554 Q 598 556 601 555 L 601 546 L 602 545 L 601 541 Q 602 538 599 539 Z M 975 540 L 975 546 L 979 545 L 977 542 L 975 540 Z M 619 541 L 618 545 Q 616 551 620 550 L 621 548 Q 622 540 619 541 Z M 745 550 L 744 553 L 745 553 L 745 550 Z M 987 551 L 987 553 L 990 553 L 987 551 Z M 616 552 L 614 554 Q 612 560 617 558 Q 618 553 616 552 Z M 649 554 L 647 556 L 648 562 L 649 560 L 654 557 L 649 554 Z M 992 554 L 991 557 L 994 558 Q 997 559 996 556 L 992 554 Z M 696 555 L 695 556 L 657 557 L 672 557 L 673 558 L 684 558 L 685 557 L 695 557 L 696 558 Q 699 557 698 560 L 701 562 L 703 562 L 702 558 Q 701 554 696 555 Z M 748 555 Q 746 558 749 559 L 750 559 L 748 555 Z M 975 556 L 975 580 L 974 581 L 974 588 L 976 588 L 977 592 L 979 584 Q 977 576 978 565 L 977 564 L 977 557 L 975 556 Z M 997 560 L 998 564 L 1001 565 L 1005 570 Q 1008 569 1006 573 L 1008 573 L 1010 577 L 1014 578 L 1017 582 Q 1019 581 1018 585 L 1022 586 L 1025 590 Q 1027 589 1026 593 L 1032 595 Q 1034 594 1033 597 L 1035 598 L 1076 598 L 1077 595 L 1064 592 L 1047 592 L 1046 593 L 1031 591 L 1028 587 Q 1025 588 1026 586 L 1022 582 Q 1018 581 1018 577 L 1006 568 L 1001 562 Q 1002 558 997 560 Z M 597 561 L 595 563 Q 593 568 597 567 L 598 565 Q 599 560 597 561 Z M 645 562 L 642 568 L 643 571 Q 642 574 646 572 L 646 563 L 645 562 Z M 752 564 L 751 569 L 754 570 Q 755 565 752 564 Z M 607 565 L 606 572 L 607 572 Q 606 569 609 570 L 609 565 L 607 565 Z M 704 565 L 703 572 L 704 572 L 704 565 Z M 923 568 L 923 584 L 922 585 Q 920 590 926 588 L 925 584 L 925 569 L 923 568 Z M 707 569 L 705 573 L 707 580 L 709 579 L 707 569 Z M 592 570 L 582 578 Q 583 580 581 579 L 578 583 L 576 585 L 570 586 L 565 590 L 560 591 L 557 590 L 545 593 L 543 592 L 529 592 L 528 593 L 524 592 Q 519 591 520 594 L 556 594 L 557 595 L 567 594 L 568 591 L 573 590 Q 578 592 576 586 L 580 585 Q 583 586 581 582 L 588 578 L 589 575 L 593 572 Q 594 569 592 570 Z M 805 571 L 804 576 L 805 576 L 805 571 Z M 602 573 L 602 578 L 604 578 L 606 575 L 602 573 Z M 642 573 L 639 574 L 638 581 Q 633 584 633 590 L 637 588 L 638 588 L 638 584 L 642 584 L 642 573 Z M 755 574 L 756 578 Q 759 579 758 576 L 755 574 Z M 711 578 L 709 580 L 710 582 L 710 588 L 714 588 Q 715 582 712 580 Q 713 577 711 578 Z M 598 579 L 598 588 L 601 588 L 601 581 L 598 579 Z M 1079 579 Q 1077 583 1080 585 L 1079 589 Q 1078 594 1082 592 L 1083 588 L 1082 580 L 1079 579 Z M 767 580 L 766 585 L 767 585 L 767 580 Z M 760 581 L 760 588 L 762 588 L 762 582 L 760 581 Z M 715 588 L 714 593 L 721 595 L 723 598 L 755 598 L 755 597 L 754 595 L 744 595 L 748 594 L 746 592 L 730 592 L 729 593 Q 719 593 715 588 Z M 927 588 Q 925 593 929 594 Q 934 592 933 597 L 935 598 L 969 598 L 970 595 L 963 592 L 946 592 L 945 593 L 932 592 L 927 590 L 927 588 Z M 473 592 L 472 594 L 475 594 L 473 592 Z M 483 592 L 481 593 L 481 594 L 492 594 L 483 592 Z M 614 592 Q 611 595 605 595 Q 602 597 605 598 L 628 598 L 630 597 L 629 596 L 631 592 L 625 593 L 614 592 Z M 772 592 Q 770 595 773 594 L 772 592 Z M 119 595 L 119 597 L 114 598 Q 109 597 111 601 L 105 602 L 103 604 L 107 606 L 110 606 L 115 601 L 124 600 Q 125 597 123 598 Q 120 597 122 596 L 119 595 Z M 476 595 L 475 597 L 482 597 Q 481 594 476 595 Z M 129 600 L 127 607 L 129 610 Q 132 609 131 612 L 135 614 L 136 616 L 137 624 L 138 624 Q 137 619 140 620 L 141 624 L 142 620 L 142 616 L 138 616 L 138 612 L 137 612 Q 132 611 133 605 L 132 605 Q 133 607 130 606 L 129 600 Z M 480 602 L 478 605 L 483 606 L 485 605 Q 489 606 488 604 Q 486 600 480 602 Z M 97 606 L 94 608 L 95 610 L 86 611 L 86 612 L 96 612 L 104 607 L 97 606 Z M 119 606 L 92 619 L 84 621 L 80 624 L 75 625 L 46 638 Q 41 639 42 646 L 47 649 L 117 649 L 127 652 L 131 659 Q 132 666 129 669 L 123 673 L 32 673 L 31 676 L 32 678 Q 37 684 46 688 L 50 687 L 134 687 L 145 681 L 148 681 Q 150 686 157 687 L 477 687 L 486 679 L 496 687 L 531 687 L 532 686 L 544 686 L 549 683 L 552 679 L 552 653 L 553 652 L 553 639 L 552 637 L 544 633 L 538 633 L 534 638 L 535 643 L 535 670 L 531 673 L 494 673 L 491 671 L 489 671 L 489 638 L 487 635 L 475 633 L 472 636 L 472 670 L 468 673 L 156 673 L 153 672 L 150 670 Q 151 660 147 656 L 140 649 L 124 641 L 113 640 L 112 639 L 98 639 L 97 638 Q 94 639 95 637 L 105 630 L 111 629 Q 115 625 123 624 L 129 620 L 128 615 L 119 606 Z M 475 606 L 472 609 Q 469 608 470 612 L 466 612 L 465 624 L 468 625 Q 470 624 469 627 L 473 627 L 474 628 Q 475 624 471 626 L 470 623 L 470 615 L 472 614 L 473 612 L 473 610 L 475 610 L 478 608 Q 479 605 475 606 Z M 488 606 L 488 608 L 494 611 L 494 609 Q 493 605 488 606 Z M 483 610 L 481 611 L 474 619 L 475 622 L 480 626 L 485 626 L 490 621 L 490 616 L 483 610 Z M 81 614 L 80 615 Q 72 613 74 618 L 69 619 L 69 620 Q 74 622 76 619 Q 78 620 77 617 L 85 616 L 86 615 L 81 614 Z M 499 617 Q 498 620 501 619 Q 502 616 499 617 Z M 498 621 L 495 625 L 489 628 Q 486 630 489 631 L 491 630 L 493 631 L 494 633 L 494 630 L 498 628 L 498 621 Z M 465 627 L 464 628 L 462 629 L 462 640 L 464 641 L 463 636 Q 462 631 465 630 L 465 627 Z M 124 628 Q 120 632 113 633 L 113 634 L 123 634 L 124 633 L 124 636 L 128 637 L 132 636 L 130 634 Q 126 635 127 632 L 127 630 L 124 628 Z M 526 628 L 525 633 L 526 648 L 528 652 L 528 633 L 529 632 Q 531 626 526 628 Z M 460 631 L 459 635 L 460 635 L 460 631 Z M 495 632 L 497 648 L 498 640 L 497 636 Q 498 631 495 632 Z M 524 632 L 523 636 L 524 636 L 524 632 Z M 108 634 L 108 635 L 110 635 L 108 634 Z M 565 636 L 564 656 L 565 656 L 565 636 Z M 131 638 L 132 640 L 138 640 Q 137 636 131 638 Z M 139 642 L 141 645 Q 144 644 143 647 L 150 651 Q 151 647 149 646 Q 143 648 145 643 L 139 642 Z M 153 653 L 152 656 L 154 657 L 153 653 Z M 47 654 L 46 655 Q 40 653 41 657 L 44 658 L 60 658 L 61 657 L 70 657 L 64 655 L 49 655 L 47 654 Z M 116 655 Q 115 658 119 657 L 121 657 L 123 658 L 124 663 L 124 657 Q 122 653 116 655 Z M 497 656 L 495 658 L 495 665 Q 492 666 493 669 L 512 669 L 513 668 L 530 669 L 528 663 Q 525 662 526 665 L 525 666 L 498 666 L 497 662 L 498 660 L 497 656 Z M 155 657 Q 157 660 156 667 Q 154 668 157 669 L 467 669 L 467 666 L 465 665 L 462 666 L 449 666 L 448 665 L 433 665 L 432 662 L 177 662 L 176 665 L 162 665 Q 163 661 158 663 L 158 659 L 155 657 Z M 30 665 L 27 667 Q 24 666 25 669 L 27 668 L 36 670 L 41 669 L 123 669 L 124 666 L 30 665 Z M 24 668 Q 25 674 18 672 L 18 676 L 22 676 Q 20 681 24 680 L 24 668 Z M 486 686 L 483 690 L 487 689 L 486 686 Z M 145 687 L 142 688 Q 141 692 146 690 L 145 687 Z M 536 690 L 535 691 L 514 691 L 513 692 L 512 691 L 490 691 Q 487 693 490 694 L 516 694 L 516 698 L 526 698 L 526 704 L 530 704 L 532 696 L 536 693 L 536 690 Z M 147 691 L 147 693 L 149 694 L 172 694 L 173 695 Q 178 694 176 698 L 440 698 L 441 694 L 482 694 Q 485 693 482 691 L 470 691 L 469 692 L 466 691 L 449 691 L 448 692 L 443 691 L 147 691 Z M 544 691 L 540 693 L 536 698 Q 537 705 543 707 L 547 706 L 552 700 L 551 697 L 544 691 Z " /><path fill="rgb(225,237,233)" stroke="rgb(225,237,233)" stroke-width="1" opacity="0.10980392156862745" d="M 18 440 L 49.5 440 L 54.5 441 L 57.5 440 L 62 441 Q 61.3 445.7 65.5 447 Q 67.8 446.3 67 448.5 L 83 479.5 L 84 486 L 87 487.5 L 90.5 495 Q 92.8 494.3 92 496.5 L 94 503.5 L 98 508.5 L 99 514 L 102 515.5 L 102 521.5 L 107 527.5 Q 106.4 532.6 109.5 534 L 112 532.5 L 114.5 526 Q 116.8 526.8 116 524.5 L 117 519.5 L 121 514.5 L 121 511.5 L 134.5 486 Q 137.1 486.8 136 483.5 L 138.5 478 Q 141.1 478.8 140 475.5 L 149 457.5 L 151 450 Q 153.7 451.1 153 448.5 L 156.5 442 L 165.5 440 L 167.5 440 Q 175.7 438.7 180.5 441 L 181.5 440 L 189.5 440 L 193.5 441 L 196 443.5 L 196 586.5 L 193.5 591 L 190.5 592 L 155.5 592 L 152 590 L 152 582.5 L 153 581.5 L 153 514.5 L 154 513.5 L 152.5 513 L 147 521.5 L 140.5 538 Q 138.3 537.3 139 539.5 L 134.5 550 Q 132.3 549.3 133 551.5 L 132 558 Q 128.2 557.3 127 560.5 L 127 564.5 L 122 570.5 Q 122.6 575.9 121 578 Q 118.3 576.9 119 579.5 L 115 591 L 107.5 593 L 106.5 592 L 95.5 592 L 93 591 L 91 582 L 88 580.5 L 84 570 Q 80 571.4 82 564.5 L 78 559.5 L 78 556.5 L 73 549.5 L 65.5 534 L 63 532.5 L 62 525.5 L 55.5 514 L 55 518.5 L 56 519.5 L 56 586.5 L 53.5 591 L 50.5 592 L 27.5 592 L 26.5 591 L 18.5 591 L 17 589.5 L 16 580.5 L 17 579.5 L 17 501.5 L 15 497.5 L 15 455.5 L 17 450.5 L 18 440 Z M 29 446 L 22 448 L 21 451 L 21 584 L 25 586 L 42 586 L 43 587 Q 48 587 51 584 L 51 516 L 50 515 Q 48 504 53 500 L 55 501 L 61 516 L 65 521 L 96 583 L 102 586 L 109 585 L 113 581 L 114 577 L 119 570 L 120 565 Q 138 535 152 502 Q 153 498 158 499 L 159 503 Q 161 509 158 511 L 158 583 L 159 585 L 162 586 L 188 586 L 191 581 L 190 578 L 190 459 L 191 458 L 190 450 L 187 447 L 162 447 L 156 454 L 113 541 L 108 540 L 62 451 L 59 447 L 29 446 Z " /><path fill="rgb(225,237,233)" stroke="rgb(225,237,233)" stroke-width="1" opacity="0.10980392156862745" d="M 234.5 440 Q 242 442.5 253.5 441 L 256.5 440 L 266.5 442 L 269 444.5 L 269 583.5 L 268 588.5 L 265.5 591 L 263.5 592 L 228.5 592 L 223 590 L 222 584.5 Q 224.7 582.8 223 576.5 L 222 575.5 L 222 457.5 L 223 453.5 Q 220.8 452.2 222 447.5 L 226.5 442 L 234.5 440 Z M 234 447 Q 230 448 230 453 L 230 455 L 230 578 L 229 579 L 230 584 L 234 586 L 259 586 L 261 585 L 262 583 L 262 452 L 261 450 L 259 447 L 234 447 Z " /><path fill="rgb(225,237,233)" stroke="rgb(225,237,233)" stroke-width="1" opacity="0.10980392156862745" d="M 301.5 440 L 309.5 441 L 310.5 440 L 345.5 440 L 348.5 441 L 349.5 440 L 366.5 440 Q 370.5 443 377.5 443 L 382.5 446 L 390.5 446 Q 396.5 451 406.5 452 L 415.5 460 Q 420 459 421 461.5 L 421 463.5 L 422.5 466 L 428 469.5 Q 427.5 473.5 430.5 474 Q 435.9 472.1 435 475.5 Q 437.3 476.7 436 481.5 L 440 487.5 L 440 490 L 442 490.5 L 442 497.5 L 444 503.5 L 444 509.5 L 446 511.5 L 446 516.5 L 444 519.5 L 444 528.5 L 442 534.5 L 442 540.5 L 438 546.5 Q 438.8 552.3 435.5 554 L 433 555.5 L 428.5 562 Q 426.3 561.3 427 563.5 L 422.5 569 L 415.5 574 L 413.5 574 L 408.5 579 L 402 581.5 L 399.5 585 Q 390.4 585.9 384.5 590 L 373.5 590 Q 369.2 593.7 359.5 592 L 357.5 592 L 299.5 592 L 297 589.5 L 297 579.5 L 295 577.5 L 295 453.5 Q 292.8 452.2 294 447.5 L 295 443 L 301.5 440 Z M 304 447 L 301 448 L 300 451 L 300 584 L 303 586 L 370 586 Q 371 583 378 585 L 384 582 L 398 579 L 415 569 L 429 554 L 434 545 L 440 528 L 440 506 Q 438 504 439 500 L 428 478 Q 419 467 408 460 L 401 456 Q 391 455 385 451 L 368 449 L 364 447 L 304 447 Z " /><path fill="rgb(225,237,233)" stroke="rgb(225,237,233)" stroke-width="1" opacity="0.10980392156862745" d="M 338.5 459 L 349.5 459 L 350.5 460 L 366.5 461 L 379.5 467 L 393 479.5 L 402 499.5 L 403 504.5 L 403 527.5 L 398 545.5 Q 394.8 553.8 388.5 559 Q 381.1 568.1 368.5 572 L 358.5 574 L 337.5 574 L 333 570.5 L 333 462.5 L 335.5 460 L 338.5 459 Z M 340 464 L 337 468 L 340 472 L 340 562 L 338 568 L 342 567 L 357 567 L 358 568 L 365 568 Q 368 562 378 562 L 389 552 L 388 550 L 389 547 L 393 546 L 394 540 L 398 534 L 398 501 L 393 493 L 393 489 L 389 484 L 389 482 L 376 471 L 374 472 L 370 469 Q 361 469 357 465 L 340 464 Z " /><path fill="rgb(225,237,233)" stroke="rgb(225,237,233)" stroke-width="1" opacity="0.10980392156862745" d="M 508.5 459 L 521.5 459 L 522.5 460 L 533.5 461 Q 542.8 464.2 548 471.5 Q 553.2 476.8 552 488.5 Q 549.3 498.8 541.5 504 L 530.5 508 L 508.5 508 L 505 505.5 L 504 503.5 L 504 462.5 L 508.5 459 Z M 508 464 L 509 466 L 519 466 L 519 464 L 508 464 Z M 539 471 L 541 473 Q 542 470 539 471 Z M 544 475 L 543 479 L 545 478 L 544 475 Z M 543 491 L 543 493 L 545 492 L 543 491 Z M 512 498 L 510 500 L 511 502 Q 510 504 513 503 L 514 500 L 512 498 Z " /><path fill="rgb(225,237,233)" stroke="rgb(225,237,233)" stroke-width="1" opacity="0.10980392156862745" d="M 675.5 494 L 678 495 L 683 508.5 L 687 513.5 L 693 528.5 L 696 532.5 L 696 535.5 L 694.5 537 L 657.5 537 Q 654.5 536.5 655 532.5 L 673.5 495 L 675.5 494 Z M 676 500 L 675 507 L 677 507 L 676 500 Z M 666 524 L 660 533 L 668 533 L 670 533 L 689 533 L 690 532 L 688 528 L 687 530 L 685 531 L 673 531 L 672 530 L 669 531 L 666 530 L 666 524 Z " /><path fill="rgb(225,237,233)" stroke="rgb(225,237,233)" stroke-width="1" opacity="0.10980392156862745" d="M 507.5 521 L 529.5 521 Q 530.7 523.3 535.5 522 Q 545.8 524.7 552 531.5 Q 559.2 538.3 557 554.5 Q 554.9 562.9 548.5 567 L 543.5 570 L 530.5 573 L 506.5 573 L 504 570.5 L 504 524.5 L 505 522 L 507.5 521 Z M 513 527 L 510 529 L 514 530 L 513 527 Z M 535 528 L 537 530 L 540 530 Q 539 527 535 528 Z M 541 531 L 541 533 L 544 534 Q 547 535 546 533 Q 545 530 541 531 Z M 551 539 L 550 548 L 551 549 Q 552 553 550 555 L 551 557 L 552 556 Q 551 551 553 550 L 552 541 L 551 539 Z M 547 558 L 543 563 Q 546 564 545 561 L 549 560 Q 550 557 547 558 Z M 535 563 Q 534 566 537 565 Q 538 562 535 563 Z M 510 565 Q 507 567 510 568 Q 515 570 514 567 L 512 565 L 510 565 Z " /><path fill="rgb(225,237,233)" stroke="rgb(225,237,233)" stroke-width="1" opacity="0.10980392156862745" d="M 624.5 620 L 640.5 620 L 641 623.5 Q 643.3 626.7 649.5 626 L 652 628.5 Q 651 633 653.5 634 L 656 635.5 L 656 638 L 658 638.5 L 658 667.5 L 659.5 669 L 938 669 L 938 627.5 L 939.5 626 L 950.5 628 L 954.5 630 L 961.5 630 L 963 631.5 L 964 643.5 L 965 644.5 L 965 659.5 L 963 670 L 1007.5 670 L 1012 667.5 L 1016 659.5 L 1016 652.5 L 1015 648.5 L 1019 638.5 L 1020 630 Q 1023.7 631.5 1023 628.5 L 1030.5 621 L 1035.5 620 L 1036.5 621 L 1045.5 621 Q 1047 618.5 1052.5 620 L 1054 623.5 L 1056 626.5 L 1062 631.5 L 1063.5 634 Q 1065.8 633.3 1065 635.5 L 1071 640.5 L 1071 642 L 1075 642 L 1075 643.5 Q 1077.2 644.8 1076 649.5 L 1079 654.5 L 1079 681.5 L 1071.5 691 L 1063.5 696 L 1052.5 696 L 1042 688.5 L 1040.5 686 L 1037 683.5 L 1033.5 679 Q 1030.2 677.9 1031 680.5 L 1027.5 686 Q 1021.5 686.5 1019.5 691 L 961.5 691 L 960.5 692 L 958 686 Q 954.2 684.5 955 687.5 Q 949.3 690.2 954.5 693 L 960 695.5 L 961 697.5 L 961 708.5 L 954.5 714 L 943.5 714 L 941 710 L 937.5 708 L 932.5 714 L 919.5 714 L 919 712.5 L 918 710 Q 914.3 711.5 915 708.5 L 914 707.5 L 914 698.5 L 920 691.5 L 590.5 691 L 587 690 Q 585 687 586 679.5 L 590 668.5 L 592.5 666 L 599.5 664 Q 602.3 665.3 600 666.5 Q 599.3 668.8 601.5 668 L 602.5 669 L 632 669 L 630 661.5 L 630 650.5 L 631 644 L 628.5 643 L 616.5 643 Q 612.6 645.9 606 645 L 606 630.5 L 607.5 629 L 612.5 626 L 620.5 625 L 623 622.5 L 624.5 620 Z M 1037 626 L 1030 630 L 1023 640 L 1022 653 L 1020 657 L 1019 667 Q 1016 673 1009 674 L 962 674 L 959 672 L 960 667 L 960 639 L 959 636 L 953 634 L 946 634 L 943 637 L 943 671 L 941 673 L 657 673 L 652 668 L 652 645 L 648 635 Q 644 630 638 628 L 627 628 L 614 632 L 611 636 L 612 639 Q 618 640 621 637 L 631 638 L 634 640 L 638 648 L 638 669 L 637 671 L 634 673 L 597 673 L 592 682 L 595 686 L 947 686 L 956 679 L 958 679 L 964 686 L 1017 686 L 1025 681 L 1026 679 L 1033 673 L 1036 674 L 1038 678 Q 1045 686 1056 691 L 1061 691 L 1068 687 L 1076 676 L 1076 663 L 1073 655 Q 1068 643 1060 636 L 1048 627 L 1037 626 Z M 932 691 L 932 693 L 935 694 L 936 698 Q 939 699 938 697 L 944 692 L 932 691 Z M 923 696 L 919 701 L 921 708 Q 922 711 928 710 L 932 705 L 931 699 Q 929 695 923 696 Z M 946 696 Q 941 697 942 705 L 948 710 L 950 710 L 955 705 L 955 700 Q 953 695 946 696 Z " /><path fill="rgb(225,237,233)" stroke="rgb(225,237,233)" stroke-width="1" opacity="0.10980392156862745" d="M 1046.5 641 Q 1054.9 640.1 1058 644.5 L 1062 653.5 L 1062 665.5 L 1057.5 672 L 1051.5 675 L 1046.5 675 L 1036 666.5 Q 1033.3 662.7 1035 654.5 L 1038 646.5 L 1040.5 644 L 1046.5 641 Z M 1051 647 L 1042 649 L 1041 658 L 1041 660 L 1042 668 L 1046 670 Q 1053 671 1056 669 L 1058 664 L 1058 658 L 1055 649 Q 1054 646 1051 647 Z " /></svg>